<svg id="EC" xmlns="http://www.w3.org/2000/svg" width="130mm" height="40mm" viewBox="0 0 368.5 113.39"><defs><style>.cls-1{fill:#231f20;}</style></defs><path class="cls-1" d="M108.58,48.8a35.3,35.3,0,0,1,3.14-3.35,7.15,7.15,0,0,1,9.87.59,7.44,7.44,0,0,1,.1,10.08C118.4,59.63,115,63,111.62,66.46c-.94,1-1.88,1.9-2.79,2.87-.38.4-.63.41-1,0-4.25-4.36-8.57-8.66-12.76-13.09a7.38,7.38,0,0,1,3.83-12.34,7.5,7.5,0,0,1,6.92,2.26C106.64,47,107.49,47.77,108.58,48.8Z"/><path class="cls-1" d="M143.45,48.8a35.3,35.3,0,0,1,3.14-3.35,7.15,7.15,0,0,1,9.87.59,7.44,7.44,0,0,1,.1,10.08c-3.29,3.51-6.71,6.9-10.07,10.34-.94,1-1.88,1.9-2.8,2.87-.37.4-.62.41-1,0-4.25-4.36-8.57-8.66-12.76-13.09a7.38,7.38,0,0,1,3.83-12.34,7.48,7.48,0,0,1,6.91,2.26Z"/><path class="cls-1" d="M178.32,48.8a35.3,35.3,0,0,1,3.14-3.35,7.15,7.15,0,0,1,9.87.59,7.44,7.44,0,0,1,.1,10.08c-3.29,3.51-6.71,6.9-10.07,10.34-.94,1-1.88,1.9-2.8,2.87-.37.4-.62.41-1,0C173.3,65,169,60.68,164.79,56.25a7.38,7.38,0,0,1,3.83-12.34,7.48,7.48,0,0,1,6.91,2.26C176.37,47,177.23,47.77,178.32,48.8Z"/></svg>