solid OpenSCAD_Model
  facet normal -1 0 0
    outer loop
      vertex 30 90 0
      vertex 30 100 0.0999994
      vertex 30 100 0
    endloop
  endfacet
  facet normal -1 -0 0
    outer loop
      vertex 30 100 0.0999994
      vertex 30 90 0
      vertex 30 90 0.0999994
    endloop
  endfacet
  facet normal -0 0 1
    outer loop
      vertex 30 100 0.0999994
      vertex 30.8 90 0.0999994
      vertex 30.8 100 0.0999994
    endloop
  endfacet
  facet normal 0 0 1
    outer loop
      vertex 30.8 90 0.0999994
      vertex 30 100 0.0999994
      vertex 30 90 0.0999994
    endloop
  endfacet
  facet normal 1 -0 0
    outer loop
      vertex 30.8 90 0.0999994
      vertex 30.8 100 0
      vertex 30.8 100 0.0999994
    endloop
  endfacet
  facet normal 1 0 0
    outer loop
      vertex 30.8 100 0
      vertex 30.8 90 0.0999994
      vertex 30.8 90 0
    endloop
  endfacet
  facet normal 0 0 -1
    outer loop
      vertex 30 90 0
      vertex 30.8 100 0
      vertex 30.8 90 0
    endloop
  endfacet
  facet normal -0 0 -1
    outer loop
      vertex 30.8 100 0
      vertex 30 90 0
      vertex 30 100 0
    endloop
  endfacet
  facet normal 0 -1 0
    outer loop
      vertex 30 90 0
      vertex 30.8 90 0.0999994
      vertex 30 90 0.0999994
    endloop
  endfacet
  facet normal 0 -1 -0
    outer loop
      vertex 30.8 90 0.0999994
      vertex 30 90 0
      vertex 30.8 90 0
    endloop
  endfacet
  facet normal 0 1 -0
    outer loop
      vertex 30.8 100 0
      vertex 30 100 0.0999994
      vertex 30.8 100 0.0999994
    endloop
  endfacet
  facet normal 0 1 0
    outer loop
      vertex 30 100 0.0999994
      vertex 30.8 100 0
      vertex 30 100 0
    endloop
  endfacet
  facet normal -1 0 0
    outer loop
      vertex 31 90 0
      vertex 31 100 0.0999994
      vertex 31 100 0
    endloop
  endfacet
  facet normal -1 -0 0
    outer loop
      vertex 31 100 0.0999994
      vertex 31 90 0
      vertex 31 90 0.0999994
    endloop
  endfacet
  facet normal -0 0 1
    outer loop
      vertex 31 100 0.0999994
      vertex 31.8 90 0.0999994
      vertex 31.8 100 0.0999994
    endloop
  endfacet
  facet normal 0 0 1
    outer loop
      vertex 31.8 90 0.0999994
      vertex 31 100 0.0999994
      vertex 31 90 0.0999994
    endloop
  endfacet
  facet normal 1 -0 0
    outer loop
      vertex 31.8 90 0.0999994
      vertex 31.8 100 0
      vertex 31.8 100 0.0999994
    endloop
  endfacet
  facet normal 1 0 0
    outer loop
      vertex 31.8 100 0
      vertex 31.8 90 0.0999994
      vertex 31.8 90 0
    endloop
  endfacet
  facet normal 0 1 -0
    outer loop
      vertex 31.8 100 0
      vertex 31 100 0.0999994
      vertex 31.8 100 0.0999994
    endloop
  endfacet
  facet normal 0 1 0
    outer loop
      vertex 31 100 0.0999994
      vertex 31.8 100 0
      vertex 31 100 0
    endloop
  endfacet
  facet normal 0 0 -1
    outer loop
      vertex 31 90 0
      vertex 31.8 100 0
      vertex 31.8 90 0
    endloop
  endfacet
  facet normal -0 0 -1
    outer loop
      vertex 31.8 100 0
      vertex 31 90 0
      vertex 31 100 0
    endloop
  endfacet
  facet normal 0 -1 0
    outer loop
      vertex 31 90 0
      vertex 31.8 90 0.0999994
      vertex 31 90 0.0999994
    endloop
  endfacet
  facet normal 0 -1 -0
    outer loop
      vertex 31.8 90 0.0999994
      vertex 31 90 0
      vertex 31.8 90 0
    endloop
  endfacet
  facet normal -1 0 0
    outer loop
      vertex 32 90 0
      vertex 32 100 0.0999994
      vertex 32 100 0
    endloop
  endfacet
  facet normal -1 -0 0
    outer loop
      vertex 32 100 0.0999994
      vertex 32 90 0
      vertex 32 90 0.0999994
    endloop
  endfacet
  facet normal -0 0 1
    outer loop
      vertex 32 100 0.0999994
      vertex 32.8 90 0.0999994
      vertex 32.8 100 0.0999994
    endloop
  endfacet
  facet normal 0 0 1
    outer loop
      vertex 32.8 90 0.0999994
      vertex 32 100 0.0999994
      vertex 32 90 0.0999994
    endloop
  endfacet
  facet normal 1 -0 0
    outer loop
      vertex 32.8 90 0.0999994
      vertex 32.8 100 0
      vertex 32.8 100 0.0999994
    endloop
  endfacet
  facet normal 1 0 0
    outer loop
      vertex 32.8 100 0
      vertex 32.8 90 0.0999994
      vertex 32.8 90 0
    endloop
  endfacet
  facet normal 0 0 -1
    outer loop
      vertex 32 90 0
      vertex 32.8 100 0
      vertex 32.8 90 0
    endloop
  endfacet
  facet normal -0 0 -1
    outer loop
      vertex 32.8 100 0
      vertex 32 90 0
      vertex 32 100 0
    endloop
  endfacet
  facet normal 0 -1 0
    outer loop
      vertex 32 90 0
      vertex 32.8 90 0.0999994
      vertex 32 90 0.0999994
    endloop
  endfacet
  facet normal 0 -1 -0
    outer loop
      vertex 32.8 90 0.0999994
      vertex 32 90 0
      vertex 32.8 90 0
    endloop
  endfacet
  facet normal 0 1 -0
    outer loop
      vertex 32.8 100 0
      vertex 32 100 0.0999994
      vertex 32.8 100 0.0999994
    endloop
  endfacet
  facet normal 0 1 0
    outer loop
      vertex 32 100 0.0999994
      vertex 32.8 100 0
      vertex 32 100 0
    endloop
  endfacet
  facet normal -1 0 0
    outer loop
      vertex 33 90 0
      vertex 33 100 0.0999994
      vertex 33 100 0
    endloop
  endfacet
  facet normal -1 -0 0
    outer loop
      vertex 33 100 0.0999994
      vertex 33 90 0
      vertex 33 90 0.0999994
    endloop
  endfacet
  facet normal -0 0 1
    outer loop
      vertex 33 100 0.0999994
      vertex 33.8 90 0.0999994
      vertex 33.8 100 0.0999994
    endloop
  endfacet
  facet normal 0 0 1
    outer loop
      vertex 33.8 90 0.0999994
      vertex 33 100 0.0999994
      vertex 33 90 0.0999994
    endloop
  endfacet
  facet normal 1 -0 0
    outer loop
      vertex 33.8 90 0.0999994
      vertex 33.8 100 0
      vertex 33.8 100 0.0999994
    endloop
  endfacet
  facet normal 1 0 0
    outer loop
      vertex 33.8 100 0
      vertex 33.8 90 0.0999994
      vertex 33.8 90 0
    endloop
  endfacet
  facet normal 0 0 -1
    outer loop
      vertex 33 90 0
      vertex 33.8 100 0
      vertex 33.8 90 0
    endloop
  endfacet
  facet normal -0 0 -1
    outer loop
      vertex 33.8 100 0
      vertex 33 90 0
      vertex 33 100 0
    endloop
  endfacet
  facet normal 0 -1 0
    outer loop
      vertex 33 90 0
      vertex 33.8 90 0.0999994
      vertex 33 90 0.0999994
    endloop
  endfacet
  facet normal 0 -1 -0
    outer loop
      vertex 33.8 90 0.0999994
      vertex 33 90 0
      vertex 33.8 90 0
    endloop
  endfacet
  facet normal 0 1 -0
    outer loop
      vertex 33.8 100 0
      vertex 33 100 0.0999994
      vertex 33.8 100 0.0999994
    endloop
  endfacet
  facet normal 0 1 0
    outer loop
      vertex 33 100 0.0999994
      vertex 33.8 100 0
      vertex 33 100 0
    endloop
  endfacet
  facet normal -1 0 0
    outer loop
      vertex 34 90 0
      vertex 34 100 0.0999994
      vertex 34 100 0
    endloop
  endfacet
  facet normal -1 -0 0
    outer loop
      vertex 34 100 0.0999994
      vertex 34 90 0
      vertex 34 90 0.0999994
    endloop
  endfacet
  facet normal -0 0 1
    outer loop
      vertex 34 100 0.0999994
      vertex 34.8 90 0.0999994
      vertex 34.8 100 0.0999994
    endloop
  endfacet
  facet normal 0 0 1
    outer loop
      vertex 34.8 90 0.0999994
      vertex 34 100 0.0999994
      vertex 34 90 0.0999994
    endloop
  endfacet
  facet normal 1 -0 0
    outer loop
      vertex 34.8 90 0.0999994
      vertex 34.8 100 0
      vertex 34.8 100 0.0999994
    endloop
  endfacet
  facet normal 1 0 0
    outer loop
      vertex 34.8 100 0
      vertex 34.8 90 0.0999994
      vertex 34.8 90 0
    endloop
  endfacet
  facet normal 0 1 -0
    outer loop
      vertex 34.8 100 0
      vertex 34 100 0.0999994
      vertex 34.8 100 0.0999994
    endloop
  endfacet
  facet normal 0 1 0
    outer loop
      vertex 34 100 0.0999994
      vertex 34.8 100 0
      vertex 34 100 0
    endloop
  endfacet
  facet normal 0 0 -1
    outer loop
      vertex 34 90 0
      vertex 34.8 100 0
      vertex 34.8 90 0
    endloop
  endfacet
  facet normal -0 0 -1
    outer loop
      vertex 34.8 100 0
      vertex 34 90 0
      vertex 34 100 0
    endloop
  endfacet
  facet normal 0 -1 0
    outer loop
      vertex 34 90 0
      vertex 34.8 90 0.0999994
      vertex 34 90 0.0999994
    endloop
  endfacet
  facet normal 0 -1 -0
    outer loop
      vertex 34.8 90 0.0999994
      vertex 34 90 0
      vertex 34.8 90 0
    endloop
  endfacet
  facet normal -1 0 0
    outer loop
      vertex 35 90 0
      vertex 35 100 0.0999994
      vertex 35 100 0
    endloop
  endfacet
  facet normal -1 -0 0
    outer loop
      vertex 35 100 0.0999994
      vertex 35 90 0
      vertex 35 90 0.0999994
    endloop
  endfacet
  facet normal -0 0 1
    outer loop
      vertex 35 100 0.0999994
      vertex 35.8 90 0.0999994
      vertex 35.8 100 0.0999994
    endloop
  endfacet
  facet normal 0 0 1
    outer loop
      vertex 35.8 90 0.0999994
      vertex 35 100 0.0999994
      vertex 35 90 0.0999994
    endloop
  endfacet
  facet normal 1 -0 0
    outer loop
      vertex 35.8 90 0.0999994
      vertex 35.8 100 0
      vertex 35.8 100 0.0999994
    endloop
  endfacet
  facet normal 1 0 0
    outer loop
      vertex 35.8 100 0
      vertex 35.8 90 0.0999994
      vertex 35.8 90 0
    endloop
  endfacet
  facet normal 0 0 -1
    outer loop
      vertex 35 90 0
      vertex 35.8 100 0
      vertex 35.8 90 0
    endloop
  endfacet
  facet normal -0 0 -1
    outer loop
      vertex 35.8 100 0
      vertex 35 90 0
      vertex 35 100 0
    endloop
  endfacet
  facet normal 0 -1 0
    outer loop
      vertex 35 90 0
      vertex 35.8 90 0.0999994
      vertex 35 90 0.0999994
    endloop
  endfacet
  facet normal 0 -1 -0
    outer loop
      vertex 35.8 90 0.0999994
      vertex 35 90 0
      vertex 35.8 90 0
    endloop
  endfacet
  facet normal 0 1 -0
    outer loop
      vertex 35.8 100 0
      vertex 35 100 0.0999994
      vertex 35.8 100 0.0999994
    endloop
  endfacet
  facet normal 0 1 0
    outer loop
      vertex 35 100 0.0999994
      vertex 35.8 100 0
      vertex 35 100 0
    endloop
  endfacet
  facet normal -1 0 0
    outer loop
      vertex 36 90 0
      vertex 36 100 0.0999994
      vertex 36 100 0
    endloop
  endfacet
  facet normal -1 -0 0
    outer loop
      vertex 36 100 0.0999994
      vertex 36 90 0
      vertex 36 90 0.0999994
    endloop
  endfacet
  facet normal -0 0 1
    outer loop
      vertex 36 100 0.0999994
      vertex 36.8 90 0.0999994
      vertex 36.8 100 0.0999994
    endloop
  endfacet
  facet normal 0 0 1
    outer loop
      vertex 36.8 90 0.0999994
      vertex 36 100 0.0999994
      vertex 36 90 0.0999994
    endloop
  endfacet
  facet normal 1 -0 0
    outer loop
      vertex 36.8 90 0.0999994
      vertex 36.8 100 0
      vertex 36.8 100 0.0999994
    endloop
  endfacet
  facet normal 1 0 0
    outer loop
      vertex 36.8 100 0
      vertex 36.8 90 0.0999994
      vertex 36.8 90 0
    endloop
  endfacet
  facet normal 0 0 -1
    outer loop
      vertex 36 90 0
      vertex 36.8 100 0
      vertex 36.8 90 0
    endloop
  endfacet
  facet normal -0 0 -1
    outer loop
      vertex 36.8 100 0
      vertex 36 90 0
      vertex 36 100 0
    endloop
  endfacet
  facet normal 0 -1 0
    outer loop
      vertex 36 90 0
      vertex 36.8 90 0.0999994
      vertex 36 90 0.0999994
    endloop
  endfacet
  facet normal 0 -1 -0
    outer loop
      vertex 36.8 90 0.0999994
      vertex 36 90 0
      vertex 36.8 90 0
    endloop
  endfacet
  facet normal 0 1 -0
    outer loop
      vertex 36.8 100 0
      vertex 36 100 0.0999994
      vertex 36.8 100 0.0999994
    endloop
  endfacet
  facet normal 0 1 0
    outer loop
      vertex 36 100 0.0999994
      vertex 36.8 100 0
      vertex 36 100 0
    endloop
  endfacet
  facet normal -1 0 0
    outer loop
      vertex 37 90 0
      vertex 37 100 0.0999994
      vertex 37 100 0
    endloop
  endfacet
  facet normal -1 -0 0
    outer loop
      vertex 37 100 0.0999994
      vertex 37 90 0
      vertex 37 90 0.0999994
    endloop
  endfacet
  facet normal -0 0 1
    outer loop
      vertex 37 100 0.0999994
      vertex 37.8 90 0.0999994
      vertex 37.8 100 0.0999994
    endloop
  endfacet
  facet normal 0 0 1
    outer loop
      vertex 37.8 90 0.0999994
      vertex 37 100 0.0999994
      vertex 37 90 0.0999994
    endloop
  endfacet
  facet normal 1 -0 0
    outer loop
      vertex 37.8 90 0.0999994
      vertex 37.8 100 0
      vertex 37.8 100 0.0999994
    endloop
  endfacet
  facet normal 1 0 0
    outer loop
      vertex 37.8 100 0
      vertex 37.8 90 0.0999994
      vertex 37.8 90 0
    endloop
  endfacet
  facet normal 0 1 -0
    outer loop
      vertex 37.8 100 0
      vertex 37 100 0.0999994
      vertex 37.8 100 0.0999994
    endloop
  endfacet
  facet normal 0 1 0
    outer loop
      vertex 37 100 0.0999994
      vertex 37.8 100 0
      vertex 37 100 0
    endloop
  endfacet
  facet normal 0 0 -1
    outer loop
      vertex 37 90 0
      vertex 37.8 100 0
      vertex 37.8 90 0
    endloop
  endfacet
  facet normal -0 0 -1
    outer loop
      vertex 37.8 100 0
      vertex 37 90 0
      vertex 37 100 0
    endloop
  endfacet
  facet normal 0 -1 0
    outer loop
      vertex 37 90 0
      vertex 37.8 90 0.0999994
      vertex 37 90 0.0999994
    endloop
  endfacet
  facet normal 0 -1 -0
    outer loop
      vertex 37.8 90 0.0999994
      vertex 37 90 0
      vertex 37.8 90 0
    endloop
  endfacet
  facet normal -1 0 0
    outer loop
      vertex 38 90 0
      vertex 38 100 0.0999994
      vertex 38 100 0
    endloop
  endfacet
  facet normal -1 -0 0
    outer loop
      vertex 38 100 0.0999994
      vertex 38 90 0
      vertex 38 90 0.0999994
    endloop
  endfacet
  facet normal -0 0 1
    outer loop
      vertex 38 100 0.0999994
      vertex 38.8 90 0.0999994
      vertex 38.8 100 0.0999994
    endloop
  endfacet
  facet normal 0 0 1
    outer loop
      vertex 38.8 90 0.0999994
      vertex 38 100 0.0999994
      vertex 38 90 0.0999994
    endloop
  endfacet
  facet normal 1 -0 0
    outer loop
      vertex 38.8 90 0.0999994
      vertex 38.8 100 0
      vertex 38.8 100 0.0999994
    endloop
  endfacet
  facet normal 1 0 0
    outer loop
      vertex 38.8 100 0
      vertex 38.8 90 0.0999994
      vertex 38.8 90 0
    endloop
  endfacet
  facet normal 0 1 -0
    outer loop
      vertex 38.8 100 0
      vertex 38 100 0.0999994
      vertex 38.8 100 0.0999994
    endloop
  endfacet
  facet normal 0 1 0
    outer loop
      vertex 38 100 0.0999994
      vertex 38.8 100 0
      vertex 38 100 0
    endloop
  endfacet
  facet normal 0 0 -1
    outer loop
      vertex 38 90 0
      vertex 38.8 100 0
      vertex 38.8 90 0
    endloop
  endfacet
  facet normal -0 0 -1
    outer loop
      vertex 38.8 100 0
      vertex 38 90 0
      vertex 38 100 0
    endloop
  endfacet
  facet normal 0 -1 0
    outer loop
      vertex 38 90 0
      vertex 38.8 90 0.0999994
      vertex 38 90 0.0999994
    endloop
  endfacet
  facet normal 0 -1 -0
    outer loop
      vertex 38.8 90 0.0999994
      vertex 38 90 0
      vertex 38.8 90 0
    endloop
  endfacet
  facet normal -1 0 0
    outer loop
      vertex 39 90 0
      vertex 39 100 0.0999994
      vertex 39 100 0
    endloop
  endfacet
  facet normal -1 -0 0
    outer loop
      vertex 39 100 0.0999994
      vertex 39 90 0
      vertex 39 90 0.0999994
    endloop
  endfacet
  facet normal -0 0 1
    outer loop
      vertex 39 100 0.0999994
      vertex 39.8 90 0.0999994
      vertex 39.8 100 0.0999994
    endloop
  endfacet
  facet normal 0 0 1
    outer loop
      vertex 39.8 90 0.0999994
      vertex 39 100 0.0999994
      vertex 39 90 0.0999994
    endloop
  endfacet
  facet normal 1 -0 0
    outer loop
      vertex 39.8 90 0.0999994
      vertex 39.8 100 0
      vertex 39.8 100 0.0999994
    endloop
  endfacet
  facet normal 1 0 0
    outer loop
      vertex 39.8 100 0
      vertex 39.8 90 0.0999994
      vertex 39.8 90 0
    endloop
  endfacet
  facet normal 0 1 -0
    outer loop
      vertex 39.8 100 0
      vertex 39 100 0.0999994
      vertex 39.8 100 0.0999994
    endloop
  endfacet
  facet normal 0 1 0
    outer loop
      vertex 39 100 0.0999994
      vertex 39.8 100 0
      vertex 39 100 0
    endloop
  endfacet
  facet normal 0 0 -1
    outer loop
      vertex 39 90 0
      vertex 39.8 100 0
      vertex 39.8 90 0
    endloop
  endfacet
  facet normal -0 0 -1
    outer loop
      vertex 39.8 100 0
      vertex 39 90 0
      vertex 39 100 0
    endloop
  endfacet
  facet normal 0 -1 0
    outer loop
      vertex 39 90 0
      vertex 39.8 90 0.0999994
      vertex 39 90 0.0999994
    endloop
  endfacet
  facet normal 0 -1 -0
    outer loop
      vertex 39.8 90 0.0999994
      vertex 39 90 0
      vertex 39.8 90 0
    endloop
  endfacet
  facet normal -1 0 0
    outer loop
      vertex 40 90 0
      vertex 40 100 0.0999994
      vertex 40 100 0
    endloop
  endfacet
  facet normal -1 -0 0
    outer loop
      vertex 40 100 0.0999994
      vertex 40 90 0
      vertex 40 90 0.0999994
    endloop
  endfacet
  facet normal -0 0 1
    outer loop
      vertex 40 100 0.0999994
      vertex 40.8 90 0.0999994
      vertex 40.8 100 0.0999994
    endloop
  endfacet
  facet normal 0 0 1
    outer loop
      vertex 40.8 90 0.0999994
      vertex 40 100 0.0999994
      vertex 40 90 0.0999994
    endloop
  endfacet
  facet normal 1 -0 0
    outer loop
      vertex 40.8 90 0.0999994
      vertex 40.8 100 0
      vertex 40.8 100 0.0999994
    endloop
  endfacet
  facet normal 1 0 0
    outer loop
      vertex 40.8 100 0
      vertex 40.8 90 0.0999994
      vertex 40.8 90 0
    endloop
  endfacet
  facet normal 0 0 -1
    outer loop
      vertex 40 90 0
      vertex 40.8 100 0
      vertex 40.8 90 0
    endloop
  endfacet
  facet normal -0 0 -1
    outer loop
      vertex 40.8 100 0
      vertex 40 90 0
      vertex 40 100 0
    endloop
  endfacet
  facet normal 0 -1 0
    outer loop
      vertex 40 90 0
      vertex 40.8 90 0.0999994
      vertex 40 90 0.0999994
    endloop
  endfacet
  facet normal 0 -1 -0
    outer loop
      vertex 40.8 90 0.0999994
      vertex 40 90 0
      vertex 40.8 90 0
    endloop
  endfacet
  facet normal 0 1 -0
    outer loop
      vertex 40.8 100 0
      vertex 40 100 0.0999994
      vertex 40.8 100 0.0999994
    endloop
  endfacet
  facet normal 0 1 0
    outer loop
      vertex 40 100 0.0999994
      vertex 40.8 100 0
      vertex 40 100 0
    endloop
  endfacet
endsolid OpenSCAD_Model
