solid OpenSCAD_Model
  facet normal -1 0 0
    outer loop
      vertex 170 10 0
      vertex 170 20 0.0999994
      vertex 170 20 0
    endloop
  endfacet
  facet normal -1 -0 0
    outer loop
      vertex 170 20 0.0999994
      vertex 170 10 0
      vertex 170 10 0.0999994
    endloop
  endfacet
  facet normal -0 0 1
    outer loop
      vertex 170 20 0.0999994
      vertex 170.8 10 0.0999994
      vertex 170.8 20 0.0999994
    endloop
  endfacet
  facet normal 0 0 1
    outer loop
      vertex 170.8 10 0.0999994
      vertex 170 20 0.0999994
      vertex 170 10 0.0999994
    endloop
  endfacet
  facet normal 1 -0 0
    outer loop
      vertex 170.8 10 0.0999994
      vertex 170.8 20 0
      vertex 170.8 20 0.0999994
    endloop
  endfacet
  facet normal 1 0 0
    outer loop
      vertex 170.8 20 0
      vertex 170.8 10 0.0999994
      vertex 170.8 10 0
    endloop
  endfacet
  facet normal 0 0 -1
    outer loop
      vertex 170 10 0
      vertex 170.8 20 0
      vertex 170.8 10 0
    endloop
  endfacet
  facet normal -0 0 -1
    outer loop
      vertex 170.8 20 0
      vertex 170 10 0
      vertex 170 20 0
    endloop
  endfacet
  facet normal 0 -1 0
    outer loop
      vertex 170 10 0
      vertex 170.8 10 0.0999994
      vertex 170 10 0.0999994
    endloop
  endfacet
  facet normal 0 -1 -0
    outer loop
      vertex 170.8 10 0.0999994
      vertex 170 10 0
      vertex 170.8 10 0
    endloop
  endfacet
  facet normal 0 1 -0
    outer loop
      vertex 170.8 20 0
      vertex 170 20 0.0999994
      vertex 170.8 20 0.0999994
    endloop
  endfacet
  facet normal 0 1 0
    outer loop
      vertex 170 20 0.0999994
      vertex 170.8 20 0
      vertex 170 20 0
    endloop
  endfacet
  facet normal -1 0 0
    outer loop
      vertex 171 10 0
      vertex 171 20 0.0999994
      vertex 171 20 0
    endloop
  endfacet
  facet normal -1 -0 0
    outer loop
      vertex 171 20 0.0999994
      vertex 171 10 0
      vertex 171 10 0.0999994
    endloop
  endfacet
  facet normal -0 0 1
    outer loop
      vertex 171 20 0.0999994
      vertex 171.8 10 0.0999994
      vertex 171.8 20 0.0999994
    endloop
  endfacet
  facet normal 0 0 1
    outer loop
      vertex 171.8 10 0.0999994
      vertex 171 20 0.0999994
      vertex 171 10 0.0999994
    endloop
  endfacet
  facet normal 1 -0 0
    outer loop
      vertex 171.8 10 0.0999994
      vertex 171.8 20 0
      vertex 171.8 20 0.0999994
    endloop
  endfacet
  facet normal 1 0 0
    outer loop
      vertex 171.8 20 0
      vertex 171.8 10 0.0999994
      vertex 171.8 10 0
    endloop
  endfacet
  facet normal 0 1 -0
    outer loop
      vertex 171.8 20 0
      vertex 171 20 0.0999994
      vertex 171.8 20 0.0999994
    endloop
  endfacet
  facet normal 0 1 0
    outer loop
      vertex 171 20 0.0999994
      vertex 171.8 20 0
      vertex 171 20 0
    endloop
  endfacet
  facet normal 0 0 -1
    outer loop
      vertex 171 10 0
      vertex 171.8 20 0
      vertex 171.8 10 0
    endloop
  endfacet
  facet normal -0 0 -1
    outer loop
      vertex 171.8 20 0
      vertex 171 10 0
      vertex 171 20 0
    endloop
  endfacet
  facet normal 0 -1 0
    outer loop
      vertex 171 10 0
      vertex 171.8 10 0.0999994
      vertex 171 10 0.0999994
    endloop
  endfacet
  facet normal 0 -1 -0
    outer loop
      vertex 171.8 10 0.0999994
      vertex 171 10 0
      vertex 171.8 10 0
    endloop
  endfacet
  facet normal -1 0 0
    outer loop
      vertex 172 10 0
      vertex 172 20 0.0999994
      vertex 172 20 0
    endloop
  endfacet
  facet normal -1 -0 0
    outer loop
      vertex 172 20 0.0999994
      vertex 172 10 0
      vertex 172 10 0.0999994
    endloop
  endfacet
  facet normal -0 0 1
    outer loop
      vertex 172 20 0.0999994
      vertex 172.8 10 0.0999994
      vertex 172.8 20 0.0999994
    endloop
  endfacet
  facet normal 0 0 1
    outer loop
      vertex 172.8 10 0.0999994
      vertex 172 20 0.0999994
      vertex 172 10 0.0999994
    endloop
  endfacet
  facet normal 1 -0 0
    outer loop
      vertex 172.8 10 0.0999994
      vertex 172.8 20 0
      vertex 172.8 20 0.0999994
    endloop
  endfacet
  facet normal 1 0 0
    outer loop
      vertex 172.8 20 0
      vertex 172.8 10 0.0999994
      vertex 172.8 10 0
    endloop
  endfacet
  facet normal 0 0 -1
    outer loop
      vertex 172 10 0
      vertex 172.8 20 0
      vertex 172.8 10 0
    endloop
  endfacet
  facet normal -0 0 -1
    outer loop
      vertex 172.8 20 0
      vertex 172 10 0
      vertex 172 20 0
    endloop
  endfacet
  facet normal 0 -1 0
    outer loop
      vertex 172 10 0
      vertex 172.8 10 0.0999994
      vertex 172 10 0.0999994
    endloop
  endfacet
  facet normal 0 -1 -0
    outer loop
      vertex 172.8 10 0.0999994
      vertex 172 10 0
      vertex 172.8 10 0
    endloop
  endfacet
  facet normal 0 1 -0
    outer loop
      vertex 172.8 20 0
      vertex 172 20 0.0999994
      vertex 172.8 20 0.0999994
    endloop
  endfacet
  facet normal 0 1 0
    outer loop
      vertex 172 20 0.0999994
      vertex 172.8 20 0
      vertex 172 20 0
    endloop
  endfacet
  facet normal -1 0 0
    outer loop
      vertex 173 10 0
      vertex 173 20 0.0999994
      vertex 173 20 0
    endloop
  endfacet
  facet normal -1 -0 0
    outer loop
      vertex 173 20 0.0999994
      vertex 173 10 0
      vertex 173 10 0.0999994
    endloop
  endfacet
  facet normal -0 0 1
    outer loop
      vertex 173 20 0.0999994
      vertex 173.8 10 0.0999994
      vertex 173.8 20 0.0999994
    endloop
  endfacet
  facet normal 0 0 1
    outer loop
      vertex 173.8 10 0.0999994
      vertex 173 20 0.0999994
      vertex 173 10 0.0999994
    endloop
  endfacet
  facet normal 1 -0 0
    outer loop
      vertex 173.8 10 0.0999994
      vertex 173.8 20 0
      vertex 173.8 20 0.0999994
    endloop
  endfacet
  facet normal 1 0 0
    outer loop
      vertex 173.8 20 0
      vertex 173.8 10 0.0999994
      vertex 173.8 10 0
    endloop
  endfacet
  facet normal 0 1 -0
    outer loop
      vertex 173.8 20 0
      vertex 173 20 0.0999994
      vertex 173.8 20 0.0999994
    endloop
  endfacet
  facet normal 0 1 0
    outer loop
      vertex 173 20 0.0999994
      vertex 173.8 20 0
      vertex 173 20 0
    endloop
  endfacet
  facet normal 0 0 -1
    outer loop
      vertex 173 10 0
      vertex 173.8 20 0
      vertex 173.8 10 0
    endloop
  endfacet
  facet normal -0 0 -1
    outer loop
      vertex 173.8 20 0
      vertex 173 10 0
      vertex 173 20 0
    endloop
  endfacet
  facet normal 0 -1 0
    outer loop
      vertex 173 10 0
      vertex 173.8 10 0.0999994
      vertex 173 10 0.0999994
    endloop
  endfacet
  facet normal 0 -1 -0
    outer loop
      vertex 173.8 10 0.0999994
      vertex 173 10 0
      vertex 173.8 10 0
    endloop
  endfacet
  facet normal -1 0 0
    outer loop
      vertex 174 10 0
      vertex 174 20 0.0999994
      vertex 174 20 0
    endloop
  endfacet
  facet normal -1 -0 0
    outer loop
      vertex 174 20 0.0999994
      vertex 174 10 0
      vertex 174 10 0.0999994
    endloop
  endfacet
  facet normal -0 0 1
    outer loop
      vertex 174 20 0.0999994
      vertex 174.8 10 0.0999994
      vertex 174.8 20 0.0999994
    endloop
  endfacet
  facet normal 0 0 1
    outer loop
      vertex 174.8 10 0.0999994
      vertex 174 20 0.0999994
      vertex 174 10 0.0999994
    endloop
  endfacet
  facet normal 1 -0 0
    outer loop
      vertex 174.8 10 0.0999994
      vertex 174.8 20 0
      vertex 174.8 20 0.0999994
    endloop
  endfacet
  facet normal 1 0 0
    outer loop
      vertex 174.8 20 0
      vertex 174.8 10 0.0999994
      vertex 174.8 10 0
    endloop
  endfacet
  facet normal 0 1 -0
    outer loop
      vertex 174.8 20 0
      vertex 174 20 0.0999994
      vertex 174.8 20 0.0999994
    endloop
  endfacet
  facet normal 0 1 0
    outer loop
      vertex 174 20 0.0999994
      vertex 174.8 20 0
      vertex 174 20 0
    endloop
  endfacet
  facet normal 0 0 -1
    outer loop
      vertex 174 10 0
      vertex 174.8 20 0
      vertex 174.8 10 0
    endloop
  endfacet
  facet normal -0 0 -1
    outer loop
      vertex 174.8 20 0
      vertex 174 10 0
      vertex 174 20 0
    endloop
  endfacet
  facet normal 0 -1 0
    outer loop
      vertex 174 10 0
      vertex 174.8 10 0.0999994
      vertex 174 10 0.0999994
    endloop
  endfacet
  facet normal 0 -1 -0
    outer loop
      vertex 174.8 10 0.0999994
      vertex 174 10 0
      vertex 174.8 10 0
    endloop
  endfacet
  facet normal -1 0 0
    outer loop
      vertex 175 10 0
      vertex 175 20 0.0999994
      vertex 175 20 0
    endloop
  endfacet
  facet normal -1 -0 0
    outer loop
      vertex 175 20 0.0999994
      vertex 175 10 0
      vertex 175 10 0.0999994
    endloop
  endfacet
  facet normal -0 0 1
    outer loop
      vertex 175 20 0.0999994
      vertex 175.8 10 0.0999994
      vertex 175.8 20 0.0999994
    endloop
  endfacet
  facet normal 0 0 1
    outer loop
      vertex 175.8 10 0.0999994
      vertex 175 20 0.0999994
      vertex 175 10 0.0999994
    endloop
  endfacet
  facet normal 1 -0 0
    outer loop
      vertex 175.8 10 0.0999994
      vertex 175.8 20 0
      vertex 175.8 20 0.0999994
    endloop
  endfacet
  facet normal 1 0 0
    outer loop
      vertex 175.8 20 0
      vertex 175.8 10 0.0999994
      vertex 175.8 10 0
    endloop
  endfacet
  facet normal 0 1 -0
    outer loop
      vertex 175.8 20 0
      vertex 175 20 0.0999994
      vertex 175.8 20 0.0999994
    endloop
  endfacet
  facet normal 0 1 0
    outer loop
      vertex 175 20 0.0999994
      vertex 175.8 20 0
      vertex 175 20 0
    endloop
  endfacet
  facet normal 0 0 -1
    outer loop
      vertex 175 10 0
      vertex 175.8 20 0
      vertex 175.8 10 0
    endloop
  endfacet
  facet normal -0 0 -1
    outer loop
      vertex 175.8 20 0
      vertex 175 10 0
      vertex 175 20 0
    endloop
  endfacet
  facet normal 0 -1 0
    outer loop
      vertex 175 10 0
      vertex 175.8 10 0.0999994
      vertex 175 10 0.0999994
    endloop
  endfacet
  facet normal 0 -1 -0
    outer loop
      vertex 175.8 10 0.0999994
      vertex 175 10 0
      vertex 175.8 10 0
    endloop
  endfacet
  facet normal -1 0 0
    outer loop
      vertex 176 10 0
      vertex 176 20 0.0999994
      vertex 176 20 0
    endloop
  endfacet
  facet normal -1 -0 0
    outer loop
      vertex 176 20 0.0999994
      vertex 176 10 0
      vertex 176 10 0.0999994
    endloop
  endfacet
  facet normal -0 0 1
    outer loop
      vertex 176 20 0.0999994
      vertex 176.8 10 0.0999994
      vertex 176.8 20 0.0999994
    endloop
  endfacet
  facet normal 0 0 1
    outer loop
      vertex 176.8 10 0.0999994
      vertex 176 20 0.0999994
      vertex 176 10 0.0999994
    endloop
  endfacet
  facet normal 1 -0 0
    outer loop
      vertex 176.8 10 0.0999994
      vertex 176.8 20 0
      vertex 176.8 20 0.0999994
    endloop
  endfacet
  facet normal 1 0 0
    outer loop
      vertex 176.8 20 0
      vertex 176.8 10 0.0999994
      vertex 176.8 10 0
    endloop
  endfacet
  facet normal 0 0 -1
    outer loop
      vertex 176 10 0
      vertex 176.8 20 0
      vertex 176.8 10 0
    endloop
  endfacet
  facet normal -0 0 -1
    outer loop
      vertex 176.8 20 0
      vertex 176 10 0
      vertex 176 20 0
    endloop
  endfacet
  facet normal 0 -1 0
    outer loop
      vertex 176 10 0
      vertex 176.8 10 0.0999994
      vertex 176 10 0.0999994
    endloop
  endfacet
  facet normal 0 -1 -0
    outer loop
      vertex 176.8 10 0.0999994
      vertex 176 10 0
      vertex 176.8 10 0
    endloop
  endfacet
  facet normal 0 1 -0
    outer loop
      vertex 176.8 20 0
      vertex 176 20 0.0999994
      vertex 176.8 20 0.0999994
    endloop
  endfacet
  facet normal 0 1 0
    outer loop
      vertex 176 20 0.0999994
      vertex 176.8 20 0
      vertex 176 20 0
    endloop
  endfacet
  facet normal -1 0 0
    outer loop
      vertex 177 10 0
      vertex 177 20 0.0999994
      vertex 177 20 0
    endloop
  endfacet
  facet normal -1 -0 0
    outer loop
      vertex 177 20 0.0999994
      vertex 177 10 0
      vertex 177 10 0.0999994
    endloop
  endfacet
  facet normal -0 0 1
    outer loop
      vertex 177 20 0.0999994
      vertex 177.8 10 0.0999994
      vertex 177.8 20 0.0999994
    endloop
  endfacet
  facet normal 0 0 1
    outer loop
      vertex 177.8 10 0.0999994
      vertex 177 20 0.0999994
      vertex 177 10 0.0999994
    endloop
  endfacet
  facet normal 1 -0 0
    outer loop
      vertex 177.8 10 0.0999994
      vertex 177.8 20 0
      vertex 177.8 20 0.0999994
    endloop
  endfacet
  facet normal 1 0 0
    outer loop
      vertex 177.8 20 0
      vertex 177.8 10 0.0999994
      vertex 177.8 10 0
    endloop
  endfacet
  facet normal 0 1 -0
    outer loop
      vertex 177.8 20 0
      vertex 177 20 0.0999994
      vertex 177.8 20 0.0999994
    endloop
  endfacet
  facet normal 0 1 0
    outer loop
      vertex 177 20 0.0999994
      vertex 177.8 20 0
      vertex 177 20 0
    endloop
  endfacet
  facet normal 0 0 -1
    outer loop
      vertex 177 10 0
      vertex 177.8 20 0
      vertex 177.8 10 0
    endloop
  endfacet
  facet normal -0 0 -1
    outer loop
      vertex 177.8 20 0
      vertex 177 10 0
      vertex 177 20 0
    endloop
  endfacet
  facet normal 0 -1 0
    outer loop
      vertex 177 10 0
      vertex 177.8 10 0.0999994
      vertex 177 10 0.0999994
    endloop
  endfacet
  facet normal 0 -1 -0
    outer loop
      vertex 177.8 10 0.0999994
      vertex 177 10 0
      vertex 177.8 10 0
    endloop
  endfacet
  facet normal -1 0 0
    outer loop
      vertex 178 10 0
      vertex 178 20 0.0999994
      vertex 178 20 0
    endloop
  endfacet
  facet normal -1 -0 0
    outer loop
      vertex 178 20 0.0999994
      vertex 178 10 0
      vertex 178 10 0.0999994
    endloop
  endfacet
  facet normal -0 0 1
    outer loop
      vertex 178 20 0.0999994
      vertex 178.8 10 0.0999994
      vertex 178.8 20 0.0999994
    endloop
  endfacet
  facet normal 0 0 1
    outer loop
      vertex 178.8 10 0.0999994
      vertex 178 20 0.0999994
      vertex 178 10 0.0999994
    endloop
  endfacet
  facet normal 1 -0 0
    outer loop
      vertex 178.8 10 0.0999994
      vertex 178.8 20 0
      vertex 178.8 20 0.0999994
    endloop
  endfacet
  facet normal 1 0 0
    outer loop
      vertex 178.8 20 0
      vertex 178.8 10 0.0999994
      vertex 178.8 10 0
    endloop
  endfacet
  facet normal 0 1 -0
    outer loop
      vertex 178.8 20 0
      vertex 178 20 0.0999994
      vertex 178.8 20 0.0999994
    endloop
  endfacet
  facet normal 0 1 0
    outer loop
      vertex 178 20 0.0999994
      vertex 178.8 20 0
      vertex 178 20 0
    endloop
  endfacet
  facet normal 0 0 -1
    outer loop
      vertex 178 10 0
      vertex 178.8 20 0
      vertex 178.8 10 0
    endloop
  endfacet
  facet normal -0 0 -1
    outer loop
      vertex 178.8 20 0
      vertex 178 10 0
      vertex 178 20 0
    endloop
  endfacet
  facet normal 0 -1 0
    outer loop
      vertex 178 10 0
      vertex 178.8 10 0.0999994
      vertex 178 10 0.0999994
    endloop
  endfacet
  facet normal 0 -1 -0
    outer loop
      vertex 178.8 10 0.0999994
      vertex 178 10 0
      vertex 178.8 10 0
    endloop
  endfacet
  facet normal -1 0 0
    outer loop
      vertex 179 10 0
      vertex 179 20 0.0999994
      vertex 179 20 0
    endloop
  endfacet
  facet normal -1 -0 0
    outer loop
      vertex 179 20 0.0999994
      vertex 179 10 0
      vertex 179 10 0.0999994
    endloop
  endfacet
  facet normal -0 0 1
    outer loop
      vertex 179 20 0.0999994
      vertex 179.8 10 0.0999994
      vertex 179.8 20 0.0999994
    endloop
  endfacet
  facet normal 0 0 1
    outer loop
      vertex 179.8 10 0.0999994
      vertex 179 20 0.0999994
      vertex 179 10 0.0999994
    endloop
  endfacet
  facet normal 1 -0 0
    outer loop
      vertex 179.8 10 0.0999994
      vertex 179.8 20 0
      vertex 179.8 20 0.0999994
    endloop
  endfacet
  facet normal 1 0 0
    outer loop
      vertex 179.8 20 0
      vertex 179.8 10 0.0999994
      vertex 179.8 10 0
    endloop
  endfacet
  facet normal 0 1 -0
    outer loop
      vertex 179.8 20 0
      vertex 179 20 0.0999994
      vertex 179.8 20 0.0999994
    endloop
  endfacet
  facet normal 0 1 0
    outer loop
      vertex 179 20 0.0999994
      vertex 179.8 20 0
      vertex 179 20 0
    endloop
  endfacet
  facet normal 0 0 -1
    outer loop
      vertex 179 10 0
      vertex 179.8 20 0
      vertex 179.8 10 0
    endloop
  endfacet
  facet normal -0 0 -1
    outer loop
      vertex 179.8 20 0
      vertex 179 10 0
      vertex 179 20 0
    endloop
  endfacet
  facet normal 0 -1 0
    outer loop
      vertex 179 10 0
      vertex 179.8 10 0.0999994
      vertex 179 10 0.0999994
    endloop
  endfacet
  facet normal 0 -1 -0
    outer loop
      vertex 179.8 10 0.0999994
      vertex 179 10 0
      vertex 179.8 10 0
    endloop
  endfacet
  facet normal -1 0 0
    outer loop
      vertex 180 10 0
      vertex 180 20 0.0999994
      vertex 180 20 0
    endloop
  endfacet
  facet normal -1 -0 0
    outer loop
      vertex 180 20 0.0999994
      vertex 180 10 0
      vertex 180 10 0.0999994
    endloop
  endfacet
  facet normal -0 0 1
    outer loop
      vertex 180 20 0.0999994
      vertex 180.8 10 0.0999994
      vertex 180.8 20 0.0999994
    endloop
  endfacet
  facet normal 0 0 1
    outer loop
      vertex 180.8 10 0.0999994
      vertex 180 20 0.0999994
      vertex 180 10 0.0999994
    endloop
  endfacet
  facet normal 1 -0 0
    outer loop
      vertex 180.8 10 0.0999994
      vertex 180.8 20 0
      vertex 180.8 20 0.0999994
    endloop
  endfacet
  facet normal 1 0 0
    outer loop
      vertex 180.8 20 0
      vertex 180.8 10 0.0999994
      vertex 180.8 10 0
    endloop
  endfacet
  facet normal 0 1 -0
    outer loop
      vertex 180.8 20 0
      vertex 180 20 0.0999994
      vertex 180.8 20 0.0999994
    endloop
  endfacet
  facet normal 0 1 0
    outer loop
      vertex 180 20 0.0999994
      vertex 180.8 20 0
      vertex 180 20 0
    endloop
  endfacet
  facet normal 0 0 -1
    outer loop
      vertex 180 10 0
      vertex 180.8 20 0
      vertex 180.8 10 0
    endloop
  endfacet
  facet normal -0 0 -1
    outer loop
      vertex 180.8 20 0
      vertex 180 10 0
      vertex 180 20 0
    endloop
  endfacet
  facet normal 0 -1 0
    outer loop
      vertex 180 10 0
      vertex 180.8 10 0.0999994
      vertex 180 10 0.0999994
    endloop
  endfacet
  facet normal 0 -1 -0
    outer loop
      vertex 180.8 10 0.0999994
      vertex 180 10 0
      vertex 180.8 10 0
    endloop
  endfacet
endsolid OpenSCAD_Model
