solid OpenSCAD_Model
  facet normal -1 0 0
    outer loop
      vertex 50 130 0
      vertex 50 140 0.0999994
      vertex 50 140 0
    endloop
  endfacet
  facet normal -1 -0 0
    outer loop
      vertex 50 140 0.0999994
      vertex 50 130 0
      vertex 50 130 0.0999994
    endloop
  endfacet
  facet normal -0 0 1
    outer loop
      vertex 50 140 0.0999994
      vertex 50.8 130 0.0999994
      vertex 50.8 140 0.0999994
    endloop
  endfacet
  facet normal 0 0 1
    outer loop
      vertex 50.8 130 0.0999994
      vertex 50 140 0.0999994
      vertex 50 130 0.0999994
    endloop
  endfacet
  facet normal 1 -0 0
    outer loop
      vertex 50.8 130 0.0999994
      vertex 50.8 140 0
      vertex 50.8 140 0.0999994
    endloop
  endfacet
  facet normal 1 0 0
    outer loop
      vertex 50.8 140 0
      vertex 50.8 130 0.0999994
      vertex 50.8 130 0
    endloop
  endfacet
  facet normal 0 1 -0
    outer loop
      vertex 50.8 140 0
      vertex 50 140 0.0999994
      vertex 50.8 140 0.0999994
    endloop
  endfacet
  facet normal 0 1 0
    outer loop
      vertex 50 140 0.0999994
      vertex 50.8 140 0
      vertex 50 140 0
    endloop
  endfacet
  facet normal 0 0 -1
    outer loop
      vertex 50 130 0
      vertex 50.8 140 0
      vertex 50.8 130 0
    endloop
  endfacet
  facet normal -0 0 -1
    outer loop
      vertex 50.8 140 0
      vertex 50 130 0
      vertex 50 140 0
    endloop
  endfacet
  facet normal 0 -1 0
    outer loop
      vertex 50 130 0
      vertex 50.8 130 0.0999994
      vertex 50 130 0.0999994
    endloop
  endfacet
  facet normal 0 -1 -0
    outer loop
      vertex 50.8 130 0.0999994
      vertex 50 130 0
      vertex 50.8 130 0
    endloop
  endfacet
  facet normal -1 0 0
    outer loop
      vertex 51 130 0
      vertex 51 140 0.0999994
      vertex 51 140 0
    endloop
  endfacet
  facet normal -1 -0 0
    outer loop
      vertex 51 140 0.0999994
      vertex 51 130 0
      vertex 51 130 0.0999994
    endloop
  endfacet
  facet normal -0 0 1
    outer loop
      vertex 51 140 0.0999994
      vertex 51.8 130 0.0999994
      vertex 51.8 140 0.0999994
    endloop
  endfacet
  facet normal 0 0 1
    outer loop
      vertex 51.8 130 0.0999994
      vertex 51 140 0.0999994
      vertex 51 130 0.0999994
    endloop
  endfacet
  facet normal 1 -0 0
    outer loop
      vertex 51.8 130 0.0999994
      vertex 51.8 140 0
      vertex 51.8 140 0.0999994
    endloop
  endfacet
  facet normal 1 0 0
    outer loop
      vertex 51.8 140 0
      vertex 51.8 130 0.0999994
      vertex 51.8 130 0
    endloop
  endfacet
  facet normal 0 1 -0
    outer loop
      vertex 51.8 140 0
      vertex 51 140 0.0999994
      vertex 51.8 140 0.0999994
    endloop
  endfacet
  facet normal 0 1 0
    outer loop
      vertex 51 140 0.0999994
      vertex 51.8 140 0
      vertex 51 140 0
    endloop
  endfacet
  facet normal 0 0 -1
    outer loop
      vertex 51 130 0
      vertex 51.8 140 0
      vertex 51.8 130 0
    endloop
  endfacet
  facet normal -0 0 -1
    outer loop
      vertex 51.8 140 0
      vertex 51 130 0
      vertex 51 140 0
    endloop
  endfacet
  facet normal 0 -1 0
    outer loop
      vertex 51 130 0
      vertex 51.8 130 0.0999994
      vertex 51 130 0.0999994
    endloop
  endfacet
  facet normal 0 -1 -0
    outer loop
      vertex 51.8 130 0.0999994
      vertex 51 130 0
      vertex 51.8 130 0
    endloop
  endfacet
  facet normal -1 0 0
    outer loop
      vertex 52 130 0
      vertex 52 140 0.0999994
      vertex 52 140 0
    endloop
  endfacet
  facet normal -1 -0 0
    outer loop
      vertex 52 140 0.0999994
      vertex 52 130 0
      vertex 52 130 0.0999994
    endloop
  endfacet
  facet normal -0 0 1
    outer loop
      vertex 52 140 0.0999994
      vertex 52.8 130 0.0999994
      vertex 52.8 140 0.0999994
    endloop
  endfacet
  facet normal 0 0 1
    outer loop
      vertex 52.8 130 0.0999994
      vertex 52 140 0.0999994
      vertex 52 130 0.0999994
    endloop
  endfacet
  facet normal 1 -0 0
    outer loop
      vertex 52.8 130 0.0999994
      vertex 52.8 140 0
      vertex 52.8 140 0.0999994
    endloop
  endfacet
  facet normal 1 0 0
    outer loop
      vertex 52.8 140 0
      vertex 52.8 130 0.0999994
      vertex 52.8 130 0
    endloop
  endfacet
  facet normal 0 0 -1
    outer loop
      vertex 52 130 0
      vertex 52.8 140 0
      vertex 52.8 130 0
    endloop
  endfacet
  facet normal -0 0 -1
    outer loop
      vertex 52.8 140 0
      vertex 52 130 0
      vertex 52 140 0
    endloop
  endfacet
  facet normal 0 -1 0
    outer loop
      vertex 52 130 0
      vertex 52.8 130 0.0999994
      vertex 52 130 0.0999994
    endloop
  endfacet
  facet normal 0 -1 -0
    outer loop
      vertex 52.8 130 0.0999994
      vertex 52 130 0
      vertex 52.8 130 0
    endloop
  endfacet
  facet normal 0 1 -0
    outer loop
      vertex 52.8 140 0
      vertex 52 140 0.0999994
      vertex 52.8 140 0.0999994
    endloop
  endfacet
  facet normal 0 1 0
    outer loop
      vertex 52 140 0.0999994
      vertex 52.8 140 0
      vertex 52 140 0
    endloop
  endfacet
  facet normal -1 0 0
    outer loop
      vertex 53 130 0
      vertex 53 140 0.0999994
      vertex 53 140 0
    endloop
  endfacet
  facet normal -1 -0 0
    outer loop
      vertex 53 140 0.0999994
      vertex 53 130 0
      vertex 53 130 0.0999994
    endloop
  endfacet
  facet normal -0 0 1
    outer loop
      vertex 53 140 0.0999994
      vertex 53.8 130 0.0999994
      vertex 53.8 140 0.0999994
    endloop
  endfacet
  facet normal 0 0 1
    outer loop
      vertex 53.8 130 0.0999994
      vertex 53 140 0.0999994
      vertex 53 130 0.0999994
    endloop
  endfacet
  facet normal 1 -0 0
    outer loop
      vertex 53.8 130 0.0999994
      vertex 53.8 140 0
      vertex 53.8 140 0.0999994
    endloop
  endfacet
  facet normal 1 0 0
    outer loop
      vertex 53.8 140 0
      vertex 53.8 130 0.0999994
      vertex 53.8 130 0
    endloop
  endfacet
  facet normal 0 0 -1
    outer loop
      vertex 53 130 0
      vertex 53.8 140 0
      vertex 53.8 130 0
    endloop
  endfacet
  facet normal -0 0 -1
    outer loop
      vertex 53.8 140 0
      vertex 53 130 0
      vertex 53 140 0
    endloop
  endfacet
  facet normal 0 -1 0
    outer loop
      vertex 53 130 0
      vertex 53.8 130 0.0999994
      vertex 53 130 0.0999994
    endloop
  endfacet
  facet normal 0 -1 -0
    outer loop
      vertex 53.8 130 0.0999994
      vertex 53 130 0
      vertex 53.8 130 0
    endloop
  endfacet
  facet normal 0 1 -0
    outer loop
      vertex 53.8 140 0
      vertex 53 140 0.0999994
      vertex 53.8 140 0.0999994
    endloop
  endfacet
  facet normal 0 1 0
    outer loop
      vertex 53 140 0.0999994
      vertex 53.8 140 0
      vertex 53 140 0
    endloop
  endfacet
  facet normal -1 0 0
    outer loop
      vertex 54 130 0
      vertex 54 140 0.0999994
      vertex 54 140 0
    endloop
  endfacet
  facet normal -1 -0 0
    outer loop
      vertex 54 140 0.0999994
      vertex 54 130 0
      vertex 54 130 0.0999994
    endloop
  endfacet
  facet normal -0 0 1
    outer loop
      vertex 54 140 0.0999994
      vertex 54.8 130 0.0999994
      vertex 54.8 140 0.0999994
    endloop
  endfacet
  facet normal 0 0 1
    outer loop
      vertex 54.8 130 0.0999994
      vertex 54 140 0.0999994
      vertex 54 130 0.0999994
    endloop
  endfacet
  facet normal 1 -0 0
    outer loop
      vertex 54.8 130 0.0999994
      vertex 54.8 140 0
      vertex 54.8 140 0.0999994
    endloop
  endfacet
  facet normal 1 0 0
    outer loop
      vertex 54.8 140 0
      vertex 54.8 130 0.0999994
      vertex 54.8 130 0
    endloop
  endfacet
  facet normal 0 1 -0
    outer loop
      vertex 54.8 140 0
      vertex 54 140 0.0999994
      vertex 54.8 140 0.0999994
    endloop
  endfacet
  facet normal 0 1 0
    outer loop
      vertex 54 140 0.0999994
      vertex 54.8 140 0
      vertex 54 140 0
    endloop
  endfacet
  facet normal 0 0 -1
    outer loop
      vertex 54 130 0
      vertex 54.8 140 0
      vertex 54.8 130 0
    endloop
  endfacet
  facet normal -0 0 -1
    outer loop
      vertex 54.8 140 0
      vertex 54 130 0
      vertex 54 140 0
    endloop
  endfacet
  facet normal 0 -1 0
    outer loop
      vertex 54 130 0
      vertex 54.8 130 0.0999994
      vertex 54 130 0.0999994
    endloop
  endfacet
  facet normal 0 -1 -0
    outer loop
      vertex 54.8 130 0.0999994
      vertex 54 130 0
      vertex 54.8 130 0
    endloop
  endfacet
  facet normal -1 0 0
    outer loop
      vertex 55 130 0
      vertex 55 140 0.0999994
      vertex 55 140 0
    endloop
  endfacet
  facet normal -1 -0 0
    outer loop
      vertex 55 140 0.0999994
      vertex 55 130 0
      vertex 55 130 0.0999994
    endloop
  endfacet
  facet normal -0 0 1
    outer loop
      vertex 55 140 0.0999994
      vertex 55.8 130 0.0999994
      vertex 55.8 140 0.0999994
    endloop
  endfacet
  facet normal 0 0 1
    outer loop
      vertex 55.8 130 0.0999994
      vertex 55 140 0.0999994
      vertex 55 130 0.0999994
    endloop
  endfacet
  facet normal 1 -0 0
    outer loop
      vertex 55.8 130 0.0999994
      vertex 55.8 140 0
      vertex 55.8 140 0.0999994
    endloop
  endfacet
  facet normal 1 0 0
    outer loop
      vertex 55.8 140 0
      vertex 55.8 130 0.0999994
      vertex 55.8 130 0
    endloop
  endfacet
  facet normal 0 0 -1
    outer loop
      vertex 55 130 0
      vertex 55.8 140 0
      vertex 55.8 130 0
    endloop
  endfacet
  facet normal -0 0 -1
    outer loop
      vertex 55.8 140 0
      vertex 55 130 0
      vertex 55 140 0
    endloop
  endfacet
  facet normal 0 -1 0
    outer loop
      vertex 55 130 0
      vertex 55.8 130 0.0999994
      vertex 55 130 0.0999994
    endloop
  endfacet
  facet normal 0 -1 -0
    outer loop
      vertex 55.8 130 0.0999994
      vertex 55 130 0
      vertex 55.8 130 0
    endloop
  endfacet
  facet normal 0 1 -0
    outer loop
      vertex 55.8 140 0
      vertex 55 140 0.0999994
      vertex 55.8 140 0.0999994
    endloop
  endfacet
  facet normal 0 1 0
    outer loop
      vertex 55 140 0.0999994
      vertex 55.8 140 0
      vertex 55 140 0
    endloop
  endfacet
  facet normal -1 0 0
    outer loop
      vertex 56 130 0
      vertex 56 140 0.0999994
      vertex 56 140 0
    endloop
  endfacet
  facet normal -1 -0 0
    outer loop
      vertex 56 140 0.0999994
      vertex 56 130 0
      vertex 56 130 0.0999994
    endloop
  endfacet
  facet normal -0 0 1
    outer loop
      vertex 56 140 0.0999994
      vertex 56.8 130 0.0999994
      vertex 56.8 140 0.0999994
    endloop
  endfacet
  facet normal 0 0 1
    outer loop
      vertex 56.8 130 0.0999994
      vertex 56 140 0.0999994
      vertex 56 130 0.0999994
    endloop
  endfacet
  facet normal 1 -0 0
    outer loop
      vertex 56.8 130 0.0999994
      vertex 56.8 140 0
      vertex 56.8 140 0.0999994
    endloop
  endfacet
  facet normal 1 0 0
    outer loop
      vertex 56.8 140 0
      vertex 56.8 130 0.0999994
      vertex 56.8 130 0
    endloop
  endfacet
  facet normal 0 1 -0
    outer loop
      vertex 56.8 140 0
      vertex 56 140 0.0999994
      vertex 56.8 140 0.0999994
    endloop
  endfacet
  facet normal 0 1 0
    outer loop
      vertex 56 140 0.0999994
      vertex 56.8 140 0
      vertex 56 140 0
    endloop
  endfacet
  facet normal 0 0 -1
    outer loop
      vertex 56 130 0
      vertex 56.8 140 0
      vertex 56.8 130 0
    endloop
  endfacet
  facet normal -0 0 -1
    outer loop
      vertex 56.8 140 0
      vertex 56 130 0
      vertex 56 140 0
    endloop
  endfacet
  facet normal 0 -1 0
    outer loop
      vertex 56 130 0
      vertex 56.8 130 0.0999994
      vertex 56 130 0.0999994
    endloop
  endfacet
  facet normal 0 -1 -0
    outer loop
      vertex 56.8 130 0.0999994
      vertex 56 130 0
      vertex 56.8 130 0
    endloop
  endfacet
  facet normal -1 0 0
    outer loop
      vertex 57 130 0
      vertex 57 140 0.0999994
      vertex 57 140 0
    endloop
  endfacet
  facet normal -1 -0 0
    outer loop
      vertex 57 140 0.0999994
      vertex 57 130 0
      vertex 57 130 0.0999994
    endloop
  endfacet
  facet normal -0 0 1
    outer loop
      vertex 57 140 0.0999994
      vertex 57.8 130 0.0999994
      vertex 57.8 140 0.0999994
    endloop
  endfacet
  facet normal 0 0 1
    outer loop
      vertex 57.8 130 0.0999994
      vertex 57 140 0.0999994
      vertex 57 130 0.0999994
    endloop
  endfacet
  facet normal 1 -0 0
    outer loop
      vertex 57.8 130 0.0999994
      vertex 57.8 140 0
      vertex 57.8 140 0.0999994
    endloop
  endfacet
  facet normal 1 0 0
    outer loop
      vertex 57.8 140 0
      vertex 57.8 130 0.0999994
      vertex 57.8 130 0
    endloop
  endfacet
  facet normal 0 1 -0
    outer loop
      vertex 57.8 140 0
      vertex 57 140 0.0999994
      vertex 57.8 140 0.0999994
    endloop
  endfacet
  facet normal 0 1 0
    outer loop
      vertex 57 140 0.0999994
      vertex 57.8 140 0
      vertex 57 140 0
    endloop
  endfacet
  facet normal 0 0 -1
    outer loop
      vertex 57 130 0
      vertex 57.8 140 0
      vertex 57.8 130 0
    endloop
  endfacet
  facet normal -0 0 -1
    outer loop
      vertex 57.8 140 0
      vertex 57 130 0
      vertex 57 140 0
    endloop
  endfacet
  facet normal 0 -1 0
    outer loop
      vertex 57 130 0
      vertex 57.8 130 0.0999994
      vertex 57 130 0.0999994
    endloop
  endfacet
  facet normal 0 -1 -0
    outer loop
      vertex 57.8 130 0.0999994
      vertex 57 130 0
      vertex 57.8 130 0
    endloop
  endfacet
  facet normal -1 0 0
    outer loop
      vertex 58 130 0
      vertex 58 140 0.0999994
      vertex 58 140 0
    endloop
  endfacet
  facet normal -1 -0 0
    outer loop
      vertex 58 140 0.0999994
      vertex 58 130 0
      vertex 58 130 0.0999994
    endloop
  endfacet
  facet normal -0 0 1
    outer loop
      vertex 58 140 0.0999994
      vertex 58.8 130 0.0999994
      vertex 58.8 140 0.0999994
    endloop
  endfacet
  facet normal 0 0 1
    outer loop
      vertex 58.8 130 0.0999994
      vertex 58 140 0.0999994
      vertex 58 130 0.0999994
    endloop
  endfacet
  facet normal 1 -0 0
    outer loop
      vertex 58.8 130 0.0999994
      vertex 58.8 140 0
      vertex 58.8 140 0.0999994
    endloop
  endfacet
  facet normal 1 0 0
    outer loop
      vertex 58.8 140 0
      vertex 58.8 130 0.0999994
      vertex 58.8 130 0
    endloop
  endfacet
  facet normal 0 1 -0
    outer loop
      vertex 58.8 140 0
      vertex 58 140 0.0999994
      vertex 58.8 140 0.0999994
    endloop
  endfacet
  facet normal 0 1 0
    outer loop
      vertex 58 140 0.0999994
      vertex 58.8 140 0
      vertex 58 140 0
    endloop
  endfacet
  facet normal 0 0 -1
    outer loop
      vertex 58 130 0
      vertex 58.8 140 0
      vertex 58.8 130 0
    endloop
  endfacet
  facet normal -0 0 -1
    outer loop
      vertex 58.8 140 0
      vertex 58 130 0
      vertex 58 140 0
    endloop
  endfacet
  facet normal 0 -1 0
    outer loop
      vertex 58 130 0
      vertex 58.8 130 0.0999994
      vertex 58 130 0.0999994
    endloop
  endfacet
  facet normal 0 -1 -0
    outer loop
      vertex 58.8 130 0.0999994
      vertex 58 130 0
      vertex 58.8 130 0
    endloop
  endfacet
  facet normal -1 0 0
    outer loop
      vertex 59 130 0
      vertex 59 140 0.0999994
      vertex 59 140 0
    endloop
  endfacet
  facet normal -1 -0 0
    outer loop
      vertex 59 140 0.0999994
      vertex 59 130 0
      vertex 59 130 0.0999994
    endloop
  endfacet
  facet normal -0 0 1
    outer loop
      vertex 59 140 0.0999994
      vertex 59.8 130 0.0999994
      vertex 59.8 140 0.0999994
    endloop
  endfacet
  facet normal 0 0 1
    outer loop
      vertex 59.8 130 0.0999994
      vertex 59 140 0.0999994
      vertex 59 130 0.0999994
    endloop
  endfacet
  facet normal 1 -0 0
    outer loop
      vertex 59.8 130 0.0999994
      vertex 59.8 140 0
      vertex 59.8 140 0.0999994
    endloop
  endfacet
  facet normal 1 0 0
    outer loop
      vertex 59.8 140 0
      vertex 59.8 130 0.0999994
      vertex 59.8 130 0
    endloop
  endfacet
  facet normal 0 1 -0
    outer loop
      vertex 59.8 140 0
      vertex 59 140 0.0999994
      vertex 59.8 140 0.0999994
    endloop
  endfacet
  facet normal 0 1 0
    outer loop
      vertex 59 140 0.0999994
      vertex 59.8 140 0
      vertex 59 140 0
    endloop
  endfacet
  facet normal 0 0 -1
    outer loop
      vertex 59 130 0
      vertex 59.8 140 0
      vertex 59.8 130 0
    endloop
  endfacet
  facet normal -0 0 -1
    outer loop
      vertex 59.8 140 0
      vertex 59 130 0
      vertex 59 140 0
    endloop
  endfacet
  facet normal 0 -1 0
    outer loop
      vertex 59 130 0
      vertex 59.8 130 0.0999994
      vertex 59 130 0.0999994
    endloop
  endfacet
  facet normal 0 -1 -0
    outer loop
      vertex 59.8 130 0.0999994
      vertex 59 130 0
      vertex 59.8 130 0
    endloop
  endfacet
  facet normal -1 0 0
    outer loop
      vertex 60 130 0
      vertex 60 140 0.0999994
      vertex 60 140 0
    endloop
  endfacet
  facet normal -1 -0 0
    outer loop
      vertex 60 140 0.0999994
      vertex 60 130 0
      vertex 60 130 0.0999994
    endloop
  endfacet
  facet normal -0 0 1
    outer loop
      vertex 60 140 0.0999994
      vertex 60.8 130 0.0999994
      vertex 60.8 140 0.0999994
    endloop
  endfacet
  facet normal 0 0 1
    outer loop
      vertex 60.8 130 0.0999994
      vertex 60 140 0.0999994
      vertex 60 130 0.0999994
    endloop
  endfacet
  facet normal 1 -0 0
    outer loop
      vertex 60.8 130 0.0999994
      vertex 60.8 140 0
      vertex 60.8 140 0.0999994
    endloop
  endfacet
  facet normal 1 0 0
    outer loop
      vertex 60.8 140 0
      vertex 60.8 130 0.0999994
      vertex 60.8 130 0
    endloop
  endfacet
  facet normal 0 1 -0
    outer loop
      vertex 60.8 140 0
      vertex 60 140 0.0999994
      vertex 60.8 140 0.0999994
    endloop
  endfacet
  facet normal 0 1 0
    outer loop
      vertex 60 140 0.0999994
      vertex 60.8 140 0
      vertex 60 140 0
    endloop
  endfacet
  facet normal 0 0 -1
    outer loop
      vertex 60 130 0
      vertex 60.8 140 0
      vertex 60.8 130 0
    endloop
  endfacet
  facet normal -0 0 -1
    outer loop
      vertex 60.8 140 0
      vertex 60 130 0
      vertex 60 140 0
    endloop
  endfacet
  facet normal 0 -1 0
    outer loop
      vertex 60 130 0
      vertex 60.8 130 0.0999994
      vertex 60 130 0.0999994
    endloop
  endfacet
  facet normal 0 -1 -0
    outer loop
      vertex 60.8 130 0.0999994
      vertex 60 130 0
      vertex 60.8 130 0
    endloop
  endfacet
endsolid OpenSCAD_Model
