solid OpenSCAD_Model
  facet normal -1 0 0
    outer loop
      vertex 150 90 0
      vertex 150 100 0.0999994
      vertex 150 100 0
    endloop
  endfacet
  facet normal -1 -0 0
    outer loop
      vertex 150 100 0.0999994
      vertex 150 90 0
      vertex 150 90 0.0999994
    endloop
  endfacet
  facet normal -0 0 1
    outer loop
      vertex 150 100 0.0999994
      vertex 150.8 90 0.0999994
      vertex 150.8 100 0.0999994
    endloop
  endfacet
  facet normal 0 0 1
    outer loop
      vertex 150.8 90 0.0999994
      vertex 150 100 0.0999994
      vertex 150 90 0.0999994
    endloop
  endfacet
  facet normal 1 -0 0
    outer loop
      vertex 150.8 90 0.0999994
      vertex 150.8 100 0
      vertex 150.8 100 0.0999994
    endloop
  endfacet
  facet normal 1 0 0
    outer loop
      vertex 150.8 100 0
      vertex 150.8 90 0.0999994
      vertex 150.8 90 0
    endloop
  endfacet
  facet normal 0 1 -0
    outer loop
      vertex 150.8 100 0
      vertex 150 100 0.0999994
      vertex 150.8 100 0.0999994
    endloop
  endfacet
  facet normal 0 1 0
    outer loop
      vertex 150 100 0.0999994
      vertex 150.8 100 0
      vertex 150 100 0
    endloop
  endfacet
  facet normal 0 0 -1
    outer loop
      vertex 150 90 0
      vertex 150.8 100 0
      vertex 150.8 90 0
    endloop
  endfacet
  facet normal -0 0 -1
    outer loop
      vertex 150.8 100 0
      vertex 150 90 0
      vertex 150 100 0
    endloop
  endfacet
  facet normal 0 -1 0
    outer loop
      vertex 150 90 0
      vertex 150.8 90 0.0999994
      vertex 150 90 0.0999994
    endloop
  endfacet
  facet normal 0 -1 -0
    outer loop
      vertex 150.8 90 0.0999994
      vertex 150 90 0
      vertex 150.8 90 0
    endloop
  endfacet
  facet normal -1 0 0
    outer loop
      vertex 151 90 0
      vertex 151 100 0.0999994
      vertex 151 100 0
    endloop
  endfacet
  facet normal -1 -0 0
    outer loop
      vertex 151 100 0.0999994
      vertex 151 90 0
      vertex 151 90 0.0999994
    endloop
  endfacet
  facet normal -0 0 1
    outer loop
      vertex 151 100 0.0999994
      vertex 151.8 90 0.0999994
      vertex 151.8 100 0.0999994
    endloop
  endfacet
  facet normal 0 0 1
    outer loop
      vertex 151.8 90 0.0999994
      vertex 151 100 0.0999994
      vertex 151 90 0.0999994
    endloop
  endfacet
  facet normal 1 -0 0
    outer loop
      vertex 151.8 90 0.0999994
      vertex 151.8 100 0
      vertex 151.8 100 0.0999994
    endloop
  endfacet
  facet normal 1 0 0
    outer loop
      vertex 151.8 100 0
      vertex 151.8 90 0.0999994
      vertex 151.8 90 0
    endloop
  endfacet
  facet normal 0 1 -0
    outer loop
      vertex 151.8 100 0
      vertex 151 100 0.0999994
      vertex 151.8 100 0.0999994
    endloop
  endfacet
  facet normal 0 1 0
    outer loop
      vertex 151 100 0.0999994
      vertex 151.8 100 0
      vertex 151 100 0
    endloop
  endfacet
  facet normal 0 0 -1
    outer loop
      vertex 151 90 0
      vertex 151.8 100 0
      vertex 151.8 90 0
    endloop
  endfacet
  facet normal -0 0 -1
    outer loop
      vertex 151.8 100 0
      vertex 151 90 0
      vertex 151 100 0
    endloop
  endfacet
  facet normal 0 -1 0
    outer loop
      vertex 151 90 0
      vertex 151.8 90 0.0999994
      vertex 151 90 0.0999994
    endloop
  endfacet
  facet normal 0 -1 -0
    outer loop
      vertex 151.8 90 0.0999994
      vertex 151 90 0
      vertex 151.8 90 0
    endloop
  endfacet
  facet normal -1 0 0
    outer loop
      vertex 152 90 0
      vertex 152 100 0.0999994
      vertex 152 100 0
    endloop
  endfacet
  facet normal -1 -0 0
    outer loop
      vertex 152 100 0.0999994
      vertex 152 90 0
      vertex 152 90 0.0999994
    endloop
  endfacet
  facet normal -0 0 1
    outer loop
      vertex 152 100 0.0999994
      vertex 152.8 90 0.0999994
      vertex 152.8 100 0.0999994
    endloop
  endfacet
  facet normal 0 0 1
    outer loop
      vertex 152.8 90 0.0999994
      vertex 152 100 0.0999994
      vertex 152 90 0.0999994
    endloop
  endfacet
  facet normal 1 -0 0
    outer loop
      vertex 152.8 90 0.0999994
      vertex 152.8 100 0
      vertex 152.8 100 0.0999994
    endloop
  endfacet
  facet normal 1 0 0
    outer loop
      vertex 152.8 100 0
      vertex 152.8 90 0.0999994
      vertex 152.8 90 0
    endloop
  endfacet
  facet normal 0 0 -1
    outer loop
      vertex 152 90 0
      vertex 152.8 100 0
      vertex 152.8 90 0
    endloop
  endfacet
  facet normal -0 0 -1
    outer loop
      vertex 152.8 100 0
      vertex 152 90 0
      vertex 152 100 0
    endloop
  endfacet
  facet normal 0 -1 0
    outer loop
      vertex 152 90 0
      vertex 152.8 90 0.0999994
      vertex 152 90 0.0999994
    endloop
  endfacet
  facet normal 0 -1 -0
    outer loop
      vertex 152.8 90 0.0999994
      vertex 152 90 0
      vertex 152.8 90 0
    endloop
  endfacet
  facet normal 0 1 -0
    outer loop
      vertex 152.8 100 0
      vertex 152 100 0.0999994
      vertex 152.8 100 0.0999994
    endloop
  endfacet
  facet normal 0 1 0
    outer loop
      vertex 152 100 0.0999994
      vertex 152.8 100 0
      vertex 152 100 0
    endloop
  endfacet
  facet normal -1 0 0
    outer loop
      vertex 153 90 0
      vertex 153 100 0.0999994
      vertex 153 100 0
    endloop
  endfacet
  facet normal -1 -0 0
    outer loop
      vertex 153 100 0.0999994
      vertex 153 90 0
      vertex 153 90 0.0999994
    endloop
  endfacet
  facet normal -0 0 1
    outer loop
      vertex 153 100 0.0999994
      vertex 153.8 90 0.0999994
      vertex 153.8 100 0.0999994
    endloop
  endfacet
  facet normal 0 0 1
    outer loop
      vertex 153.8 90 0.0999994
      vertex 153 100 0.0999994
      vertex 153 90 0.0999994
    endloop
  endfacet
  facet normal 1 -0 0
    outer loop
      vertex 153.8 90 0.0999994
      vertex 153.8 100 0
      vertex 153.8 100 0.0999994
    endloop
  endfacet
  facet normal 1 0 0
    outer loop
      vertex 153.8 100 0
      vertex 153.8 90 0.0999994
      vertex 153.8 90 0
    endloop
  endfacet
  facet normal 0 0 -1
    outer loop
      vertex 153 90 0
      vertex 153.8 100 0
      vertex 153.8 90 0
    endloop
  endfacet
  facet normal -0 0 -1
    outer loop
      vertex 153.8 100 0
      vertex 153 90 0
      vertex 153 100 0
    endloop
  endfacet
  facet normal 0 -1 0
    outer loop
      vertex 153 90 0
      vertex 153.8 90 0.0999994
      vertex 153 90 0.0999994
    endloop
  endfacet
  facet normal 0 -1 -0
    outer loop
      vertex 153.8 90 0.0999994
      vertex 153 90 0
      vertex 153.8 90 0
    endloop
  endfacet
  facet normal 0 1 -0
    outer loop
      vertex 153.8 100 0
      vertex 153 100 0.0999994
      vertex 153.8 100 0.0999994
    endloop
  endfacet
  facet normal 0 1 0
    outer loop
      vertex 153 100 0.0999994
      vertex 153.8 100 0
      vertex 153 100 0
    endloop
  endfacet
  facet normal -1 0 0
    outer loop
      vertex 154 90 0
      vertex 154 100 0.0999994
      vertex 154 100 0
    endloop
  endfacet
  facet normal -1 -0 0
    outer loop
      vertex 154 100 0.0999994
      vertex 154 90 0
      vertex 154 90 0.0999994
    endloop
  endfacet
  facet normal -0 0 1
    outer loop
      vertex 154 100 0.0999994
      vertex 154.8 90 0.0999994
      vertex 154.8 100 0.0999994
    endloop
  endfacet
  facet normal 0 0 1
    outer loop
      vertex 154.8 90 0.0999994
      vertex 154 100 0.0999994
      vertex 154 90 0.0999994
    endloop
  endfacet
  facet normal 1 -0 0
    outer loop
      vertex 154.8 90 0.0999994
      vertex 154.8 100 0
      vertex 154.8 100 0.0999994
    endloop
  endfacet
  facet normal 1 0 0
    outer loop
      vertex 154.8 100 0
      vertex 154.8 90 0.0999994
      vertex 154.8 90 0
    endloop
  endfacet
  facet normal 0 1 -0
    outer loop
      vertex 154.8 100 0
      vertex 154 100 0.0999994
      vertex 154.8 100 0.0999994
    endloop
  endfacet
  facet normal 0 1 0
    outer loop
      vertex 154 100 0.0999994
      vertex 154.8 100 0
      vertex 154 100 0
    endloop
  endfacet
  facet normal 0 0 -1
    outer loop
      vertex 154 90 0
      vertex 154.8 100 0
      vertex 154.8 90 0
    endloop
  endfacet
  facet normal -0 0 -1
    outer loop
      vertex 154.8 100 0
      vertex 154 90 0
      vertex 154 100 0
    endloop
  endfacet
  facet normal 0 -1 0
    outer loop
      vertex 154 90 0
      vertex 154.8 90 0.0999994
      vertex 154 90 0.0999994
    endloop
  endfacet
  facet normal 0 -1 -0
    outer loop
      vertex 154.8 90 0.0999994
      vertex 154 90 0
      vertex 154.8 90 0
    endloop
  endfacet
  facet normal -1 0 0
    outer loop
      vertex 155 90 0
      vertex 155 100 0.0999994
      vertex 155 100 0
    endloop
  endfacet
  facet normal -1 -0 0
    outer loop
      vertex 155 100 0.0999994
      vertex 155 90 0
      vertex 155 90 0.0999994
    endloop
  endfacet
  facet normal -0 0 1
    outer loop
      vertex 155 100 0.0999994
      vertex 155.8 90 0.0999994
      vertex 155.8 100 0.0999994
    endloop
  endfacet
  facet normal 0 0 1
    outer loop
      vertex 155.8 90 0.0999994
      vertex 155 100 0.0999994
      vertex 155 90 0.0999994
    endloop
  endfacet
  facet normal 1 -0 0
    outer loop
      vertex 155.8 90 0.0999994
      vertex 155.8 100 0
      vertex 155.8 100 0.0999994
    endloop
  endfacet
  facet normal 1 0 0
    outer loop
      vertex 155.8 100 0
      vertex 155.8 90 0.0999994
      vertex 155.8 90 0
    endloop
  endfacet
  facet normal 0 0 -1
    outer loop
      vertex 155 90 0
      vertex 155.8 100 0
      vertex 155.8 90 0
    endloop
  endfacet
  facet normal -0 0 -1
    outer loop
      vertex 155.8 100 0
      vertex 155 90 0
      vertex 155 100 0
    endloop
  endfacet
  facet normal 0 -1 0
    outer loop
      vertex 155 90 0
      vertex 155.8 90 0.0999994
      vertex 155 90 0.0999994
    endloop
  endfacet
  facet normal 0 -1 -0
    outer loop
      vertex 155.8 90 0.0999994
      vertex 155 90 0
      vertex 155.8 90 0
    endloop
  endfacet
  facet normal 0 1 -0
    outer loop
      vertex 155.8 100 0
      vertex 155 100 0.0999994
      vertex 155.8 100 0.0999994
    endloop
  endfacet
  facet normal 0 1 0
    outer loop
      vertex 155 100 0.0999994
      vertex 155.8 100 0
      vertex 155 100 0
    endloop
  endfacet
  facet normal -1 0 0
    outer loop
      vertex 156 90 0
      vertex 156 100 0.0999994
      vertex 156 100 0
    endloop
  endfacet
  facet normal -1 -0 0
    outer loop
      vertex 156 100 0.0999994
      vertex 156 90 0
      vertex 156 90 0.0999994
    endloop
  endfacet
  facet normal -0 0 1
    outer loop
      vertex 156 100 0.0999994
      vertex 156.8 90 0.0999994
      vertex 156.8 100 0.0999994
    endloop
  endfacet
  facet normal 0 0 1
    outer loop
      vertex 156.8 90 0.0999994
      vertex 156 100 0.0999994
      vertex 156 90 0.0999994
    endloop
  endfacet
  facet normal 1 -0 0
    outer loop
      vertex 156.8 90 0.0999994
      vertex 156.8 100 0
      vertex 156.8 100 0.0999994
    endloop
  endfacet
  facet normal 1 0 0
    outer loop
      vertex 156.8 100 0
      vertex 156.8 90 0.0999994
      vertex 156.8 90 0
    endloop
  endfacet
  facet normal 0 1 -0
    outer loop
      vertex 156.8 100 0
      vertex 156 100 0.0999994
      vertex 156.8 100 0.0999994
    endloop
  endfacet
  facet normal 0 1 0
    outer loop
      vertex 156 100 0.0999994
      vertex 156.8 100 0
      vertex 156 100 0
    endloop
  endfacet
  facet normal 0 0 -1
    outer loop
      vertex 156 90 0
      vertex 156.8 100 0
      vertex 156.8 90 0
    endloop
  endfacet
  facet normal -0 0 -1
    outer loop
      vertex 156.8 100 0
      vertex 156 90 0
      vertex 156 100 0
    endloop
  endfacet
  facet normal 0 -1 0
    outer loop
      vertex 156 90 0
      vertex 156.8 90 0.0999994
      vertex 156 90 0.0999994
    endloop
  endfacet
  facet normal 0 -1 -0
    outer loop
      vertex 156.8 90 0.0999994
      vertex 156 90 0
      vertex 156.8 90 0
    endloop
  endfacet
  facet normal -1 0 0
    outer loop
      vertex 157 90 0
      vertex 157 100 0.0999994
      vertex 157 100 0
    endloop
  endfacet
  facet normal -1 -0 0
    outer loop
      vertex 157 100 0.0999994
      vertex 157 90 0
      vertex 157 90 0.0999994
    endloop
  endfacet
  facet normal -0 0 1
    outer loop
      vertex 157 100 0.0999994
      vertex 157.8 90 0.0999994
      vertex 157.8 100 0.0999994
    endloop
  endfacet
  facet normal 0 0 1
    outer loop
      vertex 157.8 90 0.0999994
      vertex 157 100 0.0999994
      vertex 157 90 0.0999994
    endloop
  endfacet
  facet normal 1 -0 0
    outer loop
      vertex 157.8 90 0.0999994
      vertex 157.8 100 0
      vertex 157.8 100 0.0999994
    endloop
  endfacet
  facet normal 1 0 0
    outer loop
      vertex 157.8 100 0
      vertex 157.8 90 0.0999994
      vertex 157.8 90 0
    endloop
  endfacet
  facet normal 0 1 -0
    outer loop
      vertex 157.8 100 0
      vertex 157 100 0.0999994
      vertex 157.8 100 0.0999994
    endloop
  endfacet
  facet normal 0 1 0
    outer loop
      vertex 157 100 0.0999994
      vertex 157.8 100 0
      vertex 157 100 0
    endloop
  endfacet
  facet normal 0 0 -1
    outer loop
      vertex 157 90 0
      vertex 157.8 100 0
      vertex 157.8 90 0
    endloop
  endfacet
  facet normal -0 0 -1
    outer loop
      vertex 157.8 100 0
      vertex 157 90 0
      vertex 157 100 0
    endloop
  endfacet
  facet normal 0 -1 0
    outer loop
      vertex 157 90 0
      vertex 157.8 90 0.0999994
      vertex 157 90 0.0999994
    endloop
  endfacet
  facet normal 0 -1 -0
    outer loop
      vertex 157.8 90 0.0999994
      vertex 157 90 0
      vertex 157.8 90 0
    endloop
  endfacet
  facet normal -1 0 0
    outer loop
      vertex 158 90 0
      vertex 158 100 0.0999994
      vertex 158 100 0
    endloop
  endfacet
  facet normal -1 -0 0
    outer loop
      vertex 158 100 0.0999994
      vertex 158 90 0
      vertex 158 90 0.0999994
    endloop
  endfacet
  facet normal -0 0 1
    outer loop
      vertex 158 100 0.0999994
      vertex 158.8 90 0.0999994
      vertex 158.8 100 0.0999994
    endloop
  endfacet
  facet normal 0 0 1
    outer loop
      vertex 158.8 90 0.0999994
      vertex 158 100 0.0999994
      vertex 158 90 0.0999994
    endloop
  endfacet
  facet normal 1 -0 0
    outer loop
      vertex 158.8 90 0.0999994
      vertex 158.8 100 0
      vertex 158.8 100 0.0999994
    endloop
  endfacet
  facet normal 1 0 0
    outer loop
      vertex 158.8 100 0
      vertex 158.8 90 0.0999994
      vertex 158.8 90 0
    endloop
  endfacet
  facet normal 0 0 -1
    outer loop
      vertex 158 90 0
      vertex 158.8 100 0
      vertex 158.8 90 0
    endloop
  endfacet
  facet normal -0 0 -1
    outer loop
      vertex 158.8 100 0
      vertex 158 90 0
      vertex 158 100 0
    endloop
  endfacet
  facet normal 0 -1 0
    outer loop
      vertex 158 90 0
      vertex 158.8 90 0.0999994
      vertex 158 90 0.0999994
    endloop
  endfacet
  facet normal 0 -1 -0
    outer loop
      vertex 158.8 90 0.0999994
      vertex 158 90 0
      vertex 158.8 90 0
    endloop
  endfacet
  facet normal 0 1 -0
    outer loop
      vertex 158.8 100 0
      vertex 158 100 0.0999994
      vertex 158.8 100 0.0999994
    endloop
  endfacet
  facet normal 0 1 0
    outer loop
      vertex 158 100 0.0999994
      vertex 158.8 100 0
      vertex 158 100 0
    endloop
  endfacet
  facet normal -1 0 0
    outer loop
      vertex 159 90 0
      vertex 159 100 0.0999994
      vertex 159 100 0
    endloop
  endfacet
  facet normal -1 -0 0
    outer loop
      vertex 159 100 0.0999994
      vertex 159 90 0
      vertex 159 90 0.0999994
    endloop
  endfacet
  facet normal -0 0 1
    outer loop
      vertex 159 100 0.0999994
      vertex 159.8 90 0.0999994
      vertex 159.8 100 0.0999994
    endloop
  endfacet
  facet normal 0 0 1
    outer loop
      vertex 159.8 90 0.0999994
      vertex 159 100 0.0999994
      vertex 159 90 0.0999994
    endloop
  endfacet
  facet normal 1 -0 0
    outer loop
      vertex 159.8 90 0.0999994
      vertex 159.8 100 0
      vertex 159.8 100 0.0999994
    endloop
  endfacet
  facet normal 1 0 0
    outer loop
      vertex 159.8 100 0
      vertex 159.8 90 0.0999994
      vertex 159.8 90 0
    endloop
  endfacet
  facet normal 0 1 -0
    outer loop
      vertex 159.8 100 0
      vertex 159 100 0.0999994
      vertex 159.8 100 0.0999994
    endloop
  endfacet
  facet normal 0 1 0
    outer loop
      vertex 159 100 0.0999994
      vertex 159.8 100 0
      vertex 159 100 0
    endloop
  endfacet
  facet normal 0 0 -1
    outer loop
      vertex 159 90 0
      vertex 159.8 100 0
      vertex 159.8 90 0
    endloop
  endfacet
  facet normal -0 0 -1
    outer loop
      vertex 159.8 100 0
      vertex 159 90 0
      vertex 159 100 0
    endloop
  endfacet
  facet normal 0 -1 0
    outer loop
      vertex 159 90 0
      vertex 159.8 90 0.0999994
      vertex 159 90 0.0999994
    endloop
  endfacet
  facet normal 0 -1 -0
    outer loop
      vertex 159.8 90 0.0999994
      vertex 159 90 0
      vertex 159.8 90 0
    endloop
  endfacet
  facet normal -1 0 0
    outer loop
      vertex 160 90 0
      vertex 160 100 0.0999994
      vertex 160 100 0
    endloop
  endfacet
  facet normal -1 -0 0
    outer loop
      vertex 160 100 0.0999994
      vertex 160 90 0
      vertex 160 90 0.0999994
    endloop
  endfacet
  facet normal -0 0 1
    outer loop
      vertex 160 100 0.0999994
      vertex 160.8 90 0.0999994
      vertex 160.8 100 0.0999994
    endloop
  endfacet
  facet normal 0 0 1
    outer loop
      vertex 160.8 90 0.0999994
      vertex 160 100 0.0999994
      vertex 160 90 0.0999994
    endloop
  endfacet
  facet normal 1 -0 0
    outer loop
      vertex 160.8 90 0.0999994
      vertex 160.8 100 0
      vertex 160.8 100 0.0999994
    endloop
  endfacet
  facet normal 1 0 0
    outer loop
      vertex 160.8 100 0
      vertex 160.8 90 0.0999994
      vertex 160.8 90 0
    endloop
  endfacet
  facet normal 0 1 -0
    outer loop
      vertex 160.8 100 0
      vertex 160 100 0.0999994
      vertex 160.8 100 0.0999994
    endloop
  endfacet
  facet normal 0 1 0
    outer loop
      vertex 160 100 0.0999994
      vertex 160.8 100 0
      vertex 160 100 0
    endloop
  endfacet
  facet normal 0 0 -1
    outer loop
      vertex 160 90 0
      vertex 160.8 100 0
      vertex 160.8 90 0
    endloop
  endfacet
  facet normal -0 0 -1
    outer loop
      vertex 160.8 100 0
      vertex 160 90 0
      vertex 160 100 0
    endloop
  endfacet
  facet normal 0 -1 0
    outer loop
      vertex 160 90 0
      vertex 160.8 90 0.0999994
      vertex 160 90 0.0999994
    endloop
  endfacet
  facet normal 0 -1 -0
    outer loop
      vertex 160.8 90 0.0999994
      vertex 160 90 0
      vertex 160.8 90 0
    endloop
  endfacet
endsolid OpenSCAD_Model
