solid OpenSCAD_Model
  facet normal -1 0 0
    outer loop
      vertex 50 70 0
      vertex 50 80 0.0999994
      vertex 50 80 0
    endloop
  endfacet
  facet normal -1 -0 0
    outer loop
      vertex 50 80 0.0999994
      vertex 50 70 0
      vertex 50 70 0.0999994
    endloop
  endfacet
  facet normal -0 0 1
    outer loop
      vertex 50 80 0.0999994
      vertex 50.8 70 0.0999994
      vertex 50.8 80 0.0999994
    endloop
  endfacet
  facet normal 0 0 1
    outer loop
      vertex 50.8 70 0.0999994
      vertex 50 80 0.0999994
      vertex 50 70 0.0999994
    endloop
  endfacet
  facet normal 1 -0 0
    outer loop
      vertex 50.8 70 0.0999994
      vertex 50.8 80 0
      vertex 50.8 80 0.0999994
    endloop
  endfacet
  facet normal 1 0 0
    outer loop
      vertex 50.8 80 0
      vertex 50.8 70 0.0999994
      vertex 50.8 70 0
    endloop
  endfacet
  facet normal 0 0 -1
    outer loop
      vertex 50 70 0
      vertex 50.8 80 0
      vertex 50.8 70 0
    endloop
  endfacet
  facet normal -0 0 -1
    outer loop
      vertex 50.8 80 0
      vertex 50 70 0
      vertex 50 80 0
    endloop
  endfacet
  facet normal 0 -1 0
    outer loop
      vertex 50 70 0
      vertex 50.8 70 0.0999994
      vertex 50 70 0.0999994
    endloop
  endfacet
  facet normal 0 -1 -0
    outer loop
      vertex 50.8 70 0.0999994
      vertex 50 70 0
      vertex 50.8 70 0
    endloop
  endfacet
  facet normal 0 1 -0
    outer loop
      vertex 50.8 80 0
      vertex 50 80 0.0999994
      vertex 50.8 80 0.0999994
    endloop
  endfacet
  facet normal 0 1 0
    outer loop
      vertex 50 80 0.0999994
      vertex 50.8 80 0
      vertex 50 80 0
    endloop
  endfacet
  facet normal -1 0 0
    outer loop
      vertex 51 70 0
      vertex 51 80 0.0999994
      vertex 51 80 0
    endloop
  endfacet
  facet normal -1 -0 0
    outer loop
      vertex 51 80 0.0999994
      vertex 51 70 0
      vertex 51 70 0.0999994
    endloop
  endfacet
  facet normal -0 0 1
    outer loop
      vertex 51 80 0.0999994
      vertex 51.8 70 0.0999994
      vertex 51.8 80 0.0999994
    endloop
  endfacet
  facet normal 0 0 1
    outer loop
      vertex 51.8 70 0.0999994
      vertex 51 80 0.0999994
      vertex 51 70 0.0999994
    endloop
  endfacet
  facet normal 1 -0 0
    outer loop
      vertex 51.8 70 0.0999994
      vertex 51.8 80 0
      vertex 51.8 80 0.0999994
    endloop
  endfacet
  facet normal 1 0 0
    outer loop
      vertex 51.8 80 0
      vertex 51.8 70 0.0999994
      vertex 51.8 70 0
    endloop
  endfacet
  facet normal 0 1 -0
    outer loop
      vertex 51.8 80 0
      vertex 51 80 0.0999994
      vertex 51.8 80 0.0999994
    endloop
  endfacet
  facet normal 0 1 0
    outer loop
      vertex 51 80 0.0999994
      vertex 51.8 80 0
      vertex 51 80 0
    endloop
  endfacet
  facet normal 0 0 -1
    outer loop
      vertex 51 70 0
      vertex 51.8 80 0
      vertex 51.8 70 0
    endloop
  endfacet
  facet normal -0 0 -1
    outer loop
      vertex 51.8 80 0
      vertex 51 70 0
      vertex 51 80 0
    endloop
  endfacet
  facet normal 0 -1 0
    outer loop
      vertex 51 70 0
      vertex 51.8 70 0.0999994
      vertex 51 70 0.0999994
    endloop
  endfacet
  facet normal 0 -1 -0
    outer loop
      vertex 51.8 70 0.0999994
      vertex 51 70 0
      vertex 51.8 70 0
    endloop
  endfacet
  facet normal -1 0 0
    outer loop
      vertex 52 70 0
      vertex 52 80 0.0999994
      vertex 52 80 0
    endloop
  endfacet
  facet normal -1 -0 0
    outer loop
      vertex 52 80 0.0999994
      vertex 52 70 0
      vertex 52 70 0.0999994
    endloop
  endfacet
  facet normal -0 0 1
    outer loop
      vertex 52 80 0.0999994
      vertex 52.8 70 0.0999994
      vertex 52.8 80 0.0999994
    endloop
  endfacet
  facet normal 0 0 1
    outer loop
      vertex 52.8 70 0.0999994
      vertex 52 80 0.0999994
      vertex 52 70 0.0999994
    endloop
  endfacet
  facet normal 1 -0 0
    outer loop
      vertex 52.8 70 0.0999994
      vertex 52.8 80 0
      vertex 52.8 80 0.0999994
    endloop
  endfacet
  facet normal 1 0 0
    outer loop
      vertex 52.8 80 0
      vertex 52.8 70 0.0999994
      vertex 52.8 70 0
    endloop
  endfacet
  facet normal 0 0 -1
    outer loop
      vertex 52 70 0
      vertex 52.8 80 0
      vertex 52.8 70 0
    endloop
  endfacet
  facet normal -0 0 -1
    outer loop
      vertex 52.8 80 0
      vertex 52 70 0
      vertex 52 80 0
    endloop
  endfacet
  facet normal 0 -1 0
    outer loop
      vertex 52 70 0
      vertex 52.8 70 0.0999994
      vertex 52 70 0.0999994
    endloop
  endfacet
  facet normal 0 -1 -0
    outer loop
      vertex 52.8 70 0.0999994
      vertex 52 70 0
      vertex 52.8 70 0
    endloop
  endfacet
  facet normal 0 1 -0
    outer loop
      vertex 52.8 80 0
      vertex 52 80 0.0999994
      vertex 52.8 80 0.0999994
    endloop
  endfacet
  facet normal 0 1 0
    outer loop
      vertex 52 80 0.0999994
      vertex 52.8 80 0
      vertex 52 80 0
    endloop
  endfacet
  facet normal -1 0 0
    outer loop
      vertex 53 70 0
      vertex 53 80 0.0999994
      vertex 53 80 0
    endloop
  endfacet
  facet normal -1 -0 0
    outer loop
      vertex 53 80 0.0999994
      vertex 53 70 0
      vertex 53 70 0.0999994
    endloop
  endfacet
  facet normal -0 0 1
    outer loop
      vertex 53 80 0.0999994
      vertex 53.8 70 0.0999994
      vertex 53.8 80 0.0999994
    endloop
  endfacet
  facet normal 0 0 1
    outer loop
      vertex 53.8 70 0.0999994
      vertex 53 80 0.0999994
      vertex 53 70 0.0999994
    endloop
  endfacet
  facet normal 1 -0 0
    outer loop
      vertex 53.8 70 0.0999994
      vertex 53.8 80 0
      vertex 53.8 80 0.0999994
    endloop
  endfacet
  facet normal 1 0 0
    outer loop
      vertex 53.8 80 0
      vertex 53.8 70 0.0999994
      vertex 53.8 70 0
    endloop
  endfacet
  facet normal 0 1 -0
    outer loop
      vertex 53.8 80 0
      vertex 53 80 0.0999994
      vertex 53.8 80 0.0999994
    endloop
  endfacet
  facet normal 0 1 0
    outer loop
      vertex 53 80 0.0999994
      vertex 53.8 80 0
      vertex 53 80 0
    endloop
  endfacet
  facet normal 0 0 -1
    outer loop
      vertex 53 70 0
      vertex 53.8 80 0
      vertex 53.8 70 0
    endloop
  endfacet
  facet normal -0 0 -1
    outer loop
      vertex 53.8 80 0
      vertex 53 70 0
      vertex 53 80 0
    endloop
  endfacet
  facet normal 0 -1 0
    outer loop
      vertex 53 70 0
      vertex 53.8 70 0.0999994
      vertex 53 70 0.0999994
    endloop
  endfacet
  facet normal 0 -1 -0
    outer loop
      vertex 53.8 70 0.0999994
      vertex 53 70 0
      vertex 53.8 70 0
    endloop
  endfacet
  facet normal -1 0 0
    outer loop
      vertex 54 70 0
      vertex 54 80 0.0999994
      vertex 54 80 0
    endloop
  endfacet
  facet normal -1 -0 0
    outer loop
      vertex 54 80 0.0999994
      vertex 54 70 0
      vertex 54 70 0.0999994
    endloop
  endfacet
  facet normal -0 0 1
    outer loop
      vertex 54 80 0.0999994
      vertex 54.8 70 0.0999994
      vertex 54.8 80 0.0999994
    endloop
  endfacet
  facet normal 0 0 1
    outer loop
      vertex 54.8 70 0.0999994
      vertex 54 80 0.0999994
      vertex 54 70 0.0999994
    endloop
  endfacet
  facet normal 1 -0 0
    outer loop
      vertex 54.8 70 0.0999994
      vertex 54.8 80 0
      vertex 54.8 80 0.0999994
    endloop
  endfacet
  facet normal 1 0 0
    outer loop
      vertex 54.8 80 0
      vertex 54.8 70 0.0999994
      vertex 54.8 70 0
    endloop
  endfacet
  facet normal 0 1 -0
    outer loop
      vertex 54.8 80 0
      vertex 54 80 0.0999994
      vertex 54.8 80 0.0999994
    endloop
  endfacet
  facet normal 0 1 0
    outer loop
      vertex 54 80 0.0999994
      vertex 54.8 80 0
      vertex 54 80 0
    endloop
  endfacet
  facet normal 0 0 -1
    outer loop
      vertex 54 70 0
      vertex 54.8 80 0
      vertex 54.8 70 0
    endloop
  endfacet
  facet normal -0 0 -1
    outer loop
      vertex 54.8 80 0
      vertex 54 70 0
      vertex 54 80 0
    endloop
  endfacet
  facet normal 0 -1 0
    outer loop
      vertex 54 70 0
      vertex 54.8 70 0.0999994
      vertex 54 70 0.0999994
    endloop
  endfacet
  facet normal 0 -1 -0
    outer loop
      vertex 54.8 70 0.0999994
      vertex 54 70 0
      vertex 54.8 70 0
    endloop
  endfacet
  facet normal -1 0 0
    outer loop
      vertex 55 70 0
      vertex 55 80 0.0999994
      vertex 55 80 0
    endloop
  endfacet
  facet normal -1 -0 0
    outer loop
      vertex 55 80 0.0999994
      vertex 55 70 0
      vertex 55 70 0.0999994
    endloop
  endfacet
  facet normal -0 0 1
    outer loop
      vertex 55 80 0.0999994
      vertex 55.8 70 0.0999994
      vertex 55.8 80 0.0999994
    endloop
  endfacet
  facet normal 0 0 1
    outer loop
      vertex 55.8 70 0.0999994
      vertex 55 80 0.0999994
      vertex 55 70 0.0999994
    endloop
  endfacet
  facet normal 1 -0 0
    outer loop
      vertex 55.8 70 0.0999994
      vertex 55.8 80 0
      vertex 55.8 80 0.0999994
    endloop
  endfacet
  facet normal 1 0 0
    outer loop
      vertex 55.8 80 0
      vertex 55.8 70 0.0999994
      vertex 55.8 70 0
    endloop
  endfacet
  facet normal 0 0 -1
    outer loop
      vertex 55 70 0
      vertex 55.8 80 0
      vertex 55.8 70 0
    endloop
  endfacet
  facet normal -0 0 -1
    outer loop
      vertex 55.8 80 0
      vertex 55 70 0
      vertex 55 80 0
    endloop
  endfacet
  facet normal 0 -1 0
    outer loop
      vertex 55 70 0
      vertex 55.8 70 0.0999994
      vertex 55 70 0.0999994
    endloop
  endfacet
  facet normal 0 -1 -0
    outer loop
      vertex 55.8 70 0.0999994
      vertex 55 70 0
      vertex 55.8 70 0
    endloop
  endfacet
  facet normal 0 1 -0
    outer loop
      vertex 55.8 80 0
      vertex 55 80 0.0999994
      vertex 55.8 80 0.0999994
    endloop
  endfacet
  facet normal 0 1 0
    outer loop
      vertex 55 80 0.0999994
      vertex 55.8 80 0
      vertex 55 80 0
    endloop
  endfacet
  facet normal -1 0 0
    outer loop
      vertex 56 70 0
      vertex 56 80 0.0999994
      vertex 56 80 0
    endloop
  endfacet
  facet normal -1 -0 0
    outer loop
      vertex 56 80 0.0999994
      vertex 56 70 0
      vertex 56 70 0.0999994
    endloop
  endfacet
  facet normal -0 0 1
    outer loop
      vertex 56 80 0.0999994
      vertex 56.8 70 0.0999994
      vertex 56.8 80 0.0999994
    endloop
  endfacet
  facet normal 0 0 1
    outer loop
      vertex 56.8 70 0.0999994
      vertex 56 80 0.0999994
      vertex 56 70 0.0999994
    endloop
  endfacet
  facet normal 1 -0 0
    outer loop
      vertex 56.8 70 0.0999994
      vertex 56.8 80 0
      vertex 56.8 80 0.0999994
    endloop
  endfacet
  facet normal 1 0 0
    outer loop
      vertex 56.8 80 0
      vertex 56.8 70 0.0999994
      vertex 56.8 70 0
    endloop
  endfacet
  facet normal 0 1 -0
    outer loop
      vertex 56.8 80 0
      vertex 56 80 0.0999994
      vertex 56.8 80 0.0999994
    endloop
  endfacet
  facet normal 0 1 0
    outer loop
      vertex 56 80 0.0999994
      vertex 56.8 80 0
      vertex 56 80 0
    endloop
  endfacet
  facet normal 0 0 -1
    outer loop
      vertex 56 70 0
      vertex 56.8 80 0
      vertex 56.8 70 0
    endloop
  endfacet
  facet normal -0 0 -1
    outer loop
      vertex 56.8 80 0
      vertex 56 70 0
      vertex 56 80 0
    endloop
  endfacet
  facet normal 0 -1 0
    outer loop
      vertex 56 70 0
      vertex 56.8 70 0.0999994
      vertex 56 70 0.0999994
    endloop
  endfacet
  facet normal 0 -1 -0
    outer loop
      vertex 56.8 70 0.0999994
      vertex 56 70 0
      vertex 56.8 70 0
    endloop
  endfacet
  facet normal -1 0 0
    outer loop
      vertex 57 70 0
      vertex 57 80 0.0999994
      vertex 57 80 0
    endloop
  endfacet
  facet normal -1 -0 0
    outer loop
      vertex 57 80 0.0999994
      vertex 57 70 0
      vertex 57 70 0.0999994
    endloop
  endfacet
  facet normal -0 0 1
    outer loop
      vertex 57 80 0.0999994
      vertex 57.8 70 0.0999994
      vertex 57.8 80 0.0999994
    endloop
  endfacet
  facet normal 0 0 1
    outer loop
      vertex 57.8 70 0.0999994
      vertex 57 80 0.0999994
      vertex 57 70 0.0999994
    endloop
  endfacet
  facet normal 1 -0 0
    outer loop
      vertex 57.8 70 0.0999994
      vertex 57.8 80 0
      vertex 57.8 80 0.0999994
    endloop
  endfacet
  facet normal 1 0 0
    outer loop
      vertex 57.8 80 0
      vertex 57.8 70 0.0999994
      vertex 57.8 70 0
    endloop
  endfacet
  facet normal 0 1 -0
    outer loop
      vertex 57.8 80 0
      vertex 57 80 0.0999994
      vertex 57.8 80 0.0999994
    endloop
  endfacet
  facet normal 0 1 0
    outer loop
      vertex 57 80 0.0999994
      vertex 57.8 80 0
      vertex 57 80 0
    endloop
  endfacet
  facet normal 0 0 -1
    outer loop
      vertex 57 70 0
      vertex 57.8 80 0
      vertex 57.8 70 0
    endloop
  endfacet
  facet normal -0 0 -1
    outer loop
      vertex 57.8 80 0
      vertex 57 70 0
      vertex 57 80 0
    endloop
  endfacet
  facet normal 0 -1 0
    outer loop
      vertex 57 70 0
      vertex 57.8 70 0.0999994
      vertex 57 70 0.0999994
    endloop
  endfacet
  facet normal 0 -1 -0
    outer loop
      vertex 57.8 70 0.0999994
      vertex 57 70 0
      vertex 57.8 70 0
    endloop
  endfacet
  facet normal -1 0 0
    outer loop
      vertex 58 70 0
      vertex 58 80 0.0999994
      vertex 58 80 0
    endloop
  endfacet
  facet normal -1 -0 0
    outer loop
      vertex 58 80 0.0999994
      vertex 58 70 0
      vertex 58 70 0.0999994
    endloop
  endfacet
  facet normal -0 0 1
    outer loop
      vertex 58 80 0.0999994
      vertex 58.8 70 0.0999994
      vertex 58.8 80 0.0999994
    endloop
  endfacet
  facet normal 0 0 1
    outer loop
      vertex 58.8 70 0.0999994
      vertex 58 80 0.0999994
      vertex 58 70 0.0999994
    endloop
  endfacet
  facet normal 1 -0 0
    outer loop
      vertex 58.8 70 0.0999994
      vertex 58.8 80 0
      vertex 58.8 80 0.0999994
    endloop
  endfacet
  facet normal 1 0 0
    outer loop
      vertex 58.8 80 0
      vertex 58.8 70 0.0999994
      vertex 58.8 70 0
    endloop
  endfacet
  facet normal 0 1 -0
    outer loop
      vertex 58.8 80 0
      vertex 58 80 0.0999994
      vertex 58.8 80 0.0999994
    endloop
  endfacet
  facet normal 0 1 0
    outer loop
      vertex 58 80 0.0999994
      vertex 58.8 80 0
      vertex 58 80 0
    endloop
  endfacet
  facet normal 0 0 -1
    outer loop
      vertex 58 70 0
      vertex 58.8 80 0
      vertex 58.8 70 0
    endloop
  endfacet
  facet normal -0 0 -1
    outer loop
      vertex 58.8 80 0
      vertex 58 70 0
      vertex 58 80 0
    endloop
  endfacet
  facet normal 0 -1 0
    outer loop
      vertex 58 70 0
      vertex 58.8 70 0.0999994
      vertex 58 70 0.0999994
    endloop
  endfacet
  facet normal 0 -1 -0
    outer loop
      vertex 58.8 70 0.0999994
      vertex 58 70 0
      vertex 58.8 70 0
    endloop
  endfacet
  facet normal -1 0 0
    outer loop
      vertex 59 70 0
      vertex 59 80 0.0999994
      vertex 59 80 0
    endloop
  endfacet
  facet normal -1 -0 0
    outer loop
      vertex 59 80 0.0999994
      vertex 59 70 0
      vertex 59 70 0.0999994
    endloop
  endfacet
  facet normal -0 0 1
    outer loop
      vertex 59 80 0.0999994
      vertex 59.8 70 0.0999994
      vertex 59.8 80 0.0999994
    endloop
  endfacet
  facet normal 0 0 1
    outer loop
      vertex 59.8 70 0.0999994
      vertex 59 80 0.0999994
      vertex 59 70 0.0999994
    endloop
  endfacet
  facet normal 1 -0 0
    outer loop
      vertex 59.8 70 0.0999994
      vertex 59.8 80 0
      vertex 59.8 80 0.0999994
    endloop
  endfacet
  facet normal 1 0 0
    outer loop
      vertex 59.8 80 0
      vertex 59.8 70 0.0999994
      vertex 59.8 70 0
    endloop
  endfacet
  facet normal 0 0 -1
    outer loop
      vertex 59 70 0
      vertex 59.8 80 0
      vertex 59.8 70 0
    endloop
  endfacet
  facet normal -0 0 -1
    outer loop
      vertex 59.8 80 0
      vertex 59 70 0
      vertex 59 80 0
    endloop
  endfacet
  facet normal 0 -1 0
    outer loop
      vertex 59 70 0
      vertex 59.8 70 0.0999994
      vertex 59 70 0.0999994
    endloop
  endfacet
  facet normal 0 -1 -0
    outer loop
      vertex 59.8 70 0.0999994
      vertex 59 70 0
      vertex 59.8 70 0
    endloop
  endfacet
  facet normal 0 1 -0
    outer loop
      vertex 59.8 80 0
      vertex 59 80 0.0999994
      vertex 59.8 80 0.0999994
    endloop
  endfacet
  facet normal 0 1 0
    outer loop
      vertex 59 80 0.0999994
      vertex 59.8 80 0
      vertex 59 80 0
    endloop
  endfacet
  facet normal -1 0 0
    outer loop
      vertex 60 70 0
      vertex 60 80 0.0999994
      vertex 60 80 0
    endloop
  endfacet
  facet normal -1 -0 0
    outer loop
      vertex 60 80 0.0999994
      vertex 60 70 0
      vertex 60 70 0.0999994
    endloop
  endfacet
  facet normal -0 0 1
    outer loop
      vertex 60 80 0.0999994
      vertex 60.8 70 0.0999994
      vertex 60.8 80 0.0999994
    endloop
  endfacet
  facet normal 0 0 1
    outer loop
      vertex 60.8 70 0.0999994
      vertex 60 80 0.0999994
      vertex 60 70 0.0999994
    endloop
  endfacet
  facet normal 1 -0 0
    outer loop
      vertex 60.8 70 0.0999994
      vertex 60.8 80 0
      vertex 60.8 80 0.0999994
    endloop
  endfacet
  facet normal 1 0 0
    outer loop
      vertex 60.8 80 0
      vertex 60.8 70 0.0999994
      vertex 60.8 70 0
    endloop
  endfacet
  facet normal 0 0 -1
    outer loop
      vertex 60 70 0
      vertex 60.8 80 0
      vertex 60.8 70 0
    endloop
  endfacet
  facet normal -0 0 -1
    outer loop
      vertex 60.8 80 0
      vertex 60 70 0
      vertex 60 80 0
    endloop
  endfacet
  facet normal 0 -1 0
    outer loop
      vertex 60 70 0
      vertex 60.8 70 0.0999994
      vertex 60 70 0.0999994
    endloop
  endfacet
  facet normal 0 -1 -0
    outer loop
      vertex 60.8 70 0.0999994
      vertex 60 70 0
      vertex 60.8 70 0
    endloop
  endfacet
  facet normal 0 1 -0
    outer loop
      vertex 60.8 80 0
      vertex 60 80 0.0999994
      vertex 60.8 80 0.0999994
    endloop
  endfacet
  facet normal 0 1 0
    outer loop
      vertex 60 80 0.0999994
      vertex 60.8 80 0
      vertex 60 80 0
    endloop
  endfacet
endsolid OpenSCAD_Model
