solid OpenSCAD_Model
  facet normal -1 0 0
    outer loop
      vertex 110 50 0
      vertex 110 60 0.0999994
      vertex 110 60 0
    endloop
  endfacet
  facet normal -1 -0 0
    outer loop
      vertex 110 60 0.0999994
      vertex 110 50 0
      vertex 110 50 0.0999994
    endloop
  endfacet
  facet normal -0 0 1
    outer loop
      vertex 110 60 0.0999994
      vertex 110.8 50 0.0999994
      vertex 110.8 60 0.0999994
    endloop
  endfacet
  facet normal 0 0 1
    outer loop
      vertex 110.8 50 0.0999994
      vertex 110 60 0.0999994
      vertex 110 50 0.0999994
    endloop
  endfacet
  facet normal 1 -0 0
    outer loop
      vertex 110.8 50 0.0999994
      vertex 110.8 60 0
      vertex 110.8 60 0.0999994
    endloop
  endfacet
  facet normal 1 0 0
    outer loop
      vertex 110.8 60 0
      vertex 110.8 50 0.0999994
      vertex 110.8 50 0
    endloop
  endfacet
  facet normal 0 0 -1
    outer loop
      vertex 110 50 0
      vertex 110.8 60 0
      vertex 110.8 50 0
    endloop
  endfacet
  facet normal -0 0 -1
    outer loop
      vertex 110.8 60 0
      vertex 110 50 0
      vertex 110 60 0
    endloop
  endfacet
  facet normal 0 -1 0
    outer loop
      vertex 110 50 0
      vertex 110.8 50 0.0999994
      vertex 110 50 0.0999994
    endloop
  endfacet
  facet normal 0 -1 -0
    outer loop
      vertex 110.8 50 0.0999994
      vertex 110 50 0
      vertex 110.8 50 0
    endloop
  endfacet
  facet normal 0 1 -0
    outer loop
      vertex 110.8 60 0
      vertex 110 60 0.0999994
      vertex 110.8 60 0.0999994
    endloop
  endfacet
  facet normal 0 1 0
    outer loop
      vertex 110 60 0.0999994
      vertex 110.8 60 0
      vertex 110 60 0
    endloop
  endfacet
  facet normal -1 0 0
    outer loop
      vertex 111 50 0
      vertex 111 60 0.0999994
      vertex 111 60 0
    endloop
  endfacet
  facet normal -1 -0 0
    outer loop
      vertex 111 60 0.0999994
      vertex 111 50 0
      vertex 111 50 0.0999994
    endloop
  endfacet
  facet normal -0 0 1
    outer loop
      vertex 111 60 0.0999994
      vertex 111.8 50 0.0999994
      vertex 111.8 60 0.0999994
    endloop
  endfacet
  facet normal 0 0 1
    outer loop
      vertex 111.8 50 0.0999994
      vertex 111 60 0.0999994
      vertex 111 50 0.0999994
    endloop
  endfacet
  facet normal 1 -0 0
    outer loop
      vertex 111.8 50 0.0999994
      vertex 111.8 60 0
      vertex 111.8 60 0.0999994
    endloop
  endfacet
  facet normal 1 0 0
    outer loop
      vertex 111.8 60 0
      vertex 111.8 50 0.0999994
      vertex 111.8 50 0
    endloop
  endfacet
  facet normal 0 1 -0
    outer loop
      vertex 111.8 60 0
      vertex 111 60 0.0999994
      vertex 111.8 60 0.0999994
    endloop
  endfacet
  facet normal 0 1 0
    outer loop
      vertex 111 60 0.0999994
      vertex 111.8 60 0
      vertex 111 60 0
    endloop
  endfacet
  facet normal 0 0 -1
    outer loop
      vertex 111 50 0
      vertex 111.8 60 0
      vertex 111.8 50 0
    endloop
  endfacet
  facet normal -0 0 -1
    outer loop
      vertex 111.8 60 0
      vertex 111 50 0
      vertex 111 60 0
    endloop
  endfacet
  facet normal 0 -1 0
    outer loop
      vertex 111 50 0
      vertex 111.8 50 0.0999994
      vertex 111 50 0.0999994
    endloop
  endfacet
  facet normal 0 -1 -0
    outer loop
      vertex 111.8 50 0.0999994
      vertex 111 50 0
      vertex 111.8 50 0
    endloop
  endfacet
  facet normal -1 0 0
    outer loop
      vertex 112 50 0
      vertex 112 60 0.0999994
      vertex 112 60 0
    endloop
  endfacet
  facet normal -1 -0 0
    outer loop
      vertex 112 60 0.0999994
      vertex 112 50 0
      vertex 112 50 0.0999994
    endloop
  endfacet
  facet normal -0 0 1
    outer loop
      vertex 112 60 0.0999994
      vertex 112.8 50 0.0999994
      vertex 112.8 60 0.0999994
    endloop
  endfacet
  facet normal 0 0 1
    outer loop
      vertex 112.8 50 0.0999994
      vertex 112 60 0.0999994
      vertex 112 50 0.0999994
    endloop
  endfacet
  facet normal 1 -0 0
    outer loop
      vertex 112.8 50 0.0999994
      vertex 112.8 60 0
      vertex 112.8 60 0.0999994
    endloop
  endfacet
  facet normal 1 0 0
    outer loop
      vertex 112.8 60 0
      vertex 112.8 50 0.0999994
      vertex 112.8 50 0
    endloop
  endfacet
  facet normal 0 0 -1
    outer loop
      vertex 112 50 0
      vertex 112.8 60 0
      vertex 112.8 50 0
    endloop
  endfacet
  facet normal -0 0 -1
    outer loop
      vertex 112.8 60 0
      vertex 112 50 0
      vertex 112 60 0
    endloop
  endfacet
  facet normal 0 -1 0
    outer loop
      vertex 112 50 0
      vertex 112.8 50 0.0999994
      vertex 112 50 0.0999994
    endloop
  endfacet
  facet normal 0 -1 -0
    outer loop
      vertex 112.8 50 0.0999994
      vertex 112 50 0
      vertex 112.8 50 0
    endloop
  endfacet
  facet normal 0 1 -0
    outer loop
      vertex 112.8 60 0
      vertex 112 60 0.0999994
      vertex 112.8 60 0.0999994
    endloop
  endfacet
  facet normal 0 1 0
    outer loop
      vertex 112 60 0.0999994
      vertex 112.8 60 0
      vertex 112 60 0
    endloop
  endfacet
  facet normal -1 0 0
    outer loop
      vertex 113 50 0
      vertex 113 60 0.0999994
      vertex 113 60 0
    endloop
  endfacet
  facet normal -1 -0 0
    outer loop
      vertex 113 60 0.0999994
      vertex 113 50 0
      vertex 113 50 0.0999994
    endloop
  endfacet
  facet normal -0 0 1
    outer loop
      vertex 113 60 0.0999994
      vertex 113.8 50 0.0999994
      vertex 113.8 60 0.0999994
    endloop
  endfacet
  facet normal 0 0 1
    outer loop
      vertex 113.8 50 0.0999994
      vertex 113 60 0.0999994
      vertex 113 50 0.0999994
    endloop
  endfacet
  facet normal 1 -0 0
    outer loop
      vertex 113.8 50 0.0999994
      vertex 113.8 60 0
      vertex 113.8 60 0.0999994
    endloop
  endfacet
  facet normal 1 0 0
    outer loop
      vertex 113.8 60 0
      vertex 113.8 50 0.0999994
      vertex 113.8 50 0
    endloop
  endfacet
  facet normal 0 1 -0
    outer loop
      vertex 113.8 60 0
      vertex 113 60 0.0999994
      vertex 113.8 60 0.0999994
    endloop
  endfacet
  facet normal 0 1 0
    outer loop
      vertex 113 60 0.0999994
      vertex 113.8 60 0
      vertex 113 60 0
    endloop
  endfacet
  facet normal 0 0 -1
    outer loop
      vertex 113 50 0
      vertex 113.8 60 0
      vertex 113.8 50 0
    endloop
  endfacet
  facet normal -0 0 -1
    outer loop
      vertex 113.8 60 0
      vertex 113 50 0
      vertex 113 60 0
    endloop
  endfacet
  facet normal 0 -1 0
    outer loop
      vertex 113 50 0
      vertex 113.8 50 0.0999994
      vertex 113 50 0.0999994
    endloop
  endfacet
  facet normal 0 -1 -0
    outer loop
      vertex 113.8 50 0.0999994
      vertex 113 50 0
      vertex 113.8 50 0
    endloop
  endfacet
  facet normal -1 0 0
    outer loop
      vertex 114 50 0
      vertex 114 60 0.0999994
      vertex 114 60 0
    endloop
  endfacet
  facet normal -1 -0 0
    outer loop
      vertex 114 60 0.0999994
      vertex 114 50 0
      vertex 114 50 0.0999994
    endloop
  endfacet
  facet normal -0 0 1
    outer loop
      vertex 114 60 0.0999994
      vertex 114.8 50 0.0999994
      vertex 114.8 60 0.0999994
    endloop
  endfacet
  facet normal 0 0 1
    outer loop
      vertex 114.8 50 0.0999994
      vertex 114 60 0.0999994
      vertex 114 50 0.0999994
    endloop
  endfacet
  facet normal 1 -0 0
    outer loop
      vertex 114.8 50 0.0999994
      vertex 114.8 60 0
      vertex 114.8 60 0.0999994
    endloop
  endfacet
  facet normal 1 0 0
    outer loop
      vertex 114.8 60 0
      vertex 114.8 50 0.0999994
      vertex 114.8 50 0
    endloop
  endfacet
  facet normal 0 1 -0
    outer loop
      vertex 114.8 60 0
      vertex 114 60 0.0999994
      vertex 114.8 60 0.0999994
    endloop
  endfacet
  facet normal 0 1 0
    outer loop
      vertex 114 60 0.0999994
      vertex 114.8 60 0
      vertex 114 60 0
    endloop
  endfacet
  facet normal 0 0 -1
    outer loop
      vertex 114 50 0
      vertex 114.8 60 0
      vertex 114.8 50 0
    endloop
  endfacet
  facet normal -0 0 -1
    outer loop
      vertex 114.8 60 0
      vertex 114 50 0
      vertex 114 60 0
    endloop
  endfacet
  facet normal 0 -1 0
    outer loop
      vertex 114 50 0
      vertex 114.8 50 0.0999994
      vertex 114 50 0.0999994
    endloop
  endfacet
  facet normal 0 -1 -0
    outer loop
      vertex 114.8 50 0.0999994
      vertex 114 50 0
      vertex 114.8 50 0
    endloop
  endfacet
  facet normal -1 0 0
    outer loop
      vertex 115 50 0
      vertex 115 60 0.0999994
      vertex 115 60 0
    endloop
  endfacet
  facet normal -1 -0 0
    outer loop
      vertex 115 60 0.0999994
      vertex 115 50 0
      vertex 115 50 0.0999994
    endloop
  endfacet
  facet normal -0 0 1
    outer loop
      vertex 115 60 0.0999994
      vertex 115.8 50 0.0999994
      vertex 115.8 60 0.0999994
    endloop
  endfacet
  facet normal 0 0 1
    outer loop
      vertex 115.8 50 0.0999994
      vertex 115 60 0.0999994
      vertex 115 50 0.0999994
    endloop
  endfacet
  facet normal 1 -0 0
    outer loop
      vertex 115.8 50 0.0999994
      vertex 115.8 60 0
      vertex 115.8 60 0.0999994
    endloop
  endfacet
  facet normal 1 0 0
    outer loop
      vertex 115.8 60 0
      vertex 115.8 50 0.0999994
      vertex 115.8 50 0
    endloop
  endfacet
  facet normal 0 1 -0
    outer loop
      vertex 115.8 60 0
      vertex 115 60 0.0999994
      vertex 115.8 60 0.0999994
    endloop
  endfacet
  facet normal 0 1 0
    outer loop
      vertex 115 60 0.0999994
      vertex 115.8 60 0
      vertex 115 60 0
    endloop
  endfacet
  facet normal 0 0 -1
    outer loop
      vertex 115 50 0
      vertex 115.8 60 0
      vertex 115.8 50 0
    endloop
  endfacet
  facet normal -0 0 -1
    outer loop
      vertex 115.8 60 0
      vertex 115 50 0
      vertex 115 60 0
    endloop
  endfacet
  facet normal 0 -1 0
    outer loop
      vertex 115 50 0
      vertex 115.8 50 0.0999994
      vertex 115 50 0.0999994
    endloop
  endfacet
  facet normal 0 -1 -0
    outer loop
      vertex 115.8 50 0.0999994
      vertex 115 50 0
      vertex 115.8 50 0
    endloop
  endfacet
  facet normal -1 0 0
    outer loop
      vertex 116 50 0
      vertex 116 60 0.0999994
      vertex 116 60 0
    endloop
  endfacet
  facet normal -1 -0 0
    outer loop
      vertex 116 60 0.0999994
      vertex 116 50 0
      vertex 116 50 0.0999994
    endloop
  endfacet
  facet normal -0 0 1
    outer loop
      vertex 116 60 0.0999994
      vertex 116.8 50 0.0999994
      vertex 116.8 60 0.0999994
    endloop
  endfacet
  facet normal 0 0 1
    outer loop
      vertex 116.8 50 0.0999994
      vertex 116 60 0.0999994
      vertex 116 50 0.0999994
    endloop
  endfacet
  facet normal 1 -0 0
    outer loop
      vertex 116.8 50 0.0999994
      vertex 116.8 60 0
      vertex 116.8 60 0.0999994
    endloop
  endfacet
  facet normal 1 0 0
    outer loop
      vertex 116.8 60 0
      vertex 116.8 50 0.0999994
      vertex 116.8 50 0
    endloop
  endfacet
  facet normal 0 1 -0
    outer loop
      vertex 116.8 60 0
      vertex 116 60 0.0999994
      vertex 116.8 60 0.0999994
    endloop
  endfacet
  facet normal 0 1 0
    outer loop
      vertex 116 60 0.0999994
      vertex 116.8 60 0
      vertex 116 60 0
    endloop
  endfacet
  facet normal 0 0 -1
    outer loop
      vertex 116 50 0
      vertex 116.8 60 0
      vertex 116.8 50 0
    endloop
  endfacet
  facet normal -0 0 -1
    outer loop
      vertex 116.8 60 0
      vertex 116 50 0
      vertex 116 60 0
    endloop
  endfacet
  facet normal 0 -1 0
    outer loop
      vertex 116 50 0
      vertex 116.8 50 0.0999994
      vertex 116 50 0.0999994
    endloop
  endfacet
  facet normal 0 -1 -0
    outer loop
      vertex 116.8 50 0.0999994
      vertex 116 50 0
      vertex 116.8 50 0
    endloop
  endfacet
  facet normal -1 0 0
    outer loop
      vertex 117 50 0
      vertex 117 60 0.0999994
      vertex 117 60 0
    endloop
  endfacet
  facet normal -1 -0 0
    outer loop
      vertex 117 60 0.0999994
      vertex 117 50 0
      vertex 117 50 0.0999994
    endloop
  endfacet
  facet normal -0 0 1
    outer loop
      vertex 117 60 0.0999994
      vertex 117.8 50 0.0999994
      vertex 117.8 60 0.0999994
    endloop
  endfacet
  facet normal 0 0 1
    outer loop
      vertex 117.8 50 0.0999994
      vertex 117 60 0.0999994
      vertex 117 50 0.0999994
    endloop
  endfacet
  facet normal 1 -0 0
    outer loop
      vertex 117.8 50 0.0999994
      vertex 117.8 60 0
      vertex 117.8 60 0.0999994
    endloop
  endfacet
  facet normal 1 0 0
    outer loop
      vertex 117.8 60 0
      vertex 117.8 50 0.0999994
      vertex 117.8 50 0
    endloop
  endfacet
  facet normal 0 1 -0
    outer loop
      vertex 117.8 60 0
      vertex 117 60 0.0999994
      vertex 117.8 60 0.0999994
    endloop
  endfacet
  facet normal 0 1 0
    outer loop
      vertex 117 60 0.0999994
      vertex 117.8 60 0
      vertex 117 60 0
    endloop
  endfacet
  facet normal 0 0 -1
    outer loop
      vertex 117 50 0
      vertex 117.8 60 0
      vertex 117.8 50 0
    endloop
  endfacet
  facet normal -0 0 -1
    outer loop
      vertex 117.8 60 0
      vertex 117 50 0
      vertex 117 60 0
    endloop
  endfacet
  facet normal 0 -1 0
    outer loop
      vertex 117 50 0
      vertex 117.8 50 0.0999994
      vertex 117 50 0.0999994
    endloop
  endfacet
  facet normal 0 -1 -0
    outer loop
      vertex 117.8 50 0.0999994
      vertex 117 50 0
      vertex 117.8 50 0
    endloop
  endfacet
  facet normal -1 0 0
    outer loop
      vertex 118 50 0
      vertex 118 60 0.0999994
      vertex 118 60 0
    endloop
  endfacet
  facet normal -1 -0 0
    outer loop
      vertex 118 60 0.0999994
      vertex 118 50 0
      vertex 118 50 0.0999994
    endloop
  endfacet
  facet normal -0 0 1
    outer loop
      vertex 118 60 0.0999994
      vertex 118.8 50 0.0999994
      vertex 118.8 60 0.0999994
    endloop
  endfacet
  facet normal 0 0 1
    outer loop
      vertex 118.8 50 0.0999994
      vertex 118 60 0.0999994
      vertex 118 50 0.0999994
    endloop
  endfacet
  facet normal 1 -0 0
    outer loop
      vertex 118.8 50 0.0999994
      vertex 118.8 60 0
      vertex 118.8 60 0.0999994
    endloop
  endfacet
  facet normal 1 0 0
    outer loop
      vertex 118.8 60 0
      vertex 118.8 50 0.0999994
      vertex 118.8 50 0
    endloop
  endfacet
  facet normal 0 1 -0
    outer loop
      vertex 118.8 60 0
      vertex 118 60 0.0999994
      vertex 118.8 60 0.0999994
    endloop
  endfacet
  facet normal 0 1 0
    outer loop
      vertex 118 60 0.0999994
      vertex 118.8 60 0
      vertex 118 60 0
    endloop
  endfacet
  facet normal 0 0 -1
    outer loop
      vertex 118 50 0
      vertex 118.8 60 0
      vertex 118.8 50 0
    endloop
  endfacet
  facet normal -0 0 -1
    outer loop
      vertex 118.8 60 0
      vertex 118 50 0
      vertex 118 60 0
    endloop
  endfacet
  facet normal 0 -1 0
    outer loop
      vertex 118 50 0
      vertex 118.8 50 0.0999994
      vertex 118 50 0.0999994
    endloop
  endfacet
  facet normal 0 -1 -0
    outer loop
      vertex 118.8 50 0.0999994
      vertex 118 50 0
      vertex 118.8 50 0
    endloop
  endfacet
  facet normal -1 0 0
    outer loop
      vertex 119 50 0
      vertex 119 60 0.0999994
      vertex 119 60 0
    endloop
  endfacet
  facet normal -1 -0 0
    outer loop
      vertex 119 60 0.0999994
      vertex 119 50 0
      vertex 119 50 0.0999994
    endloop
  endfacet
  facet normal -0 0 1
    outer loop
      vertex 119 60 0.0999994
      vertex 119.8 50 0.0999994
      vertex 119.8 60 0.0999994
    endloop
  endfacet
  facet normal 0 0 1
    outer loop
      vertex 119.8 50 0.0999994
      vertex 119 60 0.0999994
      vertex 119 50 0.0999994
    endloop
  endfacet
  facet normal 1 -0 0
    outer loop
      vertex 119.8 50 0.0999994
      vertex 119.8 60 0
      vertex 119.8 60 0.0999994
    endloop
  endfacet
  facet normal 1 0 0
    outer loop
      vertex 119.8 60 0
      vertex 119.8 50 0.0999994
      vertex 119.8 50 0
    endloop
  endfacet
  facet normal 0 0 -1
    outer loop
      vertex 119 50 0
      vertex 119.8 60 0
      vertex 119.8 50 0
    endloop
  endfacet
  facet normal -0 0 -1
    outer loop
      vertex 119.8 60 0
      vertex 119 50 0
      vertex 119 60 0
    endloop
  endfacet
  facet normal 0 -1 0
    outer loop
      vertex 119 50 0
      vertex 119.8 50 0.0999994
      vertex 119 50 0.0999994
    endloop
  endfacet
  facet normal 0 -1 -0
    outer loop
      vertex 119.8 50 0.0999994
      vertex 119 50 0
      vertex 119.8 50 0
    endloop
  endfacet
  facet normal 0 1 -0
    outer loop
      vertex 119.8 60 0
      vertex 119 60 0.0999994
      vertex 119.8 60 0.0999994
    endloop
  endfacet
  facet normal 0 1 0
    outer loop
      vertex 119 60 0.0999994
      vertex 119.8 60 0
      vertex 119 60 0
    endloop
  endfacet
  facet normal -1 0 0
    outer loop
      vertex 120 50 0
      vertex 120 60 0.0999994
      vertex 120 60 0
    endloop
  endfacet
  facet normal -1 -0 0
    outer loop
      vertex 120 60 0.0999994
      vertex 120 50 0
      vertex 120 50 0.0999994
    endloop
  endfacet
  facet normal -0 0 1
    outer loop
      vertex 120 60 0.0999994
      vertex 120.8 50 0.0999994
      vertex 120.8 60 0.0999994
    endloop
  endfacet
  facet normal 0 0 1
    outer loop
      vertex 120.8 50 0.0999994
      vertex 120 60 0.0999994
      vertex 120 50 0.0999994
    endloop
  endfacet
  facet normal 1 -0 0
    outer loop
      vertex 120.8 50 0.0999994
      vertex 120.8 60 0
      vertex 120.8 60 0.0999994
    endloop
  endfacet
  facet normal 1 0 0
    outer loop
      vertex 120.8 60 0
      vertex 120.8 50 0.0999994
      vertex 120.8 50 0
    endloop
  endfacet
  facet normal 0 1 -0
    outer loop
      vertex 120.8 60 0
      vertex 120 60 0.0999994
      vertex 120.8 60 0.0999994
    endloop
  endfacet
  facet normal 0 1 0
    outer loop
      vertex 120 60 0.0999994
      vertex 120.8 60 0
      vertex 120 60 0
    endloop
  endfacet
  facet normal 0 0 -1
    outer loop
      vertex 120 50 0
      vertex 120.8 60 0
      vertex 120.8 50 0
    endloop
  endfacet
  facet normal -0 0 -1
    outer loop
      vertex 120.8 60 0
      vertex 120 50 0
      vertex 120 60 0
    endloop
  endfacet
  facet normal 0 -1 0
    outer loop
      vertex 120 50 0
      vertex 120.8 50 0.0999994
      vertex 120 50 0.0999994
    endloop
  endfacet
  facet normal 0 -1 -0
    outer loop
      vertex 120.8 50 0.0999994
      vertex 120 50 0
      vertex 120.8 50 0
    endloop
  endfacet
endsolid OpenSCAD_Model
