solid OpenSCAD_Model
  facet normal -1 0 0
    outer loop
      vertex 50 30 0
      vertex 50 40 0.0999994
      vertex 50 40 0
    endloop
  endfacet
  facet normal -1 -0 0
    outer loop
      vertex 50 40 0.0999994
      vertex 50 30 0
      vertex 50 30 0.0999994
    endloop
  endfacet
  facet normal -0 0 1
    outer loop
      vertex 50 40 0.0999994
      vertex 50.8 30 0.0999994
      vertex 50.8 40 0.0999994
    endloop
  endfacet
  facet normal 0 0 1
    outer loop
      vertex 50.8 30 0.0999994
      vertex 50 40 0.0999994
      vertex 50 30 0.0999994
    endloop
  endfacet
  facet normal 1 -0 0
    outer loop
      vertex 50.8 30 0.0999994
      vertex 50.8 40 0
      vertex 50.8 40 0.0999994
    endloop
  endfacet
  facet normal 1 0 0
    outer loop
      vertex 50.8 40 0
      vertex 50.8 30 0.0999994
      vertex 50.8 30 0
    endloop
  endfacet
  facet normal 0 1 -0
    outer loop
      vertex 50.8 40 0
      vertex 50 40 0.0999994
      vertex 50.8 40 0.0999994
    endloop
  endfacet
  facet normal 0 1 0
    outer loop
      vertex 50 40 0.0999994
      vertex 50.8 40 0
      vertex 50 40 0
    endloop
  endfacet
  facet normal 0 0 -1
    outer loop
      vertex 50 30 0
      vertex 50.8 40 0
      vertex 50.8 30 0
    endloop
  endfacet
  facet normal -0 0 -1
    outer loop
      vertex 50.8 40 0
      vertex 50 30 0
      vertex 50 40 0
    endloop
  endfacet
  facet normal 0 -1 0
    outer loop
      vertex 50 30 0
      vertex 50.8 30 0.0999994
      vertex 50 30 0.0999994
    endloop
  endfacet
  facet normal 0 -1 -0
    outer loop
      vertex 50.8 30 0.0999994
      vertex 50 30 0
      vertex 50.8 30 0
    endloop
  endfacet
  facet normal -1 0 0
    outer loop
      vertex 51 30 0
      vertex 51 40 0.0999994
      vertex 51 40 0
    endloop
  endfacet
  facet normal -1 -0 0
    outer loop
      vertex 51 40 0.0999994
      vertex 51 30 0
      vertex 51 30 0.0999994
    endloop
  endfacet
  facet normal -0 0 1
    outer loop
      vertex 51 40 0.0999994
      vertex 51.8 30 0.0999994
      vertex 51.8 40 0.0999994
    endloop
  endfacet
  facet normal 0 0 1
    outer loop
      vertex 51.8 30 0.0999994
      vertex 51 40 0.0999994
      vertex 51 30 0.0999994
    endloop
  endfacet
  facet normal 1 -0 0
    outer loop
      vertex 51.8 30 0.0999994
      vertex 51.8 40 0
      vertex 51.8 40 0.0999994
    endloop
  endfacet
  facet normal 1 0 0
    outer loop
      vertex 51.8 40 0
      vertex 51.8 30 0.0999994
      vertex 51.8 30 0
    endloop
  endfacet
  facet normal 0 1 -0
    outer loop
      vertex 51.8 40 0
      vertex 51 40 0.0999994
      vertex 51.8 40 0.0999994
    endloop
  endfacet
  facet normal 0 1 0
    outer loop
      vertex 51 40 0.0999994
      vertex 51.8 40 0
      vertex 51 40 0
    endloop
  endfacet
  facet normal 0 0 -1
    outer loop
      vertex 51 30 0
      vertex 51.8 40 0
      vertex 51.8 30 0
    endloop
  endfacet
  facet normal -0 0 -1
    outer loop
      vertex 51.8 40 0
      vertex 51 30 0
      vertex 51 40 0
    endloop
  endfacet
  facet normal 0 -1 0
    outer loop
      vertex 51 30 0
      vertex 51.8 30 0.0999994
      vertex 51 30 0.0999994
    endloop
  endfacet
  facet normal 0 -1 -0
    outer loop
      vertex 51.8 30 0.0999994
      vertex 51 30 0
      vertex 51.8 30 0
    endloop
  endfacet
  facet normal -1 0 0
    outer loop
      vertex 52 30 0
      vertex 52 40 0.0999994
      vertex 52 40 0
    endloop
  endfacet
  facet normal -1 -0 0
    outer loop
      vertex 52 40 0.0999994
      vertex 52 30 0
      vertex 52 30 0.0999994
    endloop
  endfacet
  facet normal -0 0 1
    outer loop
      vertex 52 40 0.0999994
      vertex 52.8 30 0.0999994
      vertex 52.8 40 0.0999994
    endloop
  endfacet
  facet normal 0 0 1
    outer loop
      vertex 52.8 30 0.0999994
      vertex 52 40 0.0999994
      vertex 52 30 0.0999994
    endloop
  endfacet
  facet normal 1 -0 0
    outer loop
      vertex 52.8 30 0.0999994
      vertex 52.8 40 0
      vertex 52.8 40 0.0999994
    endloop
  endfacet
  facet normal 1 0 0
    outer loop
      vertex 52.8 40 0
      vertex 52.8 30 0.0999994
      vertex 52.8 30 0
    endloop
  endfacet
  facet normal 0 0 -1
    outer loop
      vertex 52 30 0
      vertex 52.8 40 0
      vertex 52.8 30 0
    endloop
  endfacet
  facet normal -0 0 -1
    outer loop
      vertex 52.8 40 0
      vertex 52 30 0
      vertex 52 40 0
    endloop
  endfacet
  facet normal 0 -1 0
    outer loop
      vertex 52 30 0
      vertex 52.8 30 0.0999994
      vertex 52 30 0.0999994
    endloop
  endfacet
  facet normal 0 -1 -0
    outer loop
      vertex 52.8 30 0.0999994
      vertex 52 30 0
      vertex 52.8 30 0
    endloop
  endfacet
  facet normal 0 1 -0
    outer loop
      vertex 52.8 40 0
      vertex 52 40 0.0999994
      vertex 52.8 40 0.0999994
    endloop
  endfacet
  facet normal 0 1 0
    outer loop
      vertex 52 40 0.0999994
      vertex 52.8 40 0
      vertex 52 40 0
    endloop
  endfacet
  facet normal -1 0 0
    outer loop
      vertex 53 30 0
      vertex 53 40 0.0999994
      vertex 53 40 0
    endloop
  endfacet
  facet normal -1 -0 0
    outer loop
      vertex 53 40 0.0999994
      vertex 53 30 0
      vertex 53 30 0.0999994
    endloop
  endfacet
  facet normal -0 0 1
    outer loop
      vertex 53 40 0.0999994
      vertex 53.8 30 0.0999994
      vertex 53.8 40 0.0999994
    endloop
  endfacet
  facet normal 0 0 1
    outer loop
      vertex 53.8 30 0.0999994
      vertex 53 40 0.0999994
      vertex 53 30 0.0999994
    endloop
  endfacet
  facet normal 1 -0 0
    outer loop
      vertex 53.8 30 0.0999994
      vertex 53.8 40 0
      vertex 53.8 40 0.0999994
    endloop
  endfacet
  facet normal 1 0 0
    outer loop
      vertex 53.8 40 0
      vertex 53.8 30 0.0999994
      vertex 53.8 30 0
    endloop
  endfacet
  facet normal 0 1 -0
    outer loop
      vertex 53.8 40 0
      vertex 53 40 0.0999994
      vertex 53.8 40 0.0999994
    endloop
  endfacet
  facet normal 0 1 0
    outer loop
      vertex 53 40 0.0999994
      vertex 53.8 40 0
      vertex 53 40 0
    endloop
  endfacet
  facet normal 0 0 -1
    outer loop
      vertex 53 30 0
      vertex 53.8 40 0
      vertex 53.8 30 0
    endloop
  endfacet
  facet normal -0 0 -1
    outer loop
      vertex 53.8 40 0
      vertex 53 30 0
      vertex 53 40 0
    endloop
  endfacet
  facet normal 0 -1 0
    outer loop
      vertex 53 30 0
      vertex 53.8 30 0.0999994
      vertex 53 30 0.0999994
    endloop
  endfacet
  facet normal 0 -1 -0
    outer loop
      vertex 53.8 30 0.0999994
      vertex 53 30 0
      vertex 53.8 30 0
    endloop
  endfacet
  facet normal -1 0 0
    outer loop
      vertex 54 30 0
      vertex 54 40 0.0999994
      vertex 54 40 0
    endloop
  endfacet
  facet normal -1 -0 0
    outer loop
      vertex 54 40 0.0999994
      vertex 54 30 0
      vertex 54 30 0.0999994
    endloop
  endfacet
  facet normal -0 0 1
    outer loop
      vertex 54 40 0.0999994
      vertex 54.8 30 0.0999994
      vertex 54.8 40 0.0999994
    endloop
  endfacet
  facet normal 0 0 1
    outer loop
      vertex 54.8 30 0.0999994
      vertex 54 40 0.0999994
      vertex 54 30 0.0999994
    endloop
  endfacet
  facet normal 1 -0 0
    outer loop
      vertex 54.8 30 0.0999994
      vertex 54.8 40 0
      vertex 54.8 40 0.0999994
    endloop
  endfacet
  facet normal 1 0 0
    outer loop
      vertex 54.8 40 0
      vertex 54.8 30 0.0999994
      vertex 54.8 30 0
    endloop
  endfacet
  facet normal 0 1 -0
    outer loop
      vertex 54.8 40 0
      vertex 54 40 0.0999994
      vertex 54.8 40 0.0999994
    endloop
  endfacet
  facet normal 0 1 0
    outer loop
      vertex 54 40 0.0999994
      vertex 54.8 40 0
      vertex 54 40 0
    endloop
  endfacet
  facet normal 0 0 -1
    outer loop
      vertex 54 30 0
      vertex 54.8 40 0
      vertex 54.8 30 0
    endloop
  endfacet
  facet normal -0 0 -1
    outer loop
      vertex 54.8 40 0
      vertex 54 30 0
      vertex 54 40 0
    endloop
  endfacet
  facet normal 0 -1 0
    outer loop
      vertex 54 30 0
      vertex 54.8 30 0.0999994
      vertex 54 30 0.0999994
    endloop
  endfacet
  facet normal 0 -1 -0
    outer loop
      vertex 54.8 30 0.0999994
      vertex 54 30 0
      vertex 54.8 30 0
    endloop
  endfacet
  facet normal -1 0 0
    outer loop
      vertex 55 30 0
      vertex 55 40 0.0999994
      vertex 55 40 0
    endloop
  endfacet
  facet normal -1 -0 0
    outer loop
      vertex 55 40 0.0999994
      vertex 55 30 0
      vertex 55 30 0.0999994
    endloop
  endfacet
  facet normal -0 0 1
    outer loop
      vertex 55 40 0.0999994
      vertex 55.8 30 0.0999994
      vertex 55.8 40 0.0999994
    endloop
  endfacet
  facet normal 0 0 1
    outer loop
      vertex 55.8 30 0.0999994
      vertex 55 40 0.0999994
      vertex 55 30 0.0999994
    endloop
  endfacet
  facet normal 1 -0 0
    outer loop
      vertex 55.8 30 0.0999994
      vertex 55.8 40 0
      vertex 55.8 40 0.0999994
    endloop
  endfacet
  facet normal 1 0 0
    outer loop
      vertex 55.8 40 0
      vertex 55.8 30 0.0999994
      vertex 55.8 30 0
    endloop
  endfacet
  facet normal 0 0 -1
    outer loop
      vertex 55 30 0
      vertex 55.8 40 0
      vertex 55.8 30 0
    endloop
  endfacet
  facet normal -0 0 -1
    outer loop
      vertex 55.8 40 0
      vertex 55 30 0
      vertex 55 40 0
    endloop
  endfacet
  facet normal 0 -1 0
    outer loop
      vertex 55 30 0
      vertex 55.8 30 0.0999994
      vertex 55 30 0.0999994
    endloop
  endfacet
  facet normal 0 -1 -0
    outer loop
      vertex 55.8 30 0.0999994
      vertex 55 30 0
      vertex 55.8 30 0
    endloop
  endfacet
  facet normal 0 1 -0
    outer loop
      vertex 55.8 40 0
      vertex 55 40 0.0999994
      vertex 55.8 40 0.0999994
    endloop
  endfacet
  facet normal 0 1 0
    outer loop
      vertex 55 40 0.0999994
      vertex 55.8 40 0
      vertex 55 40 0
    endloop
  endfacet
  facet normal -1 0 0
    outer loop
      vertex 56 30 0
      vertex 56 40 0.0999994
      vertex 56 40 0
    endloop
  endfacet
  facet normal -1 -0 0
    outer loop
      vertex 56 40 0.0999994
      vertex 56 30 0
      vertex 56 30 0.0999994
    endloop
  endfacet
  facet normal -0 0 1
    outer loop
      vertex 56 40 0.0999994
      vertex 56.8 30 0.0999994
      vertex 56.8 40 0.0999994
    endloop
  endfacet
  facet normal 0 0 1
    outer loop
      vertex 56.8 30 0.0999994
      vertex 56 40 0.0999994
      vertex 56 30 0.0999994
    endloop
  endfacet
  facet normal 1 -0 0
    outer loop
      vertex 56.8 30 0.0999994
      vertex 56.8 40 0
      vertex 56.8 40 0.0999994
    endloop
  endfacet
  facet normal 1 0 0
    outer loop
      vertex 56.8 40 0
      vertex 56.8 30 0.0999994
      vertex 56.8 30 0
    endloop
  endfacet
  facet normal 0 0 -1
    outer loop
      vertex 56 30 0
      vertex 56.8 40 0
      vertex 56.8 30 0
    endloop
  endfacet
  facet normal -0 0 -1
    outer loop
      vertex 56.8 40 0
      vertex 56 30 0
      vertex 56 40 0
    endloop
  endfacet
  facet normal 0 -1 0
    outer loop
      vertex 56 30 0
      vertex 56.8 30 0.0999994
      vertex 56 30 0.0999994
    endloop
  endfacet
  facet normal 0 -1 -0
    outer loop
      vertex 56.8 30 0.0999994
      vertex 56 30 0
      vertex 56.8 30 0
    endloop
  endfacet
  facet normal 0 1 -0
    outer loop
      vertex 56.8 40 0
      vertex 56 40 0.0999994
      vertex 56.8 40 0.0999994
    endloop
  endfacet
  facet normal 0 1 0
    outer loop
      vertex 56 40 0.0999994
      vertex 56.8 40 0
      vertex 56 40 0
    endloop
  endfacet
  facet normal -1 0 0
    outer loop
      vertex 57 30 0
      vertex 57 40 0.0999994
      vertex 57 40 0
    endloop
  endfacet
  facet normal -1 -0 0
    outer loop
      vertex 57 40 0.0999994
      vertex 57 30 0
      vertex 57 30 0.0999994
    endloop
  endfacet
  facet normal -0 0 1
    outer loop
      vertex 57 40 0.0999994
      vertex 57.8 30 0.0999994
      vertex 57.8 40 0.0999994
    endloop
  endfacet
  facet normal 0 0 1
    outer loop
      vertex 57.8 30 0.0999994
      vertex 57 40 0.0999994
      vertex 57 30 0.0999994
    endloop
  endfacet
  facet normal 1 -0 0
    outer loop
      vertex 57.8 30 0.0999994
      vertex 57.8 40 0
      vertex 57.8 40 0.0999994
    endloop
  endfacet
  facet normal 1 0 0
    outer loop
      vertex 57.8 40 0
      vertex 57.8 30 0.0999994
      vertex 57.8 30 0
    endloop
  endfacet
  facet normal 0 1 -0
    outer loop
      vertex 57.8 40 0
      vertex 57 40 0.0999994
      vertex 57.8 40 0.0999994
    endloop
  endfacet
  facet normal 0 1 0
    outer loop
      vertex 57 40 0.0999994
      vertex 57.8 40 0
      vertex 57 40 0
    endloop
  endfacet
  facet normal 0 0 -1
    outer loop
      vertex 57 30 0
      vertex 57.8 40 0
      vertex 57.8 30 0
    endloop
  endfacet
  facet normal -0 0 -1
    outer loop
      vertex 57.8 40 0
      vertex 57 30 0
      vertex 57 40 0
    endloop
  endfacet
  facet normal 0 -1 0
    outer loop
      vertex 57 30 0
      vertex 57.8 30 0.0999994
      vertex 57 30 0.0999994
    endloop
  endfacet
  facet normal 0 -1 -0
    outer loop
      vertex 57.8 30 0.0999994
      vertex 57 30 0
      vertex 57.8 30 0
    endloop
  endfacet
  facet normal -1 0 0
    outer loop
      vertex 58 30 0
      vertex 58 40 0.0999994
      vertex 58 40 0
    endloop
  endfacet
  facet normal -1 -0 0
    outer loop
      vertex 58 40 0.0999994
      vertex 58 30 0
      vertex 58 30 0.0999994
    endloop
  endfacet
  facet normal -0 0 1
    outer loop
      vertex 58 40 0.0999994
      vertex 58.8 30 0.0999994
      vertex 58.8 40 0.0999994
    endloop
  endfacet
  facet normal 0 0 1
    outer loop
      vertex 58.8 30 0.0999994
      vertex 58 40 0.0999994
      vertex 58 30 0.0999994
    endloop
  endfacet
  facet normal 1 -0 0
    outer loop
      vertex 58.8 30 0.0999994
      vertex 58.8 40 0
      vertex 58.8 40 0.0999994
    endloop
  endfacet
  facet normal 1 0 0
    outer loop
      vertex 58.8 40 0
      vertex 58.8 30 0.0999994
      vertex 58.8 30 0
    endloop
  endfacet
  facet normal 0 1 -0
    outer loop
      vertex 58.8 40 0
      vertex 58 40 0.0999994
      vertex 58.8 40 0.0999994
    endloop
  endfacet
  facet normal 0 1 0
    outer loop
      vertex 58 40 0.0999994
      vertex 58.8 40 0
      vertex 58 40 0
    endloop
  endfacet
  facet normal 0 0 -1
    outer loop
      vertex 58 30 0
      vertex 58.8 40 0
      vertex 58.8 30 0
    endloop
  endfacet
  facet normal -0 0 -1
    outer loop
      vertex 58.8 40 0
      vertex 58 30 0
      vertex 58 40 0
    endloop
  endfacet
  facet normal 0 -1 0
    outer loop
      vertex 58 30 0
      vertex 58.8 30 0.0999994
      vertex 58 30 0.0999994
    endloop
  endfacet
  facet normal 0 -1 -0
    outer loop
      vertex 58.8 30 0.0999994
      vertex 58 30 0
      vertex 58.8 30 0
    endloop
  endfacet
  facet normal -1 0 0
    outer loop
      vertex 59 30 0
      vertex 59 40 0.0999994
      vertex 59 40 0
    endloop
  endfacet
  facet normal -1 -0 0
    outer loop
      vertex 59 40 0.0999994
      vertex 59 30 0
      vertex 59 30 0.0999994
    endloop
  endfacet
  facet normal -0 0 1
    outer loop
      vertex 59 40 0.0999994
      vertex 59.8 30 0.0999994
      vertex 59.8 40 0.0999994
    endloop
  endfacet
  facet normal 0 0 1
    outer loop
      vertex 59.8 30 0.0999994
      vertex 59 40 0.0999994
      vertex 59 30 0.0999994
    endloop
  endfacet
  facet normal 1 -0 0
    outer loop
      vertex 59.8 30 0.0999994
      vertex 59.8 40 0
      vertex 59.8 40 0.0999994
    endloop
  endfacet
  facet normal 1 0 0
    outer loop
      vertex 59.8 40 0
      vertex 59.8 30 0.0999994
      vertex 59.8 30 0
    endloop
  endfacet
  facet normal 0 0 -1
    outer loop
      vertex 59 30 0
      vertex 59.8 40 0
      vertex 59.8 30 0
    endloop
  endfacet
  facet normal -0 0 -1
    outer loop
      vertex 59.8 40 0
      vertex 59 30 0
      vertex 59 40 0
    endloop
  endfacet
  facet normal 0 -1 0
    outer loop
      vertex 59 30 0
      vertex 59.8 30 0.0999994
      vertex 59 30 0.0999994
    endloop
  endfacet
  facet normal 0 -1 -0
    outer loop
      vertex 59.8 30 0.0999994
      vertex 59 30 0
      vertex 59.8 30 0
    endloop
  endfacet
  facet normal 0 1 -0
    outer loop
      vertex 59.8 40 0
      vertex 59 40 0.0999994
      vertex 59.8 40 0.0999994
    endloop
  endfacet
  facet normal 0 1 0
    outer loop
      vertex 59 40 0.0999994
      vertex 59.8 40 0
      vertex 59 40 0
    endloop
  endfacet
  facet normal -1 0 0
    outer loop
      vertex 60 30 0
      vertex 60 40 0.0999994
      vertex 60 40 0
    endloop
  endfacet
  facet normal -1 -0 0
    outer loop
      vertex 60 40 0.0999994
      vertex 60 30 0
      vertex 60 30 0.0999994
    endloop
  endfacet
  facet normal -0 0 1
    outer loop
      vertex 60 40 0.0999994
      vertex 60.8 30 0.0999994
      vertex 60.8 40 0.0999994
    endloop
  endfacet
  facet normal 0 0 1
    outer loop
      vertex 60.8 30 0.0999994
      vertex 60 40 0.0999994
      vertex 60 30 0.0999994
    endloop
  endfacet
  facet normal 1 -0 0
    outer loop
      vertex 60.8 30 0.0999994
      vertex 60.8 40 0
      vertex 60.8 40 0.0999994
    endloop
  endfacet
  facet normal 1 0 0
    outer loop
      vertex 60.8 40 0
      vertex 60.8 30 0.0999994
      vertex 60.8 30 0
    endloop
  endfacet
  facet normal 0 0 -1
    outer loop
      vertex 60 30 0
      vertex 60.8 40 0
      vertex 60.8 30 0
    endloop
  endfacet
  facet normal -0 0 -1
    outer loop
      vertex 60.8 40 0
      vertex 60 30 0
      vertex 60 40 0
    endloop
  endfacet
  facet normal 0 -1 0
    outer loop
      vertex 60 30 0
      vertex 60.8 30 0.0999994
      vertex 60 30 0.0999994
    endloop
  endfacet
  facet normal 0 -1 -0
    outer loop
      vertex 60.8 30 0.0999994
      vertex 60 30 0
      vertex 60.8 30 0
    endloop
  endfacet
  facet normal 0 1 -0
    outer loop
      vertex 60.8 40 0
      vertex 60 40 0.0999994
      vertex 60.8 40 0.0999994
    endloop
  endfacet
  facet normal 0 1 0
    outer loop
      vertex 60 40 0.0999994
      vertex 60.8 40 0
      vertex 60 40 0
    endloop
  endfacet
endsolid OpenSCAD_Model
