solid OpenSCAD_Model
  facet normal -1 0 0
    outer loop
      vertex 50 190 0
      vertex 50 200 0.0999994
      vertex 50 200 0
    endloop
  endfacet
  facet normal -1 -0 0
    outer loop
      vertex 50 200 0.0999994
      vertex 50 190 0
      vertex 50 190 0.0999994
    endloop
  endfacet
  facet normal -0 0 1
    outer loop
      vertex 50 200 0.0999994
      vertex 50.8 190 0.0999994
      vertex 50.8 200 0.0999994
    endloop
  endfacet
  facet normal 0 0 1
    outer loop
      vertex 50.8 190 0.0999994
      vertex 50 200 0.0999994
      vertex 50 190 0.0999994
    endloop
  endfacet
  facet normal 1 -0 0
    outer loop
      vertex 50.8 190 0.0999994
      vertex 50.8 200 0
      vertex 50.8 200 0.0999994
    endloop
  endfacet
  facet normal 1 0 0
    outer loop
      vertex 50.8 200 0
      vertex 50.8 190 0.0999994
      vertex 50.8 190 0
    endloop
  endfacet
  facet normal 0 0 -1
    outer loop
      vertex 50 190 0
      vertex 50.8 200 0
      vertex 50.8 190 0
    endloop
  endfacet
  facet normal -0 0 -1
    outer loop
      vertex 50.8 200 0
      vertex 50 190 0
      vertex 50 200 0
    endloop
  endfacet
  facet normal 0 -1 0
    outer loop
      vertex 50 190 0
      vertex 50.8 190 0.0999994
      vertex 50 190 0.0999994
    endloop
  endfacet
  facet normal 0 -1 -0
    outer loop
      vertex 50.8 190 0.0999994
      vertex 50 190 0
      vertex 50.8 190 0
    endloop
  endfacet
  facet normal 0 1 -0
    outer loop
      vertex 50.8 200 0
      vertex 50 200 0.0999994
      vertex 50.8 200 0.0999994
    endloop
  endfacet
  facet normal 0 1 0
    outer loop
      vertex 50 200 0.0999994
      vertex 50.8 200 0
      vertex 50 200 0
    endloop
  endfacet
  facet normal -1 0 0
    outer loop
      vertex 51 190 0
      vertex 51 200 0.0999994
      vertex 51 200 0
    endloop
  endfacet
  facet normal -1 -0 0
    outer loop
      vertex 51 200 0.0999994
      vertex 51 190 0
      vertex 51 190 0.0999994
    endloop
  endfacet
  facet normal -0 0 1
    outer loop
      vertex 51 200 0.0999994
      vertex 51.8 190 0.0999994
      vertex 51.8 200 0.0999994
    endloop
  endfacet
  facet normal 0 0 1
    outer loop
      vertex 51.8 190 0.0999994
      vertex 51 200 0.0999994
      vertex 51 190 0.0999994
    endloop
  endfacet
  facet normal 1 -0 0
    outer loop
      vertex 51.8 190 0.0999994
      vertex 51.8 200 0
      vertex 51.8 200 0.0999994
    endloop
  endfacet
  facet normal 1 0 0
    outer loop
      vertex 51.8 200 0
      vertex 51.8 190 0.0999994
      vertex 51.8 190 0
    endloop
  endfacet
  facet normal 0 1 -0
    outer loop
      vertex 51.8 200 0
      vertex 51 200 0.0999994
      vertex 51.8 200 0.0999994
    endloop
  endfacet
  facet normal 0 1 0
    outer loop
      vertex 51 200 0.0999994
      vertex 51.8 200 0
      vertex 51 200 0
    endloop
  endfacet
  facet normal 0 0 -1
    outer loop
      vertex 51 190 0
      vertex 51.8 200 0
      vertex 51.8 190 0
    endloop
  endfacet
  facet normal -0 0 -1
    outer loop
      vertex 51.8 200 0
      vertex 51 190 0
      vertex 51 200 0
    endloop
  endfacet
  facet normal 0 -1 0
    outer loop
      vertex 51 190 0
      vertex 51.8 190 0.0999994
      vertex 51 190 0.0999994
    endloop
  endfacet
  facet normal 0 -1 -0
    outer loop
      vertex 51.8 190 0.0999994
      vertex 51 190 0
      vertex 51.8 190 0
    endloop
  endfacet
  facet normal -1 0 0
    outer loop
      vertex 52 190 0
      vertex 52 200 0.0999994
      vertex 52 200 0
    endloop
  endfacet
  facet normal -1 -0 0
    outer loop
      vertex 52 200 0.0999994
      vertex 52 190 0
      vertex 52 190 0.0999994
    endloop
  endfacet
  facet normal -0 0 1
    outer loop
      vertex 52 200 0.0999994
      vertex 52.8 190 0.0999994
      vertex 52.8 200 0.0999994
    endloop
  endfacet
  facet normal 0 0 1
    outer loop
      vertex 52.8 190 0.0999994
      vertex 52 200 0.0999994
      vertex 52 190 0.0999994
    endloop
  endfacet
  facet normal 1 -0 0
    outer loop
      vertex 52.8 190 0.0999994
      vertex 52.8 200 0
      vertex 52.8 200 0.0999994
    endloop
  endfacet
  facet normal 1 0 0
    outer loop
      vertex 52.8 200 0
      vertex 52.8 190 0.0999994
      vertex 52.8 190 0
    endloop
  endfacet
  facet normal 0 0 -1
    outer loop
      vertex 52 190 0
      vertex 52.8 200 0
      vertex 52.8 190 0
    endloop
  endfacet
  facet normal -0 0 -1
    outer loop
      vertex 52.8 200 0
      vertex 52 190 0
      vertex 52 200 0
    endloop
  endfacet
  facet normal 0 -1 0
    outer loop
      vertex 52 190 0
      vertex 52.8 190 0.0999994
      vertex 52 190 0.0999994
    endloop
  endfacet
  facet normal 0 -1 -0
    outer loop
      vertex 52.8 190 0.0999994
      vertex 52 190 0
      vertex 52.8 190 0
    endloop
  endfacet
  facet normal 0 1 -0
    outer loop
      vertex 52.8 200 0
      vertex 52 200 0.0999994
      vertex 52.8 200 0.0999994
    endloop
  endfacet
  facet normal 0 1 0
    outer loop
      vertex 52 200 0.0999994
      vertex 52.8 200 0
      vertex 52 200 0
    endloop
  endfacet
  facet normal -1 0 0
    outer loop
      vertex 53 190 0
      vertex 53 200 0.0999994
      vertex 53 200 0
    endloop
  endfacet
  facet normal -1 -0 0
    outer loop
      vertex 53 200 0.0999994
      vertex 53 190 0
      vertex 53 190 0.0999994
    endloop
  endfacet
  facet normal -0 0 1
    outer loop
      vertex 53 200 0.0999994
      vertex 53.8 190 0.0999994
      vertex 53.8 200 0.0999994
    endloop
  endfacet
  facet normal 0 0 1
    outer loop
      vertex 53.8 190 0.0999994
      vertex 53 200 0.0999994
      vertex 53 190 0.0999994
    endloop
  endfacet
  facet normal 1 -0 0
    outer loop
      vertex 53.8 190 0.0999994
      vertex 53.8 200 0
      vertex 53.8 200 0.0999994
    endloop
  endfacet
  facet normal 1 0 0
    outer loop
      vertex 53.8 200 0
      vertex 53.8 190 0.0999994
      vertex 53.8 190 0
    endloop
  endfacet
  facet normal 0 0 -1
    outer loop
      vertex 53 190 0
      vertex 53.8 200 0
      vertex 53.8 190 0
    endloop
  endfacet
  facet normal -0 0 -1
    outer loop
      vertex 53.8 200 0
      vertex 53 190 0
      vertex 53 200 0
    endloop
  endfacet
  facet normal 0 -1 0
    outer loop
      vertex 53 190 0
      vertex 53.8 190 0.0999994
      vertex 53 190 0.0999994
    endloop
  endfacet
  facet normal 0 -1 -0
    outer loop
      vertex 53.8 190 0.0999994
      vertex 53 190 0
      vertex 53.8 190 0
    endloop
  endfacet
  facet normal 0 1 -0
    outer loop
      vertex 53.8 200 0
      vertex 53 200 0.0999994
      vertex 53.8 200 0.0999994
    endloop
  endfacet
  facet normal 0 1 0
    outer loop
      vertex 53 200 0.0999994
      vertex 53.8 200 0
      vertex 53 200 0
    endloop
  endfacet
  facet normal -1 0 0
    outer loop
      vertex 54 190 0
      vertex 54 200 0.0999994
      vertex 54 200 0
    endloop
  endfacet
  facet normal -1 -0 0
    outer loop
      vertex 54 200 0.0999994
      vertex 54 190 0
      vertex 54 190 0.0999994
    endloop
  endfacet
  facet normal -0 0 1
    outer loop
      vertex 54 200 0.0999994
      vertex 54.8 190 0.0999994
      vertex 54.8 200 0.0999994
    endloop
  endfacet
  facet normal 0 0 1
    outer loop
      vertex 54.8 190 0.0999994
      vertex 54 200 0.0999994
      vertex 54 190 0.0999994
    endloop
  endfacet
  facet normal 1 -0 0
    outer loop
      vertex 54.8 190 0.0999994
      vertex 54.8 200 0
      vertex 54.8 200 0.0999994
    endloop
  endfacet
  facet normal 1 0 0
    outer loop
      vertex 54.8 200 0
      vertex 54.8 190 0.0999994
      vertex 54.8 190 0
    endloop
  endfacet
  facet normal 0 1 -0
    outer loop
      vertex 54.8 200 0
      vertex 54 200 0.0999994
      vertex 54.8 200 0.0999994
    endloop
  endfacet
  facet normal 0 1 0
    outer loop
      vertex 54 200 0.0999994
      vertex 54.8 200 0
      vertex 54 200 0
    endloop
  endfacet
  facet normal 0 0 -1
    outer loop
      vertex 54 190 0
      vertex 54.8 200 0
      vertex 54.8 190 0
    endloop
  endfacet
  facet normal -0 0 -1
    outer loop
      vertex 54.8 200 0
      vertex 54 190 0
      vertex 54 200 0
    endloop
  endfacet
  facet normal 0 -1 0
    outer loop
      vertex 54 190 0
      vertex 54.8 190 0.0999994
      vertex 54 190 0.0999994
    endloop
  endfacet
  facet normal 0 -1 -0
    outer loop
      vertex 54.8 190 0.0999994
      vertex 54 190 0
      vertex 54.8 190 0
    endloop
  endfacet
  facet normal -1 0 0
    outer loop
      vertex 55 190 0
      vertex 55 200 0.0999994
      vertex 55 200 0
    endloop
  endfacet
  facet normal -1 -0 0
    outer loop
      vertex 55 200 0.0999994
      vertex 55 190 0
      vertex 55 190 0.0999994
    endloop
  endfacet
  facet normal -0 0 1
    outer loop
      vertex 55 200 0.0999994
      vertex 55.8 190 0.0999994
      vertex 55.8 200 0.0999994
    endloop
  endfacet
  facet normal 0 0 1
    outer loop
      vertex 55.8 190 0.0999994
      vertex 55 200 0.0999994
      vertex 55 190 0.0999994
    endloop
  endfacet
  facet normal 1 -0 0
    outer loop
      vertex 55.8 190 0.0999994
      vertex 55.8 200 0
      vertex 55.8 200 0.0999994
    endloop
  endfacet
  facet normal 1 0 0
    outer loop
      vertex 55.8 200 0
      vertex 55.8 190 0.0999994
      vertex 55.8 190 0
    endloop
  endfacet
  facet normal 0 0 -1
    outer loop
      vertex 55 190 0
      vertex 55.8 200 0
      vertex 55.8 190 0
    endloop
  endfacet
  facet normal -0 0 -1
    outer loop
      vertex 55.8 200 0
      vertex 55 190 0
      vertex 55 200 0
    endloop
  endfacet
  facet normal 0 -1 0
    outer loop
      vertex 55 190 0
      vertex 55.8 190 0.0999994
      vertex 55 190 0.0999994
    endloop
  endfacet
  facet normal 0 -1 -0
    outer loop
      vertex 55.8 190 0.0999994
      vertex 55 190 0
      vertex 55.8 190 0
    endloop
  endfacet
  facet normal 0 1 -0
    outer loop
      vertex 55.8 200 0
      vertex 55 200 0.0999994
      vertex 55.8 200 0.0999994
    endloop
  endfacet
  facet normal 0 1 0
    outer loop
      vertex 55 200 0.0999994
      vertex 55.8 200 0
      vertex 55 200 0
    endloop
  endfacet
  facet normal -1 0 0
    outer loop
      vertex 56 190 0
      vertex 56 200 0.0999994
      vertex 56 200 0
    endloop
  endfacet
  facet normal -1 -0 0
    outer loop
      vertex 56 200 0.0999994
      vertex 56 190 0
      vertex 56 190 0.0999994
    endloop
  endfacet
  facet normal -0 0 1
    outer loop
      vertex 56 200 0.0999994
      vertex 56.8 190 0.0999994
      vertex 56.8 200 0.0999994
    endloop
  endfacet
  facet normal 0 0 1
    outer loop
      vertex 56.8 190 0.0999994
      vertex 56 200 0.0999994
      vertex 56 190 0.0999994
    endloop
  endfacet
  facet normal 1 -0 0
    outer loop
      vertex 56.8 190 0.0999994
      vertex 56.8 200 0
      vertex 56.8 200 0.0999994
    endloop
  endfacet
  facet normal 1 0 0
    outer loop
      vertex 56.8 200 0
      vertex 56.8 190 0.0999994
      vertex 56.8 190 0
    endloop
  endfacet
  facet normal 0 1 -0
    outer loop
      vertex 56.8 200 0
      vertex 56 200 0.0999994
      vertex 56.8 200 0.0999994
    endloop
  endfacet
  facet normal 0 1 0
    outer loop
      vertex 56 200 0.0999994
      vertex 56.8 200 0
      vertex 56 200 0
    endloop
  endfacet
  facet normal 0 0 -1
    outer loop
      vertex 56 190 0
      vertex 56.8 200 0
      vertex 56.8 190 0
    endloop
  endfacet
  facet normal -0 0 -1
    outer loop
      vertex 56.8 200 0
      vertex 56 190 0
      vertex 56 200 0
    endloop
  endfacet
  facet normal 0 -1 0
    outer loop
      vertex 56 190 0
      vertex 56.8 190 0.0999994
      vertex 56 190 0.0999994
    endloop
  endfacet
  facet normal 0 -1 -0
    outer loop
      vertex 56.8 190 0.0999994
      vertex 56 190 0
      vertex 56.8 190 0
    endloop
  endfacet
  facet normal -1 0 0
    outer loop
      vertex 57 190 0
      vertex 57 200 0.0999994
      vertex 57 200 0
    endloop
  endfacet
  facet normal -1 -0 0
    outer loop
      vertex 57 200 0.0999994
      vertex 57 190 0
      vertex 57 190 0.0999994
    endloop
  endfacet
  facet normal -0 0 1
    outer loop
      vertex 57 200 0.0999994
      vertex 57.8 190 0.0999994
      vertex 57.8 200 0.0999994
    endloop
  endfacet
  facet normal 0 0 1
    outer loop
      vertex 57.8 190 0.0999994
      vertex 57 200 0.0999994
      vertex 57 190 0.0999994
    endloop
  endfacet
  facet normal 1 -0 0
    outer loop
      vertex 57.8 190 0.0999994
      vertex 57.8 200 0
      vertex 57.8 200 0.0999994
    endloop
  endfacet
  facet normal 1 0 0
    outer loop
      vertex 57.8 200 0
      vertex 57.8 190 0.0999994
      vertex 57.8 190 0
    endloop
  endfacet
  facet normal 0 1 -0
    outer loop
      vertex 57.8 200 0
      vertex 57 200 0.0999994
      vertex 57.8 200 0.0999994
    endloop
  endfacet
  facet normal 0 1 0
    outer loop
      vertex 57 200 0.0999994
      vertex 57.8 200 0
      vertex 57 200 0
    endloop
  endfacet
  facet normal 0 0 -1
    outer loop
      vertex 57 190 0
      vertex 57.8 200 0
      vertex 57.8 190 0
    endloop
  endfacet
  facet normal -0 0 -1
    outer loop
      vertex 57.8 200 0
      vertex 57 190 0
      vertex 57 200 0
    endloop
  endfacet
  facet normal 0 -1 0
    outer loop
      vertex 57 190 0
      vertex 57.8 190 0.0999994
      vertex 57 190 0.0999994
    endloop
  endfacet
  facet normal 0 -1 -0
    outer loop
      vertex 57.8 190 0.0999994
      vertex 57 190 0
      vertex 57.8 190 0
    endloop
  endfacet
  facet normal -1 0 0
    outer loop
      vertex 58 190 0
      vertex 58 200 0.0999994
      vertex 58 200 0
    endloop
  endfacet
  facet normal -1 -0 0
    outer loop
      vertex 58 200 0.0999994
      vertex 58 190 0
      vertex 58 190 0.0999994
    endloop
  endfacet
  facet normal -0 0 1
    outer loop
      vertex 58 200 0.0999994
      vertex 58.8 190 0.0999994
      vertex 58.8 200 0.0999994
    endloop
  endfacet
  facet normal 0 0 1
    outer loop
      vertex 58.8 190 0.0999994
      vertex 58 200 0.0999994
      vertex 58 190 0.0999994
    endloop
  endfacet
  facet normal 1 -0 0
    outer loop
      vertex 58.8 190 0.0999994
      vertex 58.8 200 0
      vertex 58.8 200 0.0999994
    endloop
  endfacet
  facet normal 1 0 0
    outer loop
      vertex 58.8 200 0
      vertex 58.8 190 0.0999994
      vertex 58.8 190 0
    endloop
  endfacet
  facet normal 0 1 -0
    outer loop
      vertex 58.8 200 0
      vertex 58 200 0.0999994
      vertex 58.8 200 0.0999994
    endloop
  endfacet
  facet normal 0 1 0
    outer loop
      vertex 58 200 0.0999994
      vertex 58.8 200 0
      vertex 58 200 0
    endloop
  endfacet
  facet normal 0 0 -1
    outer loop
      vertex 58 190 0
      vertex 58.8 200 0
      vertex 58.8 190 0
    endloop
  endfacet
  facet normal -0 0 -1
    outer loop
      vertex 58.8 200 0
      vertex 58 190 0
      vertex 58 200 0
    endloop
  endfacet
  facet normal 0 -1 0
    outer loop
      vertex 58 190 0
      vertex 58.8 190 0.0999994
      vertex 58 190 0.0999994
    endloop
  endfacet
  facet normal 0 -1 -0
    outer loop
      vertex 58.8 190 0.0999994
      vertex 58 190 0
      vertex 58.8 190 0
    endloop
  endfacet
  facet normal -1 0 0
    outer loop
      vertex 59 190 0
      vertex 59 200 0.0999994
      vertex 59 200 0
    endloop
  endfacet
  facet normal -1 -0 0
    outer loop
      vertex 59 200 0.0999994
      vertex 59 190 0
      vertex 59 190 0.0999994
    endloop
  endfacet
  facet normal -0 0 1
    outer loop
      vertex 59 200 0.0999994
      vertex 59.8 190 0.0999994
      vertex 59.8 200 0.0999994
    endloop
  endfacet
  facet normal 0 0 1
    outer loop
      vertex 59.8 190 0.0999994
      vertex 59 200 0.0999994
      vertex 59 190 0.0999994
    endloop
  endfacet
  facet normal 1 -0 0
    outer loop
      vertex 59.8 190 0.0999994
      vertex 59.8 200 0
      vertex 59.8 200 0.0999994
    endloop
  endfacet
  facet normal 1 0 0
    outer loop
      vertex 59.8 200 0
      vertex 59.8 190 0.0999994
      vertex 59.8 190 0
    endloop
  endfacet
  facet normal 0 0 -1
    outer loop
      vertex 59 190 0
      vertex 59.8 200 0
      vertex 59.8 190 0
    endloop
  endfacet
  facet normal -0 0 -1
    outer loop
      vertex 59.8 200 0
      vertex 59 190 0
      vertex 59 200 0
    endloop
  endfacet
  facet normal 0 -1 0
    outer loop
      vertex 59 190 0
      vertex 59.8 190 0.0999994
      vertex 59 190 0.0999994
    endloop
  endfacet
  facet normal 0 -1 -0
    outer loop
      vertex 59.8 190 0.0999994
      vertex 59 190 0
      vertex 59.8 190 0
    endloop
  endfacet
  facet normal 0 1 -0
    outer loop
      vertex 59.8 200 0
      vertex 59 200 0.0999994
      vertex 59.8 200 0.0999994
    endloop
  endfacet
  facet normal 0 1 0
    outer loop
      vertex 59 200 0.0999994
      vertex 59.8 200 0
      vertex 59 200 0
    endloop
  endfacet
  facet normal -1 0 0
    outer loop
      vertex 60 190 0
      vertex 60 200 0.0999994
      vertex 60 200 0
    endloop
  endfacet
  facet normal -1 -0 0
    outer loop
      vertex 60 200 0.0999994
      vertex 60 190 0
      vertex 60 190 0.0999994
    endloop
  endfacet
  facet normal -0 0 1
    outer loop
      vertex 60 200 0.0999994
      vertex 60.8 190 0.0999994
      vertex 60.8 200 0.0999994
    endloop
  endfacet
  facet normal 0 0 1
    outer loop
      vertex 60.8 190 0.0999994
      vertex 60 200 0.0999994
      vertex 60 190 0.0999994
    endloop
  endfacet
  facet normal 1 -0 0
    outer loop
      vertex 60.8 190 0.0999994
      vertex 60.8 200 0
      vertex 60.8 200 0.0999994
    endloop
  endfacet
  facet normal 1 0 0
    outer loop
      vertex 60.8 200 0
      vertex 60.8 190 0.0999994
      vertex 60.8 190 0
    endloop
  endfacet
  facet normal 0 1 -0
    outer loop
      vertex 60.8 200 0
      vertex 60 200 0.0999994
      vertex 60.8 200 0.0999994
    endloop
  endfacet
  facet normal 0 1 0
    outer loop
      vertex 60 200 0.0999994
      vertex 60.8 200 0
      vertex 60 200 0
    endloop
  endfacet
  facet normal 0 0 -1
    outer loop
      vertex 60 190 0
      vertex 60.8 200 0
      vertex 60.8 190 0
    endloop
  endfacet
  facet normal -0 0 -1
    outer loop
      vertex 60.8 200 0
      vertex 60 190 0
      vertex 60 200 0
    endloop
  endfacet
  facet normal 0 -1 0
    outer loop
      vertex 60 190 0
      vertex 60.8 190 0.0999994
      vertex 60 190 0.0999994
    endloop
  endfacet
  facet normal 0 -1 -0
    outer loop
      vertex 60.8 190 0.0999994
      vertex 60 190 0
      vertex 60.8 190 0
    endloop
  endfacet
endsolid OpenSCAD_Model
