solid OpenSCAD_Model
  facet normal -1 0 0
    outer loop
      vertex 10 50 0
      vertex 10 60 0.0999994
      vertex 10 60 0
    endloop
  endfacet
  facet normal -1 -0 0
    outer loop
      vertex 10 60 0.0999994
      vertex 10 50 0
      vertex 10 50 0.0999994
    endloop
  endfacet
  facet normal -0 0 1
    outer loop
      vertex 10 60 0.0999994
      vertex 10.8 50 0.0999994
      vertex 10.8 60 0.0999994
    endloop
  endfacet
  facet normal 0 0 1
    outer loop
      vertex 10.8 50 0.0999994
      vertex 10 60 0.0999994
      vertex 10 50 0.0999994
    endloop
  endfacet
  facet normal 1 -0 0
    outer loop
      vertex 10.8 50 0.0999994
      vertex 10.8 60 0
      vertex 10.8 60 0.0999994
    endloop
  endfacet
  facet normal 1 0 0
    outer loop
      vertex 10.8 60 0
      vertex 10.8 50 0.0999994
      vertex 10.8 50 0
    endloop
  endfacet
  facet normal 0 0 -1
    outer loop
      vertex 10 50 0
      vertex 10.8 60 0
      vertex 10.8 50 0
    endloop
  endfacet
  facet normal -0 0 -1
    outer loop
      vertex 10.8 60 0
      vertex 10 50 0
      vertex 10 60 0
    endloop
  endfacet
  facet normal 0 -1 0
    outer loop
      vertex 10 50 0
      vertex 10.8 50 0.0999994
      vertex 10 50 0.0999994
    endloop
  endfacet
  facet normal 0 -1 -0
    outer loop
      vertex 10.8 50 0.0999994
      vertex 10 50 0
      vertex 10.8 50 0
    endloop
  endfacet
  facet normal 0 1 -0
    outer loop
      vertex 10.8 60 0
      vertex 10 60 0.0999994
      vertex 10.8 60 0.0999994
    endloop
  endfacet
  facet normal 0 1 0
    outer loop
      vertex 10 60 0.0999994
      vertex 10.8 60 0
      vertex 10 60 0
    endloop
  endfacet
  facet normal -1 0 0
    outer loop
      vertex 11 50 0
      vertex 11 60 0.0999994
      vertex 11 60 0
    endloop
  endfacet
  facet normal -1 -0 0
    outer loop
      vertex 11 60 0.0999994
      vertex 11 50 0
      vertex 11 50 0.0999994
    endloop
  endfacet
  facet normal -0 0 1
    outer loop
      vertex 11 60 0.0999994
      vertex 11.8 50 0.0999994
      vertex 11.8 60 0.0999994
    endloop
  endfacet
  facet normal 0 0 1
    outer loop
      vertex 11.8 50 0.0999994
      vertex 11 60 0.0999994
      vertex 11 50 0.0999994
    endloop
  endfacet
  facet normal 1 -0 0
    outer loop
      vertex 11.8 50 0.0999994
      vertex 11.8 60 0
      vertex 11.8 60 0.0999994
    endloop
  endfacet
  facet normal 1 0 0
    outer loop
      vertex 11.8 60 0
      vertex 11.8 50 0.0999994
      vertex 11.8 50 0
    endloop
  endfacet
  facet normal 0 1 -0
    outer loop
      vertex 11.8 60 0
      vertex 11 60 0.0999994
      vertex 11.8 60 0.0999994
    endloop
  endfacet
  facet normal 0 1 0
    outer loop
      vertex 11 60 0.0999994
      vertex 11.8 60 0
      vertex 11 60 0
    endloop
  endfacet
  facet normal 0 0 -1
    outer loop
      vertex 11 50 0
      vertex 11.8 60 0
      vertex 11.8 50 0
    endloop
  endfacet
  facet normal -0 0 -1
    outer loop
      vertex 11.8 60 0
      vertex 11 50 0
      vertex 11 60 0
    endloop
  endfacet
  facet normal 0 -1 0
    outer loop
      vertex 11 50 0
      vertex 11.8 50 0.0999994
      vertex 11 50 0.0999994
    endloop
  endfacet
  facet normal 0 -1 -0
    outer loop
      vertex 11.8 50 0.0999994
      vertex 11 50 0
      vertex 11.8 50 0
    endloop
  endfacet
  facet normal -1 0 0
    outer loop
      vertex 12 50 0
      vertex 12 60 0.0999994
      vertex 12 60 0
    endloop
  endfacet
  facet normal -1 -0 0
    outer loop
      vertex 12 60 0.0999994
      vertex 12 50 0
      vertex 12 50 0.0999994
    endloop
  endfacet
  facet normal -0 0 1
    outer loop
      vertex 12 60 0.0999994
      vertex 12.8 50 0.0999994
      vertex 12.8 60 0.0999994
    endloop
  endfacet
  facet normal 0 0 1
    outer loop
      vertex 12.8 50 0.0999994
      vertex 12 60 0.0999994
      vertex 12 50 0.0999994
    endloop
  endfacet
  facet normal 1 -0 0
    outer loop
      vertex 12.8 50 0.0999994
      vertex 12.8 60 0
      vertex 12.8 60 0.0999994
    endloop
  endfacet
  facet normal 1 0 0
    outer loop
      vertex 12.8 60 0
      vertex 12.8 50 0.0999994
      vertex 12.8 50 0
    endloop
  endfacet
  facet normal 0 0 -1
    outer loop
      vertex 12 50 0
      vertex 12.8 60 0
      vertex 12.8 50 0
    endloop
  endfacet
  facet normal -0 0 -1
    outer loop
      vertex 12.8 60 0
      vertex 12 50 0
      vertex 12 60 0
    endloop
  endfacet
  facet normal 0 -1 0
    outer loop
      vertex 12 50 0
      vertex 12.8 50 0.0999994
      vertex 12 50 0.0999994
    endloop
  endfacet
  facet normal 0 -1 -0
    outer loop
      vertex 12.8 50 0.0999994
      vertex 12 50 0
      vertex 12.8 50 0
    endloop
  endfacet
  facet normal 0 1 -0
    outer loop
      vertex 12.8 60 0
      vertex 12 60 0.0999994
      vertex 12.8 60 0.0999994
    endloop
  endfacet
  facet normal 0 1 0
    outer loop
      vertex 12 60 0.0999994
      vertex 12.8 60 0
      vertex 12 60 0
    endloop
  endfacet
  facet normal -1 0 0
    outer loop
      vertex 13 50 0
      vertex 13 60 0.0999994
      vertex 13 60 0
    endloop
  endfacet
  facet normal -1 -0 0
    outer loop
      vertex 13 60 0.0999994
      vertex 13 50 0
      vertex 13 50 0.0999994
    endloop
  endfacet
  facet normal -0 0 1
    outer loop
      vertex 13 60 0.0999994
      vertex 13.8 50 0.0999994
      vertex 13.8 60 0.0999994
    endloop
  endfacet
  facet normal 0 0 1
    outer loop
      vertex 13.8 50 0.0999994
      vertex 13 60 0.0999994
      vertex 13 50 0.0999994
    endloop
  endfacet
  facet normal 1 -0 0
    outer loop
      vertex 13.8 50 0.0999994
      vertex 13.8 60 0
      vertex 13.8 60 0.0999994
    endloop
  endfacet
  facet normal 1 0 0
    outer loop
      vertex 13.8 60 0
      vertex 13.8 50 0.0999994
      vertex 13.8 50 0
    endloop
  endfacet
  facet normal 0 0 -1
    outer loop
      vertex 13 50 0
      vertex 13.8 60 0
      vertex 13.8 50 0
    endloop
  endfacet
  facet normal -0 0 -1
    outer loop
      vertex 13.8 60 0
      vertex 13 50 0
      vertex 13 60 0
    endloop
  endfacet
  facet normal 0 -1 0
    outer loop
      vertex 13 50 0
      vertex 13.8 50 0.0999994
      vertex 13 50 0.0999994
    endloop
  endfacet
  facet normal 0 -1 -0
    outer loop
      vertex 13.8 50 0.0999994
      vertex 13 50 0
      vertex 13.8 50 0
    endloop
  endfacet
  facet normal 0 1 -0
    outer loop
      vertex 13.8 60 0
      vertex 13 60 0.0999994
      vertex 13.8 60 0.0999994
    endloop
  endfacet
  facet normal 0 1 0
    outer loop
      vertex 13 60 0.0999994
      vertex 13.8 60 0
      vertex 13 60 0
    endloop
  endfacet
  facet normal -1 0 0
    outer loop
      vertex 14 50 0
      vertex 14 60 0.0999994
      vertex 14 60 0
    endloop
  endfacet
  facet normal -1 -0 0
    outer loop
      vertex 14 60 0.0999994
      vertex 14 50 0
      vertex 14 50 0.0999994
    endloop
  endfacet
  facet normal -0 0 1
    outer loop
      vertex 14 60 0.0999994
      vertex 14.8 50 0.0999994
      vertex 14.8 60 0.0999994
    endloop
  endfacet
  facet normal 0 0 1
    outer loop
      vertex 14.8 50 0.0999994
      vertex 14 60 0.0999994
      vertex 14 50 0.0999994
    endloop
  endfacet
  facet normal 1 -0 0
    outer loop
      vertex 14.8 50 0.0999994
      vertex 14.8 60 0
      vertex 14.8 60 0.0999994
    endloop
  endfacet
  facet normal 1 0 0
    outer loop
      vertex 14.8 60 0
      vertex 14.8 50 0.0999994
      vertex 14.8 50 0
    endloop
  endfacet
  facet normal 0 1 -0
    outer loop
      vertex 14.8 60 0
      vertex 14 60 0.0999994
      vertex 14.8 60 0.0999994
    endloop
  endfacet
  facet normal 0 1 0
    outer loop
      vertex 14 60 0.0999994
      vertex 14.8 60 0
      vertex 14 60 0
    endloop
  endfacet
  facet normal 0 0 -1
    outer loop
      vertex 14 50 0
      vertex 14.8 60 0
      vertex 14.8 50 0
    endloop
  endfacet
  facet normal -0 0 -1
    outer loop
      vertex 14.8 60 0
      vertex 14 50 0
      vertex 14 60 0
    endloop
  endfacet
  facet normal 0 -1 0
    outer loop
      vertex 14 50 0
      vertex 14.8 50 0.0999994
      vertex 14 50 0.0999994
    endloop
  endfacet
  facet normal 0 -1 -0
    outer loop
      vertex 14.8 50 0.0999994
      vertex 14 50 0
      vertex 14.8 50 0
    endloop
  endfacet
  facet normal -1 0 0
    outer loop
      vertex 15 50 0
      vertex 15 60 0.0999994
      vertex 15 60 0
    endloop
  endfacet
  facet normal -1 -0 0
    outer loop
      vertex 15 60 0.0999994
      vertex 15 50 0
      vertex 15 50 0.0999994
    endloop
  endfacet
  facet normal -0 0 1
    outer loop
      vertex 15 60 0.0999994
      vertex 15.8 50 0.0999994
      vertex 15.8 60 0.0999994
    endloop
  endfacet
  facet normal 0 0 1
    outer loop
      vertex 15.8 50 0.0999994
      vertex 15 60 0.0999994
      vertex 15 50 0.0999994
    endloop
  endfacet
  facet normal 1 -0 0
    outer loop
      vertex 15.8 50 0.0999994
      vertex 15.8 60 0
      vertex 15.8 60 0.0999994
    endloop
  endfacet
  facet normal 1 0 0
    outer loop
      vertex 15.8 60 0
      vertex 15.8 50 0.0999994
      vertex 15.8 50 0
    endloop
  endfacet
  facet normal 0 1 -0
    outer loop
      vertex 15.8 60 0
      vertex 15 60 0.0999994
      vertex 15.8 60 0.0999994
    endloop
  endfacet
  facet normal 0 1 0
    outer loop
      vertex 15 60 0.0999994
      vertex 15.8 60 0
      vertex 15 60 0
    endloop
  endfacet
  facet normal 0 0 -1
    outer loop
      vertex 15 50 0
      vertex 15.8 60 0
      vertex 15.8 50 0
    endloop
  endfacet
  facet normal -0 0 -1
    outer loop
      vertex 15.8 60 0
      vertex 15 50 0
      vertex 15 60 0
    endloop
  endfacet
  facet normal 0 -1 0
    outer loop
      vertex 15 50 0
      vertex 15.8 50 0.0999994
      vertex 15 50 0.0999994
    endloop
  endfacet
  facet normal 0 -1 -0
    outer loop
      vertex 15.8 50 0.0999994
      vertex 15 50 0
      vertex 15.8 50 0
    endloop
  endfacet
  facet normal -1 0 0
    outer loop
      vertex 16 50 0
      vertex 16 60 0.0999994
      vertex 16 60 0
    endloop
  endfacet
  facet normal -1 -0 0
    outer loop
      vertex 16 60 0.0999994
      vertex 16 50 0
      vertex 16 50 0.0999994
    endloop
  endfacet
  facet normal -0 0 1
    outer loop
      vertex 16 60 0.0999994
      vertex 16.8 50 0.0999994
      vertex 16.8 60 0.0999994
    endloop
  endfacet
  facet normal 0 0 1
    outer loop
      vertex 16.8 50 0.0999994
      vertex 16 60 0.0999994
      vertex 16 50 0.0999994
    endloop
  endfacet
  facet normal 1 -0 0
    outer loop
      vertex 16.8 50 0.0999994
      vertex 16.8 60 0
      vertex 16.8 60 0.0999994
    endloop
  endfacet
  facet normal 1 0 0
    outer loop
      vertex 16.8 60 0
      vertex 16.8 50 0.0999994
      vertex 16.8 50 0
    endloop
  endfacet
  facet normal 0 1 -0
    outer loop
      vertex 16.8 60 0
      vertex 16 60 0.0999994
      vertex 16.8 60 0.0999994
    endloop
  endfacet
  facet normal 0 1 0
    outer loop
      vertex 16 60 0.0999994
      vertex 16.8 60 0
      vertex 16 60 0
    endloop
  endfacet
  facet normal 0 0 -1
    outer loop
      vertex 16 50 0
      vertex 16.8 60 0
      vertex 16.8 50 0
    endloop
  endfacet
  facet normal -0 0 -1
    outer loop
      vertex 16.8 60 0
      vertex 16 50 0
      vertex 16 60 0
    endloop
  endfacet
  facet normal 0 -1 0
    outer loop
      vertex 16 50 0
      vertex 16.8 50 0.0999994
      vertex 16 50 0.0999994
    endloop
  endfacet
  facet normal 0 -1 -0
    outer loop
      vertex 16.8 50 0.0999994
      vertex 16 50 0
      vertex 16.8 50 0
    endloop
  endfacet
  facet normal -1 0 0
    outer loop
      vertex 17 50 0
      vertex 17 60 0.0999994
      vertex 17 60 0
    endloop
  endfacet
  facet normal -1 -0 0
    outer loop
      vertex 17 60 0.0999994
      vertex 17 50 0
      vertex 17 50 0.0999994
    endloop
  endfacet
  facet normal -0 0 1
    outer loop
      vertex 17 60 0.0999994
      vertex 17.8 50 0.0999994
      vertex 17.8 60 0.0999994
    endloop
  endfacet
  facet normal 0 0 1
    outer loop
      vertex 17.8 50 0.0999994
      vertex 17 60 0.0999994
      vertex 17 50 0.0999994
    endloop
  endfacet
  facet normal 1 -0 0
    outer loop
      vertex 17.8 50 0.0999994
      vertex 17.8 60 0
      vertex 17.8 60 0.0999994
    endloop
  endfacet
  facet normal 1 0 0
    outer loop
      vertex 17.8 60 0
      vertex 17.8 50 0.0999994
      vertex 17.8 50 0
    endloop
  endfacet
  facet normal 0 1 -0
    outer loop
      vertex 17.8 60 0
      vertex 17 60 0.0999994
      vertex 17.8 60 0.0999994
    endloop
  endfacet
  facet normal 0 1 0
    outer loop
      vertex 17 60 0.0999994
      vertex 17.8 60 0
      vertex 17 60 0
    endloop
  endfacet
  facet normal 0 0 -1
    outer loop
      vertex 17 50 0
      vertex 17.8 60 0
      vertex 17.8 50 0
    endloop
  endfacet
  facet normal -0 0 -1
    outer loop
      vertex 17.8 60 0
      vertex 17 50 0
      vertex 17 60 0
    endloop
  endfacet
  facet normal 0 -1 0
    outer loop
      vertex 17 50 0
      vertex 17.8 50 0.0999994
      vertex 17 50 0.0999994
    endloop
  endfacet
  facet normal 0 -1 -0
    outer loop
      vertex 17.8 50 0.0999994
      vertex 17 50 0
      vertex 17.8 50 0
    endloop
  endfacet
  facet normal -1 0 0
    outer loop
      vertex 18 50 0
      vertex 18 60 0.0999994
      vertex 18 60 0
    endloop
  endfacet
  facet normal -1 -0 0
    outer loop
      vertex 18 60 0.0999994
      vertex 18 50 0
      vertex 18 50 0.0999994
    endloop
  endfacet
  facet normal -0 0 1
    outer loop
      vertex 18 60 0.0999994
      vertex 18.8 50 0.0999994
      vertex 18.8 60 0.0999994
    endloop
  endfacet
  facet normal 0 0 1
    outer loop
      vertex 18.8 50 0.0999994
      vertex 18 60 0.0999994
      vertex 18 50 0.0999994
    endloop
  endfacet
  facet normal 1 -0 0
    outer loop
      vertex 18.8 50 0.0999994
      vertex 18.8 60 0
      vertex 18.8 60 0.0999994
    endloop
  endfacet
  facet normal 1 0 0
    outer loop
      vertex 18.8 60 0
      vertex 18.8 50 0.0999994
      vertex 18.8 50 0
    endloop
  endfacet
  facet normal 0 1 -0
    outer loop
      vertex 18.8 60 0
      vertex 18 60 0.0999994
      vertex 18.8 60 0.0999994
    endloop
  endfacet
  facet normal 0 1 0
    outer loop
      vertex 18 60 0.0999994
      vertex 18.8 60 0
      vertex 18 60 0
    endloop
  endfacet
  facet normal 0 0 -1
    outer loop
      vertex 18 50 0
      vertex 18.8 60 0
      vertex 18.8 50 0
    endloop
  endfacet
  facet normal -0 0 -1
    outer loop
      vertex 18.8 60 0
      vertex 18 50 0
      vertex 18 60 0
    endloop
  endfacet
  facet normal 0 -1 0
    outer loop
      vertex 18 50 0
      vertex 18.8 50 0.0999994
      vertex 18 50 0.0999994
    endloop
  endfacet
  facet normal 0 -1 -0
    outer loop
      vertex 18.8 50 0.0999994
      vertex 18 50 0
      vertex 18.8 50 0
    endloop
  endfacet
  facet normal -1 0 0
    outer loop
      vertex 19 50 0
      vertex 19 60 0.0999994
      vertex 19 60 0
    endloop
  endfacet
  facet normal -1 -0 0
    outer loop
      vertex 19 60 0.0999994
      vertex 19 50 0
      vertex 19 50 0.0999994
    endloop
  endfacet
  facet normal -0 0 1
    outer loop
      vertex 19 60 0.0999994
      vertex 19.8 50 0.0999994
      vertex 19.8 60 0.0999994
    endloop
  endfacet
  facet normal 0 0 1
    outer loop
      vertex 19.8 50 0.0999994
      vertex 19 60 0.0999994
      vertex 19 50 0.0999994
    endloop
  endfacet
  facet normal 1 -0 0
    outer loop
      vertex 19.8 50 0.0999994
      vertex 19.8 60 0
      vertex 19.8 60 0.0999994
    endloop
  endfacet
  facet normal 1 0 0
    outer loop
      vertex 19.8 60 0
      vertex 19.8 50 0.0999994
      vertex 19.8 50 0
    endloop
  endfacet
  facet normal 0 1 -0
    outer loop
      vertex 19.8 60 0
      vertex 19 60 0.0999994
      vertex 19.8 60 0.0999994
    endloop
  endfacet
  facet normal 0 1 0
    outer loop
      vertex 19 60 0.0999994
      vertex 19.8 60 0
      vertex 19 60 0
    endloop
  endfacet
  facet normal 0 0 -1
    outer loop
      vertex 19 50 0
      vertex 19.8 60 0
      vertex 19.8 50 0
    endloop
  endfacet
  facet normal -0 0 -1
    outer loop
      vertex 19.8 60 0
      vertex 19 50 0
      vertex 19 60 0
    endloop
  endfacet
  facet normal 0 -1 0
    outer loop
      vertex 19 50 0
      vertex 19.8 50 0.0999994
      vertex 19 50 0.0999994
    endloop
  endfacet
  facet normal 0 -1 -0
    outer loop
      vertex 19.8 50 0.0999994
      vertex 19 50 0
      vertex 19.8 50 0
    endloop
  endfacet
  facet normal -1 0 0
    outer loop
      vertex 20 50 0
      vertex 20 60 0.0999994
      vertex 20 60 0
    endloop
  endfacet
  facet normal -1 -0 0
    outer loop
      vertex 20 60 0.0999994
      vertex 20 50 0
      vertex 20 50 0.0999994
    endloop
  endfacet
  facet normal -0 0 1
    outer loop
      vertex 20 60 0.0999994
      vertex 20.8 50 0.0999994
      vertex 20.8 60 0.0999994
    endloop
  endfacet
  facet normal 0 0 1
    outer loop
      vertex 20.8 50 0.0999994
      vertex 20 60 0.0999994
      vertex 20 50 0.0999994
    endloop
  endfacet
  facet normal 1 -0 0
    outer loop
      vertex 20.8 50 0.0999994
      vertex 20.8 60 0
      vertex 20.8 60 0.0999994
    endloop
  endfacet
  facet normal 1 0 0
    outer loop
      vertex 20.8 60 0
      vertex 20.8 50 0.0999994
      vertex 20.8 50 0
    endloop
  endfacet
  facet normal 0 0 -1
    outer loop
      vertex 20 50 0
      vertex 20.8 60 0
      vertex 20.8 50 0
    endloop
  endfacet
  facet normal -0 0 -1
    outer loop
      vertex 20.8 60 0
      vertex 20 50 0
      vertex 20 60 0
    endloop
  endfacet
  facet normal 0 -1 0
    outer loop
      vertex 20 50 0
      vertex 20.8 50 0.0999994
      vertex 20 50 0.0999994
    endloop
  endfacet
  facet normal 0 -1 -0
    outer loop
      vertex 20.8 50 0.0999994
      vertex 20 50 0
      vertex 20.8 50 0
    endloop
  endfacet
  facet normal 0 1 -0
    outer loop
      vertex 20.8 60 0
      vertex 20 60 0.0999994
      vertex 20.8 60 0.0999994
    endloop
  endfacet
  facet normal 0 1 0
    outer loop
      vertex 20 60 0.0999994
      vertex 20.8 60 0
      vertex 20 60 0
    endloop
  endfacet
endsolid OpenSCAD_Model
