solid OpenSCAD_Model
  facet normal -1 0 0
    outer loop
      vertex 10 30 0
      vertex 10 40 0.0999994
      vertex 10 40 0
    endloop
  endfacet
  facet normal -1 -0 0
    outer loop
      vertex 10 40 0.0999994
      vertex 10 30 0
      vertex 10 30 0.0999994
    endloop
  endfacet
  facet normal -0 0 1
    outer loop
      vertex 10 40 0.0999994
      vertex 10.8 30 0.0999994
      vertex 10.8 40 0.0999994
    endloop
  endfacet
  facet normal 0 0 1
    outer loop
      vertex 10.8 30 0.0999994
      vertex 10 40 0.0999994
      vertex 10 30 0.0999994
    endloop
  endfacet
  facet normal 1 -0 0
    outer loop
      vertex 10.8 30 0.0999994
      vertex 10.8 40 0
      vertex 10.8 40 0.0999994
    endloop
  endfacet
  facet normal 1 0 0
    outer loop
      vertex 10.8 40 0
      vertex 10.8 30 0.0999994
      vertex 10.8 30 0
    endloop
  endfacet
  facet normal 0 0 -1
    outer loop
      vertex 10 30 0
      vertex 10.8 40 0
      vertex 10.8 30 0
    endloop
  endfacet
  facet normal -0 0 -1
    outer loop
      vertex 10.8 40 0
      vertex 10 30 0
      vertex 10 40 0
    endloop
  endfacet
  facet normal 0 -1 0
    outer loop
      vertex 10 30 0
      vertex 10.8 30 0.0999994
      vertex 10 30 0.0999994
    endloop
  endfacet
  facet normal 0 -1 -0
    outer loop
      vertex 10.8 30 0.0999994
      vertex 10 30 0
      vertex 10.8 30 0
    endloop
  endfacet
  facet normal 0 1 -0
    outer loop
      vertex 10.8 40 0
      vertex 10 40 0.0999994
      vertex 10.8 40 0.0999994
    endloop
  endfacet
  facet normal 0 1 0
    outer loop
      vertex 10 40 0.0999994
      vertex 10.8 40 0
      vertex 10 40 0
    endloop
  endfacet
  facet normal -1 0 0
    outer loop
      vertex 11 30 0
      vertex 11 40 0.0999994
      vertex 11 40 0
    endloop
  endfacet
  facet normal -1 -0 0
    outer loop
      vertex 11 40 0.0999994
      vertex 11 30 0
      vertex 11 30 0.0999994
    endloop
  endfacet
  facet normal -0 0 1
    outer loop
      vertex 11 40 0.0999994
      vertex 11.8 30 0.0999994
      vertex 11.8 40 0.0999994
    endloop
  endfacet
  facet normal 0 0 1
    outer loop
      vertex 11.8 30 0.0999994
      vertex 11 40 0.0999994
      vertex 11 30 0.0999994
    endloop
  endfacet
  facet normal 1 -0 0
    outer loop
      vertex 11.8 30 0.0999994
      vertex 11.8 40 0
      vertex 11.8 40 0.0999994
    endloop
  endfacet
  facet normal 1 0 0
    outer loop
      vertex 11.8 40 0
      vertex 11.8 30 0.0999994
      vertex 11.8 30 0
    endloop
  endfacet
  facet normal 0 1 -0
    outer loop
      vertex 11.8 40 0
      vertex 11 40 0.0999994
      vertex 11.8 40 0.0999994
    endloop
  endfacet
  facet normal 0 1 0
    outer loop
      vertex 11 40 0.0999994
      vertex 11.8 40 0
      vertex 11 40 0
    endloop
  endfacet
  facet normal 0 0 -1
    outer loop
      vertex 11 30 0
      vertex 11.8 40 0
      vertex 11.8 30 0
    endloop
  endfacet
  facet normal -0 0 -1
    outer loop
      vertex 11.8 40 0
      vertex 11 30 0
      vertex 11 40 0
    endloop
  endfacet
  facet normal 0 -1 0
    outer loop
      vertex 11 30 0
      vertex 11.8 30 0.0999994
      vertex 11 30 0.0999994
    endloop
  endfacet
  facet normal 0 -1 -0
    outer loop
      vertex 11.8 30 0.0999994
      vertex 11 30 0
      vertex 11.8 30 0
    endloop
  endfacet
  facet normal -1 0 0
    outer loop
      vertex 12 30 0
      vertex 12 40 0.0999994
      vertex 12 40 0
    endloop
  endfacet
  facet normal -1 -0 0
    outer loop
      vertex 12 40 0.0999994
      vertex 12 30 0
      vertex 12 30 0.0999994
    endloop
  endfacet
  facet normal -0 0 1
    outer loop
      vertex 12 40 0.0999994
      vertex 12.8 30 0.0999994
      vertex 12.8 40 0.0999994
    endloop
  endfacet
  facet normal 0 0 1
    outer loop
      vertex 12.8 30 0.0999994
      vertex 12 40 0.0999994
      vertex 12 30 0.0999994
    endloop
  endfacet
  facet normal 1 -0 0
    outer loop
      vertex 12.8 30 0.0999994
      vertex 12.8 40 0
      vertex 12.8 40 0.0999994
    endloop
  endfacet
  facet normal 1 0 0
    outer loop
      vertex 12.8 40 0
      vertex 12.8 30 0.0999994
      vertex 12.8 30 0
    endloop
  endfacet
  facet normal 0 0 -1
    outer loop
      vertex 12 30 0
      vertex 12.8 40 0
      vertex 12.8 30 0
    endloop
  endfacet
  facet normal -0 0 -1
    outer loop
      vertex 12.8 40 0
      vertex 12 30 0
      vertex 12 40 0
    endloop
  endfacet
  facet normal 0 -1 0
    outer loop
      vertex 12 30 0
      vertex 12.8 30 0.0999994
      vertex 12 30 0.0999994
    endloop
  endfacet
  facet normal 0 -1 -0
    outer loop
      vertex 12.8 30 0.0999994
      vertex 12 30 0
      vertex 12.8 30 0
    endloop
  endfacet
  facet normal 0 1 -0
    outer loop
      vertex 12.8 40 0
      vertex 12 40 0.0999994
      vertex 12.8 40 0.0999994
    endloop
  endfacet
  facet normal 0 1 0
    outer loop
      vertex 12 40 0.0999994
      vertex 12.8 40 0
      vertex 12 40 0
    endloop
  endfacet
  facet normal -1 0 0
    outer loop
      vertex 13 30 0
      vertex 13 40 0.0999994
      vertex 13 40 0
    endloop
  endfacet
  facet normal -1 -0 0
    outer loop
      vertex 13 40 0.0999994
      vertex 13 30 0
      vertex 13 30 0.0999994
    endloop
  endfacet
  facet normal -0 0 1
    outer loop
      vertex 13 40 0.0999994
      vertex 13.8 30 0.0999994
      vertex 13.8 40 0.0999994
    endloop
  endfacet
  facet normal 0 0 1
    outer loop
      vertex 13.8 30 0.0999994
      vertex 13 40 0.0999994
      vertex 13 30 0.0999994
    endloop
  endfacet
  facet normal 1 -0 0
    outer loop
      vertex 13.8 30 0.0999994
      vertex 13.8 40 0
      vertex 13.8 40 0.0999994
    endloop
  endfacet
  facet normal 1 0 0
    outer loop
      vertex 13.8 40 0
      vertex 13.8 30 0.0999994
      vertex 13.8 30 0
    endloop
  endfacet
  facet normal 0 0 -1
    outer loop
      vertex 13 30 0
      vertex 13.8 40 0
      vertex 13.8 30 0
    endloop
  endfacet
  facet normal -0 0 -1
    outer loop
      vertex 13.8 40 0
      vertex 13 30 0
      vertex 13 40 0
    endloop
  endfacet
  facet normal 0 -1 0
    outer loop
      vertex 13 30 0
      vertex 13.8 30 0.0999994
      vertex 13 30 0.0999994
    endloop
  endfacet
  facet normal 0 -1 -0
    outer loop
      vertex 13.8 30 0.0999994
      vertex 13 30 0
      vertex 13.8 30 0
    endloop
  endfacet
  facet normal 0 1 -0
    outer loop
      vertex 13.8 40 0
      vertex 13 40 0.0999994
      vertex 13.8 40 0.0999994
    endloop
  endfacet
  facet normal 0 1 0
    outer loop
      vertex 13 40 0.0999994
      vertex 13.8 40 0
      vertex 13 40 0
    endloop
  endfacet
  facet normal -1 0 0
    outer loop
      vertex 14 30 0
      vertex 14 40 0.0999994
      vertex 14 40 0
    endloop
  endfacet
  facet normal -1 -0 0
    outer loop
      vertex 14 40 0.0999994
      vertex 14 30 0
      vertex 14 30 0.0999994
    endloop
  endfacet
  facet normal -0 0 1
    outer loop
      vertex 14 40 0.0999994
      vertex 14.8 30 0.0999994
      vertex 14.8 40 0.0999994
    endloop
  endfacet
  facet normal 0 0 1
    outer loop
      vertex 14.8 30 0.0999994
      vertex 14 40 0.0999994
      vertex 14 30 0.0999994
    endloop
  endfacet
  facet normal 1 -0 0
    outer loop
      vertex 14.8 30 0.0999994
      vertex 14.8 40 0
      vertex 14.8 40 0.0999994
    endloop
  endfacet
  facet normal 1 0 0
    outer loop
      vertex 14.8 40 0
      vertex 14.8 30 0.0999994
      vertex 14.8 30 0
    endloop
  endfacet
  facet normal 0 1 -0
    outer loop
      vertex 14.8 40 0
      vertex 14 40 0.0999994
      vertex 14.8 40 0.0999994
    endloop
  endfacet
  facet normal 0 1 0
    outer loop
      vertex 14 40 0.0999994
      vertex 14.8 40 0
      vertex 14 40 0
    endloop
  endfacet
  facet normal 0 0 -1
    outer loop
      vertex 14 30 0
      vertex 14.8 40 0
      vertex 14.8 30 0
    endloop
  endfacet
  facet normal -0 0 -1
    outer loop
      vertex 14.8 40 0
      vertex 14 30 0
      vertex 14 40 0
    endloop
  endfacet
  facet normal 0 -1 0
    outer loop
      vertex 14 30 0
      vertex 14.8 30 0.0999994
      vertex 14 30 0.0999994
    endloop
  endfacet
  facet normal 0 -1 -0
    outer loop
      vertex 14.8 30 0.0999994
      vertex 14 30 0
      vertex 14.8 30 0
    endloop
  endfacet
  facet normal -1 0 0
    outer loop
      vertex 15 30 0
      vertex 15 40 0.0999994
      vertex 15 40 0
    endloop
  endfacet
  facet normal -1 -0 0
    outer loop
      vertex 15 40 0.0999994
      vertex 15 30 0
      vertex 15 30 0.0999994
    endloop
  endfacet
  facet normal -0 0 1
    outer loop
      vertex 15 40 0.0999994
      vertex 15.8 30 0.0999994
      vertex 15.8 40 0.0999994
    endloop
  endfacet
  facet normal 0 0 1
    outer loop
      vertex 15.8 30 0.0999994
      vertex 15 40 0.0999994
      vertex 15 30 0.0999994
    endloop
  endfacet
  facet normal 1 -0 0
    outer loop
      vertex 15.8 30 0.0999994
      vertex 15.8 40 0
      vertex 15.8 40 0.0999994
    endloop
  endfacet
  facet normal 1 0 0
    outer loop
      vertex 15.8 40 0
      vertex 15.8 30 0.0999994
      vertex 15.8 30 0
    endloop
  endfacet
  facet normal 0 1 -0
    outer loop
      vertex 15.8 40 0
      vertex 15 40 0.0999994
      vertex 15.8 40 0.0999994
    endloop
  endfacet
  facet normal 0 1 0
    outer loop
      vertex 15 40 0.0999994
      vertex 15.8 40 0
      vertex 15 40 0
    endloop
  endfacet
  facet normal 0 0 -1
    outer loop
      vertex 15 30 0
      vertex 15.8 40 0
      vertex 15.8 30 0
    endloop
  endfacet
  facet normal -0 0 -1
    outer loop
      vertex 15.8 40 0
      vertex 15 30 0
      vertex 15 40 0
    endloop
  endfacet
  facet normal 0 -1 0
    outer loop
      vertex 15 30 0
      vertex 15.8 30 0.0999994
      vertex 15 30 0.0999994
    endloop
  endfacet
  facet normal 0 -1 -0
    outer loop
      vertex 15.8 30 0.0999994
      vertex 15 30 0
      vertex 15.8 30 0
    endloop
  endfacet
  facet normal -1 0 0
    outer loop
      vertex 16 30 0
      vertex 16 40 0.0999994
      vertex 16 40 0
    endloop
  endfacet
  facet normal -1 -0 0
    outer loop
      vertex 16 40 0.0999994
      vertex 16 30 0
      vertex 16 30 0.0999994
    endloop
  endfacet
  facet normal -0 0 1
    outer loop
      vertex 16 40 0.0999994
      vertex 16.8 30 0.0999994
      vertex 16.8 40 0.0999994
    endloop
  endfacet
  facet normal 0 0 1
    outer loop
      vertex 16.8 30 0.0999994
      vertex 16 40 0.0999994
      vertex 16 30 0.0999994
    endloop
  endfacet
  facet normal 1 -0 0
    outer loop
      vertex 16.8 30 0.0999994
      vertex 16.8 40 0
      vertex 16.8 40 0.0999994
    endloop
  endfacet
  facet normal 1 0 0
    outer loop
      vertex 16.8 40 0
      vertex 16.8 30 0.0999994
      vertex 16.8 30 0
    endloop
  endfacet
  facet normal 0 0 -1
    outer loop
      vertex 16 30 0
      vertex 16.8 40 0
      vertex 16.8 30 0
    endloop
  endfacet
  facet normal -0 0 -1
    outer loop
      vertex 16.8 40 0
      vertex 16 30 0
      vertex 16 40 0
    endloop
  endfacet
  facet normal 0 -1 0
    outer loop
      vertex 16 30 0
      vertex 16.8 30 0.0999994
      vertex 16 30 0.0999994
    endloop
  endfacet
  facet normal 0 -1 -0
    outer loop
      vertex 16.8 30 0.0999994
      vertex 16 30 0
      vertex 16.8 30 0
    endloop
  endfacet
  facet normal 0 1 -0
    outer loop
      vertex 16.8 40 0
      vertex 16 40 0.0999994
      vertex 16.8 40 0.0999994
    endloop
  endfacet
  facet normal 0 1 0
    outer loop
      vertex 16 40 0.0999994
      vertex 16.8 40 0
      vertex 16 40 0
    endloop
  endfacet
  facet normal -1 0 0
    outer loop
      vertex 17 30 0
      vertex 17 40 0.0999994
      vertex 17 40 0
    endloop
  endfacet
  facet normal -1 -0 0
    outer loop
      vertex 17 40 0.0999994
      vertex 17 30 0
      vertex 17 30 0.0999994
    endloop
  endfacet
  facet normal -0 0 1
    outer loop
      vertex 17 40 0.0999994
      vertex 17.8 30 0.0999994
      vertex 17.8 40 0.0999994
    endloop
  endfacet
  facet normal 0 0 1
    outer loop
      vertex 17.8 30 0.0999994
      vertex 17 40 0.0999994
      vertex 17 30 0.0999994
    endloop
  endfacet
  facet normal 1 -0 0
    outer loop
      vertex 17.8 30 0.0999994
      vertex 17.8 40 0
      vertex 17.8 40 0.0999994
    endloop
  endfacet
  facet normal 1 0 0
    outer loop
      vertex 17.8 40 0
      vertex 17.8 30 0.0999994
      vertex 17.8 30 0
    endloop
  endfacet
  facet normal 0 1 -0
    outer loop
      vertex 17.8 40 0
      vertex 17 40 0.0999994
      vertex 17.8 40 0.0999994
    endloop
  endfacet
  facet normal 0 1 0
    outer loop
      vertex 17 40 0.0999994
      vertex 17.8 40 0
      vertex 17 40 0
    endloop
  endfacet
  facet normal 0 0 -1
    outer loop
      vertex 17 30 0
      vertex 17.8 40 0
      vertex 17.8 30 0
    endloop
  endfacet
  facet normal -0 0 -1
    outer loop
      vertex 17.8 40 0
      vertex 17 30 0
      vertex 17 40 0
    endloop
  endfacet
  facet normal 0 -1 0
    outer loop
      vertex 17 30 0
      vertex 17.8 30 0.0999994
      vertex 17 30 0.0999994
    endloop
  endfacet
  facet normal 0 -1 -0
    outer loop
      vertex 17.8 30 0.0999994
      vertex 17 30 0
      vertex 17.8 30 0
    endloop
  endfacet
  facet normal -1 0 0
    outer loop
      vertex 18 30 0
      vertex 18 40 0.0999994
      vertex 18 40 0
    endloop
  endfacet
  facet normal -1 -0 0
    outer loop
      vertex 18 40 0.0999994
      vertex 18 30 0
      vertex 18 30 0.0999994
    endloop
  endfacet
  facet normal -0 0 1
    outer loop
      vertex 18 40 0.0999994
      vertex 18.8 30 0.0999994
      vertex 18.8 40 0.0999994
    endloop
  endfacet
  facet normal 0 0 1
    outer loop
      vertex 18.8 30 0.0999994
      vertex 18 40 0.0999994
      vertex 18 30 0.0999994
    endloop
  endfacet
  facet normal 1 -0 0
    outer loop
      vertex 18.8 30 0.0999994
      vertex 18.8 40 0
      vertex 18.8 40 0.0999994
    endloop
  endfacet
  facet normal 1 0 0
    outer loop
      vertex 18.8 40 0
      vertex 18.8 30 0.0999994
      vertex 18.8 30 0
    endloop
  endfacet
  facet normal 0 0 -1
    outer loop
      vertex 18 30 0
      vertex 18.8 40 0
      vertex 18.8 30 0
    endloop
  endfacet
  facet normal -0 0 -1
    outer loop
      vertex 18.8 40 0
      vertex 18 30 0
      vertex 18 40 0
    endloop
  endfacet
  facet normal 0 -1 0
    outer loop
      vertex 18 30 0
      vertex 18.8 30 0.0999994
      vertex 18 30 0.0999994
    endloop
  endfacet
  facet normal 0 -1 -0
    outer loop
      vertex 18.8 30 0.0999994
      vertex 18 30 0
      vertex 18.8 30 0
    endloop
  endfacet
  facet normal 0 1 -0
    outer loop
      vertex 18.8 40 0
      vertex 18 40 0.0999994
      vertex 18.8 40 0.0999994
    endloop
  endfacet
  facet normal 0 1 0
    outer loop
      vertex 18 40 0.0999994
      vertex 18.8 40 0
      vertex 18 40 0
    endloop
  endfacet
  facet normal -1 0 0
    outer loop
      vertex 19 30 0
      vertex 19 40 0.0999994
      vertex 19 40 0
    endloop
  endfacet
  facet normal -1 -0 0
    outer loop
      vertex 19 40 0.0999994
      vertex 19 30 0
      vertex 19 30 0.0999994
    endloop
  endfacet
  facet normal -0 0 1
    outer loop
      vertex 19 40 0.0999994
      vertex 19.8 30 0.0999994
      vertex 19.8 40 0.0999994
    endloop
  endfacet
  facet normal 0 0 1
    outer loop
      vertex 19.8 30 0.0999994
      vertex 19 40 0.0999994
      vertex 19 30 0.0999994
    endloop
  endfacet
  facet normal 1 -0 0
    outer loop
      vertex 19.8 30 0.0999994
      vertex 19.8 40 0
      vertex 19.8 40 0.0999994
    endloop
  endfacet
  facet normal 1 0 0
    outer loop
      vertex 19.8 40 0
      vertex 19.8 30 0.0999994
      vertex 19.8 30 0
    endloop
  endfacet
  facet normal 0 1 -0
    outer loop
      vertex 19.8 40 0
      vertex 19 40 0.0999994
      vertex 19.8 40 0.0999994
    endloop
  endfacet
  facet normal 0 1 0
    outer loop
      vertex 19 40 0.0999994
      vertex 19.8 40 0
      vertex 19 40 0
    endloop
  endfacet
  facet normal 0 0 -1
    outer loop
      vertex 19 30 0
      vertex 19.8 40 0
      vertex 19.8 30 0
    endloop
  endfacet
  facet normal -0 0 -1
    outer loop
      vertex 19.8 40 0
      vertex 19 30 0
      vertex 19 40 0
    endloop
  endfacet
  facet normal 0 -1 0
    outer loop
      vertex 19 30 0
      vertex 19.8 30 0.0999994
      vertex 19 30 0.0999994
    endloop
  endfacet
  facet normal 0 -1 -0
    outer loop
      vertex 19.8 30 0.0999994
      vertex 19 30 0
      vertex 19.8 30 0
    endloop
  endfacet
  facet normal -1 0 0
    outer loop
      vertex 20 30 0
      vertex 20 40 0.0999994
      vertex 20 40 0
    endloop
  endfacet
  facet normal -1 -0 0
    outer loop
      vertex 20 40 0.0999994
      vertex 20 30 0
      vertex 20 30 0.0999994
    endloop
  endfacet
  facet normal -0 0 1
    outer loop
      vertex 20 40 0.0999994
      vertex 20.8 30 0.0999994
      vertex 20.8 40 0.0999994
    endloop
  endfacet
  facet normal 0 0 1
    outer loop
      vertex 20.8 30 0.0999994
      vertex 20 40 0.0999994
      vertex 20 30 0.0999994
    endloop
  endfacet
  facet normal 1 -0 0
    outer loop
      vertex 20.8 30 0.0999994
      vertex 20.8 40 0
      vertex 20.8 40 0.0999994
    endloop
  endfacet
  facet normal 1 0 0
    outer loop
      vertex 20.8 40 0
      vertex 20.8 30 0.0999994
      vertex 20.8 30 0
    endloop
  endfacet
  facet normal 0 0 -1
    outer loop
      vertex 20 30 0
      vertex 20.8 40 0
      vertex 20.8 30 0
    endloop
  endfacet
  facet normal -0 0 -1
    outer loop
      vertex 20.8 40 0
      vertex 20 30 0
      vertex 20 40 0
    endloop
  endfacet
  facet normal 0 -1 0
    outer loop
      vertex 20 30 0
      vertex 20.8 30 0.0999994
      vertex 20 30 0.0999994
    endloop
  endfacet
  facet normal 0 -1 -0
    outer loop
      vertex 20.8 30 0.0999994
      vertex 20 30 0
      vertex 20.8 30 0
    endloop
  endfacet
  facet normal 0 1 -0
    outer loop
      vertex 20.8 40 0
      vertex 20 40 0.0999994
      vertex 20.8 40 0.0999994
    endloop
  endfacet
  facet normal 0 1 0
    outer loop
      vertex 20 40 0.0999994
      vertex 20.8 40 0
      vertex 20 40 0
    endloop
  endfacet
endsolid OpenSCAD_Model
