solid OpenSCAD_Model
  facet normal -1 0 0
    outer loop
      vertex 190 170 0
      vertex 190 180 0.0999994
      vertex 190 180 0
    endloop
  endfacet
  facet normal -1 -0 0
    outer loop
      vertex 190 180 0.0999994
      vertex 190 170 0
      vertex 190 170 0.0999994
    endloop
  endfacet
  facet normal -0 0 1
    outer loop
      vertex 190 180 0.0999994
      vertex 190.8 170 0.0999994
      vertex 190.8 180 0.0999994
    endloop
  endfacet
  facet normal 0 0 1
    outer loop
      vertex 190.8 170 0.0999994
      vertex 190 180 0.0999994
      vertex 190 170 0.0999994
    endloop
  endfacet
  facet normal 1 -0 0
    outer loop
      vertex 190.8 170 0.0999994
      vertex 190.8 180 0
      vertex 190.8 180 0.0999994
    endloop
  endfacet
  facet normal 1 0 0
    outer loop
      vertex 190.8 180 0
      vertex 190.8 170 0.0999994
      vertex 190.8 170 0
    endloop
  endfacet
  facet normal 0 1 -0
    outer loop
      vertex 190.8 180 0
      vertex 190 180 0.0999994
      vertex 190.8 180 0.0999994
    endloop
  endfacet
  facet normal 0 1 0
    outer loop
      vertex 190 180 0.0999994
      vertex 190.8 180 0
      vertex 190 180 0
    endloop
  endfacet
  facet normal 0 0 -1
    outer loop
      vertex 190 170 0
      vertex 190.8 180 0
      vertex 190.8 170 0
    endloop
  endfacet
  facet normal -0 0 -1
    outer loop
      vertex 190.8 180 0
      vertex 190 170 0
      vertex 190 180 0
    endloop
  endfacet
  facet normal 0 -1 0
    outer loop
      vertex 190 170 0
      vertex 190.8 170 0.0999994
      vertex 190 170 0.0999994
    endloop
  endfacet
  facet normal 0 -1 -0
    outer loop
      vertex 190.8 170 0.0999994
      vertex 190 170 0
      vertex 190.8 170 0
    endloop
  endfacet
  facet normal -1 0 0
    outer loop
      vertex 191 170 0
      vertex 191 180 0.0999994
      vertex 191 180 0
    endloop
  endfacet
  facet normal -1 -0 0
    outer loop
      vertex 191 180 0.0999994
      vertex 191 170 0
      vertex 191 170 0.0999994
    endloop
  endfacet
  facet normal -0 0 1
    outer loop
      vertex 191 180 0.0999994
      vertex 191.8 170 0.0999994
      vertex 191.8 180 0.0999994
    endloop
  endfacet
  facet normal 0 0 1
    outer loop
      vertex 191.8 170 0.0999994
      vertex 191 180 0.0999994
      vertex 191 170 0.0999994
    endloop
  endfacet
  facet normal 1 -0 0
    outer loop
      vertex 191.8 170 0.0999994
      vertex 191.8 180 0
      vertex 191.8 180 0.0999994
    endloop
  endfacet
  facet normal 1 0 0
    outer loop
      vertex 191.8 180 0
      vertex 191.8 170 0.0999994
      vertex 191.8 170 0
    endloop
  endfacet
  facet normal 0 1 -0
    outer loop
      vertex 191.8 180 0
      vertex 191 180 0.0999994
      vertex 191.8 180 0.0999994
    endloop
  endfacet
  facet normal 0 1 0
    outer loop
      vertex 191 180 0.0999994
      vertex 191.8 180 0
      vertex 191 180 0
    endloop
  endfacet
  facet normal 0 0 -1
    outer loop
      vertex 191 170 0
      vertex 191.8 180 0
      vertex 191.8 170 0
    endloop
  endfacet
  facet normal -0 0 -1
    outer loop
      vertex 191.8 180 0
      vertex 191 170 0
      vertex 191 180 0
    endloop
  endfacet
  facet normal 0 -1 0
    outer loop
      vertex 191 170 0
      vertex 191.8 170 0.0999994
      vertex 191 170 0.0999994
    endloop
  endfacet
  facet normal 0 -1 -0
    outer loop
      vertex 191.8 170 0.0999994
      vertex 191 170 0
      vertex 191.8 170 0
    endloop
  endfacet
  facet normal -1 0 0
    outer loop
      vertex 192 170 0
      vertex 192 180 0.0999994
      vertex 192 180 0
    endloop
  endfacet
  facet normal -1 -0 0
    outer loop
      vertex 192 180 0.0999994
      vertex 192 170 0
      vertex 192 170 0.0999994
    endloop
  endfacet
  facet normal -0 0 1
    outer loop
      vertex 192 180 0.0999994
      vertex 192.8 170 0.0999994
      vertex 192.8 180 0.0999994
    endloop
  endfacet
  facet normal 0 0 1
    outer loop
      vertex 192.8 170 0.0999994
      vertex 192 180 0.0999994
      vertex 192 170 0.0999994
    endloop
  endfacet
  facet normal 1 -0 0
    outer loop
      vertex 192.8 170 0.0999994
      vertex 192.8 180 0
      vertex 192.8 180 0.0999994
    endloop
  endfacet
  facet normal 1 0 0
    outer loop
      vertex 192.8 180 0
      vertex 192.8 170 0.0999994
      vertex 192.8 170 0
    endloop
  endfacet
  facet normal 0 0 -1
    outer loop
      vertex 192 170 0
      vertex 192.8 180 0
      vertex 192.8 170 0
    endloop
  endfacet
  facet normal -0 0 -1
    outer loop
      vertex 192.8 180 0
      vertex 192 170 0
      vertex 192 180 0
    endloop
  endfacet
  facet normal 0 -1 0
    outer loop
      vertex 192 170 0
      vertex 192.8 170 0.0999994
      vertex 192 170 0.0999994
    endloop
  endfacet
  facet normal 0 -1 -0
    outer loop
      vertex 192.8 170 0.0999994
      vertex 192 170 0
      vertex 192.8 170 0
    endloop
  endfacet
  facet normal 0 1 -0
    outer loop
      vertex 192.8 180 0
      vertex 192 180 0.0999994
      vertex 192.8 180 0.0999994
    endloop
  endfacet
  facet normal 0 1 0
    outer loop
      vertex 192 180 0.0999994
      vertex 192.8 180 0
      vertex 192 180 0
    endloop
  endfacet
  facet normal -1 0 0
    outer loop
      vertex 193 170 0
      vertex 193 180 0.0999994
      vertex 193 180 0
    endloop
  endfacet
  facet normal -1 -0 0
    outer loop
      vertex 193 180 0.0999994
      vertex 193 170 0
      vertex 193 170 0.0999994
    endloop
  endfacet
  facet normal -0 0 1
    outer loop
      vertex 193 180 0.0999994
      vertex 193.8 170 0.0999994
      vertex 193.8 180 0.0999994
    endloop
  endfacet
  facet normal 0 0 1
    outer loop
      vertex 193.8 170 0.0999994
      vertex 193 180 0.0999994
      vertex 193 170 0.0999994
    endloop
  endfacet
  facet normal 1 -0 0
    outer loop
      vertex 193.8 170 0.0999994
      vertex 193.8 180 0
      vertex 193.8 180 0.0999994
    endloop
  endfacet
  facet normal 1 0 0
    outer loop
      vertex 193.8 180 0
      vertex 193.8 170 0.0999994
      vertex 193.8 170 0
    endloop
  endfacet
  facet normal 0 0 -1
    outer loop
      vertex 193 170 0
      vertex 193.8 180 0
      vertex 193.8 170 0
    endloop
  endfacet
  facet normal -0 0 -1
    outer loop
      vertex 193.8 180 0
      vertex 193 170 0
      vertex 193 180 0
    endloop
  endfacet
  facet normal 0 -1 0
    outer loop
      vertex 193 170 0
      vertex 193.8 170 0.0999994
      vertex 193 170 0.0999994
    endloop
  endfacet
  facet normal 0 -1 -0
    outer loop
      vertex 193.8 170 0.0999994
      vertex 193 170 0
      vertex 193.8 170 0
    endloop
  endfacet
  facet normal 0 1 -0
    outer loop
      vertex 193.8 180 0
      vertex 193 180 0.0999994
      vertex 193.8 180 0.0999994
    endloop
  endfacet
  facet normal 0 1 0
    outer loop
      vertex 193 180 0.0999994
      vertex 193.8 180 0
      vertex 193 180 0
    endloop
  endfacet
  facet normal -1 0 0
    outer loop
      vertex 194 170 0
      vertex 194 180 0.0999994
      vertex 194 180 0
    endloop
  endfacet
  facet normal -1 -0 0
    outer loop
      vertex 194 180 0.0999994
      vertex 194 170 0
      vertex 194 170 0.0999994
    endloop
  endfacet
  facet normal -0 0 1
    outer loop
      vertex 194 180 0.0999994
      vertex 194.8 170 0.0999994
      vertex 194.8 180 0.0999994
    endloop
  endfacet
  facet normal 0 0 1
    outer loop
      vertex 194.8 170 0.0999994
      vertex 194 180 0.0999994
      vertex 194 170 0.0999994
    endloop
  endfacet
  facet normal 1 -0 0
    outer loop
      vertex 194.8 170 0.0999994
      vertex 194.8 180 0
      vertex 194.8 180 0.0999994
    endloop
  endfacet
  facet normal 1 0 0
    outer loop
      vertex 194.8 180 0
      vertex 194.8 170 0.0999994
      vertex 194.8 170 0
    endloop
  endfacet
  facet normal 0 1 -0
    outer loop
      vertex 194.8 180 0
      vertex 194 180 0.0999994
      vertex 194.8 180 0.0999994
    endloop
  endfacet
  facet normal 0 1 0
    outer loop
      vertex 194 180 0.0999994
      vertex 194.8 180 0
      vertex 194 180 0
    endloop
  endfacet
  facet normal 0 0 -1
    outer loop
      vertex 194 170 0
      vertex 194.8 180 0
      vertex 194.8 170 0
    endloop
  endfacet
  facet normal -0 0 -1
    outer loop
      vertex 194.8 180 0
      vertex 194 170 0
      vertex 194 180 0
    endloop
  endfacet
  facet normal 0 -1 0
    outer loop
      vertex 194 170 0
      vertex 194.8 170 0.0999994
      vertex 194 170 0.0999994
    endloop
  endfacet
  facet normal 0 -1 -0
    outer loop
      vertex 194.8 170 0.0999994
      vertex 194 170 0
      vertex 194.8 170 0
    endloop
  endfacet
  facet normal -1 0 0
    outer loop
      vertex 195 170 0
      vertex 195 180 0.0999994
      vertex 195 180 0
    endloop
  endfacet
  facet normal -1 -0 0
    outer loop
      vertex 195 180 0.0999994
      vertex 195 170 0
      vertex 195 170 0.0999994
    endloop
  endfacet
  facet normal -0 0 1
    outer loop
      vertex 195 180 0.0999994
      vertex 195.8 170 0.0999994
      vertex 195.8 180 0.0999994
    endloop
  endfacet
  facet normal 0 0 1
    outer loop
      vertex 195.8 170 0.0999994
      vertex 195 180 0.0999994
      vertex 195 170 0.0999994
    endloop
  endfacet
  facet normal 1 -0 0
    outer loop
      vertex 195.8 170 0.0999994
      vertex 195.8 180 0
      vertex 195.8 180 0.0999994
    endloop
  endfacet
  facet normal 1 0 0
    outer loop
      vertex 195.8 180 0
      vertex 195.8 170 0.0999994
      vertex 195.8 170 0
    endloop
  endfacet
  facet normal 0 0 -1
    outer loop
      vertex 195 170 0
      vertex 195.8 180 0
      vertex 195.8 170 0
    endloop
  endfacet
  facet normal -0 0 -1
    outer loop
      vertex 195.8 180 0
      vertex 195 170 0
      vertex 195 180 0
    endloop
  endfacet
  facet normal 0 -1 0
    outer loop
      vertex 195 170 0
      vertex 195.8 170 0.0999994
      vertex 195 170 0.0999994
    endloop
  endfacet
  facet normal 0 -1 -0
    outer loop
      vertex 195.8 170 0.0999994
      vertex 195 170 0
      vertex 195.8 170 0
    endloop
  endfacet
  facet normal 0 1 -0
    outer loop
      vertex 195.8 180 0
      vertex 195 180 0.0999994
      vertex 195.8 180 0.0999994
    endloop
  endfacet
  facet normal 0 1 0
    outer loop
      vertex 195 180 0.0999994
      vertex 195.8 180 0
      vertex 195 180 0
    endloop
  endfacet
  facet normal -1 0 0
    outer loop
      vertex 196 170 0
      vertex 196 180 0.0999994
      vertex 196 180 0
    endloop
  endfacet
  facet normal -1 -0 0
    outer loop
      vertex 196 180 0.0999994
      vertex 196 170 0
      vertex 196 170 0.0999994
    endloop
  endfacet
  facet normal -0 0 1
    outer loop
      vertex 196 180 0.0999994
      vertex 196.8 170 0.0999994
      vertex 196.8 180 0.0999994
    endloop
  endfacet
  facet normal 0 0 1
    outer loop
      vertex 196.8 170 0.0999994
      vertex 196 180 0.0999994
      vertex 196 170 0.0999994
    endloop
  endfacet
  facet normal 1 -0 0
    outer loop
      vertex 196.8 170 0.0999994
      vertex 196.8 180 0
      vertex 196.8 180 0.0999994
    endloop
  endfacet
  facet normal 1 0 0
    outer loop
      vertex 196.8 180 0
      vertex 196.8 170 0.0999994
      vertex 196.8 170 0
    endloop
  endfacet
  facet normal 0 1 -0
    outer loop
      vertex 196.8 180 0
      vertex 196 180 0.0999994
      vertex 196.8 180 0.0999994
    endloop
  endfacet
  facet normal 0 1 0
    outer loop
      vertex 196 180 0.0999994
      vertex 196.8 180 0
      vertex 196 180 0
    endloop
  endfacet
  facet normal 0 0 -1
    outer loop
      vertex 196 170 0
      vertex 196.8 180 0
      vertex 196.8 170 0
    endloop
  endfacet
  facet normal -0 0 -1
    outer loop
      vertex 196.8 180 0
      vertex 196 170 0
      vertex 196 180 0
    endloop
  endfacet
  facet normal 0 -1 0
    outer loop
      vertex 196 170 0
      vertex 196.8 170 0.0999994
      vertex 196 170 0.0999994
    endloop
  endfacet
  facet normal 0 -1 -0
    outer loop
      vertex 196.8 170 0.0999994
      vertex 196 170 0
      vertex 196.8 170 0
    endloop
  endfacet
  facet normal -1 0 0
    outer loop
      vertex 197 170 0
      vertex 197 180 0.0999994
      vertex 197 180 0
    endloop
  endfacet
  facet normal -1 -0 0
    outer loop
      vertex 197 180 0.0999994
      vertex 197 170 0
      vertex 197 170 0.0999994
    endloop
  endfacet
  facet normal -0 0 1
    outer loop
      vertex 197 180 0.0999994
      vertex 197.8 170 0.0999994
      vertex 197.8 180 0.0999994
    endloop
  endfacet
  facet normal 0 0 1
    outer loop
      vertex 197.8 170 0.0999994
      vertex 197 180 0.0999994
      vertex 197 170 0.0999994
    endloop
  endfacet
  facet normal 1 -0 0
    outer loop
      vertex 197.8 170 0.0999994
      vertex 197.8 180 0
      vertex 197.8 180 0.0999994
    endloop
  endfacet
  facet normal 1 0 0
    outer loop
      vertex 197.8 180 0
      vertex 197.8 170 0.0999994
      vertex 197.8 170 0
    endloop
  endfacet
  facet normal 0 1 -0
    outer loop
      vertex 197.8 180 0
      vertex 197 180 0.0999994
      vertex 197.8 180 0.0999994
    endloop
  endfacet
  facet normal 0 1 0
    outer loop
      vertex 197 180 0.0999994
      vertex 197.8 180 0
      vertex 197 180 0
    endloop
  endfacet
  facet normal 0 0 -1
    outer loop
      vertex 197 170 0
      vertex 197.8 180 0
      vertex 197.8 170 0
    endloop
  endfacet
  facet normal -0 0 -1
    outer loop
      vertex 197.8 180 0
      vertex 197 170 0
      vertex 197 180 0
    endloop
  endfacet
  facet normal 0 -1 0
    outer loop
      vertex 197 170 0
      vertex 197.8 170 0.0999994
      vertex 197 170 0.0999994
    endloop
  endfacet
  facet normal 0 -1 -0
    outer loop
      vertex 197.8 170 0.0999994
      vertex 197 170 0
      vertex 197.8 170 0
    endloop
  endfacet
  facet normal -1 0 0
    outer loop
      vertex 198 170 0
      vertex 198 180 0.0999994
      vertex 198 180 0
    endloop
  endfacet
  facet normal -1 -0 0
    outer loop
      vertex 198 180 0.0999994
      vertex 198 170 0
      vertex 198 170 0.0999994
    endloop
  endfacet
  facet normal -0 0 1
    outer loop
      vertex 198 180 0.0999994
      vertex 198.8 170 0.0999994
      vertex 198.8 180 0.0999994
    endloop
  endfacet
  facet normal 0 0 1
    outer loop
      vertex 198.8 170 0.0999994
      vertex 198 180 0.0999994
      vertex 198 170 0.0999994
    endloop
  endfacet
  facet normal 1 -0 0
    outer loop
      vertex 198.8 170 0.0999994
      vertex 198.8 180 0
      vertex 198.8 180 0.0999994
    endloop
  endfacet
  facet normal 1 0 0
    outer loop
      vertex 198.8 180 0
      vertex 198.8 170 0.0999994
      vertex 198.8 170 0
    endloop
  endfacet
  facet normal 0 0 -1
    outer loop
      vertex 198 170 0
      vertex 198.8 180 0
      vertex 198.8 170 0
    endloop
  endfacet
  facet normal -0 0 -1
    outer loop
      vertex 198.8 180 0
      vertex 198 170 0
      vertex 198 180 0
    endloop
  endfacet
  facet normal 0 -1 0
    outer loop
      vertex 198 170 0
      vertex 198.8 170 0.0999994
      vertex 198 170 0.0999994
    endloop
  endfacet
  facet normal 0 -1 -0
    outer loop
      vertex 198.8 170 0.0999994
      vertex 198 170 0
      vertex 198.8 170 0
    endloop
  endfacet
  facet normal 0 1 -0
    outer loop
      vertex 198.8 180 0
      vertex 198 180 0.0999994
      vertex 198.8 180 0.0999994
    endloop
  endfacet
  facet normal 0 1 0
    outer loop
      vertex 198 180 0.0999994
      vertex 198.8 180 0
      vertex 198 180 0
    endloop
  endfacet
  facet normal -1 0 0
    outer loop
      vertex 199 170 0
      vertex 199 180 0.0999994
      vertex 199 180 0
    endloop
  endfacet
  facet normal -1 -0 0
    outer loop
      vertex 199 180 0.0999994
      vertex 199 170 0
      vertex 199 170 0.0999994
    endloop
  endfacet
  facet normal -0 0 1
    outer loop
      vertex 199 180 0.0999994
      vertex 199.8 170 0.0999994
      vertex 199.8 180 0.0999994
    endloop
  endfacet
  facet normal 0 0 1
    outer loop
      vertex 199.8 170 0.0999994
      vertex 199 180 0.0999994
      vertex 199 170 0.0999994
    endloop
  endfacet
  facet normal 1 -0 0
    outer loop
      vertex 199.8 170 0.0999994
      vertex 199.8 180 0
      vertex 199.8 180 0.0999994
    endloop
  endfacet
  facet normal 1 0 0
    outer loop
      vertex 199.8 180 0
      vertex 199.8 170 0.0999994
      vertex 199.8 170 0
    endloop
  endfacet
  facet normal 0 0 -1
    outer loop
      vertex 199 170 0
      vertex 199.8 180 0
      vertex 199.8 170 0
    endloop
  endfacet
  facet normal -0 0 -1
    outer loop
      vertex 199.8 180 0
      vertex 199 170 0
      vertex 199 180 0
    endloop
  endfacet
  facet normal 0 -1 0
    outer loop
      vertex 199 170 0
      vertex 199.8 170 0.0999994
      vertex 199 170 0.0999994
    endloop
  endfacet
  facet normal 0 -1 -0
    outer loop
      vertex 199.8 170 0.0999994
      vertex 199 170 0
      vertex 199.8 170 0
    endloop
  endfacet
  facet normal 0 1 -0
    outer loop
      vertex 199.8 180 0
      vertex 199 180 0.0999994
      vertex 199.8 180 0.0999994
    endloop
  endfacet
  facet normal 0 1 0
    outer loop
      vertex 199 180 0.0999994
      vertex 199.8 180 0
      vertex 199 180 0
    endloop
  endfacet
  facet normal -1 0 0
    outer loop
      vertex 200 170 0
      vertex 200 180 0.0999994
      vertex 200 180 0
    endloop
  endfacet
  facet normal -1 -0 0
    outer loop
      vertex 200 180 0.0999994
      vertex 200 170 0
      vertex 200 170 0.0999994
    endloop
  endfacet
  facet normal -0 0 1
    outer loop
      vertex 200 180 0.0999994
      vertex 200.8 170 0.0999994
      vertex 200.8 180 0.0999994
    endloop
  endfacet
  facet normal 0 0 1
    outer loop
      vertex 200.8 170 0.0999994
      vertex 200 180 0.0999994
      vertex 200 170 0.0999994
    endloop
  endfacet
  facet normal 1 -0 0
    outer loop
      vertex 200.8 170 0.0999994
      vertex 200.8 180 0
      vertex 200.8 180 0.0999994
    endloop
  endfacet
  facet normal 1 0 0
    outer loop
      vertex 200.8 180 0
      vertex 200.8 170 0.0999994
      vertex 200.8 170 0
    endloop
  endfacet
  facet normal 0 1 -0
    outer loop
      vertex 200.8 180 0
      vertex 200 180 0.0999994
      vertex 200.8 180 0.0999994
    endloop
  endfacet
  facet normal 0 1 0
    outer loop
      vertex 200 180 0.0999994
      vertex 200.8 180 0
      vertex 200 180 0
    endloop
  endfacet
  facet normal 0 0 -1
    outer loop
      vertex 200 170 0
      vertex 200.8 180 0
      vertex 200.8 170 0
    endloop
  endfacet
  facet normal -0 0 -1
    outer loop
      vertex 200.8 180 0
      vertex 200 170 0
      vertex 200 180 0
    endloop
  endfacet
  facet normal 0 -1 0
    outer loop
      vertex 200 170 0
      vertex 200.8 170 0.0999994
      vertex 200 170 0.0999994
    endloop
  endfacet
  facet normal 0 -1 -0
    outer loop
      vertex 200.8 170 0.0999994
      vertex 200 170 0
      vertex 200.8 170 0
    endloop
  endfacet
endsolid OpenSCAD_Model
