solid OpenSCAD_Model
  facet normal -1 0 0
    outer loop
      vertex 30 30 0
      vertex 30 40 0.0999994
      vertex 30 40 0
    endloop
  endfacet
  facet normal -1 -0 0
    outer loop
      vertex 30 40 0.0999994
      vertex 30 30 0
      vertex 30 30 0.0999994
    endloop
  endfacet
  facet normal -0 0 1
    outer loop
      vertex 30 40 0.0999994
      vertex 30.8 30 0.0999994
      vertex 30.8 40 0.0999994
    endloop
  endfacet
  facet normal 0 0 1
    outer loop
      vertex 30.8 30 0.0999994
      vertex 30 40 0.0999994
      vertex 30 30 0.0999994
    endloop
  endfacet
  facet normal 1 -0 0
    outer loop
      vertex 30.8 30 0.0999994
      vertex 30.8 40 0
      vertex 30.8 40 0.0999994
    endloop
  endfacet
  facet normal 1 0 0
    outer loop
      vertex 30.8 40 0
      vertex 30.8 30 0.0999994
      vertex 30.8 30 0
    endloop
  endfacet
  facet normal 0 1 -0
    outer loop
      vertex 30.8 40 0
      vertex 30 40 0.0999994
      vertex 30.8 40 0.0999994
    endloop
  endfacet
  facet normal 0 1 0
    outer loop
      vertex 30 40 0.0999994
      vertex 30.8 40 0
      vertex 30 40 0
    endloop
  endfacet
  facet normal 0 0 -1
    outer loop
      vertex 30 30 0
      vertex 30.8 40 0
      vertex 30.8 30 0
    endloop
  endfacet
  facet normal -0 0 -1
    outer loop
      vertex 30.8 40 0
      vertex 30 30 0
      vertex 30 40 0
    endloop
  endfacet
  facet normal 0 -1 0
    outer loop
      vertex 30 30 0
      vertex 30.8 30 0.0999994
      vertex 30 30 0.0999994
    endloop
  endfacet
  facet normal 0 -1 -0
    outer loop
      vertex 30.8 30 0.0999994
      vertex 30 30 0
      vertex 30.8 30 0
    endloop
  endfacet
  facet normal -1 0 0
    outer loop
      vertex 31 30 0
      vertex 31 40 0.0999994
      vertex 31 40 0
    endloop
  endfacet
  facet normal -1 -0 0
    outer loop
      vertex 31 40 0.0999994
      vertex 31 30 0
      vertex 31 30 0.0999994
    endloop
  endfacet
  facet normal -0 0 1
    outer loop
      vertex 31 40 0.0999994
      vertex 31.8 30 0.0999994
      vertex 31.8 40 0.0999994
    endloop
  endfacet
  facet normal 0 0 1
    outer loop
      vertex 31.8 30 0.0999994
      vertex 31 40 0.0999994
      vertex 31 30 0.0999994
    endloop
  endfacet
  facet normal 1 -0 0
    outer loop
      vertex 31.8 30 0.0999994
      vertex 31.8 40 0
      vertex 31.8 40 0.0999994
    endloop
  endfacet
  facet normal 1 0 0
    outer loop
      vertex 31.8 40 0
      vertex 31.8 30 0.0999994
      vertex 31.8 30 0
    endloop
  endfacet
  facet normal 0 1 -0
    outer loop
      vertex 31.8 40 0
      vertex 31 40 0.0999994
      vertex 31.8 40 0.0999994
    endloop
  endfacet
  facet normal 0 1 0
    outer loop
      vertex 31 40 0.0999994
      vertex 31.8 40 0
      vertex 31 40 0
    endloop
  endfacet
  facet normal 0 0 -1
    outer loop
      vertex 31 30 0
      vertex 31.8 40 0
      vertex 31.8 30 0
    endloop
  endfacet
  facet normal -0 0 -1
    outer loop
      vertex 31.8 40 0
      vertex 31 30 0
      vertex 31 40 0
    endloop
  endfacet
  facet normal 0 -1 0
    outer loop
      vertex 31 30 0
      vertex 31.8 30 0.0999994
      vertex 31 30 0.0999994
    endloop
  endfacet
  facet normal 0 -1 -0
    outer loop
      vertex 31.8 30 0.0999994
      vertex 31 30 0
      vertex 31.8 30 0
    endloop
  endfacet
  facet normal -1 0 0
    outer loop
      vertex 32 30 0
      vertex 32 40 0.0999994
      vertex 32 40 0
    endloop
  endfacet
  facet normal -1 -0 0
    outer loop
      vertex 32 40 0.0999994
      vertex 32 30 0
      vertex 32 30 0.0999994
    endloop
  endfacet
  facet normal -0 0 1
    outer loop
      vertex 32 40 0.0999994
      vertex 32.8 30 0.0999994
      vertex 32.8 40 0.0999994
    endloop
  endfacet
  facet normal 0 0 1
    outer loop
      vertex 32.8 30 0.0999994
      vertex 32 40 0.0999994
      vertex 32 30 0.0999994
    endloop
  endfacet
  facet normal 1 -0 0
    outer loop
      vertex 32.8 30 0.0999994
      vertex 32.8 40 0
      vertex 32.8 40 0.0999994
    endloop
  endfacet
  facet normal 1 0 0
    outer loop
      vertex 32.8 40 0
      vertex 32.8 30 0.0999994
      vertex 32.8 30 0
    endloop
  endfacet
  facet normal 0 0 -1
    outer loop
      vertex 32 30 0
      vertex 32.8 40 0
      vertex 32.8 30 0
    endloop
  endfacet
  facet normal -0 0 -1
    outer loop
      vertex 32.8 40 0
      vertex 32 30 0
      vertex 32 40 0
    endloop
  endfacet
  facet normal 0 -1 0
    outer loop
      vertex 32 30 0
      vertex 32.8 30 0.0999994
      vertex 32 30 0.0999994
    endloop
  endfacet
  facet normal 0 -1 -0
    outer loop
      vertex 32.8 30 0.0999994
      vertex 32 30 0
      vertex 32.8 30 0
    endloop
  endfacet
  facet normal 0 1 -0
    outer loop
      vertex 32.8 40 0
      vertex 32 40 0.0999994
      vertex 32.8 40 0.0999994
    endloop
  endfacet
  facet normal 0 1 0
    outer loop
      vertex 32 40 0.0999994
      vertex 32.8 40 0
      vertex 32 40 0
    endloop
  endfacet
  facet normal -1 0 0
    outer loop
      vertex 33 30 0
      vertex 33 40 0.0999994
      vertex 33 40 0
    endloop
  endfacet
  facet normal -1 -0 0
    outer loop
      vertex 33 40 0.0999994
      vertex 33 30 0
      vertex 33 30 0.0999994
    endloop
  endfacet
  facet normal -0 0 1
    outer loop
      vertex 33 40 0.0999994
      vertex 33.8 30 0.0999994
      vertex 33.8 40 0.0999994
    endloop
  endfacet
  facet normal 0 0 1
    outer loop
      vertex 33.8 30 0.0999994
      vertex 33 40 0.0999994
      vertex 33 30 0.0999994
    endloop
  endfacet
  facet normal 1 -0 0
    outer loop
      vertex 33.8 30 0.0999994
      vertex 33.8 40 0
      vertex 33.8 40 0.0999994
    endloop
  endfacet
  facet normal 1 0 0
    outer loop
      vertex 33.8 40 0
      vertex 33.8 30 0.0999994
      vertex 33.8 30 0
    endloop
  endfacet
  facet normal 0 1 -0
    outer loop
      vertex 33.8 40 0
      vertex 33 40 0.0999994
      vertex 33.8 40 0.0999994
    endloop
  endfacet
  facet normal 0 1 0
    outer loop
      vertex 33 40 0.0999994
      vertex 33.8 40 0
      vertex 33 40 0
    endloop
  endfacet
  facet normal 0 0 -1
    outer loop
      vertex 33 30 0
      vertex 33.8 40 0
      vertex 33.8 30 0
    endloop
  endfacet
  facet normal -0 0 -1
    outer loop
      vertex 33.8 40 0
      vertex 33 30 0
      vertex 33 40 0
    endloop
  endfacet
  facet normal 0 -1 0
    outer loop
      vertex 33 30 0
      vertex 33.8 30 0.0999994
      vertex 33 30 0.0999994
    endloop
  endfacet
  facet normal 0 -1 -0
    outer loop
      vertex 33.8 30 0.0999994
      vertex 33 30 0
      vertex 33.8 30 0
    endloop
  endfacet
  facet normal -1 0 0
    outer loop
      vertex 34 30 0
      vertex 34 40 0.0999994
      vertex 34 40 0
    endloop
  endfacet
  facet normal -1 -0 0
    outer loop
      vertex 34 40 0.0999994
      vertex 34 30 0
      vertex 34 30 0.0999994
    endloop
  endfacet
  facet normal -0 0 1
    outer loop
      vertex 34 40 0.0999994
      vertex 34.8 30 0.0999994
      vertex 34.8 40 0.0999994
    endloop
  endfacet
  facet normal 0 0 1
    outer loop
      vertex 34.8 30 0.0999994
      vertex 34 40 0.0999994
      vertex 34 30 0.0999994
    endloop
  endfacet
  facet normal 1 -0 0
    outer loop
      vertex 34.8 30 0.0999994
      vertex 34.8 40 0
      vertex 34.8 40 0.0999994
    endloop
  endfacet
  facet normal 1 0 0
    outer loop
      vertex 34.8 40 0
      vertex 34.8 30 0.0999994
      vertex 34.8 30 0
    endloop
  endfacet
  facet normal 0 1 -0
    outer loop
      vertex 34.8 40 0
      vertex 34 40 0.0999994
      vertex 34.8 40 0.0999994
    endloop
  endfacet
  facet normal 0 1 0
    outer loop
      vertex 34 40 0.0999994
      vertex 34.8 40 0
      vertex 34 40 0
    endloop
  endfacet
  facet normal 0 0 -1
    outer loop
      vertex 34 30 0
      vertex 34.8 40 0
      vertex 34.8 30 0
    endloop
  endfacet
  facet normal -0 0 -1
    outer loop
      vertex 34.8 40 0
      vertex 34 30 0
      vertex 34 40 0
    endloop
  endfacet
  facet normal 0 -1 0
    outer loop
      vertex 34 30 0
      vertex 34.8 30 0.0999994
      vertex 34 30 0.0999994
    endloop
  endfacet
  facet normal 0 -1 -0
    outer loop
      vertex 34.8 30 0.0999994
      vertex 34 30 0
      vertex 34.8 30 0
    endloop
  endfacet
  facet normal -1 0 0
    outer loop
      vertex 35 30 0
      vertex 35 40 0.0999994
      vertex 35 40 0
    endloop
  endfacet
  facet normal -1 -0 0
    outer loop
      vertex 35 40 0.0999994
      vertex 35 30 0
      vertex 35 30 0.0999994
    endloop
  endfacet
  facet normal -0 0 1
    outer loop
      vertex 35 40 0.0999994
      vertex 35.8 30 0.0999994
      vertex 35.8 40 0.0999994
    endloop
  endfacet
  facet normal 0 0 1
    outer loop
      vertex 35.8 30 0.0999994
      vertex 35 40 0.0999994
      vertex 35 30 0.0999994
    endloop
  endfacet
  facet normal 1 -0 0
    outer loop
      vertex 35.8 30 0.0999994
      vertex 35.8 40 0
      vertex 35.8 40 0.0999994
    endloop
  endfacet
  facet normal 1 0 0
    outer loop
      vertex 35.8 40 0
      vertex 35.8 30 0.0999994
      vertex 35.8 30 0
    endloop
  endfacet
  facet normal 0 0 -1
    outer loop
      vertex 35 30 0
      vertex 35.8 40 0
      vertex 35.8 30 0
    endloop
  endfacet
  facet normal -0 0 -1
    outer loop
      vertex 35.8 40 0
      vertex 35 30 0
      vertex 35 40 0
    endloop
  endfacet
  facet normal 0 -1 0
    outer loop
      vertex 35 30 0
      vertex 35.8 30 0.0999994
      vertex 35 30 0.0999994
    endloop
  endfacet
  facet normal 0 -1 -0
    outer loop
      vertex 35.8 30 0.0999994
      vertex 35 30 0
      vertex 35.8 30 0
    endloop
  endfacet
  facet normal 0 1 -0
    outer loop
      vertex 35.8 40 0
      vertex 35 40 0.0999994
      vertex 35.8 40 0.0999994
    endloop
  endfacet
  facet normal 0 1 0
    outer loop
      vertex 35 40 0.0999994
      vertex 35.8 40 0
      vertex 35 40 0
    endloop
  endfacet
  facet normal -1 0 0
    outer loop
      vertex 36 30 0
      vertex 36 40 0.0999994
      vertex 36 40 0
    endloop
  endfacet
  facet normal -1 -0 0
    outer loop
      vertex 36 40 0.0999994
      vertex 36 30 0
      vertex 36 30 0.0999994
    endloop
  endfacet
  facet normal -0 0 1
    outer loop
      vertex 36 40 0.0999994
      vertex 36.8 30 0.0999994
      vertex 36.8 40 0.0999994
    endloop
  endfacet
  facet normal 0 0 1
    outer loop
      vertex 36.8 30 0.0999994
      vertex 36 40 0.0999994
      vertex 36 30 0.0999994
    endloop
  endfacet
  facet normal 1 -0 0
    outer loop
      vertex 36.8 30 0.0999994
      vertex 36.8 40 0
      vertex 36.8 40 0.0999994
    endloop
  endfacet
  facet normal 1 0 0
    outer loop
      vertex 36.8 40 0
      vertex 36.8 30 0.0999994
      vertex 36.8 30 0
    endloop
  endfacet
  facet normal 0 0 -1
    outer loop
      vertex 36 30 0
      vertex 36.8 40 0
      vertex 36.8 30 0
    endloop
  endfacet
  facet normal -0 0 -1
    outer loop
      vertex 36.8 40 0
      vertex 36 30 0
      vertex 36 40 0
    endloop
  endfacet
  facet normal 0 -1 0
    outer loop
      vertex 36 30 0
      vertex 36.8 30 0.0999994
      vertex 36 30 0.0999994
    endloop
  endfacet
  facet normal 0 -1 -0
    outer loop
      vertex 36.8 30 0.0999994
      vertex 36 30 0
      vertex 36.8 30 0
    endloop
  endfacet
  facet normal 0 1 -0
    outer loop
      vertex 36.8 40 0
      vertex 36 40 0.0999994
      vertex 36.8 40 0.0999994
    endloop
  endfacet
  facet normal 0 1 0
    outer loop
      vertex 36 40 0.0999994
      vertex 36.8 40 0
      vertex 36 40 0
    endloop
  endfacet
  facet normal -1 0 0
    outer loop
      vertex 37 30 0
      vertex 37 40 0.0999994
      vertex 37 40 0
    endloop
  endfacet
  facet normal -1 -0 0
    outer loop
      vertex 37 40 0.0999994
      vertex 37 30 0
      vertex 37 30 0.0999994
    endloop
  endfacet
  facet normal -0 0 1
    outer loop
      vertex 37 40 0.0999994
      vertex 37.8 30 0.0999994
      vertex 37.8 40 0.0999994
    endloop
  endfacet
  facet normal 0 0 1
    outer loop
      vertex 37.8 30 0.0999994
      vertex 37 40 0.0999994
      vertex 37 30 0.0999994
    endloop
  endfacet
  facet normal 1 -0 0
    outer loop
      vertex 37.8 30 0.0999994
      vertex 37.8 40 0
      vertex 37.8 40 0.0999994
    endloop
  endfacet
  facet normal 1 0 0
    outer loop
      vertex 37.8 40 0
      vertex 37.8 30 0.0999994
      vertex 37.8 30 0
    endloop
  endfacet
  facet normal 0 1 -0
    outer loop
      vertex 37.8 40 0
      vertex 37 40 0.0999994
      vertex 37.8 40 0.0999994
    endloop
  endfacet
  facet normal 0 1 0
    outer loop
      vertex 37 40 0.0999994
      vertex 37.8 40 0
      vertex 37 40 0
    endloop
  endfacet
  facet normal 0 0 -1
    outer loop
      vertex 37 30 0
      vertex 37.8 40 0
      vertex 37.8 30 0
    endloop
  endfacet
  facet normal -0 0 -1
    outer loop
      vertex 37.8 40 0
      vertex 37 30 0
      vertex 37 40 0
    endloop
  endfacet
  facet normal 0 -1 0
    outer loop
      vertex 37 30 0
      vertex 37.8 30 0.0999994
      vertex 37 30 0.0999994
    endloop
  endfacet
  facet normal 0 -1 -0
    outer loop
      vertex 37.8 30 0.0999994
      vertex 37 30 0
      vertex 37.8 30 0
    endloop
  endfacet
  facet normal -1 0 0
    outer loop
      vertex 38 30 0
      vertex 38 40 0.0999994
      vertex 38 40 0
    endloop
  endfacet
  facet normal -1 -0 0
    outer loop
      vertex 38 40 0.0999994
      vertex 38 30 0
      vertex 38 30 0.0999994
    endloop
  endfacet
  facet normal -0 0 1
    outer loop
      vertex 38 40 0.0999994
      vertex 38.8 30 0.0999994
      vertex 38.8 40 0.0999994
    endloop
  endfacet
  facet normal 0 0 1
    outer loop
      vertex 38.8 30 0.0999994
      vertex 38 40 0.0999994
      vertex 38 30 0.0999994
    endloop
  endfacet
  facet normal 1 -0 0
    outer loop
      vertex 38.8 30 0.0999994
      vertex 38.8 40 0
      vertex 38.8 40 0.0999994
    endloop
  endfacet
  facet normal 1 0 0
    outer loop
      vertex 38.8 40 0
      vertex 38.8 30 0.0999994
      vertex 38.8 30 0
    endloop
  endfacet
  facet normal 0 0 -1
    outer loop
      vertex 38 30 0
      vertex 38.8 40 0
      vertex 38.8 30 0
    endloop
  endfacet
  facet normal -0 0 -1
    outer loop
      vertex 38.8 40 0
      vertex 38 30 0
      vertex 38 40 0
    endloop
  endfacet
  facet normal 0 -1 0
    outer loop
      vertex 38 30 0
      vertex 38.8 30 0.0999994
      vertex 38 30 0.0999994
    endloop
  endfacet
  facet normal 0 -1 -0
    outer loop
      vertex 38.8 30 0.0999994
      vertex 38 30 0
      vertex 38.8 30 0
    endloop
  endfacet
  facet normal 0 1 -0
    outer loop
      vertex 38.8 40 0
      vertex 38 40 0.0999994
      vertex 38.8 40 0.0999994
    endloop
  endfacet
  facet normal 0 1 0
    outer loop
      vertex 38 40 0.0999994
      vertex 38.8 40 0
      vertex 38 40 0
    endloop
  endfacet
  facet normal -1 0 0
    outer loop
      vertex 39 30 0
      vertex 39 40 0.0999994
      vertex 39 40 0
    endloop
  endfacet
  facet normal -1 -0 0
    outer loop
      vertex 39 40 0.0999994
      vertex 39 30 0
      vertex 39 30 0.0999994
    endloop
  endfacet
  facet normal -0 0 1
    outer loop
      vertex 39 40 0.0999994
      vertex 39.8 30 0.0999994
      vertex 39.8 40 0.0999994
    endloop
  endfacet
  facet normal 0 0 1
    outer loop
      vertex 39.8 30 0.0999994
      vertex 39 40 0.0999994
      vertex 39 30 0.0999994
    endloop
  endfacet
  facet normal 1 -0 0
    outer loop
      vertex 39.8 30 0.0999994
      vertex 39.8 40 0
      vertex 39.8 40 0.0999994
    endloop
  endfacet
  facet normal 1 0 0
    outer loop
      vertex 39.8 40 0
      vertex 39.8 30 0.0999994
      vertex 39.8 30 0
    endloop
  endfacet
  facet normal 0 1 -0
    outer loop
      vertex 39.8 40 0
      vertex 39 40 0.0999994
      vertex 39.8 40 0.0999994
    endloop
  endfacet
  facet normal 0 1 0
    outer loop
      vertex 39 40 0.0999994
      vertex 39.8 40 0
      vertex 39 40 0
    endloop
  endfacet
  facet normal 0 0 -1
    outer loop
      vertex 39 30 0
      vertex 39.8 40 0
      vertex 39.8 30 0
    endloop
  endfacet
  facet normal -0 0 -1
    outer loop
      vertex 39.8 40 0
      vertex 39 30 0
      vertex 39 40 0
    endloop
  endfacet
  facet normal 0 -1 0
    outer loop
      vertex 39 30 0
      vertex 39.8 30 0.0999994
      vertex 39 30 0.0999994
    endloop
  endfacet
  facet normal 0 -1 -0
    outer loop
      vertex 39.8 30 0.0999994
      vertex 39 30 0
      vertex 39.8 30 0
    endloop
  endfacet
  facet normal -1 0 0
    outer loop
      vertex 40 30 0
      vertex 40 40 0.0999994
      vertex 40 40 0
    endloop
  endfacet
  facet normal -1 -0 0
    outer loop
      vertex 40 40 0.0999994
      vertex 40 30 0
      vertex 40 30 0.0999994
    endloop
  endfacet
  facet normal -0 0 1
    outer loop
      vertex 40 40 0.0999994
      vertex 40.8 30 0.0999994
      vertex 40.8 40 0.0999994
    endloop
  endfacet
  facet normal 0 0 1
    outer loop
      vertex 40.8 30 0.0999994
      vertex 40 40 0.0999994
      vertex 40 30 0.0999994
    endloop
  endfacet
  facet normal 1 -0 0
    outer loop
      vertex 40.8 30 0.0999994
      vertex 40.8 40 0
      vertex 40.8 40 0.0999994
    endloop
  endfacet
  facet normal 1 0 0
    outer loop
      vertex 40.8 40 0
      vertex 40.8 30 0.0999994
      vertex 40.8 30 0
    endloop
  endfacet
  facet normal 0 0 -1
    outer loop
      vertex 40 30 0
      vertex 40.8 40 0
      vertex 40.8 30 0
    endloop
  endfacet
  facet normal -0 0 -1
    outer loop
      vertex 40.8 40 0
      vertex 40 30 0
      vertex 40 40 0
    endloop
  endfacet
  facet normal 0 -1 0
    outer loop
      vertex 40 30 0
      vertex 40.8 30 0.0999994
      vertex 40 30 0.0999994
    endloop
  endfacet
  facet normal 0 -1 -0
    outer loop
      vertex 40.8 30 0.0999994
      vertex 40 30 0
      vertex 40.8 30 0
    endloop
  endfacet
  facet normal 0 1 -0
    outer loop
      vertex 40.8 40 0
      vertex 40 40 0.0999994
      vertex 40.8 40 0.0999994
    endloop
  endfacet
  facet normal 0 1 0
    outer loop
      vertex 40 40 0.0999994
      vertex 40.8 40 0
      vertex 40 40 0
    endloop
  endfacet
endsolid OpenSCAD_Model
