solid OpenSCAD_Model
  facet normal -1 0 0
    outer loop
      vertex 190 90 0
      vertex 190 100 0.0999994
      vertex 190 100 0
    endloop
  endfacet
  facet normal -1 -0 0
    outer loop
      vertex 190 100 0.0999994
      vertex 190 90 0
      vertex 190 90 0.0999994
    endloop
  endfacet
  facet normal -0 0 1
    outer loop
      vertex 190 100 0.0999994
      vertex 190.8 90 0.0999994
      vertex 190.8 100 0.0999994
    endloop
  endfacet
  facet normal 0 0 1
    outer loop
      vertex 190.8 90 0.0999994
      vertex 190 100 0.0999994
      vertex 190 90 0.0999994
    endloop
  endfacet
  facet normal 1 -0 0
    outer loop
      vertex 190.8 90 0.0999994
      vertex 190.8 100 0
      vertex 190.8 100 0.0999994
    endloop
  endfacet
  facet normal 1 0 0
    outer loop
      vertex 190.8 100 0
      vertex 190.8 90 0.0999994
      vertex 190.8 90 0
    endloop
  endfacet
  facet normal 0 1 -0
    outer loop
      vertex 190.8 100 0
      vertex 190 100 0.0999994
      vertex 190.8 100 0.0999994
    endloop
  endfacet
  facet normal 0 1 0
    outer loop
      vertex 190 100 0.0999994
      vertex 190.8 100 0
      vertex 190 100 0
    endloop
  endfacet
  facet normal 0 0 -1
    outer loop
      vertex 190 90 0
      vertex 190.8 100 0
      vertex 190.8 90 0
    endloop
  endfacet
  facet normal -0 0 -1
    outer loop
      vertex 190.8 100 0
      vertex 190 90 0
      vertex 190 100 0
    endloop
  endfacet
  facet normal 0 -1 0
    outer loop
      vertex 190 90 0
      vertex 190.8 90 0.0999994
      vertex 190 90 0.0999994
    endloop
  endfacet
  facet normal 0 -1 -0
    outer loop
      vertex 190.8 90 0.0999994
      vertex 190 90 0
      vertex 190.8 90 0
    endloop
  endfacet
  facet normal -1 0 0
    outer loop
      vertex 191 90 0
      vertex 191 100 0.0999994
      vertex 191 100 0
    endloop
  endfacet
  facet normal -1 -0 0
    outer loop
      vertex 191 100 0.0999994
      vertex 191 90 0
      vertex 191 90 0.0999994
    endloop
  endfacet
  facet normal -0 0 1
    outer loop
      vertex 191 100 0.0999994
      vertex 191.8 90 0.0999994
      vertex 191.8 100 0.0999994
    endloop
  endfacet
  facet normal 0 0 1
    outer loop
      vertex 191.8 90 0.0999994
      vertex 191 100 0.0999994
      vertex 191 90 0.0999994
    endloop
  endfacet
  facet normal 1 -0 0
    outer loop
      vertex 191.8 90 0.0999994
      vertex 191.8 100 0
      vertex 191.8 100 0.0999994
    endloop
  endfacet
  facet normal 1 0 0
    outer loop
      vertex 191.8 100 0
      vertex 191.8 90 0.0999994
      vertex 191.8 90 0
    endloop
  endfacet
  facet normal 0 1 -0
    outer loop
      vertex 191.8 100 0
      vertex 191 100 0.0999994
      vertex 191.8 100 0.0999994
    endloop
  endfacet
  facet normal 0 1 0
    outer loop
      vertex 191 100 0.0999994
      vertex 191.8 100 0
      vertex 191 100 0
    endloop
  endfacet
  facet normal 0 0 -1
    outer loop
      vertex 191 90 0
      vertex 191.8 100 0
      vertex 191.8 90 0
    endloop
  endfacet
  facet normal -0 0 -1
    outer loop
      vertex 191.8 100 0
      vertex 191 90 0
      vertex 191 100 0
    endloop
  endfacet
  facet normal 0 -1 0
    outer loop
      vertex 191 90 0
      vertex 191.8 90 0.0999994
      vertex 191 90 0.0999994
    endloop
  endfacet
  facet normal 0 -1 -0
    outer loop
      vertex 191.8 90 0.0999994
      vertex 191 90 0
      vertex 191.8 90 0
    endloop
  endfacet
  facet normal -1 0 0
    outer loop
      vertex 192 90 0
      vertex 192 100 0.0999994
      vertex 192 100 0
    endloop
  endfacet
  facet normal -1 -0 0
    outer loop
      vertex 192 100 0.0999994
      vertex 192 90 0
      vertex 192 90 0.0999994
    endloop
  endfacet
  facet normal -0 0 1
    outer loop
      vertex 192 100 0.0999994
      vertex 192.8 90 0.0999994
      vertex 192.8 100 0.0999994
    endloop
  endfacet
  facet normal 0 0 1
    outer loop
      vertex 192.8 90 0.0999994
      vertex 192 100 0.0999994
      vertex 192 90 0.0999994
    endloop
  endfacet
  facet normal 1 -0 0
    outer loop
      vertex 192.8 90 0.0999994
      vertex 192.8 100 0
      vertex 192.8 100 0.0999994
    endloop
  endfacet
  facet normal 1 0 0
    outer loop
      vertex 192.8 100 0
      vertex 192.8 90 0.0999994
      vertex 192.8 90 0
    endloop
  endfacet
  facet normal 0 0 -1
    outer loop
      vertex 192 90 0
      vertex 192.8 100 0
      vertex 192.8 90 0
    endloop
  endfacet
  facet normal -0 0 -1
    outer loop
      vertex 192.8 100 0
      vertex 192 90 0
      vertex 192 100 0
    endloop
  endfacet
  facet normal 0 -1 0
    outer loop
      vertex 192 90 0
      vertex 192.8 90 0.0999994
      vertex 192 90 0.0999994
    endloop
  endfacet
  facet normal 0 -1 -0
    outer loop
      vertex 192.8 90 0.0999994
      vertex 192 90 0
      vertex 192.8 90 0
    endloop
  endfacet
  facet normal 0 1 -0
    outer loop
      vertex 192.8 100 0
      vertex 192 100 0.0999994
      vertex 192.8 100 0.0999994
    endloop
  endfacet
  facet normal 0 1 0
    outer loop
      vertex 192 100 0.0999994
      vertex 192.8 100 0
      vertex 192 100 0
    endloop
  endfacet
  facet normal -1 0 0
    outer loop
      vertex 193 90 0
      vertex 193 100 0.0999994
      vertex 193 100 0
    endloop
  endfacet
  facet normal -1 -0 0
    outer loop
      vertex 193 100 0.0999994
      vertex 193 90 0
      vertex 193 90 0.0999994
    endloop
  endfacet
  facet normal -0 0 1
    outer loop
      vertex 193 100 0.0999994
      vertex 193.8 90 0.0999994
      vertex 193.8 100 0.0999994
    endloop
  endfacet
  facet normal 0 0 1
    outer loop
      vertex 193.8 90 0.0999994
      vertex 193 100 0.0999994
      vertex 193 90 0.0999994
    endloop
  endfacet
  facet normal 1 -0 0
    outer loop
      vertex 193.8 90 0.0999994
      vertex 193.8 100 0
      vertex 193.8 100 0.0999994
    endloop
  endfacet
  facet normal 1 0 0
    outer loop
      vertex 193.8 100 0
      vertex 193.8 90 0.0999994
      vertex 193.8 90 0
    endloop
  endfacet
  facet normal 0 0 -1
    outer loop
      vertex 193 90 0
      vertex 193.8 100 0
      vertex 193.8 90 0
    endloop
  endfacet
  facet normal -0 0 -1
    outer loop
      vertex 193.8 100 0
      vertex 193 90 0
      vertex 193 100 0
    endloop
  endfacet
  facet normal 0 -1 0
    outer loop
      vertex 193 90 0
      vertex 193.8 90 0.0999994
      vertex 193 90 0.0999994
    endloop
  endfacet
  facet normal 0 -1 -0
    outer loop
      vertex 193.8 90 0.0999994
      vertex 193 90 0
      vertex 193.8 90 0
    endloop
  endfacet
  facet normal 0 1 -0
    outer loop
      vertex 193.8 100 0
      vertex 193 100 0.0999994
      vertex 193.8 100 0.0999994
    endloop
  endfacet
  facet normal 0 1 0
    outer loop
      vertex 193 100 0.0999994
      vertex 193.8 100 0
      vertex 193 100 0
    endloop
  endfacet
  facet normal -1 0 0
    outer loop
      vertex 194 90 0
      vertex 194 100 0.0999994
      vertex 194 100 0
    endloop
  endfacet
  facet normal -1 -0 0
    outer loop
      vertex 194 100 0.0999994
      vertex 194 90 0
      vertex 194 90 0.0999994
    endloop
  endfacet
  facet normal -0 0 1
    outer loop
      vertex 194 100 0.0999994
      vertex 194.8 90 0.0999994
      vertex 194.8 100 0.0999994
    endloop
  endfacet
  facet normal 0 0 1
    outer loop
      vertex 194.8 90 0.0999994
      vertex 194 100 0.0999994
      vertex 194 90 0.0999994
    endloop
  endfacet
  facet normal 1 -0 0
    outer loop
      vertex 194.8 90 0.0999994
      vertex 194.8 100 0
      vertex 194.8 100 0.0999994
    endloop
  endfacet
  facet normal 1 0 0
    outer loop
      vertex 194.8 100 0
      vertex 194.8 90 0.0999994
      vertex 194.8 90 0
    endloop
  endfacet
  facet normal 0 1 -0
    outer loop
      vertex 194.8 100 0
      vertex 194 100 0.0999994
      vertex 194.8 100 0.0999994
    endloop
  endfacet
  facet normal 0 1 0
    outer loop
      vertex 194 100 0.0999994
      vertex 194.8 100 0
      vertex 194 100 0
    endloop
  endfacet
  facet normal 0 0 -1
    outer loop
      vertex 194 90 0
      vertex 194.8 100 0
      vertex 194.8 90 0
    endloop
  endfacet
  facet normal -0 0 -1
    outer loop
      vertex 194.8 100 0
      vertex 194 90 0
      vertex 194 100 0
    endloop
  endfacet
  facet normal 0 -1 0
    outer loop
      vertex 194 90 0
      vertex 194.8 90 0.0999994
      vertex 194 90 0.0999994
    endloop
  endfacet
  facet normal 0 -1 -0
    outer loop
      vertex 194.8 90 0.0999994
      vertex 194 90 0
      vertex 194.8 90 0
    endloop
  endfacet
  facet normal -1 0 0
    outer loop
      vertex 195 90 0
      vertex 195 100 0.0999994
      vertex 195 100 0
    endloop
  endfacet
  facet normal -1 -0 0
    outer loop
      vertex 195 100 0.0999994
      vertex 195 90 0
      vertex 195 90 0.0999994
    endloop
  endfacet
  facet normal -0 0 1
    outer loop
      vertex 195 100 0.0999994
      vertex 195.8 90 0.0999994
      vertex 195.8 100 0.0999994
    endloop
  endfacet
  facet normal 0 0 1
    outer loop
      vertex 195.8 90 0.0999994
      vertex 195 100 0.0999994
      vertex 195 90 0.0999994
    endloop
  endfacet
  facet normal 1 -0 0
    outer loop
      vertex 195.8 90 0.0999994
      vertex 195.8 100 0
      vertex 195.8 100 0.0999994
    endloop
  endfacet
  facet normal 1 0 0
    outer loop
      vertex 195.8 100 0
      vertex 195.8 90 0.0999994
      vertex 195.8 90 0
    endloop
  endfacet
  facet normal 0 0 -1
    outer loop
      vertex 195 90 0
      vertex 195.8 100 0
      vertex 195.8 90 0
    endloop
  endfacet
  facet normal -0 0 -1
    outer loop
      vertex 195.8 100 0
      vertex 195 90 0
      vertex 195 100 0
    endloop
  endfacet
  facet normal 0 -1 0
    outer loop
      vertex 195 90 0
      vertex 195.8 90 0.0999994
      vertex 195 90 0.0999994
    endloop
  endfacet
  facet normal 0 -1 -0
    outer loop
      vertex 195.8 90 0.0999994
      vertex 195 90 0
      vertex 195.8 90 0
    endloop
  endfacet
  facet normal 0 1 -0
    outer loop
      vertex 195.8 100 0
      vertex 195 100 0.0999994
      vertex 195.8 100 0.0999994
    endloop
  endfacet
  facet normal 0 1 0
    outer loop
      vertex 195 100 0.0999994
      vertex 195.8 100 0
      vertex 195 100 0
    endloop
  endfacet
  facet normal -1 0 0
    outer loop
      vertex 196 90 0
      vertex 196 100 0.0999994
      vertex 196 100 0
    endloop
  endfacet
  facet normal -1 -0 0
    outer loop
      vertex 196 100 0.0999994
      vertex 196 90 0
      vertex 196 90 0.0999994
    endloop
  endfacet
  facet normal -0 0 1
    outer loop
      vertex 196 100 0.0999994
      vertex 196.8 90 0.0999994
      vertex 196.8 100 0.0999994
    endloop
  endfacet
  facet normal 0 0 1
    outer loop
      vertex 196.8 90 0.0999994
      vertex 196 100 0.0999994
      vertex 196 90 0.0999994
    endloop
  endfacet
  facet normal 1 -0 0
    outer loop
      vertex 196.8 90 0.0999994
      vertex 196.8 100 0
      vertex 196.8 100 0.0999994
    endloop
  endfacet
  facet normal 1 0 0
    outer loop
      vertex 196.8 100 0
      vertex 196.8 90 0.0999994
      vertex 196.8 90 0
    endloop
  endfacet
  facet normal 0 0 -1
    outer loop
      vertex 196 90 0
      vertex 196.8 100 0
      vertex 196.8 90 0
    endloop
  endfacet
  facet normal -0 0 -1
    outer loop
      vertex 196.8 100 0
      vertex 196 90 0
      vertex 196 100 0
    endloop
  endfacet
  facet normal 0 -1 0
    outer loop
      vertex 196 90 0
      vertex 196.8 90 0.0999994
      vertex 196 90 0.0999994
    endloop
  endfacet
  facet normal 0 -1 -0
    outer loop
      vertex 196.8 90 0.0999994
      vertex 196 90 0
      vertex 196.8 90 0
    endloop
  endfacet
  facet normal 0 1 -0
    outer loop
      vertex 196.8 100 0
      vertex 196 100 0.0999994
      vertex 196.8 100 0.0999994
    endloop
  endfacet
  facet normal 0 1 0
    outer loop
      vertex 196 100 0.0999994
      vertex 196.8 100 0
      vertex 196 100 0
    endloop
  endfacet
  facet normal -1 0 0
    outer loop
      vertex 197 90 0
      vertex 197 100 0.0999994
      vertex 197 100 0
    endloop
  endfacet
  facet normal -1 -0 0
    outer loop
      vertex 197 100 0.0999994
      vertex 197 90 0
      vertex 197 90 0.0999994
    endloop
  endfacet
  facet normal -0 0 1
    outer loop
      vertex 197 100 0.0999994
      vertex 197.8 90 0.0999994
      vertex 197.8 100 0.0999994
    endloop
  endfacet
  facet normal 0 0 1
    outer loop
      vertex 197.8 90 0.0999994
      vertex 197 100 0.0999994
      vertex 197 90 0.0999994
    endloop
  endfacet
  facet normal 1 -0 0
    outer loop
      vertex 197.8 90 0.0999994
      vertex 197.8 100 0
      vertex 197.8 100 0.0999994
    endloop
  endfacet
  facet normal 1 0 0
    outer loop
      vertex 197.8 100 0
      vertex 197.8 90 0.0999994
      vertex 197.8 90 0
    endloop
  endfacet
  facet normal 0 1 -0
    outer loop
      vertex 197.8 100 0
      vertex 197 100 0.0999994
      vertex 197.8 100 0.0999994
    endloop
  endfacet
  facet normal 0 1 0
    outer loop
      vertex 197 100 0.0999994
      vertex 197.8 100 0
      vertex 197 100 0
    endloop
  endfacet
  facet normal 0 0 -1
    outer loop
      vertex 197 90 0
      vertex 197.8 100 0
      vertex 197.8 90 0
    endloop
  endfacet
  facet normal -0 0 -1
    outer loop
      vertex 197.8 100 0
      vertex 197 90 0
      vertex 197 100 0
    endloop
  endfacet
  facet normal 0 -1 0
    outer loop
      vertex 197 90 0
      vertex 197.8 90 0.0999994
      vertex 197 90 0.0999994
    endloop
  endfacet
  facet normal 0 -1 -0
    outer loop
      vertex 197.8 90 0.0999994
      vertex 197 90 0
      vertex 197.8 90 0
    endloop
  endfacet
  facet normal -1 0 0
    outer loop
      vertex 198 90 0
      vertex 198 100 0.0999994
      vertex 198 100 0
    endloop
  endfacet
  facet normal -1 -0 0
    outer loop
      vertex 198 100 0.0999994
      vertex 198 90 0
      vertex 198 90 0.0999994
    endloop
  endfacet
  facet normal -0 0 1
    outer loop
      vertex 198 100 0.0999994
      vertex 198.8 90 0.0999994
      vertex 198.8 100 0.0999994
    endloop
  endfacet
  facet normal 0 0 1
    outer loop
      vertex 198.8 90 0.0999994
      vertex 198 100 0.0999994
      vertex 198 90 0.0999994
    endloop
  endfacet
  facet normal 1 -0 0
    outer loop
      vertex 198.8 90 0.0999994
      vertex 198.8 100 0
      vertex 198.8 100 0.0999994
    endloop
  endfacet
  facet normal 1 0 0
    outer loop
      vertex 198.8 100 0
      vertex 198.8 90 0.0999994
      vertex 198.8 90 0
    endloop
  endfacet
  facet normal 0 0 -1
    outer loop
      vertex 198 90 0
      vertex 198.8 100 0
      vertex 198.8 90 0
    endloop
  endfacet
  facet normal -0 0 -1
    outer loop
      vertex 198.8 100 0
      vertex 198 90 0
      vertex 198 100 0
    endloop
  endfacet
  facet normal 0 -1 0
    outer loop
      vertex 198 90 0
      vertex 198.8 90 0.0999994
      vertex 198 90 0.0999994
    endloop
  endfacet
  facet normal 0 -1 -0
    outer loop
      vertex 198.8 90 0.0999994
      vertex 198 90 0
      vertex 198.8 90 0
    endloop
  endfacet
  facet normal 0 1 -0
    outer loop
      vertex 198.8 100 0
      vertex 198 100 0.0999994
      vertex 198.8 100 0.0999994
    endloop
  endfacet
  facet normal 0 1 0
    outer loop
      vertex 198 100 0.0999994
      vertex 198.8 100 0
      vertex 198 100 0
    endloop
  endfacet
  facet normal -1 0 0
    outer loop
      vertex 199 90 0
      vertex 199 100 0.0999994
      vertex 199 100 0
    endloop
  endfacet
  facet normal -1 -0 0
    outer loop
      vertex 199 100 0.0999994
      vertex 199 90 0
      vertex 199 90 0.0999994
    endloop
  endfacet
  facet normal -0 0 1
    outer loop
      vertex 199 100 0.0999994
      vertex 199.8 90 0.0999994
      vertex 199.8 100 0.0999994
    endloop
  endfacet
  facet normal 0 0 1
    outer loop
      vertex 199.8 90 0.0999994
      vertex 199 100 0.0999994
      vertex 199 90 0.0999994
    endloop
  endfacet
  facet normal 1 -0 0
    outer loop
      vertex 199.8 90 0.0999994
      vertex 199.8 100 0
      vertex 199.8 100 0.0999994
    endloop
  endfacet
  facet normal 1 0 0
    outer loop
      vertex 199.8 100 0
      vertex 199.8 90 0.0999994
      vertex 199.8 90 0
    endloop
  endfacet
  facet normal 0 1 -0
    outer loop
      vertex 199.8 100 0
      vertex 199 100 0.0999994
      vertex 199.8 100 0.0999994
    endloop
  endfacet
  facet normal 0 1 0
    outer loop
      vertex 199 100 0.0999994
      vertex 199.8 100 0
      vertex 199 100 0
    endloop
  endfacet
  facet normal 0 0 -1
    outer loop
      vertex 199 90 0
      vertex 199.8 100 0
      vertex 199.8 90 0
    endloop
  endfacet
  facet normal -0 0 -1
    outer loop
      vertex 199.8 100 0
      vertex 199 90 0
      vertex 199 100 0
    endloop
  endfacet
  facet normal 0 -1 0
    outer loop
      vertex 199 90 0
      vertex 199.8 90 0.0999994
      vertex 199 90 0.0999994
    endloop
  endfacet
  facet normal 0 -1 -0
    outer loop
      vertex 199.8 90 0.0999994
      vertex 199 90 0
      vertex 199.8 90 0
    endloop
  endfacet
  facet normal -1 0 0
    outer loop
      vertex 200 90 0
      vertex 200 100 0.0999994
      vertex 200 100 0
    endloop
  endfacet
  facet normal -1 -0 0
    outer loop
      vertex 200 100 0.0999994
      vertex 200 90 0
      vertex 200 90 0.0999994
    endloop
  endfacet
  facet normal -0 0 1
    outer loop
      vertex 200 100 0.0999994
      vertex 200.8 90 0.0999994
      vertex 200.8 100 0.0999994
    endloop
  endfacet
  facet normal 0 0 1
    outer loop
      vertex 200.8 90 0.0999994
      vertex 200 100 0.0999994
      vertex 200 90 0.0999994
    endloop
  endfacet
  facet normal 1 -0 0
    outer loop
      vertex 200.8 90 0.0999994
      vertex 200.8 100 0
      vertex 200.8 100 0.0999994
    endloop
  endfacet
  facet normal 1 0 0
    outer loop
      vertex 200.8 100 0
      vertex 200.8 90 0.0999994
      vertex 200.8 90 0
    endloop
  endfacet
  facet normal 0 1 -0
    outer loop
      vertex 200.8 100 0
      vertex 200 100 0.0999994
      vertex 200.8 100 0.0999994
    endloop
  endfacet
  facet normal 0 1 0
    outer loop
      vertex 200 100 0.0999994
      vertex 200.8 100 0
      vertex 200 100 0
    endloop
  endfacet
  facet normal 0 0 -1
    outer loop
      vertex 200 90 0
      vertex 200.8 100 0
      vertex 200.8 90 0
    endloop
  endfacet
  facet normal -0 0 -1
    outer loop
      vertex 200.8 100 0
      vertex 200 90 0
      vertex 200 100 0
    endloop
  endfacet
  facet normal 0 -1 0
    outer loop
      vertex 200 90 0
      vertex 200.8 90 0.0999994
      vertex 200 90 0.0999994
    endloop
  endfacet
  facet normal 0 -1 -0
    outer loop
      vertex 200.8 90 0.0999994
      vertex 200 90 0
      vertex 200.8 90 0
    endloop
  endfacet
endsolid OpenSCAD_Model
