solid OpenSCAD_Model
  facet normal -1 0 0
    outer loop
      vertex 30 170 0
      vertex 30 180 0.0999994
      vertex 30 180 0
    endloop
  endfacet
  facet normal -1 -0 0
    outer loop
      vertex 30 180 0.0999994
      vertex 30 170 0
      vertex 30 170 0.0999994
    endloop
  endfacet
  facet normal -0 0 1
    outer loop
      vertex 30 180 0.0999994
      vertex 30.8 170 0.0999994
      vertex 30.8 180 0.0999994
    endloop
  endfacet
  facet normal 0 0 1
    outer loop
      vertex 30.8 170 0.0999994
      vertex 30 180 0.0999994
      vertex 30 170 0.0999994
    endloop
  endfacet
  facet normal 1 -0 0
    outer loop
      vertex 30.8 170 0.0999994
      vertex 30.8 180 0
      vertex 30.8 180 0.0999994
    endloop
  endfacet
  facet normal 1 0 0
    outer loop
      vertex 30.8 180 0
      vertex 30.8 170 0.0999994
      vertex 30.8 170 0
    endloop
  endfacet
  facet normal 0 1 -0
    outer loop
      vertex 30.8 180 0
      vertex 30 180 0.0999994
      vertex 30.8 180 0.0999994
    endloop
  endfacet
  facet normal 0 1 0
    outer loop
      vertex 30 180 0.0999994
      vertex 30.8 180 0
      vertex 30 180 0
    endloop
  endfacet
  facet normal 0 0 -1
    outer loop
      vertex 30 170 0
      vertex 30.8 180 0
      vertex 30.8 170 0
    endloop
  endfacet
  facet normal -0 0 -1
    outer loop
      vertex 30.8 180 0
      vertex 30 170 0
      vertex 30 180 0
    endloop
  endfacet
  facet normal 0 -1 0
    outer loop
      vertex 30 170 0
      vertex 30.8 170 0.0999994
      vertex 30 170 0.0999994
    endloop
  endfacet
  facet normal 0 -1 -0
    outer loop
      vertex 30.8 170 0.0999994
      vertex 30 170 0
      vertex 30.8 170 0
    endloop
  endfacet
  facet normal -1 0 0
    outer loop
      vertex 31 170 0
      vertex 31 180 0.0999994
      vertex 31 180 0
    endloop
  endfacet
  facet normal -1 -0 0
    outer loop
      vertex 31 180 0.0999994
      vertex 31 170 0
      vertex 31 170 0.0999994
    endloop
  endfacet
  facet normal -0 0 1
    outer loop
      vertex 31 180 0.0999994
      vertex 31.8 170 0.0999994
      vertex 31.8 180 0.0999994
    endloop
  endfacet
  facet normal 0 0 1
    outer loop
      vertex 31.8 170 0.0999994
      vertex 31 180 0.0999994
      vertex 31 170 0.0999994
    endloop
  endfacet
  facet normal 1 -0 0
    outer loop
      vertex 31.8 170 0.0999994
      vertex 31.8 180 0
      vertex 31.8 180 0.0999994
    endloop
  endfacet
  facet normal 1 0 0
    outer loop
      vertex 31.8 180 0
      vertex 31.8 170 0.0999994
      vertex 31.8 170 0
    endloop
  endfacet
  facet normal 0 1 -0
    outer loop
      vertex 31.8 180 0
      vertex 31 180 0.0999994
      vertex 31.8 180 0.0999994
    endloop
  endfacet
  facet normal 0 1 0
    outer loop
      vertex 31 180 0.0999994
      vertex 31.8 180 0
      vertex 31 180 0
    endloop
  endfacet
  facet normal 0 0 -1
    outer loop
      vertex 31 170 0
      vertex 31.8 180 0
      vertex 31.8 170 0
    endloop
  endfacet
  facet normal -0 0 -1
    outer loop
      vertex 31.8 180 0
      vertex 31 170 0
      vertex 31 180 0
    endloop
  endfacet
  facet normal 0 -1 0
    outer loop
      vertex 31 170 0
      vertex 31.8 170 0.0999994
      vertex 31 170 0.0999994
    endloop
  endfacet
  facet normal 0 -1 -0
    outer loop
      vertex 31.8 170 0.0999994
      vertex 31 170 0
      vertex 31.8 170 0
    endloop
  endfacet
  facet normal -1 0 0
    outer loop
      vertex 32 170 0
      vertex 32 180 0.0999994
      vertex 32 180 0
    endloop
  endfacet
  facet normal -1 -0 0
    outer loop
      vertex 32 180 0.0999994
      vertex 32 170 0
      vertex 32 170 0.0999994
    endloop
  endfacet
  facet normal -0 0 1
    outer loop
      vertex 32 180 0.0999994
      vertex 32.8 170 0.0999994
      vertex 32.8 180 0.0999994
    endloop
  endfacet
  facet normal 0 0 1
    outer loop
      vertex 32.8 170 0.0999994
      vertex 32 180 0.0999994
      vertex 32 170 0.0999994
    endloop
  endfacet
  facet normal 1 -0 0
    outer loop
      vertex 32.8 170 0.0999994
      vertex 32.8 180 0
      vertex 32.8 180 0.0999994
    endloop
  endfacet
  facet normal 1 0 0
    outer loop
      vertex 32.8 180 0
      vertex 32.8 170 0.0999994
      vertex 32.8 170 0
    endloop
  endfacet
  facet normal 0 0 -1
    outer loop
      vertex 32 170 0
      vertex 32.8 180 0
      vertex 32.8 170 0
    endloop
  endfacet
  facet normal -0 0 -1
    outer loop
      vertex 32.8 180 0
      vertex 32 170 0
      vertex 32 180 0
    endloop
  endfacet
  facet normal 0 -1 0
    outer loop
      vertex 32 170 0
      vertex 32.8 170 0.0999994
      vertex 32 170 0.0999994
    endloop
  endfacet
  facet normal 0 -1 -0
    outer loop
      vertex 32.8 170 0.0999994
      vertex 32 170 0
      vertex 32.8 170 0
    endloop
  endfacet
  facet normal 0 1 -0
    outer loop
      vertex 32.8 180 0
      vertex 32 180 0.0999994
      vertex 32.8 180 0.0999994
    endloop
  endfacet
  facet normal 0 1 0
    outer loop
      vertex 32 180 0.0999994
      vertex 32.8 180 0
      vertex 32 180 0
    endloop
  endfacet
  facet normal -1 0 0
    outer loop
      vertex 33 170 0
      vertex 33 180 0.0999994
      vertex 33 180 0
    endloop
  endfacet
  facet normal -1 -0 0
    outer loop
      vertex 33 180 0.0999994
      vertex 33 170 0
      vertex 33 170 0.0999994
    endloop
  endfacet
  facet normal -0 0 1
    outer loop
      vertex 33 180 0.0999994
      vertex 33.8 170 0.0999994
      vertex 33.8 180 0.0999994
    endloop
  endfacet
  facet normal 0 0 1
    outer loop
      vertex 33.8 170 0.0999994
      vertex 33 180 0.0999994
      vertex 33 170 0.0999994
    endloop
  endfacet
  facet normal 1 -0 0
    outer loop
      vertex 33.8 170 0.0999994
      vertex 33.8 180 0
      vertex 33.8 180 0.0999994
    endloop
  endfacet
  facet normal 1 0 0
    outer loop
      vertex 33.8 180 0
      vertex 33.8 170 0.0999994
      vertex 33.8 170 0
    endloop
  endfacet
  facet normal 0 0 -1
    outer loop
      vertex 33 170 0
      vertex 33.8 180 0
      vertex 33.8 170 0
    endloop
  endfacet
  facet normal -0 0 -1
    outer loop
      vertex 33.8 180 0
      vertex 33 170 0
      vertex 33 180 0
    endloop
  endfacet
  facet normal 0 -1 0
    outer loop
      vertex 33 170 0
      vertex 33.8 170 0.0999994
      vertex 33 170 0.0999994
    endloop
  endfacet
  facet normal 0 -1 -0
    outer loop
      vertex 33.8 170 0.0999994
      vertex 33 170 0
      vertex 33.8 170 0
    endloop
  endfacet
  facet normal 0 1 -0
    outer loop
      vertex 33.8 180 0
      vertex 33 180 0.0999994
      vertex 33.8 180 0.0999994
    endloop
  endfacet
  facet normal 0 1 0
    outer loop
      vertex 33 180 0.0999994
      vertex 33.8 180 0
      vertex 33 180 0
    endloop
  endfacet
  facet normal -1 0 0
    outer loop
      vertex 34 170 0
      vertex 34 180 0.0999994
      vertex 34 180 0
    endloop
  endfacet
  facet normal -1 -0 0
    outer loop
      vertex 34 180 0.0999994
      vertex 34 170 0
      vertex 34 170 0.0999994
    endloop
  endfacet
  facet normal -0 0 1
    outer loop
      vertex 34 180 0.0999994
      vertex 34.8 170 0.0999994
      vertex 34.8 180 0.0999994
    endloop
  endfacet
  facet normal 0 0 1
    outer loop
      vertex 34.8 170 0.0999994
      vertex 34 180 0.0999994
      vertex 34 170 0.0999994
    endloop
  endfacet
  facet normal 1 -0 0
    outer loop
      vertex 34.8 170 0.0999994
      vertex 34.8 180 0
      vertex 34.8 180 0.0999994
    endloop
  endfacet
  facet normal 1 0 0
    outer loop
      vertex 34.8 180 0
      vertex 34.8 170 0.0999994
      vertex 34.8 170 0
    endloop
  endfacet
  facet normal 0 1 -0
    outer loop
      vertex 34.8 180 0
      vertex 34 180 0.0999994
      vertex 34.8 180 0.0999994
    endloop
  endfacet
  facet normal 0 1 0
    outer loop
      vertex 34 180 0.0999994
      vertex 34.8 180 0
      vertex 34 180 0
    endloop
  endfacet
  facet normal 0 0 -1
    outer loop
      vertex 34 170 0
      vertex 34.8 180 0
      vertex 34.8 170 0
    endloop
  endfacet
  facet normal -0 0 -1
    outer loop
      vertex 34.8 180 0
      vertex 34 170 0
      vertex 34 180 0
    endloop
  endfacet
  facet normal 0 -1 0
    outer loop
      vertex 34 170 0
      vertex 34.8 170 0.0999994
      vertex 34 170 0.0999994
    endloop
  endfacet
  facet normal 0 -1 -0
    outer loop
      vertex 34.8 170 0.0999994
      vertex 34 170 0
      vertex 34.8 170 0
    endloop
  endfacet
  facet normal -1 0 0
    outer loop
      vertex 35 170 0
      vertex 35 180 0.0999994
      vertex 35 180 0
    endloop
  endfacet
  facet normal -1 -0 0
    outer loop
      vertex 35 180 0.0999994
      vertex 35 170 0
      vertex 35 170 0.0999994
    endloop
  endfacet
  facet normal -0 0 1
    outer loop
      vertex 35 180 0.0999994
      vertex 35.8 170 0.0999994
      vertex 35.8 180 0.0999994
    endloop
  endfacet
  facet normal 0 0 1
    outer loop
      vertex 35.8 170 0.0999994
      vertex 35 180 0.0999994
      vertex 35 170 0.0999994
    endloop
  endfacet
  facet normal 1 -0 0
    outer loop
      vertex 35.8 170 0.0999994
      vertex 35.8 180 0
      vertex 35.8 180 0.0999994
    endloop
  endfacet
  facet normal 1 0 0
    outer loop
      vertex 35.8 180 0
      vertex 35.8 170 0.0999994
      vertex 35.8 170 0
    endloop
  endfacet
  facet normal 0 1 -0
    outer loop
      vertex 35.8 180 0
      vertex 35 180 0.0999994
      vertex 35.8 180 0.0999994
    endloop
  endfacet
  facet normal 0 1 0
    outer loop
      vertex 35 180 0.0999994
      vertex 35.8 180 0
      vertex 35 180 0
    endloop
  endfacet
  facet normal 0 0 -1
    outer loop
      vertex 35 170 0
      vertex 35.8 180 0
      vertex 35.8 170 0
    endloop
  endfacet
  facet normal -0 0 -1
    outer loop
      vertex 35.8 180 0
      vertex 35 170 0
      vertex 35 180 0
    endloop
  endfacet
  facet normal 0 -1 0
    outer loop
      vertex 35 170 0
      vertex 35.8 170 0.0999994
      vertex 35 170 0.0999994
    endloop
  endfacet
  facet normal 0 -1 -0
    outer loop
      vertex 35.8 170 0.0999994
      vertex 35 170 0
      vertex 35.8 170 0
    endloop
  endfacet
  facet normal -1 0 0
    outer loop
      vertex 36 170 0
      vertex 36 180 0.0999994
      vertex 36 180 0
    endloop
  endfacet
  facet normal -1 -0 0
    outer loop
      vertex 36 180 0.0999994
      vertex 36 170 0
      vertex 36 170 0.0999994
    endloop
  endfacet
  facet normal -0 0 1
    outer loop
      vertex 36 180 0.0999994
      vertex 36.8 170 0.0999994
      vertex 36.8 180 0.0999994
    endloop
  endfacet
  facet normal 0 0 1
    outer loop
      vertex 36.8 170 0.0999994
      vertex 36 180 0.0999994
      vertex 36 170 0.0999994
    endloop
  endfacet
  facet normal 1 -0 0
    outer loop
      vertex 36.8 170 0.0999994
      vertex 36.8 180 0
      vertex 36.8 180 0.0999994
    endloop
  endfacet
  facet normal 1 0 0
    outer loop
      vertex 36.8 180 0
      vertex 36.8 170 0.0999994
      vertex 36.8 170 0
    endloop
  endfacet
  facet normal 0 0 -1
    outer loop
      vertex 36 170 0
      vertex 36.8 180 0
      vertex 36.8 170 0
    endloop
  endfacet
  facet normal -0 0 -1
    outer loop
      vertex 36.8 180 0
      vertex 36 170 0
      vertex 36 180 0
    endloop
  endfacet
  facet normal 0 -1 0
    outer loop
      vertex 36 170 0
      vertex 36.8 170 0.0999994
      vertex 36 170 0.0999994
    endloop
  endfacet
  facet normal 0 -1 -0
    outer loop
      vertex 36.8 170 0.0999994
      vertex 36 170 0
      vertex 36.8 170 0
    endloop
  endfacet
  facet normal 0 1 -0
    outer loop
      vertex 36.8 180 0
      vertex 36 180 0.0999994
      vertex 36.8 180 0.0999994
    endloop
  endfacet
  facet normal 0 1 0
    outer loop
      vertex 36 180 0.0999994
      vertex 36.8 180 0
      vertex 36 180 0
    endloop
  endfacet
  facet normal -1 0 0
    outer loop
      vertex 37 170 0
      vertex 37 180 0.0999994
      vertex 37 180 0
    endloop
  endfacet
  facet normal -1 -0 0
    outer loop
      vertex 37 180 0.0999994
      vertex 37 170 0
      vertex 37 170 0.0999994
    endloop
  endfacet
  facet normal -0 0 1
    outer loop
      vertex 37 180 0.0999994
      vertex 37.8 170 0.0999994
      vertex 37.8 180 0.0999994
    endloop
  endfacet
  facet normal 0 0 1
    outer loop
      vertex 37.8 170 0.0999994
      vertex 37 180 0.0999994
      vertex 37 170 0.0999994
    endloop
  endfacet
  facet normal 1 -0 0
    outer loop
      vertex 37.8 170 0.0999994
      vertex 37.8 180 0
      vertex 37.8 180 0.0999994
    endloop
  endfacet
  facet normal 1 0 0
    outer loop
      vertex 37.8 180 0
      vertex 37.8 170 0.0999994
      vertex 37.8 170 0
    endloop
  endfacet
  facet normal 0 1 -0
    outer loop
      vertex 37.8 180 0
      vertex 37 180 0.0999994
      vertex 37.8 180 0.0999994
    endloop
  endfacet
  facet normal 0 1 0
    outer loop
      vertex 37 180 0.0999994
      vertex 37.8 180 0
      vertex 37 180 0
    endloop
  endfacet
  facet normal 0 0 -1
    outer loop
      vertex 37 170 0
      vertex 37.8 180 0
      vertex 37.8 170 0
    endloop
  endfacet
  facet normal -0 0 -1
    outer loop
      vertex 37.8 180 0
      vertex 37 170 0
      vertex 37 180 0
    endloop
  endfacet
  facet normal 0 -1 0
    outer loop
      vertex 37 170 0
      vertex 37.8 170 0.0999994
      vertex 37 170 0.0999994
    endloop
  endfacet
  facet normal 0 -1 -0
    outer loop
      vertex 37.8 170 0.0999994
      vertex 37 170 0
      vertex 37.8 170 0
    endloop
  endfacet
  facet normal -1 0 0
    outer loop
      vertex 38 170 0
      vertex 38 180 0.0999994
      vertex 38 180 0
    endloop
  endfacet
  facet normal -1 -0 0
    outer loop
      vertex 38 180 0.0999994
      vertex 38 170 0
      vertex 38 170 0.0999994
    endloop
  endfacet
  facet normal -0 0 1
    outer loop
      vertex 38 180 0.0999994
      vertex 38.8 170 0.0999994
      vertex 38.8 180 0.0999994
    endloop
  endfacet
  facet normal 0 0 1
    outer loop
      vertex 38.8 170 0.0999994
      vertex 38 180 0.0999994
      vertex 38 170 0.0999994
    endloop
  endfacet
  facet normal 1 -0 0
    outer loop
      vertex 38.8 170 0.0999994
      vertex 38.8 180 0
      vertex 38.8 180 0.0999994
    endloop
  endfacet
  facet normal 1 0 0
    outer loop
      vertex 38.8 180 0
      vertex 38.8 170 0.0999994
      vertex 38.8 170 0
    endloop
  endfacet
  facet normal 0 1 -0
    outer loop
      vertex 38.8 180 0
      vertex 38 180 0.0999994
      vertex 38.8 180 0.0999994
    endloop
  endfacet
  facet normal 0 1 0
    outer loop
      vertex 38 180 0.0999994
      vertex 38.8 180 0
      vertex 38 180 0
    endloop
  endfacet
  facet normal 0 0 -1
    outer loop
      vertex 38 170 0
      vertex 38.8 180 0
      vertex 38.8 170 0
    endloop
  endfacet
  facet normal -0 0 -1
    outer loop
      vertex 38.8 180 0
      vertex 38 170 0
      vertex 38 180 0
    endloop
  endfacet
  facet normal 0 -1 0
    outer loop
      vertex 38 170 0
      vertex 38.8 170 0.0999994
      vertex 38 170 0.0999994
    endloop
  endfacet
  facet normal 0 -1 -0
    outer loop
      vertex 38.8 170 0.0999994
      vertex 38 170 0
      vertex 38.8 170 0
    endloop
  endfacet
  facet normal -1 0 0
    outer loop
      vertex 39 170 0
      vertex 39 180 0.0999994
      vertex 39 180 0
    endloop
  endfacet
  facet normal -1 -0 0
    outer loop
      vertex 39 180 0.0999994
      vertex 39 170 0
      vertex 39 170 0.0999994
    endloop
  endfacet
  facet normal -0 0 1
    outer loop
      vertex 39 180 0.0999994
      vertex 39.8 170 0.0999994
      vertex 39.8 180 0.0999994
    endloop
  endfacet
  facet normal 0 0 1
    outer loop
      vertex 39.8 170 0.0999994
      vertex 39 180 0.0999994
      vertex 39 170 0.0999994
    endloop
  endfacet
  facet normal 1 -0 0
    outer loop
      vertex 39.8 170 0.0999994
      vertex 39.8 180 0
      vertex 39.8 180 0.0999994
    endloop
  endfacet
  facet normal 1 0 0
    outer loop
      vertex 39.8 180 0
      vertex 39.8 170 0.0999994
      vertex 39.8 170 0
    endloop
  endfacet
  facet normal 0 1 -0
    outer loop
      vertex 39.8 180 0
      vertex 39 180 0.0999994
      vertex 39.8 180 0.0999994
    endloop
  endfacet
  facet normal 0 1 0
    outer loop
      vertex 39 180 0.0999994
      vertex 39.8 180 0
      vertex 39 180 0
    endloop
  endfacet
  facet normal 0 0 -1
    outer loop
      vertex 39 170 0
      vertex 39.8 180 0
      vertex 39.8 170 0
    endloop
  endfacet
  facet normal -0 0 -1
    outer loop
      vertex 39.8 180 0
      vertex 39 170 0
      vertex 39 180 0
    endloop
  endfacet
  facet normal 0 -1 0
    outer loop
      vertex 39 170 0
      vertex 39.8 170 0.0999994
      vertex 39 170 0.0999994
    endloop
  endfacet
  facet normal 0 -1 -0
    outer loop
      vertex 39.8 170 0.0999994
      vertex 39 170 0
      vertex 39.8 170 0
    endloop
  endfacet
  facet normal -1 0 0
    outer loop
      vertex 40 170 0
      vertex 40 180 0.0999994
      vertex 40 180 0
    endloop
  endfacet
  facet normal -1 -0 0
    outer loop
      vertex 40 180 0.0999994
      vertex 40 170 0
      vertex 40 170 0.0999994
    endloop
  endfacet
  facet normal -0 0 1
    outer loop
      vertex 40 180 0.0999994
      vertex 40.8 170 0.0999994
      vertex 40.8 180 0.0999994
    endloop
  endfacet
  facet normal 0 0 1
    outer loop
      vertex 40.8 170 0.0999994
      vertex 40 180 0.0999994
      vertex 40 170 0.0999994
    endloop
  endfacet
  facet normal 1 -0 0
    outer loop
      vertex 40.8 170 0.0999994
      vertex 40.8 180 0
      vertex 40.8 180 0.0999994
    endloop
  endfacet
  facet normal 1 0 0
    outer loop
      vertex 40.8 180 0
      vertex 40.8 170 0.0999994
      vertex 40.8 170 0
    endloop
  endfacet
  facet normal 0 1 -0
    outer loop
      vertex 40.8 180 0
      vertex 40 180 0.0999994
      vertex 40.8 180 0.0999994
    endloop
  endfacet
  facet normal 0 1 0
    outer loop
      vertex 40 180 0.0999994
      vertex 40.8 180 0
      vertex 40 180 0
    endloop
  endfacet
  facet normal 0 0 -1
    outer loop
      vertex 40 170 0
      vertex 40.8 180 0
      vertex 40.8 170 0
    endloop
  endfacet
  facet normal -0 0 -1
    outer loop
      vertex 40.8 180 0
      vertex 40 170 0
      vertex 40 180 0
    endloop
  endfacet
  facet normal 0 -1 0
    outer loop
      vertex 40 170 0
      vertex 40.8 170 0.0999994
      vertex 40 170 0.0999994
    endloop
  endfacet
  facet normal 0 -1 -0
    outer loop
      vertex 40.8 170 0.0999994
      vertex 40 170 0
      vertex 40.8 170 0
    endloop
  endfacet
endsolid OpenSCAD_Model
