solid OpenSCAD_Model
  facet normal -1 0 0
    outer loop
      vertex 50 150 0
      vertex 50 160 0.0999994
      vertex 50 160 0
    endloop
  endfacet
  facet normal -1 -0 0
    outer loop
      vertex 50 160 0.0999994
      vertex 50 150 0
      vertex 50 150 0.0999994
    endloop
  endfacet
  facet normal -0 0 1
    outer loop
      vertex 50 160 0.0999994
      vertex 50.8 150 0.0999994
      vertex 50.8 160 0.0999994
    endloop
  endfacet
  facet normal 0 0 1
    outer loop
      vertex 50.8 150 0.0999994
      vertex 50 160 0.0999994
      vertex 50 150 0.0999994
    endloop
  endfacet
  facet normal 1 -0 0
    outer loop
      vertex 50.8 150 0.0999994
      vertex 50.8 160 0
      vertex 50.8 160 0.0999994
    endloop
  endfacet
  facet normal 1 0 0
    outer loop
      vertex 50.8 160 0
      vertex 50.8 150 0.0999994
      vertex 50.8 150 0
    endloop
  endfacet
  facet normal 0 1 -0
    outer loop
      vertex 50.8 160 0
      vertex 50 160 0.0999994
      vertex 50.8 160 0.0999994
    endloop
  endfacet
  facet normal 0 1 0
    outer loop
      vertex 50 160 0.0999994
      vertex 50.8 160 0
      vertex 50 160 0
    endloop
  endfacet
  facet normal 0 0 -1
    outer loop
      vertex 50 150 0
      vertex 50.8 160 0
      vertex 50.8 150 0
    endloop
  endfacet
  facet normal -0 0 -1
    outer loop
      vertex 50.8 160 0
      vertex 50 150 0
      vertex 50 160 0
    endloop
  endfacet
  facet normal 0 -1 0
    outer loop
      vertex 50 150 0
      vertex 50.8 150 0.0999994
      vertex 50 150 0.0999994
    endloop
  endfacet
  facet normal 0 -1 -0
    outer loop
      vertex 50.8 150 0.0999994
      vertex 50 150 0
      vertex 50.8 150 0
    endloop
  endfacet
  facet normal -1 0 0
    outer loop
      vertex 51 150 0
      vertex 51 160 0.0999994
      vertex 51 160 0
    endloop
  endfacet
  facet normal -1 -0 0
    outer loop
      vertex 51 160 0.0999994
      vertex 51 150 0
      vertex 51 150 0.0999994
    endloop
  endfacet
  facet normal -0 0 1
    outer loop
      vertex 51 160 0.0999994
      vertex 51.8 150 0.0999994
      vertex 51.8 160 0.0999994
    endloop
  endfacet
  facet normal 0 0 1
    outer loop
      vertex 51.8 150 0.0999994
      vertex 51 160 0.0999994
      vertex 51 150 0.0999994
    endloop
  endfacet
  facet normal 1 -0 0
    outer loop
      vertex 51.8 150 0.0999994
      vertex 51.8 160 0
      vertex 51.8 160 0.0999994
    endloop
  endfacet
  facet normal 1 0 0
    outer loop
      vertex 51.8 160 0
      vertex 51.8 150 0.0999994
      vertex 51.8 150 0
    endloop
  endfacet
  facet normal 0 1 -0
    outer loop
      vertex 51.8 160 0
      vertex 51 160 0.0999994
      vertex 51.8 160 0.0999994
    endloop
  endfacet
  facet normal 0 1 0
    outer loop
      vertex 51 160 0.0999994
      vertex 51.8 160 0
      vertex 51 160 0
    endloop
  endfacet
  facet normal 0 0 -1
    outer loop
      vertex 51 150 0
      vertex 51.8 160 0
      vertex 51.8 150 0
    endloop
  endfacet
  facet normal -0 0 -1
    outer loop
      vertex 51.8 160 0
      vertex 51 150 0
      vertex 51 160 0
    endloop
  endfacet
  facet normal 0 -1 0
    outer loop
      vertex 51 150 0
      vertex 51.8 150 0.0999994
      vertex 51 150 0.0999994
    endloop
  endfacet
  facet normal 0 -1 -0
    outer loop
      vertex 51.8 150 0.0999994
      vertex 51 150 0
      vertex 51.8 150 0
    endloop
  endfacet
  facet normal -1 0 0
    outer loop
      vertex 52 150 0
      vertex 52 160 0.0999994
      vertex 52 160 0
    endloop
  endfacet
  facet normal -1 -0 0
    outer loop
      vertex 52 160 0.0999994
      vertex 52 150 0
      vertex 52 150 0.0999994
    endloop
  endfacet
  facet normal -0 0 1
    outer loop
      vertex 52 160 0.0999994
      vertex 52.8 150 0.0999994
      vertex 52.8 160 0.0999994
    endloop
  endfacet
  facet normal 0 0 1
    outer loop
      vertex 52.8 150 0.0999994
      vertex 52 160 0.0999994
      vertex 52 150 0.0999994
    endloop
  endfacet
  facet normal 1 -0 0
    outer loop
      vertex 52.8 150 0.0999994
      vertex 52.8 160 0
      vertex 52.8 160 0.0999994
    endloop
  endfacet
  facet normal 1 0 0
    outer loop
      vertex 52.8 160 0
      vertex 52.8 150 0.0999994
      vertex 52.8 150 0
    endloop
  endfacet
  facet normal 0 0 -1
    outer loop
      vertex 52 150 0
      vertex 52.8 160 0
      vertex 52.8 150 0
    endloop
  endfacet
  facet normal -0 0 -1
    outer loop
      vertex 52.8 160 0
      vertex 52 150 0
      vertex 52 160 0
    endloop
  endfacet
  facet normal 0 -1 0
    outer loop
      vertex 52 150 0
      vertex 52.8 150 0.0999994
      vertex 52 150 0.0999994
    endloop
  endfacet
  facet normal 0 -1 -0
    outer loop
      vertex 52.8 150 0.0999994
      vertex 52 150 0
      vertex 52.8 150 0
    endloop
  endfacet
  facet normal 0 1 -0
    outer loop
      vertex 52.8 160 0
      vertex 52 160 0.0999994
      vertex 52.8 160 0.0999994
    endloop
  endfacet
  facet normal 0 1 0
    outer loop
      vertex 52 160 0.0999994
      vertex 52.8 160 0
      vertex 52 160 0
    endloop
  endfacet
  facet normal -1 0 0
    outer loop
      vertex 53 150 0
      vertex 53 160 0.0999994
      vertex 53 160 0
    endloop
  endfacet
  facet normal -1 -0 0
    outer loop
      vertex 53 160 0.0999994
      vertex 53 150 0
      vertex 53 150 0.0999994
    endloop
  endfacet
  facet normal -0 0 1
    outer loop
      vertex 53 160 0.0999994
      vertex 53.8 150 0.0999994
      vertex 53.8 160 0.0999994
    endloop
  endfacet
  facet normal 0 0 1
    outer loop
      vertex 53.8 150 0.0999994
      vertex 53 160 0.0999994
      vertex 53 150 0.0999994
    endloop
  endfacet
  facet normal 1 -0 0
    outer loop
      vertex 53.8 150 0.0999994
      vertex 53.8 160 0
      vertex 53.8 160 0.0999994
    endloop
  endfacet
  facet normal 1 0 0
    outer loop
      vertex 53.8 160 0
      vertex 53.8 150 0.0999994
      vertex 53.8 150 0
    endloop
  endfacet
  facet normal 0 0 -1
    outer loop
      vertex 53 150 0
      vertex 53.8 160 0
      vertex 53.8 150 0
    endloop
  endfacet
  facet normal -0 0 -1
    outer loop
      vertex 53.8 160 0
      vertex 53 150 0
      vertex 53 160 0
    endloop
  endfacet
  facet normal 0 -1 0
    outer loop
      vertex 53 150 0
      vertex 53.8 150 0.0999994
      vertex 53 150 0.0999994
    endloop
  endfacet
  facet normal 0 -1 -0
    outer loop
      vertex 53.8 150 0.0999994
      vertex 53 150 0
      vertex 53.8 150 0
    endloop
  endfacet
  facet normal 0 1 -0
    outer loop
      vertex 53.8 160 0
      vertex 53 160 0.0999994
      vertex 53.8 160 0.0999994
    endloop
  endfacet
  facet normal 0 1 0
    outer loop
      vertex 53 160 0.0999994
      vertex 53.8 160 0
      vertex 53 160 0
    endloop
  endfacet
  facet normal -1 0 0
    outer loop
      vertex 54 150 0
      vertex 54 160 0.0999994
      vertex 54 160 0
    endloop
  endfacet
  facet normal -1 -0 0
    outer loop
      vertex 54 160 0.0999994
      vertex 54 150 0
      vertex 54 150 0.0999994
    endloop
  endfacet
  facet normal -0 0 1
    outer loop
      vertex 54 160 0.0999994
      vertex 54.8 150 0.0999994
      vertex 54.8 160 0.0999994
    endloop
  endfacet
  facet normal 0 0 1
    outer loop
      vertex 54.8 150 0.0999994
      vertex 54 160 0.0999994
      vertex 54 150 0.0999994
    endloop
  endfacet
  facet normal 1 -0 0
    outer loop
      vertex 54.8 150 0.0999994
      vertex 54.8 160 0
      vertex 54.8 160 0.0999994
    endloop
  endfacet
  facet normal 1 0 0
    outer loop
      vertex 54.8 160 0
      vertex 54.8 150 0.0999994
      vertex 54.8 150 0
    endloop
  endfacet
  facet normal 0 1 -0
    outer loop
      vertex 54.8 160 0
      vertex 54 160 0.0999994
      vertex 54.8 160 0.0999994
    endloop
  endfacet
  facet normal 0 1 0
    outer loop
      vertex 54 160 0.0999994
      vertex 54.8 160 0
      vertex 54 160 0
    endloop
  endfacet
  facet normal 0 0 -1
    outer loop
      vertex 54 150 0
      vertex 54.8 160 0
      vertex 54.8 150 0
    endloop
  endfacet
  facet normal -0 0 -1
    outer loop
      vertex 54.8 160 0
      vertex 54 150 0
      vertex 54 160 0
    endloop
  endfacet
  facet normal 0 -1 0
    outer loop
      vertex 54 150 0
      vertex 54.8 150 0.0999994
      vertex 54 150 0.0999994
    endloop
  endfacet
  facet normal 0 -1 -0
    outer loop
      vertex 54.8 150 0.0999994
      vertex 54 150 0
      vertex 54.8 150 0
    endloop
  endfacet
  facet normal -1 0 0
    outer loop
      vertex 55 150 0
      vertex 55 160 0.0999994
      vertex 55 160 0
    endloop
  endfacet
  facet normal -1 -0 0
    outer loop
      vertex 55 160 0.0999994
      vertex 55 150 0
      vertex 55 150 0.0999994
    endloop
  endfacet
  facet normal -0 0 1
    outer loop
      vertex 55 160 0.0999994
      vertex 55.8 150 0.0999994
      vertex 55.8 160 0.0999994
    endloop
  endfacet
  facet normal 0 0 1
    outer loop
      vertex 55.8 150 0.0999994
      vertex 55 160 0.0999994
      vertex 55 150 0.0999994
    endloop
  endfacet
  facet normal 1 -0 0
    outer loop
      vertex 55.8 150 0.0999994
      vertex 55.8 160 0
      vertex 55.8 160 0.0999994
    endloop
  endfacet
  facet normal 1 0 0
    outer loop
      vertex 55.8 160 0
      vertex 55.8 150 0.0999994
      vertex 55.8 150 0
    endloop
  endfacet
  facet normal 0 1 -0
    outer loop
      vertex 55.8 160 0
      vertex 55 160 0.0999994
      vertex 55.8 160 0.0999994
    endloop
  endfacet
  facet normal 0 1 0
    outer loop
      vertex 55 160 0.0999994
      vertex 55.8 160 0
      vertex 55 160 0
    endloop
  endfacet
  facet normal 0 0 -1
    outer loop
      vertex 55 150 0
      vertex 55.8 160 0
      vertex 55.8 150 0
    endloop
  endfacet
  facet normal -0 0 -1
    outer loop
      vertex 55.8 160 0
      vertex 55 150 0
      vertex 55 160 0
    endloop
  endfacet
  facet normal 0 -1 0
    outer loop
      vertex 55 150 0
      vertex 55.8 150 0.0999994
      vertex 55 150 0.0999994
    endloop
  endfacet
  facet normal 0 -1 -0
    outer loop
      vertex 55.8 150 0.0999994
      vertex 55 150 0
      vertex 55.8 150 0
    endloop
  endfacet
  facet normal -1 0 0
    outer loop
      vertex 56 150 0
      vertex 56 160 0.0999994
      vertex 56 160 0
    endloop
  endfacet
  facet normal -1 -0 0
    outer loop
      vertex 56 160 0.0999994
      vertex 56 150 0
      vertex 56 150 0.0999994
    endloop
  endfacet
  facet normal -0 0 1
    outer loop
      vertex 56 160 0.0999994
      vertex 56.8 150 0.0999994
      vertex 56.8 160 0.0999994
    endloop
  endfacet
  facet normal 0 0 1
    outer loop
      vertex 56.8 150 0.0999994
      vertex 56 160 0.0999994
      vertex 56 150 0.0999994
    endloop
  endfacet
  facet normal 1 -0 0
    outer loop
      vertex 56.8 150 0.0999994
      vertex 56.8 160 0
      vertex 56.8 160 0.0999994
    endloop
  endfacet
  facet normal 1 0 0
    outer loop
      vertex 56.8 160 0
      vertex 56.8 150 0.0999994
      vertex 56.8 150 0
    endloop
  endfacet
  facet normal 0 1 -0
    outer loop
      vertex 56.8 160 0
      vertex 56 160 0.0999994
      vertex 56.8 160 0.0999994
    endloop
  endfacet
  facet normal 0 1 0
    outer loop
      vertex 56 160 0.0999994
      vertex 56.8 160 0
      vertex 56 160 0
    endloop
  endfacet
  facet normal 0 0 -1
    outer loop
      vertex 56 150 0
      vertex 56.8 160 0
      vertex 56.8 150 0
    endloop
  endfacet
  facet normal -0 0 -1
    outer loop
      vertex 56.8 160 0
      vertex 56 150 0
      vertex 56 160 0
    endloop
  endfacet
  facet normal 0 -1 0
    outer loop
      vertex 56 150 0
      vertex 56.8 150 0.0999994
      vertex 56 150 0.0999994
    endloop
  endfacet
  facet normal 0 -1 -0
    outer loop
      vertex 56.8 150 0.0999994
      vertex 56 150 0
      vertex 56.8 150 0
    endloop
  endfacet
  facet normal -1 0 0
    outer loop
      vertex 57 150 0
      vertex 57 160 0.0999994
      vertex 57 160 0
    endloop
  endfacet
  facet normal -1 -0 0
    outer loop
      vertex 57 160 0.0999994
      vertex 57 150 0
      vertex 57 150 0.0999994
    endloop
  endfacet
  facet normal -0 0 1
    outer loop
      vertex 57 160 0.0999994
      vertex 57.8 150 0.0999994
      vertex 57.8 160 0.0999994
    endloop
  endfacet
  facet normal 0 0 1
    outer loop
      vertex 57.8 150 0.0999994
      vertex 57 160 0.0999994
      vertex 57 150 0.0999994
    endloop
  endfacet
  facet normal 1 -0 0
    outer loop
      vertex 57.8 150 0.0999994
      vertex 57.8 160 0
      vertex 57.8 160 0.0999994
    endloop
  endfacet
  facet normal 1 0 0
    outer loop
      vertex 57.8 160 0
      vertex 57.8 150 0.0999994
      vertex 57.8 150 0
    endloop
  endfacet
  facet normal 0 1 -0
    outer loop
      vertex 57.8 160 0
      vertex 57 160 0.0999994
      vertex 57.8 160 0.0999994
    endloop
  endfacet
  facet normal 0 1 0
    outer loop
      vertex 57 160 0.0999994
      vertex 57.8 160 0
      vertex 57 160 0
    endloop
  endfacet
  facet normal 0 0 -1
    outer loop
      vertex 57 150 0
      vertex 57.8 160 0
      vertex 57.8 150 0
    endloop
  endfacet
  facet normal -0 0 -1
    outer loop
      vertex 57.8 160 0
      vertex 57 150 0
      vertex 57 160 0
    endloop
  endfacet
  facet normal 0 -1 0
    outer loop
      vertex 57 150 0
      vertex 57.8 150 0.0999994
      vertex 57 150 0.0999994
    endloop
  endfacet
  facet normal 0 -1 -0
    outer loop
      vertex 57.8 150 0.0999994
      vertex 57 150 0
      vertex 57.8 150 0
    endloop
  endfacet
  facet normal -1 0 0
    outer loop
      vertex 58 150 0
      vertex 58 160 0.0999994
      vertex 58 160 0
    endloop
  endfacet
  facet normal -1 -0 0
    outer loop
      vertex 58 160 0.0999994
      vertex 58 150 0
      vertex 58 150 0.0999994
    endloop
  endfacet
  facet normal -0 0 1
    outer loop
      vertex 58 160 0.0999994
      vertex 58.8 150 0.0999994
      vertex 58.8 160 0.0999994
    endloop
  endfacet
  facet normal 0 0 1
    outer loop
      vertex 58.8 150 0.0999994
      vertex 58 160 0.0999994
      vertex 58 150 0.0999994
    endloop
  endfacet
  facet normal 1 -0 0
    outer loop
      vertex 58.8 150 0.0999994
      vertex 58.8 160 0
      vertex 58.8 160 0.0999994
    endloop
  endfacet
  facet normal 1 0 0
    outer loop
      vertex 58.8 160 0
      vertex 58.8 150 0.0999994
      vertex 58.8 150 0
    endloop
  endfacet
  facet normal 0 0 -1
    outer loop
      vertex 58 150 0
      vertex 58.8 160 0
      vertex 58.8 150 0
    endloop
  endfacet
  facet normal -0 0 -1
    outer loop
      vertex 58.8 160 0
      vertex 58 150 0
      vertex 58 160 0
    endloop
  endfacet
  facet normal 0 -1 0
    outer loop
      vertex 58 150 0
      vertex 58.8 150 0.0999994
      vertex 58 150 0.0999994
    endloop
  endfacet
  facet normal 0 -1 -0
    outer loop
      vertex 58.8 150 0.0999994
      vertex 58 150 0
      vertex 58.8 150 0
    endloop
  endfacet
  facet normal 0 1 -0
    outer loop
      vertex 58.8 160 0
      vertex 58 160 0.0999994
      vertex 58.8 160 0.0999994
    endloop
  endfacet
  facet normal 0 1 0
    outer loop
      vertex 58 160 0.0999994
      vertex 58.8 160 0
      vertex 58 160 0
    endloop
  endfacet
  facet normal -1 0 0
    outer loop
      vertex 59 150 0
      vertex 59 160 0.0999994
      vertex 59 160 0
    endloop
  endfacet
  facet normal -1 -0 0
    outer loop
      vertex 59 160 0.0999994
      vertex 59 150 0
      vertex 59 150 0.0999994
    endloop
  endfacet
  facet normal -0 0 1
    outer loop
      vertex 59 160 0.0999994
      vertex 59.8 150 0.0999994
      vertex 59.8 160 0.0999994
    endloop
  endfacet
  facet normal 0 0 1
    outer loop
      vertex 59.8 150 0.0999994
      vertex 59 160 0.0999994
      vertex 59 150 0.0999994
    endloop
  endfacet
  facet normal 1 -0 0
    outer loop
      vertex 59.8 150 0.0999994
      vertex 59.8 160 0
      vertex 59.8 160 0.0999994
    endloop
  endfacet
  facet normal 1 0 0
    outer loop
      vertex 59.8 160 0
      vertex 59.8 150 0.0999994
      vertex 59.8 150 0
    endloop
  endfacet
  facet normal 0 1 -0
    outer loop
      vertex 59.8 160 0
      vertex 59 160 0.0999994
      vertex 59.8 160 0.0999994
    endloop
  endfacet
  facet normal 0 1 0
    outer loop
      vertex 59 160 0.0999994
      vertex 59.8 160 0
      vertex 59 160 0
    endloop
  endfacet
  facet normal 0 0 -1
    outer loop
      vertex 59 150 0
      vertex 59.8 160 0
      vertex 59.8 150 0
    endloop
  endfacet
  facet normal -0 0 -1
    outer loop
      vertex 59.8 160 0
      vertex 59 150 0
      vertex 59 160 0
    endloop
  endfacet
  facet normal 0 -1 0
    outer loop
      vertex 59 150 0
      vertex 59.8 150 0.0999994
      vertex 59 150 0.0999994
    endloop
  endfacet
  facet normal 0 -1 -0
    outer loop
      vertex 59.8 150 0.0999994
      vertex 59 150 0
      vertex 59.8 150 0
    endloop
  endfacet
  facet normal -1 0 0
    outer loop
      vertex 60 150 0
      vertex 60 160 0.0999994
      vertex 60 160 0
    endloop
  endfacet
  facet normal -1 -0 0
    outer loop
      vertex 60 160 0.0999994
      vertex 60 150 0
      vertex 60 150 0.0999994
    endloop
  endfacet
  facet normal -0 0 1
    outer loop
      vertex 60 160 0.0999994
      vertex 60.8 150 0.0999994
      vertex 60.8 160 0.0999994
    endloop
  endfacet
  facet normal 0 0 1
    outer loop
      vertex 60.8 150 0.0999994
      vertex 60 160 0.0999994
      vertex 60 150 0.0999994
    endloop
  endfacet
  facet normal 1 -0 0
    outer loop
      vertex 60.8 150 0.0999994
      vertex 60.8 160 0
      vertex 60.8 160 0.0999994
    endloop
  endfacet
  facet normal 1 0 0
    outer loop
      vertex 60.8 160 0
      vertex 60.8 150 0.0999994
      vertex 60.8 150 0
    endloop
  endfacet
  facet normal 0 1 -0
    outer loop
      vertex 60.8 160 0
      vertex 60 160 0.0999994
      vertex 60.8 160 0.0999994
    endloop
  endfacet
  facet normal 0 1 0
    outer loop
      vertex 60 160 0.0999994
      vertex 60.8 160 0
      vertex 60 160 0
    endloop
  endfacet
  facet normal 0 0 -1
    outer loop
      vertex 60 150 0
      vertex 60.8 160 0
      vertex 60.8 150 0
    endloop
  endfacet
  facet normal -0 0 -1
    outer loop
      vertex 60.8 160 0
      vertex 60 150 0
      vertex 60 160 0
    endloop
  endfacet
  facet normal 0 -1 0
    outer loop
      vertex 60 150 0
      vertex 60.8 150 0.0999994
      vertex 60 150 0.0999994
    endloop
  endfacet
  facet normal 0 -1 -0
    outer loop
      vertex 60.8 150 0.0999994
      vertex 60 150 0
      vertex 60.8 150 0
    endloop
  endfacet
endsolid OpenSCAD_Model
