solid OpenSCAD_Model
  facet normal -1 0 0
    outer loop
      vertex 50 110 0
      vertex 50 120 0.0999994
      vertex 50 120 0
    endloop
  endfacet
  facet normal -1 -0 0
    outer loop
      vertex 50 120 0.0999994
      vertex 50 110 0
      vertex 50 110 0.0999994
    endloop
  endfacet
  facet normal -0 0 1
    outer loop
      vertex 50 120 0.0999994
      vertex 50.8 110 0.0999994
      vertex 50.8 120 0.0999994
    endloop
  endfacet
  facet normal 0 0 1
    outer loop
      vertex 50.8 110 0.0999994
      vertex 50 120 0.0999994
      vertex 50 110 0.0999994
    endloop
  endfacet
  facet normal 1 -0 0
    outer loop
      vertex 50.8 110 0.0999994
      vertex 50.8 120 0
      vertex 50.8 120 0.0999994
    endloop
  endfacet
  facet normal 1 0 0
    outer loop
      vertex 50.8 120 0
      vertex 50.8 110 0.0999994
      vertex 50.8 110 0
    endloop
  endfacet
  facet normal 0 1 -0
    outer loop
      vertex 50.8 120 0
      vertex 50 120 0.0999994
      vertex 50.8 120 0.0999994
    endloop
  endfacet
  facet normal 0 1 0
    outer loop
      vertex 50 120 0.0999994
      vertex 50.8 120 0
      vertex 50 120 0
    endloop
  endfacet
  facet normal 0 0 -1
    outer loop
      vertex 50 110 0
      vertex 50.8 120 0
      vertex 50.8 110 0
    endloop
  endfacet
  facet normal -0 0 -1
    outer loop
      vertex 50.8 120 0
      vertex 50 110 0
      vertex 50 120 0
    endloop
  endfacet
  facet normal 0 -1 0
    outer loop
      vertex 50 110 0
      vertex 50.8 110 0.0999994
      vertex 50 110 0.0999994
    endloop
  endfacet
  facet normal 0 -1 -0
    outer loop
      vertex 50.8 110 0.0999994
      vertex 50 110 0
      vertex 50.8 110 0
    endloop
  endfacet
  facet normal -1 0 0
    outer loop
      vertex 51 110 0
      vertex 51 120 0.0999994
      vertex 51 120 0
    endloop
  endfacet
  facet normal -1 -0 0
    outer loop
      vertex 51 120 0.0999994
      vertex 51 110 0
      vertex 51 110 0.0999994
    endloop
  endfacet
  facet normal -0 0 1
    outer loop
      vertex 51 120 0.0999994
      vertex 51.8 110 0.0999994
      vertex 51.8 120 0.0999994
    endloop
  endfacet
  facet normal 0 0 1
    outer loop
      vertex 51.8 110 0.0999994
      vertex 51 120 0.0999994
      vertex 51 110 0.0999994
    endloop
  endfacet
  facet normal 1 -0 0
    outer loop
      vertex 51.8 110 0.0999994
      vertex 51.8 120 0
      vertex 51.8 120 0.0999994
    endloop
  endfacet
  facet normal 1 0 0
    outer loop
      vertex 51.8 120 0
      vertex 51.8 110 0.0999994
      vertex 51.8 110 0
    endloop
  endfacet
  facet normal 0 1 -0
    outer loop
      vertex 51.8 120 0
      vertex 51 120 0.0999994
      vertex 51.8 120 0.0999994
    endloop
  endfacet
  facet normal 0 1 0
    outer loop
      vertex 51 120 0.0999994
      vertex 51.8 120 0
      vertex 51 120 0
    endloop
  endfacet
  facet normal 0 0 -1
    outer loop
      vertex 51 110 0
      vertex 51.8 120 0
      vertex 51.8 110 0
    endloop
  endfacet
  facet normal -0 0 -1
    outer loop
      vertex 51.8 120 0
      vertex 51 110 0
      vertex 51 120 0
    endloop
  endfacet
  facet normal 0 -1 0
    outer loop
      vertex 51 110 0
      vertex 51.8 110 0.0999994
      vertex 51 110 0.0999994
    endloop
  endfacet
  facet normal 0 -1 -0
    outer loop
      vertex 51.8 110 0.0999994
      vertex 51 110 0
      vertex 51.8 110 0
    endloop
  endfacet
  facet normal -1 0 0
    outer loop
      vertex 52 110 0
      vertex 52 120 0.0999994
      vertex 52 120 0
    endloop
  endfacet
  facet normal -1 -0 0
    outer loop
      vertex 52 120 0.0999994
      vertex 52 110 0
      vertex 52 110 0.0999994
    endloop
  endfacet
  facet normal -0 0 1
    outer loop
      vertex 52 120 0.0999994
      vertex 52.8 110 0.0999994
      vertex 52.8 120 0.0999994
    endloop
  endfacet
  facet normal 0 0 1
    outer loop
      vertex 52.8 110 0.0999994
      vertex 52 120 0.0999994
      vertex 52 110 0.0999994
    endloop
  endfacet
  facet normal 1 -0 0
    outer loop
      vertex 52.8 110 0.0999994
      vertex 52.8 120 0
      vertex 52.8 120 0.0999994
    endloop
  endfacet
  facet normal 1 0 0
    outer loop
      vertex 52.8 120 0
      vertex 52.8 110 0.0999994
      vertex 52.8 110 0
    endloop
  endfacet
  facet normal 0 0 -1
    outer loop
      vertex 52 110 0
      vertex 52.8 120 0
      vertex 52.8 110 0
    endloop
  endfacet
  facet normal -0 0 -1
    outer loop
      vertex 52.8 120 0
      vertex 52 110 0
      vertex 52 120 0
    endloop
  endfacet
  facet normal 0 -1 0
    outer loop
      vertex 52 110 0
      vertex 52.8 110 0.0999994
      vertex 52 110 0.0999994
    endloop
  endfacet
  facet normal 0 -1 -0
    outer loop
      vertex 52.8 110 0.0999994
      vertex 52 110 0
      vertex 52.8 110 0
    endloop
  endfacet
  facet normal 0 1 -0
    outer loop
      vertex 52.8 120 0
      vertex 52 120 0.0999994
      vertex 52.8 120 0.0999994
    endloop
  endfacet
  facet normal 0 1 0
    outer loop
      vertex 52 120 0.0999994
      vertex 52.8 120 0
      vertex 52 120 0
    endloop
  endfacet
  facet normal -1 0 0
    outer loop
      vertex 53 110 0
      vertex 53 120 0.0999994
      vertex 53 120 0
    endloop
  endfacet
  facet normal -1 -0 0
    outer loop
      vertex 53 120 0.0999994
      vertex 53 110 0
      vertex 53 110 0.0999994
    endloop
  endfacet
  facet normal -0 0 1
    outer loop
      vertex 53 120 0.0999994
      vertex 53.8 110 0.0999994
      vertex 53.8 120 0.0999994
    endloop
  endfacet
  facet normal 0 0 1
    outer loop
      vertex 53.8 110 0.0999994
      vertex 53 120 0.0999994
      vertex 53 110 0.0999994
    endloop
  endfacet
  facet normal 1 -0 0
    outer loop
      vertex 53.8 110 0.0999994
      vertex 53.8 120 0
      vertex 53.8 120 0.0999994
    endloop
  endfacet
  facet normal 1 0 0
    outer loop
      vertex 53.8 120 0
      vertex 53.8 110 0.0999994
      vertex 53.8 110 0
    endloop
  endfacet
  facet normal 0 1 -0
    outer loop
      vertex 53.8 120 0
      vertex 53 120 0.0999994
      vertex 53.8 120 0.0999994
    endloop
  endfacet
  facet normal 0 1 0
    outer loop
      vertex 53 120 0.0999994
      vertex 53.8 120 0
      vertex 53 120 0
    endloop
  endfacet
  facet normal 0 0 -1
    outer loop
      vertex 53 110 0
      vertex 53.8 120 0
      vertex 53.8 110 0
    endloop
  endfacet
  facet normal -0 0 -1
    outer loop
      vertex 53.8 120 0
      vertex 53 110 0
      vertex 53 120 0
    endloop
  endfacet
  facet normal 0 -1 0
    outer loop
      vertex 53 110 0
      vertex 53.8 110 0.0999994
      vertex 53 110 0.0999994
    endloop
  endfacet
  facet normal 0 -1 -0
    outer loop
      vertex 53.8 110 0.0999994
      vertex 53 110 0
      vertex 53.8 110 0
    endloop
  endfacet
  facet normal -1 0 0
    outer loop
      vertex 54 110 0
      vertex 54 120 0.0999994
      vertex 54 120 0
    endloop
  endfacet
  facet normal -1 -0 0
    outer loop
      vertex 54 120 0.0999994
      vertex 54 110 0
      vertex 54 110 0.0999994
    endloop
  endfacet
  facet normal -0 0 1
    outer loop
      vertex 54 120 0.0999994
      vertex 54.8 110 0.0999994
      vertex 54.8 120 0.0999994
    endloop
  endfacet
  facet normal 0 0 1
    outer loop
      vertex 54.8 110 0.0999994
      vertex 54 120 0.0999994
      vertex 54 110 0.0999994
    endloop
  endfacet
  facet normal 1 -0 0
    outer loop
      vertex 54.8 110 0.0999994
      vertex 54.8 120 0
      vertex 54.8 120 0.0999994
    endloop
  endfacet
  facet normal 1 0 0
    outer loop
      vertex 54.8 120 0
      vertex 54.8 110 0.0999994
      vertex 54.8 110 0
    endloop
  endfacet
  facet normal 0 1 -0
    outer loop
      vertex 54.8 120 0
      vertex 54 120 0.0999994
      vertex 54.8 120 0.0999994
    endloop
  endfacet
  facet normal 0 1 0
    outer loop
      vertex 54 120 0.0999994
      vertex 54.8 120 0
      vertex 54 120 0
    endloop
  endfacet
  facet normal 0 0 -1
    outer loop
      vertex 54 110 0
      vertex 54.8 120 0
      vertex 54.8 110 0
    endloop
  endfacet
  facet normal -0 0 -1
    outer loop
      vertex 54.8 120 0
      vertex 54 110 0
      vertex 54 120 0
    endloop
  endfacet
  facet normal 0 -1 0
    outer loop
      vertex 54 110 0
      vertex 54.8 110 0.0999994
      vertex 54 110 0.0999994
    endloop
  endfacet
  facet normal 0 -1 -0
    outer loop
      vertex 54.8 110 0.0999994
      vertex 54 110 0
      vertex 54.8 110 0
    endloop
  endfacet
  facet normal -1 0 0
    outer loop
      vertex 55 110 0
      vertex 55 120 0.0999994
      vertex 55 120 0
    endloop
  endfacet
  facet normal -1 -0 0
    outer loop
      vertex 55 120 0.0999994
      vertex 55 110 0
      vertex 55 110 0.0999994
    endloop
  endfacet
  facet normal -0 0 1
    outer loop
      vertex 55 120 0.0999994
      vertex 55.8 110 0.0999994
      vertex 55.8 120 0.0999994
    endloop
  endfacet
  facet normal 0 0 1
    outer loop
      vertex 55.8 110 0.0999994
      vertex 55 120 0.0999994
      vertex 55 110 0.0999994
    endloop
  endfacet
  facet normal 1 -0 0
    outer loop
      vertex 55.8 110 0.0999994
      vertex 55.8 120 0
      vertex 55.8 120 0.0999994
    endloop
  endfacet
  facet normal 1 0 0
    outer loop
      vertex 55.8 120 0
      vertex 55.8 110 0.0999994
      vertex 55.8 110 0
    endloop
  endfacet
  facet normal 0 0 -1
    outer loop
      vertex 55 110 0
      vertex 55.8 120 0
      vertex 55.8 110 0
    endloop
  endfacet
  facet normal -0 0 -1
    outer loop
      vertex 55.8 120 0
      vertex 55 110 0
      vertex 55 120 0
    endloop
  endfacet
  facet normal 0 -1 0
    outer loop
      vertex 55 110 0
      vertex 55.8 110 0.0999994
      vertex 55 110 0.0999994
    endloop
  endfacet
  facet normal 0 -1 -0
    outer loop
      vertex 55.8 110 0.0999994
      vertex 55 110 0
      vertex 55.8 110 0
    endloop
  endfacet
  facet normal 0 1 -0
    outer loop
      vertex 55.8 120 0
      vertex 55 120 0.0999994
      vertex 55.8 120 0.0999994
    endloop
  endfacet
  facet normal 0 1 0
    outer loop
      vertex 55 120 0.0999994
      vertex 55.8 120 0
      vertex 55 120 0
    endloop
  endfacet
  facet normal -1 0 0
    outer loop
      vertex 56 110 0
      vertex 56 120 0.0999994
      vertex 56 120 0
    endloop
  endfacet
  facet normal -1 -0 0
    outer loop
      vertex 56 120 0.0999994
      vertex 56 110 0
      vertex 56 110 0.0999994
    endloop
  endfacet
  facet normal -0 0 1
    outer loop
      vertex 56 120 0.0999994
      vertex 56.8 110 0.0999994
      vertex 56.8 120 0.0999994
    endloop
  endfacet
  facet normal 0 0 1
    outer loop
      vertex 56.8 110 0.0999994
      vertex 56 120 0.0999994
      vertex 56 110 0.0999994
    endloop
  endfacet
  facet normal 1 -0 0
    outer loop
      vertex 56.8 110 0.0999994
      vertex 56.8 120 0
      vertex 56.8 120 0.0999994
    endloop
  endfacet
  facet normal 1 0 0
    outer loop
      vertex 56.8 120 0
      vertex 56.8 110 0.0999994
      vertex 56.8 110 0
    endloop
  endfacet
  facet normal 0 0 -1
    outer loop
      vertex 56 110 0
      vertex 56.8 120 0
      vertex 56.8 110 0
    endloop
  endfacet
  facet normal -0 0 -1
    outer loop
      vertex 56.8 120 0
      vertex 56 110 0
      vertex 56 120 0
    endloop
  endfacet
  facet normal 0 -1 0
    outer loop
      vertex 56 110 0
      vertex 56.8 110 0.0999994
      vertex 56 110 0.0999994
    endloop
  endfacet
  facet normal 0 -1 -0
    outer loop
      vertex 56.8 110 0.0999994
      vertex 56 110 0
      vertex 56.8 110 0
    endloop
  endfacet
  facet normal 0 1 -0
    outer loop
      vertex 56.8 120 0
      vertex 56 120 0.0999994
      vertex 56.8 120 0.0999994
    endloop
  endfacet
  facet normal 0 1 0
    outer loop
      vertex 56 120 0.0999994
      vertex 56.8 120 0
      vertex 56 120 0
    endloop
  endfacet
  facet normal -1 0 0
    outer loop
      vertex 57 110 0
      vertex 57 120 0.0999994
      vertex 57 120 0
    endloop
  endfacet
  facet normal -1 -0 0
    outer loop
      vertex 57 120 0.0999994
      vertex 57 110 0
      vertex 57 110 0.0999994
    endloop
  endfacet
  facet normal -0 0 1
    outer loop
      vertex 57 120 0.0999994
      vertex 57.8 110 0.0999994
      vertex 57.8 120 0.0999994
    endloop
  endfacet
  facet normal 0 0 1
    outer loop
      vertex 57.8 110 0.0999994
      vertex 57 120 0.0999994
      vertex 57 110 0.0999994
    endloop
  endfacet
  facet normal 1 -0 0
    outer loop
      vertex 57.8 110 0.0999994
      vertex 57.8 120 0
      vertex 57.8 120 0.0999994
    endloop
  endfacet
  facet normal 1 0 0
    outer loop
      vertex 57.8 120 0
      vertex 57.8 110 0.0999994
      vertex 57.8 110 0
    endloop
  endfacet
  facet normal 0 1 -0
    outer loop
      vertex 57.8 120 0
      vertex 57 120 0.0999994
      vertex 57.8 120 0.0999994
    endloop
  endfacet
  facet normal 0 1 0
    outer loop
      vertex 57 120 0.0999994
      vertex 57.8 120 0
      vertex 57 120 0
    endloop
  endfacet
  facet normal 0 0 -1
    outer loop
      vertex 57 110 0
      vertex 57.8 120 0
      vertex 57.8 110 0
    endloop
  endfacet
  facet normal -0 0 -1
    outer loop
      vertex 57.8 120 0
      vertex 57 110 0
      vertex 57 120 0
    endloop
  endfacet
  facet normal 0 -1 0
    outer loop
      vertex 57 110 0
      vertex 57.8 110 0.0999994
      vertex 57 110 0.0999994
    endloop
  endfacet
  facet normal 0 -1 -0
    outer loop
      vertex 57.8 110 0.0999994
      vertex 57 110 0
      vertex 57.8 110 0
    endloop
  endfacet
  facet normal -1 0 0
    outer loop
      vertex 58 110 0
      vertex 58 120 0.0999994
      vertex 58 120 0
    endloop
  endfacet
  facet normal -1 -0 0
    outer loop
      vertex 58 120 0.0999994
      vertex 58 110 0
      vertex 58 110 0.0999994
    endloop
  endfacet
  facet normal -0 0 1
    outer loop
      vertex 58 120 0.0999994
      vertex 58.8 110 0.0999994
      vertex 58.8 120 0.0999994
    endloop
  endfacet
  facet normal 0 0 1
    outer loop
      vertex 58.8 110 0.0999994
      vertex 58 120 0.0999994
      vertex 58 110 0.0999994
    endloop
  endfacet
  facet normal 1 -0 0
    outer loop
      vertex 58.8 110 0.0999994
      vertex 58.8 120 0
      vertex 58.8 120 0.0999994
    endloop
  endfacet
  facet normal 1 0 0
    outer loop
      vertex 58.8 120 0
      vertex 58.8 110 0.0999994
      vertex 58.8 110 0
    endloop
  endfacet
  facet normal 0 0 -1
    outer loop
      vertex 58 110 0
      vertex 58.8 120 0
      vertex 58.8 110 0
    endloop
  endfacet
  facet normal -0 0 -1
    outer loop
      vertex 58.8 120 0
      vertex 58 110 0
      vertex 58 120 0
    endloop
  endfacet
  facet normal 0 -1 0
    outer loop
      vertex 58 110 0
      vertex 58.8 110 0.0999994
      vertex 58 110 0.0999994
    endloop
  endfacet
  facet normal 0 -1 -0
    outer loop
      vertex 58.8 110 0.0999994
      vertex 58 110 0
      vertex 58.8 110 0
    endloop
  endfacet
  facet normal 0 1 -0
    outer loop
      vertex 58.8 120 0
      vertex 58 120 0.0999994
      vertex 58.8 120 0.0999994
    endloop
  endfacet
  facet normal 0 1 0
    outer loop
      vertex 58 120 0.0999994
      vertex 58.8 120 0
      vertex 58 120 0
    endloop
  endfacet
  facet normal -1 0 0
    outer loop
      vertex 59 110 0
      vertex 59 120 0.0999994
      vertex 59 120 0
    endloop
  endfacet
  facet normal -1 -0 0
    outer loop
      vertex 59 120 0.0999994
      vertex 59 110 0
      vertex 59 110 0.0999994
    endloop
  endfacet
  facet normal -0 0 1
    outer loop
      vertex 59 120 0.0999994
      vertex 59.8 110 0.0999994
      vertex 59.8 120 0.0999994
    endloop
  endfacet
  facet normal 0 0 1
    outer loop
      vertex 59.8 110 0.0999994
      vertex 59 120 0.0999994
      vertex 59 110 0.0999994
    endloop
  endfacet
  facet normal 1 -0 0
    outer loop
      vertex 59.8 110 0.0999994
      vertex 59.8 120 0
      vertex 59.8 120 0.0999994
    endloop
  endfacet
  facet normal 1 0 0
    outer loop
      vertex 59.8 120 0
      vertex 59.8 110 0.0999994
      vertex 59.8 110 0
    endloop
  endfacet
  facet normal 0 0 -1
    outer loop
      vertex 59 110 0
      vertex 59.8 120 0
      vertex 59.8 110 0
    endloop
  endfacet
  facet normal -0 0 -1
    outer loop
      vertex 59.8 120 0
      vertex 59 110 0
      vertex 59 120 0
    endloop
  endfacet
  facet normal 0 -1 0
    outer loop
      vertex 59 110 0
      vertex 59.8 110 0.0999994
      vertex 59 110 0.0999994
    endloop
  endfacet
  facet normal 0 -1 -0
    outer loop
      vertex 59.8 110 0.0999994
      vertex 59 110 0
      vertex 59.8 110 0
    endloop
  endfacet
  facet normal 0 1 -0
    outer loop
      vertex 59.8 120 0
      vertex 59 120 0.0999994
      vertex 59.8 120 0.0999994
    endloop
  endfacet
  facet normal 0 1 0
    outer loop
      vertex 59 120 0.0999994
      vertex 59.8 120 0
      vertex 59 120 0
    endloop
  endfacet
  facet normal -1 0 0
    outer loop
      vertex 60 110 0
      vertex 60 120 0.0999994
      vertex 60 120 0
    endloop
  endfacet
  facet normal -1 -0 0
    outer loop
      vertex 60 120 0.0999994
      vertex 60 110 0
      vertex 60 110 0.0999994
    endloop
  endfacet
  facet normal -0 0 1
    outer loop
      vertex 60 120 0.0999994
      vertex 60.8 110 0.0999994
      vertex 60.8 120 0.0999994
    endloop
  endfacet
  facet normal 0 0 1
    outer loop
      vertex 60.8 110 0.0999994
      vertex 60 120 0.0999994
      vertex 60 110 0.0999994
    endloop
  endfacet
  facet normal 1 -0 0
    outer loop
      vertex 60.8 110 0.0999994
      vertex 60.8 120 0
      vertex 60.8 120 0.0999994
    endloop
  endfacet
  facet normal 1 0 0
    outer loop
      vertex 60.8 120 0
      vertex 60.8 110 0.0999994
      vertex 60.8 110 0
    endloop
  endfacet
  facet normal 0 1 -0
    outer loop
      vertex 60.8 120 0
      vertex 60 120 0.0999994
      vertex 60.8 120 0.0999994
    endloop
  endfacet
  facet normal 0 1 0
    outer loop
      vertex 60 120 0.0999994
      vertex 60.8 120 0
      vertex 60 120 0
    endloop
  endfacet
  facet normal 0 0 -1
    outer loop
      vertex 60 110 0
      vertex 60.8 120 0
      vertex 60.8 110 0
    endloop
  endfacet
  facet normal -0 0 -1
    outer loop
      vertex 60.8 120 0
      vertex 60 110 0
      vertex 60 120 0
    endloop
  endfacet
  facet normal 0 -1 0
    outer loop
      vertex 60 110 0
      vertex 60.8 110 0.0999994
      vertex 60 110 0.0999994
    endloop
  endfacet
  facet normal 0 -1 -0
    outer loop
      vertex 60.8 110 0.0999994
      vertex 60 110 0
      vertex 60.8 110 0
    endloop
  endfacet
endsolid OpenSCAD_Model
