solid OpenSCAD_Model
  facet normal -1 0 0
    outer loop
      vertex 90 130 0
      vertex 90 140 0.0999994
      vertex 90 140 0
    endloop
  endfacet
  facet normal -1 -0 0
    outer loop
      vertex 90 140 0.0999994
      vertex 90 130 0
      vertex 90 130 0.0999994
    endloop
  endfacet
  facet normal -0 0 1
    outer loop
      vertex 90 140 0.0999994
      vertex 90.8 130 0.0999994
      vertex 90.8 140 0.0999994
    endloop
  endfacet
  facet normal 0 0 1
    outer loop
      vertex 90.8 130 0.0999994
      vertex 90 140 0.0999994
      vertex 90 130 0.0999994
    endloop
  endfacet
  facet normal 1 -0 0
    outer loop
      vertex 90.8 130 0.0999994
      vertex 90.8 140 0
      vertex 90.8 140 0.0999994
    endloop
  endfacet
  facet normal 1 0 0
    outer loop
      vertex 90.8 140 0
      vertex 90.8 130 0.0999994
      vertex 90.8 130 0
    endloop
  endfacet
  facet normal 0 0 -1
    outer loop
      vertex 90 130 0
      vertex 90.8 140 0
      vertex 90.8 130 0
    endloop
  endfacet
  facet normal -0 0 -1
    outer loop
      vertex 90.8 140 0
      vertex 90 130 0
      vertex 90 140 0
    endloop
  endfacet
  facet normal 0 -1 0
    outer loop
      vertex 90 130 0
      vertex 90.8 130 0.0999994
      vertex 90 130 0.0999994
    endloop
  endfacet
  facet normal 0 -1 -0
    outer loop
      vertex 90.8 130 0.0999994
      vertex 90 130 0
      vertex 90.8 130 0
    endloop
  endfacet
  facet normal 0 1 -0
    outer loop
      vertex 90.8 140 0
      vertex 90 140 0.0999994
      vertex 90.8 140 0.0999994
    endloop
  endfacet
  facet normal 0 1 0
    outer loop
      vertex 90 140 0.0999994
      vertex 90.8 140 0
      vertex 90 140 0
    endloop
  endfacet
  facet normal -1 0 0
    outer loop
      vertex 91 130 0
      vertex 91 140 0.0999994
      vertex 91 140 0
    endloop
  endfacet
  facet normal -1 -0 0
    outer loop
      vertex 91 140 0.0999994
      vertex 91 130 0
      vertex 91 130 0.0999994
    endloop
  endfacet
  facet normal -0 0 1
    outer loop
      vertex 91 140 0.0999994
      vertex 91.8 130 0.0999994
      vertex 91.8 140 0.0999994
    endloop
  endfacet
  facet normal 0 0 1
    outer loop
      vertex 91.8 130 0.0999994
      vertex 91 140 0.0999994
      vertex 91 130 0.0999994
    endloop
  endfacet
  facet normal 1 -0 0
    outer loop
      vertex 91.8 130 0.0999994
      vertex 91.8 140 0
      vertex 91.8 140 0.0999994
    endloop
  endfacet
  facet normal 1 0 0
    outer loop
      vertex 91.8 140 0
      vertex 91.8 130 0.0999994
      vertex 91.8 130 0
    endloop
  endfacet
  facet normal 0 1 -0
    outer loop
      vertex 91.8 140 0
      vertex 91 140 0.0999994
      vertex 91.8 140 0.0999994
    endloop
  endfacet
  facet normal 0 1 0
    outer loop
      vertex 91 140 0.0999994
      vertex 91.8 140 0
      vertex 91 140 0
    endloop
  endfacet
  facet normal 0 0 -1
    outer loop
      vertex 91 130 0
      vertex 91.8 140 0
      vertex 91.8 130 0
    endloop
  endfacet
  facet normal -0 0 -1
    outer loop
      vertex 91.8 140 0
      vertex 91 130 0
      vertex 91 140 0
    endloop
  endfacet
  facet normal 0 -1 0
    outer loop
      vertex 91 130 0
      vertex 91.8 130 0.0999994
      vertex 91 130 0.0999994
    endloop
  endfacet
  facet normal 0 -1 -0
    outer loop
      vertex 91.8 130 0.0999994
      vertex 91 130 0
      vertex 91.8 130 0
    endloop
  endfacet
  facet normal -1 0 0
    outer loop
      vertex 92 130 0
      vertex 92 140 0.0999994
      vertex 92 140 0
    endloop
  endfacet
  facet normal -1 -0 0
    outer loop
      vertex 92 140 0.0999994
      vertex 92 130 0
      vertex 92 130 0.0999994
    endloop
  endfacet
  facet normal -0 0 1
    outer loop
      vertex 92 140 0.0999994
      vertex 92.8 130 0.0999994
      vertex 92.8 140 0.0999994
    endloop
  endfacet
  facet normal 0 0 1
    outer loop
      vertex 92.8 130 0.0999994
      vertex 92 140 0.0999994
      vertex 92 130 0.0999994
    endloop
  endfacet
  facet normal 1 -0 0
    outer loop
      vertex 92.8 130 0.0999994
      vertex 92.8 140 0
      vertex 92.8 140 0.0999994
    endloop
  endfacet
  facet normal 1 0 0
    outer loop
      vertex 92.8 140 0
      vertex 92.8 130 0.0999994
      vertex 92.8 130 0
    endloop
  endfacet
  facet normal 0 0 -1
    outer loop
      vertex 92 130 0
      vertex 92.8 140 0
      vertex 92.8 130 0
    endloop
  endfacet
  facet normal -0 0 -1
    outer loop
      vertex 92.8 140 0
      vertex 92 130 0
      vertex 92 140 0
    endloop
  endfacet
  facet normal 0 -1 0
    outer loop
      vertex 92 130 0
      vertex 92.8 130 0.0999994
      vertex 92 130 0.0999994
    endloop
  endfacet
  facet normal 0 -1 -0
    outer loop
      vertex 92.8 130 0.0999994
      vertex 92 130 0
      vertex 92.8 130 0
    endloop
  endfacet
  facet normal 0 1 -0
    outer loop
      vertex 92.8 140 0
      vertex 92 140 0.0999994
      vertex 92.8 140 0.0999994
    endloop
  endfacet
  facet normal 0 1 0
    outer loop
      vertex 92 140 0.0999994
      vertex 92.8 140 0
      vertex 92 140 0
    endloop
  endfacet
  facet normal -1 0 0
    outer loop
      vertex 93 130 0
      vertex 93 140 0.0999994
      vertex 93 140 0
    endloop
  endfacet
  facet normal -1 -0 0
    outer loop
      vertex 93 140 0.0999994
      vertex 93 130 0
      vertex 93 130 0.0999994
    endloop
  endfacet
  facet normal -0 0 1
    outer loop
      vertex 93 140 0.0999994
      vertex 93.8 130 0.0999994
      vertex 93.8 140 0.0999994
    endloop
  endfacet
  facet normal 0 0 1
    outer loop
      vertex 93.8 130 0.0999994
      vertex 93 140 0.0999994
      vertex 93 130 0.0999994
    endloop
  endfacet
  facet normal 1 -0 0
    outer loop
      vertex 93.8 130 0.0999994
      vertex 93.8 140 0
      vertex 93.8 140 0.0999994
    endloop
  endfacet
  facet normal 1 0 0
    outer loop
      vertex 93.8 140 0
      vertex 93.8 130 0.0999994
      vertex 93.8 130 0
    endloop
  endfacet
  facet normal 0 1 -0
    outer loop
      vertex 93.8 140 0
      vertex 93 140 0.0999994
      vertex 93.8 140 0.0999994
    endloop
  endfacet
  facet normal 0 1 0
    outer loop
      vertex 93 140 0.0999994
      vertex 93.8 140 0
      vertex 93 140 0
    endloop
  endfacet
  facet normal 0 0 -1
    outer loop
      vertex 93 130 0
      vertex 93.8 140 0
      vertex 93.8 130 0
    endloop
  endfacet
  facet normal -0 0 -1
    outer loop
      vertex 93.8 140 0
      vertex 93 130 0
      vertex 93 140 0
    endloop
  endfacet
  facet normal 0 -1 0
    outer loop
      vertex 93 130 0
      vertex 93.8 130 0.0999994
      vertex 93 130 0.0999994
    endloop
  endfacet
  facet normal 0 -1 -0
    outer loop
      vertex 93.8 130 0.0999994
      vertex 93 130 0
      vertex 93.8 130 0
    endloop
  endfacet
  facet normal -1 0 0
    outer loop
      vertex 94 130 0
      vertex 94 140 0.0999994
      vertex 94 140 0
    endloop
  endfacet
  facet normal -1 -0 0
    outer loop
      vertex 94 140 0.0999994
      vertex 94 130 0
      vertex 94 130 0.0999994
    endloop
  endfacet
  facet normal -0 0 1
    outer loop
      vertex 94 140 0.0999994
      vertex 94.8 130 0.0999994
      vertex 94.8 140 0.0999994
    endloop
  endfacet
  facet normal 0 0 1
    outer loop
      vertex 94.8 130 0.0999994
      vertex 94 140 0.0999994
      vertex 94 130 0.0999994
    endloop
  endfacet
  facet normal 1 -0 0
    outer loop
      vertex 94.8 130 0.0999994
      vertex 94.8 140 0
      vertex 94.8 140 0.0999994
    endloop
  endfacet
  facet normal 1 0 0
    outer loop
      vertex 94.8 140 0
      vertex 94.8 130 0.0999994
      vertex 94.8 130 0
    endloop
  endfacet
  facet normal 0 1 -0
    outer loop
      vertex 94.8 140 0
      vertex 94 140 0.0999994
      vertex 94.8 140 0.0999994
    endloop
  endfacet
  facet normal 0 1 0
    outer loop
      vertex 94 140 0.0999994
      vertex 94.8 140 0
      vertex 94 140 0
    endloop
  endfacet
  facet normal 0 0 -1
    outer loop
      vertex 94 130 0
      vertex 94.8 140 0
      vertex 94.8 130 0
    endloop
  endfacet
  facet normal -0 0 -1
    outer loop
      vertex 94.8 140 0
      vertex 94 130 0
      vertex 94 140 0
    endloop
  endfacet
  facet normal 0 -1 0
    outer loop
      vertex 94 130 0
      vertex 94.8 130 0.0999994
      vertex 94 130 0.0999994
    endloop
  endfacet
  facet normal 0 -1 -0
    outer loop
      vertex 94.8 130 0.0999994
      vertex 94 130 0
      vertex 94.8 130 0
    endloop
  endfacet
  facet normal -1 0 0
    outer loop
      vertex 95 130 0
      vertex 95 140 0.0999994
      vertex 95 140 0
    endloop
  endfacet
  facet normal -1 -0 0
    outer loop
      vertex 95 140 0.0999994
      vertex 95 130 0
      vertex 95 130 0.0999994
    endloop
  endfacet
  facet normal -0 0 1
    outer loop
      vertex 95 140 0.0999994
      vertex 95.8 130 0.0999994
      vertex 95.8 140 0.0999994
    endloop
  endfacet
  facet normal 0 0 1
    outer loop
      vertex 95.8 130 0.0999994
      vertex 95 140 0.0999994
      vertex 95 130 0.0999994
    endloop
  endfacet
  facet normal 1 -0 0
    outer loop
      vertex 95.8 130 0.0999994
      vertex 95.8 140 0
      vertex 95.8 140 0.0999994
    endloop
  endfacet
  facet normal 1 0 0
    outer loop
      vertex 95.8 140 0
      vertex 95.8 130 0.0999994
      vertex 95.8 130 0
    endloop
  endfacet
  facet normal 0 1 -0
    outer loop
      vertex 95.8 140 0
      vertex 95 140 0.0999994
      vertex 95.8 140 0.0999994
    endloop
  endfacet
  facet normal 0 1 0
    outer loop
      vertex 95 140 0.0999994
      vertex 95.8 140 0
      vertex 95 140 0
    endloop
  endfacet
  facet normal 0 0 -1
    outer loop
      vertex 95 130 0
      vertex 95.8 140 0
      vertex 95.8 130 0
    endloop
  endfacet
  facet normal -0 0 -1
    outer loop
      vertex 95.8 140 0
      vertex 95 130 0
      vertex 95 140 0
    endloop
  endfacet
  facet normal 0 -1 0
    outer loop
      vertex 95 130 0
      vertex 95.8 130 0.0999994
      vertex 95 130 0.0999994
    endloop
  endfacet
  facet normal 0 -1 -0
    outer loop
      vertex 95.8 130 0.0999994
      vertex 95 130 0
      vertex 95.8 130 0
    endloop
  endfacet
  facet normal -1 0 0
    outer loop
      vertex 96 130 0
      vertex 96 140 0.0999994
      vertex 96 140 0
    endloop
  endfacet
  facet normal -1 -0 0
    outer loop
      vertex 96 140 0.0999994
      vertex 96 130 0
      vertex 96 130 0.0999994
    endloop
  endfacet
  facet normal -0 0 1
    outer loop
      vertex 96 140 0.0999994
      vertex 96.8 130 0.0999994
      vertex 96.8 140 0.0999994
    endloop
  endfacet
  facet normal 0 0 1
    outer loop
      vertex 96.8 130 0.0999994
      vertex 96 140 0.0999994
      vertex 96 130 0.0999994
    endloop
  endfacet
  facet normal 1 -0 0
    outer loop
      vertex 96.8 130 0.0999994
      vertex 96.8 140 0
      vertex 96.8 140 0.0999994
    endloop
  endfacet
  facet normal 1 0 0
    outer loop
      vertex 96.8 140 0
      vertex 96.8 130 0.0999994
      vertex 96.8 130 0
    endloop
  endfacet
  facet normal 0 1 -0
    outer loop
      vertex 96.8 140 0
      vertex 96 140 0.0999994
      vertex 96.8 140 0.0999994
    endloop
  endfacet
  facet normal 0 1 0
    outer loop
      vertex 96 140 0.0999994
      vertex 96.8 140 0
      vertex 96 140 0
    endloop
  endfacet
  facet normal 0 0 -1
    outer loop
      vertex 96 130 0
      vertex 96.8 140 0
      vertex 96.8 130 0
    endloop
  endfacet
  facet normal -0 0 -1
    outer loop
      vertex 96.8 140 0
      vertex 96 130 0
      vertex 96 140 0
    endloop
  endfacet
  facet normal 0 -1 0
    outer loop
      vertex 96 130 0
      vertex 96.8 130 0.0999994
      vertex 96 130 0.0999994
    endloop
  endfacet
  facet normal 0 -1 -0
    outer loop
      vertex 96.8 130 0.0999994
      vertex 96 130 0
      vertex 96.8 130 0
    endloop
  endfacet
  facet normal -1 0 0
    outer loop
      vertex 97 130 0
      vertex 97 140 0.0999994
      vertex 97 140 0
    endloop
  endfacet
  facet normal -1 -0 0
    outer loop
      vertex 97 140 0.0999994
      vertex 97 130 0
      vertex 97 130 0.0999994
    endloop
  endfacet
  facet normal -0 0 1
    outer loop
      vertex 97 140 0.0999994
      vertex 97.8 130 0.0999994
      vertex 97.8 140 0.0999994
    endloop
  endfacet
  facet normal 0 0 1
    outer loop
      vertex 97.8 130 0.0999994
      vertex 97 140 0.0999994
      vertex 97 130 0.0999994
    endloop
  endfacet
  facet normal 1 -0 0
    outer loop
      vertex 97.8 130 0.0999994
      vertex 97.8 140 0
      vertex 97.8 140 0.0999994
    endloop
  endfacet
  facet normal 1 0 0
    outer loop
      vertex 97.8 140 0
      vertex 97.8 130 0.0999994
      vertex 97.8 130 0
    endloop
  endfacet
  facet normal 0 1 -0
    outer loop
      vertex 97.8 140 0
      vertex 97 140 0.0999994
      vertex 97.8 140 0.0999994
    endloop
  endfacet
  facet normal 0 1 0
    outer loop
      vertex 97 140 0.0999994
      vertex 97.8 140 0
      vertex 97 140 0
    endloop
  endfacet
  facet normal 0 0 -1
    outer loop
      vertex 97 130 0
      vertex 97.8 140 0
      vertex 97.8 130 0
    endloop
  endfacet
  facet normal -0 0 -1
    outer loop
      vertex 97.8 140 0
      vertex 97 130 0
      vertex 97 140 0
    endloop
  endfacet
  facet normal 0 -1 0
    outer loop
      vertex 97 130 0
      vertex 97.8 130 0.0999994
      vertex 97 130 0.0999994
    endloop
  endfacet
  facet normal 0 -1 -0
    outer loop
      vertex 97.8 130 0.0999994
      vertex 97 130 0
      vertex 97.8 130 0
    endloop
  endfacet
  facet normal -1 0 0
    outer loop
      vertex 98 130 0
      vertex 98 140 0.0999994
      vertex 98 140 0
    endloop
  endfacet
  facet normal -1 -0 0
    outer loop
      vertex 98 140 0.0999994
      vertex 98 130 0
      vertex 98 130 0.0999994
    endloop
  endfacet
  facet normal -0 0 1
    outer loop
      vertex 98 140 0.0999994
      vertex 98.8 130 0.0999994
      vertex 98.8 140 0.0999994
    endloop
  endfacet
  facet normal 0 0 1
    outer loop
      vertex 98.8 130 0.0999994
      vertex 98 140 0.0999994
      vertex 98 130 0.0999994
    endloop
  endfacet
  facet normal 1 -0 0
    outer loop
      vertex 98.8 130 0.0999994
      vertex 98.8 140 0
      vertex 98.8 140 0.0999994
    endloop
  endfacet
  facet normal 1 0 0
    outer loop
      vertex 98.8 140 0
      vertex 98.8 130 0.0999994
      vertex 98.8 130 0
    endloop
  endfacet
  facet normal 0 0 -1
    outer loop
      vertex 98 130 0
      vertex 98.8 140 0
      vertex 98.8 130 0
    endloop
  endfacet
  facet normal -0 0 -1
    outer loop
      vertex 98.8 140 0
      vertex 98 130 0
      vertex 98 140 0
    endloop
  endfacet
  facet normal 0 -1 0
    outer loop
      vertex 98 130 0
      vertex 98.8 130 0.0999994
      vertex 98 130 0.0999994
    endloop
  endfacet
  facet normal 0 -1 -0
    outer loop
      vertex 98.8 130 0.0999994
      vertex 98 130 0
      vertex 98.8 130 0
    endloop
  endfacet
  facet normal 0 1 -0
    outer loop
      vertex 98.8 140 0
      vertex 98 140 0.0999994
      vertex 98.8 140 0.0999994
    endloop
  endfacet
  facet normal 0 1 0
    outer loop
      vertex 98 140 0.0999994
      vertex 98.8 140 0
      vertex 98 140 0
    endloop
  endfacet
  facet normal -1 0 0
    outer loop
      vertex 99 130 0
      vertex 99 140 0.0999994
      vertex 99 140 0
    endloop
  endfacet
  facet normal -1 -0 0
    outer loop
      vertex 99 140 0.0999994
      vertex 99 130 0
      vertex 99 130 0.0999994
    endloop
  endfacet
  facet normal -0 0 1
    outer loop
      vertex 99 140 0.0999994
      vertex 99.8 130 0.0999994
      vertex 99.8 140 0.0999994
    endloop
  endfacet
  facet normal 0 0 1
    outer loop
      vertex 99.8 130 0.0999994
      vertex 99 140 0.0999994
      vertex 99 130 0.0999994
    endloop
  endfacet
  facet normal 1 -0 0
    outer loop
      vertex 99.8 130 0.0999994
      vertex 99.8 140 0
      vertex 99.8 140 0.0999994
    endloop
  endfacet
  facet normal 1 0 0
    outer loop
      vertex 99.8 140 0
      vertex 99.8 130 0.0999994
      vertex 99.8 130 0
    endloop
  endfacet
  facet normal 0 0 -1
    outer loop
      vertex 99 130 0
      vertex 99.8 140 0
      vertex 99.8 130 0
    endloop
  endfacet
  facet normal -0 0 -1
    outer loop
      vertex 99.8 140 0
      vertex 99 130 0
      vertex 99 140 0
    endloop
  endfacet
  facet normal 0 -1 0
    outer loop
      vertex 99 130 0
      vertex 99.8 130 0.0999994
      vertex 99 130 0.0999994
    endloop
  endfacet
  facet normal 0 -1 -0
    outer loop
      vertex 99.8 130 0.0999994
      vertex 99 130 0
      vertex 99.8 130 0
    endloop
  endfacet
  facet normal 0 1 -0
    outer loop
      vertex 99.8 140 0
      vertex 99 140 0.0999994
      vertex 99.8 140 0.0999994
    endloop
  endfacet
  facet normal 0 1 0
    outer loop
      vertex 99 140 0.0999994
      vertex 99.8 140 0
      vertex 99 140 0
    endloop
  endfacet
  facet normal -1 0 0
    outer loop
      vertex 100 130 0
      vertex 100 140 0.0999994
      vertex 100 140 0
    endloop
  endfacet
  facet normal -1 -0 0
    outer loop
      vertex 100 140 0.0999994
      vertex 100 130 0
      vertex 100 130 0.0999994
    endloop
  endfacet
  facet normal -0 0 1
    outer loop
      vertex 100 140 0.0999994
      vertex 100.8 130 0.0999994
      vertex 100.8 140 0.0999994
    endloop
  endfacet
  facet normal 0 0 1
    outer loop
      vertex 100.8 130 0.0999994
      vertex 100 140 0.0999994
      vertex 100 130 0.0999994
    endloop
  endfacet
  facet normal 1 -0 0
    outer loop
      vertex 100.8 130 0.0999994
      vertex 100.8 140 0
      vertex 100.8 140 0.0999994
    endloop
  endfacet
  facet normal 1 0 0
    outer loop
      vertex 100.8 140 0
      vertex 100.8 130 0.0999994
      vertex 100.8 130 0
    endloop
  endfacet
  facet normal 0 1 -0
    outer loop
      vertex 100.8 140 0
      vertex 100 140 0.0999994
      vertex 100.8 140 0.0999994
    endloop
  endfacet
  facet normal 0 1 0
    outer loop
      vertex 100 140 0.0999994
      vertex 100.8 140 0
      vertex 100 140 0
    endloop
  endfacet
  facet normal 0 0 -1
    outer loop
      vertex 100 130 0
      vertex 100.8 140 0
      vertex 100.8 130 0
    endloop
  endfacet
  facet normal -0 0 -1
    outer loop
      vertex 100.8 140 0
      vertex 100 130 0
      vertex 100 140 0
    endloop
  endfacet
  facet normal 0 -1 0
    outer loop
      vertex 100 130 0
      vertex 100.8 130 0.0999994
      vertex 100 130 0.0999994
    endloop
  endfacet
  facet normal 0 -1 -0
    outer loop
      vertex 100.8 130 0.0999994
      vertex 100 130 0
      vertex 100.8 130 0
    endloop
  endfacet
endsolid OpenSCAD_Model
