solid OpenSCAD_Model
  facet normal -1 0 0
    outer loop
      vertex 70 50 0
      vertex 70 60 0.0999994
      vertex 70 60 0
    endloop
  endfacet
  facet normal -1 -0 0
    outer loop
      vertex 70 60 0.0999994
      vertex 70 50 0
      vertex 70 50 0.0999994
    endloop
  endfacet
  facet normal -0 0 1
    outer loop
      vertex 70 60 0.0999994
      vertex 70.8 50 0.0999994
      vertex 70.8 60 0.0999994
    endloop
  endfacet
  facet normal 0 0 1
    outer loop
      vertex 70.8 50 0.0999994
      vertex 70 60 0.0999994
      vertex 70 50 0.0999994
    endloop
  endfacet
  facet normal 1 -0 0
    outer loop
      vertex 70.8 50 0.0999994
      vertex 70.8 60 0
      vertex 70.8 60 0.0999994
    endloop
  endfacet
  facet normal 1 0 0
    outer loop
      vertex 70.8 60 0
      vertex 70.8 50 0.0999994
      vertex 70.8 50 0
    endloop
  endfacet
  facet normal 0 0 -1
    outer loop
      vertex 70 50 0
      vertex 70.8 60 0
      vertex 70.8 50 0
    endloop
  endfacet
  facet normal -0 0 -1
    outer loop
      vertex 70.8 60 0
      vertex 70 50 0
      vertex 70 60 0
    endloop
  endfacet
  facet normal 0 -1 0
    outer loop
      vertex 70 50 0
      vertex 70.8 50 0.0999994
      vertex 70 50 0.0999994
    endloop
  endfacet
  facet normal 0 -1 -0
    outer loop
      vertex 70.8 50 0.0999994
      vertex 70 50 0
      vertex 70.8 50 0
    endloop
  endfacet
  facet normal 0 1 -0
    outer loop
      vertex 70.8 60 0
      vertex 70 60 0.0999994
      vertex 70.8 60 0.0999994
    endloop
  endfacet
  facet normal 0 1 0
    outer loop
      vertex 70 60 0.0999994
      vertex 70.8 60 0
      vertex 70 60 0
    endloop
  endfacet
  facet normal -1 0 0
    outer loop
      vertex 71 50 0
      vertex 71 60 0.0999994
      vertex 71 60 0
    endloop
  endfacet
  facet normal -1 -0 0
    outer loop
      vertex 71 60 0.0999994
      vertex 71 50 0
      vertex 71 50 0.0999994
    endloop
  endfacet
  facet normal -0 0 1
    outer loop
      vertex 71 60 0.0999994
      vertex 71.8 50 0.0999994
      vertex 71.8 60 0.0999994
    endloop
  endfacet
  facet normal 0 0 1
    outer loop
      vertex 71.8 50 0.0999994
      vertex 71 60 0.0999994
      vertex 71 50 0.0999994
    endloop
  endfacet
  facet normal 1 -0 0
    outer loop
      vertex 71.8 50 0.0999994
      vertex 71.8 60 0
      vertex 71.8 60 0.0999994
    endloop
  endfacet
  facet normal 1 0 0
    outer loop
      vertex 71.8 60 0
      vertex 71.8 50 0.0999994
      vertex 71.8 50 0
    endloop
  endfacet
  facet normal 0 1 -0
    outer loop
      vertex 71.8 60 0
      vertex 71 60 0.0999994
      vertex 71.8 60 0.0999994
    endloop
  endfacet
  facet normal 0 1 0
    outer loop
      vertex 71 60 0.0999994
      vertex 71.8 60 0
      vertex 71 60 0
    endloop
  endfacet
  facet normal 0 0 -1
    outer loop
      vertex 71 50 0
      vertex 71.8 60 0
      vertex 71.8 50 0
    endloop
  endfacet
  facet normal -0 0 -1
    outer loop
      vertex 71.8 60 0
      vertex 71 50 0
      vertex 71 60 0
    endloop
  endfacet
  facet normal 0 -1 0
    outer loop
      vertex 71 50 0
      vertex 71.8 50 0.0999994
      vertex 71 50 0.0999994
    endloop
  endfacet
  facet normal 0 -1 -0
    outer loop
      vertex 71.8 50 0.0999994
      vertex 71 50 0
      vertex 71.8 50 0
    endloop
  endfacet
  facet normal -1 0 0
    outer loop
      vertex 72 50 0
      vertex 72 60 0.0999994
      vertex 72 60 0
    endloop
  endfacet
  facet normal -1 -0 0
    outer loop
      vertex 72 60 0.0999994
      vertex 72 50 0
      vertex 72 50 0.0999994
    endloop
  endfacet
  facet normal -0 0 1
    outer loop
      vertex 72 60 0.0999994
      vertex 72.8 50 0.0999994
      vertex 72.8 60 0.0999994
    endloop
  endfacet
  facet normal 0 0 1
    outer loop
      vertex 72.8 50 0.0999994
      vertex 72 60 0.0999994
      vertex 72 50 0.0999994
    endloop
  endfacet
  facet normal 1 -0 0
    outer loop
      vertex 72.8 50 0.0999994
      vertex 72.8 60 0
      vertex 72.8 60 0.0999994
    endloop
  endfacet
  facet normal 1 0 0
    outer loop
      vertex 72.8 60 0
      vertex 72.8 50 0.0999994
      vertex 72.8 50 0
    endloop
  endfacet
  facet normal 0 0 -1
    outer loop
      vertex 72 50 0
      vertex 72.8 60 0
      vertex 72.8 50 0
    endloop
  endfacet
  facet normal -0 0 -1
    outer loop
      vertex 72.8 60 0
      vertex 72 50 0
      vertex 72 60 0
    endloop
  endfacet
  facet normal 0 -1 0
    outer loop
      vertex 72 50 0
      vertex 72.8 50 0.0999994
      vertex 72 50 0.0999994
    endloop
  endfacet
  facet normal 0 -1 -0
    outer loop
      vertex 72.8 50 0.0999994
      vertex 72 50 0
      vertex 72.8 50 0
    endloop
  endfacet
  facet normal 0 1 -0
    outer loop
      vertex 72.8 60 0
      vertex 72 60 0.0999994
      vertex 72.8 60 0.0999994
    endloop
  endfacet
  facet normal 0 1 0
    outer loop
      vertex 72 60 0.0999994
      vertex 72.8 60 0
      vertex 72 60 0
    endloop
  endfacet
  facet normal -1 0 0
    outer loop
      vertex 73 50 0
      vertex 73 60 0.0999994
      vertex 73 60 0
    endloop
  endfacet
  facet normal -1 -0 0
    outer loop
      vertex 73 60 0.0999994
      vertex 73 50 0
      vertex 73 50 0.0999994
    endloop
  endfacet
  facet normal -0 0 1
    outer loop
      vertex 73 60 0.0999994
      vertex 73.8 50 0.0999994
      vertex 73.8 60 0.0999994
    endloop
  endfacet
  facet normal 0 0 1
    outer loop
      vertex 73.8 50 0.0999994
      vertex 73 60 0.0999994
      vertex 73 50 0.0999994
    endloop
  endfacet
  facet normal 1 -0 0
    outer loop
      vertex 73.8 50 0.0999994
      vertex 73.8 60 0
      vertex 73.8 60 0.0999994
    endloop
  endfacet
  facet normal 1 0 0
    outer loop
      vertex 73.8 60 0
      vertex 73.8 50 0.0999994
      vertex 73.8 50 0
    endloop
  endfacet
  facet normal 0 0 -1
    outer loop
      vertex 73 50 0
      vertex 73.8 60 0
      vertex 73.8 50 0
    endloop
  endfacet
  facet normal -0 0 -1
    outer loop
      vertex 73.8 60 0
      vertex 73 50 0
      vertex 73 60 0
    endloop
  endfacet
  facet normal 0 -1 0
    outer loop
      vertex 73 50 0
      vertex 73.8 50 0.0999994
      vertex 73 50 0.0999994
    endloop
  endfacet
  facet normal 0 -1 -0
    outer loop
      vertex 73.8 50 0.0999994
      vertex 73 50 0
      vertex 73.8 50 0
    endloop
  endfacet
  facet normal 0 1 -0
    outer loop
      vertex 73.8 60 0
      vertex 73 60 0.0999994
      vertex 73.8 60 0.0999994
    endloop
  endfacet
  facet normal 0 1 0
    outer loop
      vertex 73 60 0.0999994
      vertex 73.8 60 0
      vertex 73 60 0
    endloop
  endfacet
  facet normal -1 0 0
    outer loop
      vertex 74 50 0
      vertex 74 60 0.0999994
      vertex 74 60 0
    endloop
  endfacet
  facet normal -1 -0 0
    outer loop
      vertex 74 60 0.0999994
      vertex 74 50 0
      vertex 74 50 0.0999994
    endloop
  endfacet
  facet normal -0 0 1
    outer loop
      vertex 74 60 0.0999994
      vertex 74.8 50 0.0999994
      vertex 74.8 60 0.0999994
    endloop
  endfacet
  facet normal 0 0 1
    outer loop
      vertex 74.8 50 0.0999994
      vertex 74 60 0.0999994
      vertex 74 50 0.0999994
    endloop
  endfacet
  facet normal 1 -0 0
    outer loop
      vertex 74.8 50 0.0999994
      vertex 74.8 60 0
      vertex 74.8 60 0.0999994
    endloop
  endfacet
  facet normal 1 0 0
    outer loop
      vertex 74.8 60 0
      vertex 74.8 50 0.0999994
      vertex 74.8 50 0
    endloop
  endfacet
  facet normal 0 1 -0
    outer loop
      vertex 74.8 60 0
      vertex 74 60 0.0999994
      vertex 74.8 60 0.0999994
    endloop
  endfacet
  facet normal 0 1 0
    outer loop
      vertex 74 60 0.0999994
      vertex 74.8 60 0
      vertex 74 60 0
    endloop
  endfacet
  facet normal 0 0 -1
    outer loop
      vertex 74 50 0
      vertex 74.8 60 0
      vertex 74.8 50 0
    endloop
  endfacet
  facet normal -0 0 -1
    outer loop
      vertex 74.8 60 0
      vertex 74 50 0
      vertex 74 60 0
    endloop
  endfacet
  facet normal 0 -1 0
    outer loop
      vertex 74 50 0
      vertex 74.8 50 0.0999994
      vertex 74 50 0.0999994
    endloop
  endfacet
  facet normal 0 -1 -0
    outer loop
      vertex 74.8 50 0.0999994
      vertex 74 50 0
      vertex 74.8 50 0
    endloop
  endfacet
  facet normal -1 0 0
    outer loop
      vertex 75 50 0
      vertex 75 60 0.0999994
      vertex 75 60 0
    endloop
  endfacet
  facet normal -1 -0 0
    outer loop
      vertex 75 60 0.0999994
      vertex 75 50 0
      vertex 75 50 0.0999994
    endloop
  endfacet
  facet normal -0 0 1
    outer loop
      vertex 75 60 0.0999994
      vertex 75.8 50 0.0999994
      vertex 75.8 60 0.0999994
    endloop
  endfacet
  facet normal 0 0 1
    outer loop
      vertex 75.8 50 0.0999994
      vertex 75 60 0.0999994
      vertex 75 50 0.0999994
    endloop
  endfacet
  facet normal 1 -0 0
    outer loop
      vertex 75.8 50 0.0999994
      vertex 75.8 60 0
      vertex 75.8 60 0.0999994
    endloop
  endfacet
  facet normal 1 0 0
    outer loop
      vertex 75.8 60 0
      vertex 75.8 50 0.0999994
      vertex 75.8 50 0
    endloop
  endfacet
  facet normal 0 0 -1
    outer loop
      vertex 75 50 0
      vertex 75.8 60 0
      vertex 75.8 50 0
    endloop
  endfacet
  facet normal -0 0 -1
    outer loop
      vertex 75.8 60 0
      vertex 75 50 0
      vertex 75 60 0
    endloop
  endfacet
  facet normal 0 -1 0
    outer loop
      vertex 75 50 0
      vertex 75.8 50 0.0999994
      vertex 75 50 0.0999994
    endloop
  endfacet
  facet normal 0 -1 -0
    outer loop
      vertex 75.8 50 0.0999994
      vertex 75 50 0
      vertex 75.8 50 0
    endloop
  endfacet
  facet normal 0 1 -0
    outer loop
      vertex 75.8 60 0
      vertex 75 60 0.0999994
      vertex 75.8 60 0.0999994
    endloop
  endfacet
  facet normal 0 1 0
    outer loop
      vertex 75 60 0.0999994
      vertex 75.8 60 0
      vertex 75 60 0
    endloop
  endfacet
  facet normal -1 0 0
    outer loop
      vertex 76 50 0
      vertex 76 60 0.0999994
      vertex 76 60 0
    endloop
  endfacet
  facet normal -1 -0 0
    outer loop
      vertex 76 60 0.0999994
      vertex 76 50 0
      vertex 76 50 0.0999994
    endloop
  endfacet
  facet normal -0 0 1
    outer loop
      vertex 76 60 0.0999994
      vertex 76.8 50 0.0999994
      vertex 76.8 60 0.0999994
    endloop
  endfacet
  facet normal 0 0 1
    outer loop
      vertex 76.8 50 0.0999994
      vertex 76 60 0.0999994
      vertex 76 50 0.0999994
    endloop
  endfacet
  facet normal 1 -0 0
    outer loop
      vertex 76.8 50 0.0999994
      vertex 76.8 60 0
      vertex 76.8 60 0.0999994
    endloop
  endfacet
  facet normal 1 0 0
    outer loop
      vertex 76.8 60 0
      vertex 76.8 50 0.0999994
      vertex 76.8 50 0
    endloop
  endfacet
  facet normal 0 1 -0
    outer loop
      vertex 76.8 60 0
      vertex 76 60 0.0999994
      vertex 76.8 60 0.0999994
    endloop
  endfacet
  facet normal 0 1 0
    outer loop
      vertex 76 60 0.0999994
      vertex 76.8 60 0
      vertex 76 60 0
    endloop
  endfacet
  facet normal 0 0 -1
    outer loop
      vertex 76 50 0
      vertex 76.8 60 0
      vertex 76.8 50 0
    endloop
  endfacet
  facet normal -0 0 -1
    outer loop
      vertex 76.8 60 0
      vertex 76 50 0
      vertex 76 60 0
    endloop
  endfacet
  facet normal 0 -1 0
    outer loop
      vertex 76 50 0
      vertex 76.8 50 0.0999994
      vertex 76 50 0.0999994
    endloop
  endfacet
  facet normal 0 -1 -0
    outer loop
      vertex 76.8 50 0.0999994
      vertex 76 50 0
      vertex 76.8 50 0
    endloop
  endfacet
  facet normal -1 0 0
    outer loop
      vertex 77 50 0
      vertex 77 60 0.0999994
      vertex 77 60 0
    endloop
  endfacet
  facet normal -1 -0 0
    outer loop
      vertex 77 60 0.0999994
      vertex 77 50 0
      vertex 77 50 0.0999994
    endloop
  endfacet
  facet normal -0 0 1
    outer loop
      vertex 77 60 0.0999994
      vertex 77.8 50 0.0999994
      vertex 77.8 60 0.0999994
    endloop
  endfacet
  facet normal 0 0 1
    outer loop
      vertex 77.8 50 0.0999994
      vertex 77 60 0.0999994
      vertex 77 50 0.0999994
    endloop
  endfacet
  facet normal 1 -0 0
    outer loop
      vertex 77.8 50 0.0999994
      vertex 77.8 60 0
      vertex 77.8 60 0.0999994
    endloop
  endfacet
  facet normal 1 0 0
    outer loop
      vertex 77.8 60 0
      vertex 77.8 50 0.0999994
      vertex 77.8 50 0
    endloop
  endfacet
  facet normal 0 1 -0
    outer loop
      vertex 77.8 60 0
      vertex 77 60 0.0999994
      vertex 77.8 60 0.0999994
    endloop
  endfacet
  facet normal 0 1 0
    outer loop
      vertex 77 60 0.0999994
      vertex 77.8 60 0
      vertex 77 60 0
    endloop
  endfacet
  facet normal 0 0 -1
    outer loop
      vertex 77 50 0
      vertex 77.8 60 0
      vertex 77.8 50 0
    endloop
  endfacet
  facet normal -0 0 -1
    outer loop
      vertex 77.8 60 0
      vertex 77 50 0
      vertex 77 60 0
    endloop
  endfacet
  facet normal 0 -1 0
    outer loop
      vertex 77 50 0
      vertex 77.8 50 0.0999994
      vertex 77 50 0.0999994
    endloop
  endfacet
  facet normal 0 -1 -0
    outer loop
      vertex 77.8 50 0.0999994
      vertex 77 50 0
      vertex 77.8 50 0
    endloop
  endfacet
  facet normal -1 0 0
    outer loop
      vertex 78 50 0
      vertex 78 60 0.0999994
      vertex 78 60 0
    endloop
  endfacet
  facet normal -1 -0 0
    outer loop
      vertex 78 60 0.0999994
      vertex 78 50 0
      vertex 78 50 0.0999994
    endloop
  endfacet
  facet normal -0 0 1
    outer loop
      vertex 78 60 0.0999994
      vertex 78.8 50 0.0999994
      vertex 78.8 60 0.0999994
    endloop
  endfacet
  facet normal 0 0 1
    outer loop
      vertex 78.8 50 0.0999994
      vertex 78 60 0.0999994
      vertex 78 50 0.0999994
    endloop
  endfacet
  facet normal 1 -0 0
    outer loop
      vertex 78.8 50 0.0999994
      vertex 78.8 60 0
      vertex 78.8 60 0.0999994
    endloop
  endfacet
  facet normal 1 0 0
    outer loop
      vertex 78.8 60 0
      vertex 78.8 50 0.0999994
      vertex 78.8 50 0
    endloop
  endfacet
  facet normal 0 0 -1
    outer loop
      vertex 78 50 0
      vertex 78.8 60 0
      vertex 78.8 50 0
    endloop
  endfacet
  facet normal -0 0 -1
    outer loop
      vertex 78.8 60 0
      vertex 78 50 0
      vertex 78 60 0
    endloop
  endfacet
  facet normal 0 -1 0
    outer loop
      vertex 78 50 0
      vertex 78.8 50 0.0999994
      vertex 78 50 0.0999994
    endloop
  endfacet
  facet normal 0 -1 -0
    outer loop
      vertex 78.8 50 0.0999994
      vertex 78 50 0
      vertex 78.8 50 0
    endloop
  endfacet
  facet normal 0 1 -0
    outer loop
      vertex 78.8 60 0
      vertex 78 60 0.0999994
      vertex 78.8 60 0.0999994
    endloop
  endfacet
  facet normal 0 1 0
    outer loop
      vertex 78 60 0.0999994
      vertex 78.8 60 0
      vertex 78 60 0
    endloop
  endfacet
  facet normal -1 0 0
    outer loop
      vertex 79 50 0
      vertex 79 60 0.0999994
      vertex 79 60 0
    endloop
  endfacet
  facet normal -1 -0 0
    outer loop
      vertex 79 60 0.0999994
      vertex 79 50 0
      vertex 79 50 0.0999994
    endloop
  endfacet
  facet normal -0 0 1
    outer loop
      vertex 79 60 0.0999994
      vertex 79.8 50 0.0999994
      vertex 79.8 60 0.0999994
    endloop
  endfacet
  facet normal 0 0 1
    outer loop
      vertex 79.8 50 0.0999994
      vertex 79 60 0.0999994
      vertex 79 50 0.0999994
    endloop
  endfacet
  facet normal 1 -0 0
    outer loop
      vertex 79.8 50 0.0999994
      vertex 79.8 60 0
      vertex 79.8 60 0.0999994
    endloop
  endfacet
  facet normal 1 0 0
    outer loop
      vertex 79.8 60 0
      vertex 79.8 50 0.0999994
      vertex 79.8 50 0
    endloop
  endfacet
  facet normal 0 1 -0
    outer loop
      vertex 79.8 60 0
      vertex 79 60 0.0999994
      vertex 79.8 60 0.0999994
    endloop
  endfacet
  facet normal 0 1 0
    outer loop
      vertex 79 60 0.0999994
      vertex 79.8 60 0
      vertex 79 60 0
    endloop
  endfacet
  facet normal 0 0 -1
    outer loop
      vertex 79 50 0
      vertex 79.8 60 0
      vertex 79.8 50 0
    endloop
  endfacet
  facet normal -0 0 -1
    outer loop
      vertex 79.8 60 0
      vertex 79 50 0
      vertex 79 60 0
    endloop
  endfacet
  facet normal 0 -1 0
    outer loop
      vertex 79 50 0
      vertex 79.8 50 0.0999994
      vertex 79 50 0.0999994
    endloop
  endfacet
  facet normal 0 -1 -0
    outer loop
      vertex 79.8 50 0.0999994
      vertex 79 50 0
      vertex 79.8 50 0
    endloop
  endfacet
  facet normal -1 0 0
    outer loop
      vertex 80 50 0
      vertex 80 60 0.0999994
      vertex 80 60 0
    endloop
  endfacet
  facet normal -1 -0 0
    outer loop
      vertex 80 60 0.0999994
      vertex 80 50 0
      vertex 80 50 0.0999994
    endloop
  endfacet
  facet normal -0 0 1
    outer loop
      vertex 80 60 0.0999994
      vertex 80.8 50 0.0999994
      vertex 80.8 60 0.0999994
    endloop
  endfacet
  facet normal 0 0 1
    outer loop
      vertex 80.8 50 0.0999994
      vertex 80 60 0.0999994
      vertex 80 50 0.0999994
    endloop
  endfacet
  facet normal 1 -0 0
    outer loop
      vertex 80.8 50 0.0999994
      vertex 80.8 60 0
      vertex 80.8 60 0.0999994
    endloop
  endfacet
  facet normal 1 0 0
    outer loop
      vertex 80.8 60 0
      vertex 80.8 50 0.0999994
      vertex 80.8 50 0
    endloop
  endfacet
  facet normal 0 0 -1
    outer loop
      vertex 80 50 0
      vertex 80.8 60 0
      vertex 80.8 50 0
    endloop
  endfacet
  facet normal -0 0 -1
    outer loop
      vertex 80.8 60 0
      vertex 80 50 0
      vertex 80 60 0
    endloop
  endfacet
  facet normal 0 -1 0
    outer loop
      vertex 80 50 0
      vertex 80.8 50 0.0999994
      vertex 80 50 0.0999994
    endloop
  endfacet
  facet normal 0 -1 -0
    outer loop
      vertex 80.8 50 0.0999994
      vertex 80 50 0
      vertex 80.8 50 0
    endloop
  endfacet
  facet normal 0 1 -0
    outer loop
      vertex 80.8 60 0
      vertex 80 60 0.0999994
      vertex 80.8 60 0.0999994
    endloop
  endfacet
  facet normal 0 1 0
    outer loop
      vertex 80 60 0.0999994
      vertex 80.8 60 0
      vertex 80 60 0
    endloop
  endfacet
endsolid OpenSCAD_Model
