solid OpenSCAD_Model
  facet normal -1 0 0
    outer loop
      vertex 10 10 0
      vertex 10 20 0.0999994
      vertex 10 20 0
    endloop
  endfacet
  facet normal -1 -0 0
    outer loop
      vertex 10 20 0.0999994
      vertex 10 10 0
      vertex 10 10 0.0999994
    endloop
  endfacet
  facet normal -0 0 1
    outer loop
      vertex 10 20 0.0999994
      vertex 10.8 10 0.0999994
      vertex 10.8 20 0.0999994
    endloop
  endfacet
  facet normal 0 0 1
    outer loop
      vertex 10.8 10 0.0999994
      vertex 10 20 0.0999994
      vertex 10 10 0.0999994
    endloop
  endfacet
  facet normal 1 -0 0
    outer loop
      vertex 10.8 10 0.0999994
      vertex 10.8 20 0
      vertex 10.8 20 0.0999994
    endloop
  endfacet
  facet normal 1 0 0
    outer loop
      vertex 10.8 20 0
      vertex 10.8 10 0.0999994
      vertex 10.8 10 0
    endloop
  endfacet
  facet normal 0 0 -1
    outer loop
      vertex 10 10 0
      vertex 10.8 20 0
      vertex 10.8 10 0
    endloop
  endfacet
  facet normal -0 0 -1
    outer loop
      vertex 10.8 20 0
      vertex 10 10 0
      vertex 10 20 0
    endloop
  endfacet
  facet normal 0 -1 0
    outer loop
      vertex 10 10 0
      vertex 10.8 10 0.0999994
      vertex 10 10 0.0999994
    endloop
  endfacet
  facet normal 0 -1 -0
    outer loop
      vertex 10.8 10 0.0999994
      vertex 10 10 0
      vertex 10.8 10 0
    endloop
  endfacet
  facet normal 0 1 -0
    outer loop
      vertex 10.8 20 0
      vertex 10 20 0.0999994
      vertex 10.8 20 0.0999994
    endloop
  endfacet
  facet normal 0 1 0
    outer loop
      vertex 10 20 0.0999994
      vertex 10.8 20 0
      vertex 10 20 0
    endloop
  endfacet
  facet normal -1 0 0
    outer loop
      vertex 11 10 0
      vertex 11 20 0.0999994
      vertex 11 20 0
    endloop
  endfacet
  facet normal -1 -0 0
    outer loop
      vertex 11 20 0.0999994
      vertex 11 10 0
      vertex 11 10 0.0999994
    endloop
  endfacet
  facet normal -0 0 1
    outer loop
      vertex 11 20 0.0999994
      vertex 11.8 10 0.0999994
      vertex 11.8 20 0.0999994
    endloop
  endfacet
  facet normal 0 0 1
    outer loop
      vertex 11.8 10 0.0999994
      vertex 11 20 0.0999994
      vertex 11 10 0.0999994
    endloop
  endfacet
  facet normal 1 -0 0
    outer loop
      vertex 11.8 10 0.0999994
      vertex 11.8 20 0
      vertex 11.8 20 0.0999994
    endloop
  endfacet
  facet normal 1 0 0
    outer loop
      vertex 11.8 20 0
      vertex 11.8 10 0.0999994
      vertex 11.8 10 0
    endloop
  endfacet
  facet normal 0 1 -0
    outer loop
      vertex 11.8 20 0
      vertex 11 20 0.0999994
      vertex 11.8 20 0.0999994
    endloop
  endfacet
  facet normal 0 1 0
    outer loop
      vertex 11 20 0.0999994
      vertex 11.8 20 0
      vertex 11 20 0
    endloop
  endfacet
  facet normal 0 0 -1
    outer loop
      vertex 11 10 0
      vertex 11.8 20 0
      vertex 11.8 10 0
    endloop
  endfacet
  facet normal -0 0 -1
    outer loop
      vertex 11.8 20 0
      vertex 11 10 0
      vertex 11 20 0
    endloop
  endfacet
  facet normal 0 -1 0
    outer loop
      vertex 11 10 0
      vertex 11.8 10 0.0999994
      vertex 11 10 0.0999994
    endloop
  endfacet
  facet normal 0 -1 -0
    outer loop
      vertex 11.8 10 0.0999994
      vertex 11 10 0
      vertex 11.8 10 0
    endloop
  endfacet
  facet normal -1 0 0
    outer loop
      vertex 12 10 0
      vertex 12 20 0.0999994
      vertex 12 20 0
    endloop
  endfacet
  facet normal -1 -0 0
    outer loop
      vertex 12 20 0.0999994
      vertex 12 10 0
      vertex 12 10 0.0999994
    endloop
  endfacet
  facet normal -0 0 1
    outer loop
      vertex 12 20 0.0999994
      vertex 12.8 10 0.0999994
      vertex 12.8 20 0.0999994
    endloop
  endfacet
  facet normal 0 0 1
    outer loop
      vertex 12.8 10 0.0999994
      vertex 12 20 0.0999994
      vertex 12 10 0.0999994
    endloop
  endfacet
  facet normal 1 -0 0
    outer loop
      vertex 12.8 10 0.0999994
      vertex 12.8 20 0
      vertex 12.8 20 0.0999994
    endloop
  endfacet
  facet normal 1 0 0
    outer loop
      vertex 12.8 20 0
      vertex 12.8 10 0.0999994
      vertex 12.8 10 0
    endloop
  endfacet
  facet normal 0 0 -1
    outer loop
      vertex 12 10 0
      vertex 12.8 20 0
      vertex 12.8 10 0
    endloop
  endfacet
  facet normal -0 0 -1
    outer loop
      vertex 12.8 20 0
      vertex 12 10 0
      vertex 12 20 0
    endloop
  endfacet
  facet normal 0 -1 0
    outer loop
      vertex 12 10 0
      vertex 12.8 10 0.0999994
      vertex 12 10 0.0999994
    endloop
  endfacet
  facet normal 0 -1 -0
    outer loop
      vertex 12.8 10 0.0999994
      vertex 12 10 0
      vertex 12.8 10 0
    endloop
  endfacet
  facet normal 0 1 -0
    outer loop
      vertex 12.8 20 0
      vertex 12 20 0.0999994
      vertex 12.8 20 0.0999994
    endloop
  endfacet
  facet normal 0 1 0
    outer loop
      vertex 12 20 0.0999994
      vertex 12.8 20 0
      vertex 12 20 0
    endloop
  endfacet
  facet normal -1 0 0
    outer loop
      vertex 13 10 0
      vertex 13 20 0.0999994
      vertex 13 20 0
    endloop
  endfacet
  facet normal -1 -0 0
    outer loop
      vertex 13 20 0.0999994
      vertex 13 10 0
      vertex 13 10 0.0999994
    endloop
  endfacet
  facet normal -0 0 1
    outer loop
      vertex 13 20 0.0999994
      vertex 13.8 10 0.0999994
      vertex 13.8 20 0.0999994
    endloop
  endfacet
  facet normal 0 0 1
    outer loop
      vertex 13.8 10 0.0999994
      vertex 13 20 0.0999994
      vertex 13 10 0.0999994
    endloop
  endfacet
  facet normal 1 -0 0
    outer loop
      vertex 13.8 10 0.0999994
      vertex 13.8 20 0
      vertex 13.8 20 0.0999994
    endloop
  endfacet
  facet normal 1 0 0
    outer loop
      vertex 13.8 20 0
      vertex 13.8 10 0.0999994
      vertex 13.8 10 0
    endloop
  endfacet
  facet normal 0 0 -1
    outer loop
      vertex 13 10 0
      vertex 13.8 20 0
      vertex 13.8 10 0
    endloop
  endfacet
  facet normal -0 0 -1
    outer loop
      vertex 13.8 20 0
      vertex 13 10 0
      vertex 13 20 0
    endloop
  endfacet
  facet normal 0 -1 0
    outer loop
      vertex 13 10 0
      vertex 13.8 10 0.0999994
      vertex 13 10 0.0999994
    endloop
  endfacet
  facet normal 0 -1 -0
    outer loop
      vertex 13.8 10 0.0999994
      vertex 13 10 0
      vertex 13.8 10 0
    endloop
  endfacet
  facet normal 0 1 -0
    outer loop
      vertex 13.8 20 0
      vertex 13 20 0.0999994
      vertex 13.8 20 0.0999994
    endloop
  endfacet
  facet normal 0 1 0
    outer loop
      vertex 13 20 0.0999994
      vertex 13.8 20 0
      vertex 13 20 0
    endloop
  endfacet
  facet normal -1 0 0
    outer loop
      vertex 14 10 0
      vertex 14 20 0.0999994
      vertex 14 20 0
    endloop
  endfacet
  facet normal -1 -0 0
    outer loop
      vertex 14 20 0.0999994
      vertex 14 10 0
      vertex 14 10 0.0999994
    endloop
  endfacet
  facet normal -0 0 1
    outer loop
      vertex 14 20 0.0999994
      vertex 14.8 10 0.0999994
      vertex 14.8 20 0.0999994
    endloop
  endfacet
  facet normal 0 0 1
    outer loop
      vertex 14.8 10 0.0999994
      vertex 14 20 0.0999994
      vertex 14 10 0.0999994
    endloop
  endfacet
  facet normal 1 -0 0
    outer loop
      vertex 14.8 10 0.0999994
      vertex 14.8 20 0
      vertex 14.8 20 0.0999994
    endloop
  endfacet
  facet normal 1 0 0
    outer loop
      vertex 14.8 20 0
      vertex 14.8 10 0.0999994
      vertex 14.8 10 0
    endloop
  endfacet
  facet normal 0 0 -1
    outer loop
      vertex 14 10 0
      vertex 14.8 20 0
      vertex 14.8 10 0
    endloop
  endfacet
  facet normal -0 0 -1
    outer loop
      vertex 14.8 20 0
      vertex 14 10 0
      vertex 14 20 0
    endloop
  endfacet
  facet normal 0 -1 0
    outer loop
      vertex 14 10 0
      vertex 14.8 10 0.0999994
      vertex 14 10 0.0999994
    endloop
  endfacet
  facet normal 0 -1 -0
    outer loop
      vertex 14.8 10 0.0999994
      vertex 14 10 0
      vertex 14.8 10 0
    endloop
  endfacet
  facet normal 0 1 -0
    outer loop
      vertex 14.8 20 0
      vertex 14 20 0.0999994
      vertex 14.8 20 0.0999994
    endloop
  endfacet
  facet normal 0 1 0
    outer loop
      vertex 14 20 0.0999994
      vertex 14.8 20 0
      vertex 14 20 0
    endloop
  endfacet
  facet normal -1 0 0
    outer loop
      vertex 15 10 0
      vertex 15 20 0.0999994
      vertex 15 20 0
    endloop
  endfacet
  facet normal -1 -0 0
    outer loop
      vertex 15 20 0.0999994
      vertex 15 10 0
      vertex 15 10 0.0999994
    endloop
  endfacet
  facet normal -0 0 1
    outer loop
      vertex 15 20 0.0999994
      vertex 15.8 10 0.0999994
      vertex 15.8 20 0.0999994
    endloop
  endfacet
  facet normal 0 0 1
    outer loop
      vertex 15.8 10 0.0999994
      vertex 15 20 0.0999994
      vertex 15 10 0.0999994
    endloop
  endfacet
  facet normal 1 -0 0
    outer loop
      vertex 15.8 10 0.0999994
      vertex 15.8 20 0
      vertex 15.8 20 0.0999994
    endloop
  endfacet
  facet normal 1 0 0
    outer loop
      vertex 15.8 20 0
      vertex 15.8 10 0.0999994
      vertex 15.8 10 0
    endloop
  endfacet
  facet normal 0 1 -0
    outer loop
      vertex 15.8 20 0
      vertex 15 20 0.0999994
      vertex 15.8 20 0.0999994
    endloop
  endfacet
  facet normal 0 1 0
    outer loop
      vertex 15 20 0.0999994
      vertex 15.8 20 0
      vertex 15 20 0
    endloop
  endfacet
  facet normal 0 0 -1
    outer loop
      vertex 15 10 0
      vertex 15.8 20 0
      vertex 15.8 10 0
    endloop
  endfacet
  facet normal -0 0 -1
    outer loop
      vertex 15.8 20 0
      vertex 15 10 0
      vertex 15 20 0
    endloop
  endfacet
  facet normal 0 -1 0
    outer loop
      vertex 15 10 0
      vertex 15.8 10 0.0999994
      vertex 15 10 0.0999994
    endloop
  endfacet
  facet normal 0 -1 -0
    outer loop
      vertex 15.8 10 0.0999994
      vertex 15 10 0
      vertex 15.8 10 0
    endloop
  endfacet
  facet normal -1 0 0
    outer loop
      vertex 16 10 0
      vertex 16 20 0.0999994
      vertex 16 20 0
    endloop
  endfacet
  facet normal -1 -0 0
    outer loop
      vertex 16 20 0.0999994
      vertex 16 10 0
      vertex 16 10 0.0999994
    endloop
  endfacet
  facet normal -0 0 1
    outer loop
      vertex 16 20 0.0999994
      vertex 16.8 10 0.0999994
      vertex 16.8 20 0.0999994
    endloop
  endfacet
  facet normal 0 0 1
    outer loop
      vertex 16.8 10 0.0999994
      vertex 16 20 0.0999994
      vertex 16 10 0.0999994
    endloop
  endfacet
  facet normal 1 -0 0
    outer loop
      vertex 16.8 10 0.0999994
      vertex 16.8 20 0
      vertex 16.8 20 0.0999994
    endloop
  endfacet
  facet normal 1 0 0
    outer loop
      vertex 16.8 20 0
      vertex 16.8 10 0.0999994
      vertex 16.8 10 0
    endloop
  endfacet
  facet normal 0 0 -1
    outer loop
      vertex 16 10 0
      vertex 16.8 20 0
      vertex 16.8 10 0
    endloop
  endfacet
  facet normal -0 0 -1
    outer loop
      vertex 16.8 20 0
      vertex 16 10 0
      vertex 16 20 0
    endloop
  endfacet
  facet normal 0 -1 0
    outer loop
      vertex 16 10 0
      vertex 16.8 10 0.0999994
      vertex 16 10 0.0999994
    endloop
  endfacet
  facet normal 0 -1 -0
    outer loop
      vertex 16.8 10 0.0999994
      vertex 16 10 0
      vertex 16.8 10 0
    endloop
  endfacet
  facet normal 0 1 -0
    outer loop
      vertex 16.8 20 0
      vertex 16 20 0.0999994
      vertex 16.8 20 0.0999994
    endloop
  endfacet
  facet normal 0 1 0
    outer loop
      vertex 16 20 0.0999994
      vertex 16.8 20 0
      vertex 16 20 0
    endloop
  endfacet
  facet normal -1 0 0
    outer loop
      vertex 17 10 0
      vertex 17 20 0.0999994
      vertex 17 20 0
    endloop
  endfacet
  facet normal -1 -0 0
    outer loop
      vertex 17 20 0.0999994
      vertex 17 10 0
      vertex 17 10 0.0999994
    endloop
  endfacet
  facet normal -0 0 1
    outer loop
      vertex 17 20 0.0999994
      vertex 17.8 10 0.0999994
      vertex 17.8 20 0.0999994
    endloop
  endfacet
  facet normal 0 0 1
    outer loop
      vertex 17.8 10 0.0999994
      vertex 17 20 0.0999994
      vertex 17 10 0.0999994
    endloop
  endfacet
  facet normal 1 -0 0
    outer loop
      vertex 17.8 10 0.0999994
      vertex 17.8 20 0
      vertex 17.8 20 0.0999994
    endloop
  endfacet
  facet normal 1 0 0
    outer loop
      vertex 17.8 20 0
      vertex 17.8 10 0.0999994
      vertex 17.8 10 0
    endloop
  endfacet
  facet normal 0 1 -0
    outer loop
      vertex 17.8 20 0
      vertex 17 20 0.0999994
      vertex 17.8 20 0.0999994
    endloop
  endfacet
  facet normal 0 1 0
    outer loop
      vertex 17 20 0.0999994
      vertex 17.8 20 0
      vertex 17 20 0
    endloop
  endfacet
  facet normal 0 0 -1
    outer loop
      vertex 17 10 0
      vertex 17.8 20 0
      vertex 17.8 10 0
    endloop
  endfacet
  facet normal -0 0 -1
    outer loop
      vertex 17.8 20 0
      vertex 17 10 0
      vertex 17 20 0
    endloop
  endfacet
  facet normal 0 -1 0
    outer loop
      vertex 17 10 0
      vertex 17.8 10 0.0999994
      vertex 17 10 0.0999994
    endloop
  endfacet
  facet normal 0 -1 -0
    outer loop
      vertex 17.8 10 0.0999994
      vertex 17 10 0
      vertex 17.8 10 0
    endloop
  endfacet
  facet normal -1 0 0
    outer loop
      vertex 18 10 0
      vertex 18 20 0.0999994
      vertex 18 20 0
    endloop
  endfacet
  facet normal -1 -0 0
    outer loop
      vertex 18 20 0.0999994
      vertex 18 10 0
      vertex 18 10 0.0999994
    endloop
  endfacet
  facet normal -0 0 1
    outer loop
      vertex 18 20 0.0999994
      vertex 18.8 10 0.0999994
      vertex 18.8 20 0.0999994
    endloop
  endfacet
  facet normal 0 0 1
    outer loop
      vertex 18.8 10 0.0999994
      vertex 18 20 0.0999994
      vertex 18 10 0.0999994
    endloop
  endfacet
  facet normal 1 -0 0
    outer loop
      vertex 18.8 10 0.0999994
      vertex 18.8 20 0
      vertex 18.8 20 0.0999994
    endloop
  endfacet
  facet normal 1 0 0
    outer loop
      vertex 18.8 20 0
      vertex 18.8 10 0.0999994
      vertex 18.8 10 0
    endloop
  endfacet
  facet normal 0 0 -1
    outer loop
      vertex 18 10 0
      vertex 18.8 20 0
      vertex 18.8 10 0
    endloop
  endfacet
  facet normal -0 0 -1
    outer loop
      vertex 18.8 20 0
      vertex 18 10 0
      vertex 18 20 0
    endloop
  endfacet
  facet normal 0 -1 0
    outer loop
      vertex 18 10 0
      vertex 18.8 10 0.0999994
      vertex 18 10 0.0999994
    endloop
  endfacet
  facet normal 0 -1 -0
    outer loop
      vertex 18.8 10 0.0999994
      vertex 18 10 0
      vertex 18.8 10 0
    endloop
  endfacet
  facet normal 0 1 -0
    outer loop
      vertex 18.8 20 0
      vertex 18 20 0.0999994
      vertex 18.8 20 0.0999994
    endloop
  endfacet
  facet normal 0 1 0
    outer loop
      vertex 18 20 0.0999994
      vertex 18.8 20 0
      vertex 18 20 0
    endloop
  endfacet
  facet normal -1 0 0
    outer loop
      vertex 19 10 0
      vertex 19 20 0.0999994
      vertex 19 20 0
    endloop
  endfacet
  facet normal -1 -0 0
    outer loop
      vertex 19 20 0.0999994
      vertex 19 10 0
      vertex 19 10 0.0999994
    endloop
  endfacet
  facet normal -0 0 1
    outer loop
      vertex 19 20 0.0999994
      vertex 19.8 10 0.0999994
      vertex 19.8 20 0.0999994
    endloop
  endfacet
  facet normal 0 0 1
    outer loop
      vertex 19.8 10 0.0999994
      vertex 19 20 0.0999994
      vertex 19 10 0.0999994
    endloop
  endfacet
  facet normal 1 -0 0
    outer loop
      vertex 19.8 10 0.0999994
      vertex 19.8 20 0
      vertex 19.8 20 0.0999994
    endloop
  endfacet
  facet normal 1 0 0
    outer loop
      vertex 19.8 20 0
      vertex 19.8 10 0.0999994
      vertex 19.8 10 0
    endloop
  endfacet
  facet normal 0 0 -1
    outer loop
      vertex 19 10 0
      vertex 19.8 20 0
      vertex 19.8 10 0
    endloop
  endfacet
  facet normal -0 0 -1
    outer loop
      vertex 19.8 20 0
      vertex 19 10 0
      vertex 19 20 0
    endloop
  endfacet
  facet normal 0 -1 0
    outer loop
      vertex 19 10 0
      vertex 19.8 10 0.0999994
      vertex 19 10 0.0999994
    endloop
  endfacet
  facet normal 0 -1 -0
    outer loop
      vertex 19.8 10 0.0999994
      vertex 19 10 0
      vertex 19.8 10 0
    endloop
  endfacet
  facet normal 0 1 -0
    outer loop
      vertex 19.8 20 0
      vertex 19 20 0.0999994
      vertex 19.8 20 0.0999994
    endloop
  endfacet
  facet normal 0 1 0
    outer loop
      vertex 19 20 0.0999994
      vertex 19.8 20 0
      vertex 19 20 0
    endloop
  endfacet
  facet normal -1 0 0
    outer loop
      vertex 20 10 0
      vertex 20 20 0.0999994
      vertex 20 20 0
    endloop
  endfacet
  facet normal -1 -0 0
    outer loop
      vertex 20 20 0.0999994
      vertex 20 10 0
      vertex 20 10 0.0999994
    endloop
  endfacet
  facet normal -0 0 1
    outer loop
      vertex 20 20 0.0999994
      vertex 20.8 10 0.0999994
      vertex 20.8 20 0.0999994
    endloop
  endfacet
  facet normal 0 0 1
    outer loop
      vertex 20.8 10 0.0999994
      vertex 20 20 0.0999994
      vertex 20 10 0.0999994
    endloop
  endfacet
  facet normal 1 -0 0
    outer loop
      vertex 20.8 10 0.0999994
      vertex 20.8 20 0
      vertex 20.8 20 0.0999994
    endloop
  endfacet
  facet normal 1 0 0
    outer loop
      vertex 20.8 20 0
      vertex 20.8 10 0.0999994
      vertex 20.8 10 0
    endloop
  endfacet
  facet normal 0 0 -1
    outer loop
      vertex 20 10 0
      vertex 20.8 20 0
      vertex 20.8 10 0
    endloop
  endfacet
  facet normal -0 0 -1
    outer loop
      vertex 20.8 20 0
      vertex 20 10 0
      vertex 20 20 0
    endloop
  endfacet
  facet normal 0 -1 0
    outer loop
      vertex 20 10 0
      vertex 20.8 10 0.0999994
      vertex 20 10 0.0999994
    endloop
  endfacet
  facet normal 0 -1 -0
    outer loop
      vertex 20.8 10 0.0999994
      vertex 20 10 0
      vertex 20.8 10 0
    endloop
  endfacet
  facet normal 0 1 -0
    outer loop
      vertex 20.8 20 0
      vertex 20 20 0.0999994
      vertex 20.8 20 0.0999994
    endloop
  endfacet
  facet normal 0 1 0
    outer loop
      vertex 20 20 0.0999994
      vertex 20.8 20 0
      vertex 20 20 0
    endloop
  endfacet
endsolid OpenSCAD_Model
