solid OpenSCAD_Model
  facet normal -1 0 0
    outer loop
      vertex 70 90 0
      vertex 70 100 0.0999994
      vertex 70 100 0
    endloop
  endfacet
  facet normal -1 -0 0
    outer loop
      vertex 70 100 0.0999994
      vertex 70 90 0
      vertex 70 90 0.0999994
    endloop
  endfacet
  facet normal -0 0 1
    outer loop
      vertex 70 100 0.0999994
      vertex 70.8 90 0.0999994
      vertex 70.8 100 0.0999994
    endloop
  endfacet
  facet normal 0 0 1
    outer loop
      vertex 70.8 90 0.0999994
      vertex 70 100 0.0999994
      vertex 70 90 0.0999994
    endloop
  endfacet
  facet normal 1 -0 0
    outer loop
      vertex 70.8 90 0.0999994
      vertex 70.8 100 0
      vertex 70.8 100 0.0999994
    endloop
  endfacet
  facet normal 1 0 0
    outer loop
      vertex 70.8 100 0
      vertex 70.8 90 0.0999994
      vertex 70.8 90 0
    endloop
  endfacet
  facet normal 0 0 -1
    outer loop
      vertex 70 90 0
      vertex 70.8 100 0
      vertex 70.8 90 0
    endloop
  endfacet
  facet normal -0 0 -1
    outer loop
      vertex 70.8 100 0
      vertex 70 90 0
      vertex 70 100 0
    endloop
  endfacet
  facet normal 0 -1 0
    outer loop
      vertex 70 90 0
      vertex 70.8 90 0.0999994
      vertex 70 90 0.0999994
    endloop
  endfacet
  facet normal 0 -1 -0
    outer loop
      vertex 70.8 90 0.0999994
      vertex 70 90 0
      vertex 70.8 90 0
    endloop
  endfacet
  facet normal 0 1 -0
    outer loop
      vertex 70.8 100 0
      vertex 70 100 0.0999994
      vertex 70.8 100 0.0999994
    endloop
  endfacet
  facet normal 0 1 0
    outer loop
      vertex 70 100 0.0999994
      vertex 70.8 100 0
      vertex 70 100 0
    endloop
  endfacet
  facet normal -1 0 0
    outer loop
      vertex 71 90 0
      vertex 71 100 0.0999994
      vertex 71 100 0
    endloop
  endfacet
  facet normal -1 -0 0
    outer loop
      vertex 71 100 0.0999994
      vertex 71 90 0
      vertex 71 90 0.0999994
    endloop
  endfacet
  facet normal -0 0 1
    outer loop
      vertex 71 100 0.0999994
      vertex 71.8 90 0.0999994
      vertex 71.8 100 0.0999994
    endloop
  endfacet
  facet normal 0 0 1
    outer loop
      vertex 71.8 90 0.0999994
      vertex 71 100 0.0999994
      vertex 71 90 0.0999994
    endloop
  endfacet
  facet normal 1 -0 0
    outer loop
      vertex 71.8 90 0.0999994
      vertex 71.8 100 0
      vertex 71.8 100 0.0999994
    endloop
  endfacet
  facet normal 1 0 0
    outer loop
      vertex 71.8 100 0
      vertex 71.8 90 0.0999994
      vertex 71.8 90 0
    endloop
  endfacet
  facet normal 0 1 -0
    outer loop
      vertex 71.8 100 0
      vertex 71 100 0.0999994
      vertex 71.8 100 0.0999994
    endloop
  endfacet
  facet normal 0 1 0
    outer loop
      vertex 71 100 0.0999994
      vertex 71.8 100 0
      vertex 71 100 0
    endloop
  endfacet
  facet normal 0 0 -1
    outer loop
      vertex 71 90 0
      vertex 71.8 100 0
      vertex 71.8 90 0
    endloop
  endfacet
  facet normal -0 0 -1
    outer loop
      vertex 71.8 100 0
      vertex 71 90 0
      vertex 71 100 0
    endloop
  endfacet
  facet normal 0 -1 0
    outer loop
      vertex 71 90 0
      vertex 71.8 90 0.0999994
      vertex 71 90 0.0999994
    endloop
  endfacet
  facet normal 0 -1 -0
    outer loop
      vertex 71.8 90 0.0999994
      vertex 71 90 0
      vertex 71.8 90 0
    endloop
  endfacet
  facet normal -1 0 0
    outer loop
      vertex 72 90 0
      vertex 72 100 0.0999994
      vertex 72 100 0
    endloop
  endfacet
  facet normal -1 -0 0
    outer loop
      vertex 72 100 0.0999994
      vertex 72 90 0
      vertex 72 90 0.0999994
    endloop
  endfacet
  facet normal -0 0 1
    outer loop
      vertex 72 100 0.0999994
      vertex 72.8 90 0.0999994
      vertex 72.8 100 0.0999994
    endloop
  endfacet
  facet normal 0 0 1
    outer loop
      vertex 72.8 90 0.0999994
      vertex 72 100 0.0999994
      vertex 72 90 0.0999994
    endloop
  endfacet
  facet normal 1 -0 0
    outer loop
      vertex 72.8 90 0.0999994
      vertex 72.8 100 0
      vertex 72.8 100 0.0999994
    endloop
  endfacet
  facet normal 1 0 0
    outer loop
      vertex 72.8 100 0
      vertex 72.8 90 0.0999994
      vertex 72.8 90 0
    endloop
  endfacet
  facet normal 0 0 -1
    outer loop
      vertex 72 90 0
      vertex 72.8 100 0
      vertex 72.8 90 0
    endloop
  endfacet
  facet normal -0 0 -1
    outer loop
      vertex 72.8 100 0
      vertex 72 90 0
      vertex 72 100 0
    endloop
  endfacet
  facet normal 0 -1 0
    outer loop
      vertex 72 90 0
      vertex 72.8 90 0.0999994
      vertex 72 90 0.0999994
    endloop
  endfacet
  facet normal 0 -1 -0
    outer loop
      vertex 72.8 90 0.0999994
      vertex 72 90 0
      vertex 72.8 90 0
    endloop
  endfacet
  facet normal 0 1 -0
    outer loop
      vertex 72.8 100 0
      vertex 72 100 0.0999994
      vertex 72.8 100 0.0999994
    endloop
  endfacet
  facet normal 0 1 0
    outer loop
      vertex 72 100 0.0999994
      vertex 72.8 100 0
      vertex 72 100 0
    endloop
  endfacet
  facet normal -1 0 0
    outer loop
      vertex 73 90 0
      vertex 73 100 0.0999994
      vertex 73 100 0
    endloop
  endfacet
  facet normal -1 -0 0
    outer loop
      vertex 73 100 0.0999994
      vertex 73 90 0
      vertex 73 90 0.0999994
    endloop
  endfacet
  facet normal -0 0 1
    outer loop
      vertex 73 100 0.0999994
      vertex 73.8 90 0.0999994
      vertex 73.8 100 0.0999994
    endloop
  endfacet
  facet normal 0 0 1
    outer loop
      vertex 73.8 90 0.0999994
      vertex 73 100 0.0999994
      vertex 73 90 0.0999994
    endloop
  endfacet
  facet normal 1 -0 0
    outer loop
      vertex 73.8 90 0.0999994
      vertex 73.8 100 0
      vertex 73.8 100 0.0999994
    endloop
  endfacet
  facet normal 1 0 0
    outer loop
      vertex 73.8 100 0
      vertex 73.8 90 0.0999994
      vertex 73.8 90 0
    endloop
  endfacet
  facet normal 0 1 -0
    outer loop
      vertex 73.8 100 0
      vertex 73 100 0.0999994
      vertex 73.8 100 0.0999994
    endloop
  endfacet
  facet normal 0 1 0
    outer loop
      vertex 73 100 0.0999994
      vertex 73.8 100 0
      vertex 73 100 0
    endloop
  endfacet
  facet normal 0 0 -1
    outer loop
      vertex 73 90 0
      vertex 73.8 100 0
      vertex 73.8 90 0
    endloop
  endfacet
  facet normal -0 0 -1
    outer loop
      vertex 73.8 100 0
      vertex 73 90 0
      vertex 73 100 0
    endloop
  endfacet
  facet normal 0 -1 0
    outer loop
      vertex 73 90 0
      vertex 73.8 90 0.0999994
      vertex 73 90 0.0999994
    endloop
  endfacet
  facet normal 0 -1 -0
    outer loop
      vertex 73.8 90 0.0999994
      vertex 73 90 0
      vertex 73.8 90 0
    endloop
  endfacet
  facet normal -1 0 0
    outer loop
      vertex 74 90 0
      vertex 74 100 0.0999994
      vertex 74 100 0
    endloop
  endfacet
  facet normal -1 -0 0
    outer loop
      vertex 74 100 0.0999994
      vertex 74 90 0
      vertex 74 90 0.0999994
    endloop
  endfacet
  facet normal -0 0 1
    outer loop
      vertex 74 100 0.0999994
      vertex 74.8 90 0.0999994
      vertex 74.8 100 0.0999994
    endloop
  endfacet
  facet normal 0 0 1
    outer loop
      vertex 74.8 90 0.0999994
      vertex 74 100 0.0999994
      vertex 74 90 0.0999994
    endloop
  endfacet
  facet normal 1 -0 0
    outer loop
      vertex 74.8 90 0.0999994
      vertex 74.8 100 0
      vertex 74.8 100 0.0999994
    endloop
  endfacet
  facet normal 1 0 0
    outer loop
      vertex 74.8 100 0
      vertex 74.8 90 0.0999994
      vertex 74.8 90 0
    endloop
  endfacet
  facet normal 0 1 -0
    outer loop
      vertex 74.8 100 0
      vertex 74 100 0.0999994
      vertex 74.8 100 0.0999994
    endloop
  endfacet
  facet normal 0 1 0
    outer loop
      vertex 74 100 0.0999994
      vertex 74.8 100 0
      vertex 74 100 0
    endloop
  endfacet
  facet normal 0 0 -1
    outer loop
      vertex 74 90 0
      vertex 74.8 100 0
      vertex 74.8 90 0
    endloop
  endfacet
  facet normal -0 0 -1
    outer loop
      vertex 74.8 100 0
      vertex 74 90 0
      vertex 74 100 0
    endloop
  endfacet
  facet normal 0 -1 0
    outer loop
      vertex 74 90 0
      vertex 74.8 90 0.0999994
      vertex 74 90 0.0999994
    endloop
  endfacet
  facet normal 0 -1 -0
    outer loop
      vertex 74.8 90 0.0999994
      vertex 74 90 0
      vertex 74.8 90 0
    endloop
  endfacet
  facet normal -1 0 0
    outer loop
      vertex 75 90 0
      vertex 75 100 0.0999994
      vertex 75 100 0
    endloop
  endfacet
  facet normal -1 -0 0
    outer loop
      vertex 75 100 0.0999994
      vertex 75 90 0
      vertex 75 90 0.0999994
    endloop
  endfacet
  facet normal -0 0 1
    outer loop
      vertex 75 100 0.0999994
      vertex 75.8 90 0.0999994
      vertex 75.8 100 0.0999994
    endloop
  endfacet
  facet normal 0 0 1
    outer loop
      vertex 75.8 90 0.0999994
      vertex 75 100 0.0999994
      vertex 75 90 0.0999994
    endloop
  endfacet
  facet normal 1 -0 0
    outer loop
      vertex 75.8 90 0.0999994
      vertex 75.8 100 0
      vertex 75.8 100 0.0999994
    endloop
  endfacet
  facet normal 1 0 0
    outer loop
      vertex 75.8 100 0
      vertex 75.8 90 0.0999994
      vertex 75.8 90 0
    endloop
  endfacet
  facet normal 0 1 -0
    outer loop
      vertex 75.8 100 0
      vertex 75 100 0.0999994
      vertex 75.8 100 0.0999994
    endloop
  endfacet
  facet normal 0 1 0
    outer loop
      vertex 75 100 0.0999994
      vertex 75.8 100 0
      vertex 75 100 0
    endloop
  endfacet
  facet normal 0 0 -1
    outer loop
      vertex 75 90 0
      vertex 75.8 100 0
      vertex 75.8 90 0
    endloop
  endfacet
  facet normal -0 0 -1
    outer loop
      vertex 75.8 100 0
      vertex 75 90 0
      vertex 75 100 0
    endloop
  endfacet
  facet normal 0 -1 0
    outer loop
      vertex 75 90 0
      vertex 75.8 90 0.0999994
      vertex 75 90 0.0999994
    endloop
  endfacet
  facet normal 0 -1 -0
    outer loop
      vertex 75.8 90 0.0999994
      vertex 75 90 0
      vertex 75.8 90 0
    endloop
  endfacet
  facet normal -1 0 0
    outer loop
      vertex 76 90 0
      vertex 76 100 0.0999994
      vertex 76 100 0
    endloop
  endfacet
  facet normal -1 -0 0
    outer loop
      vertex 76 100 0.0999994
      vertex 76 90 0
      vertex 76 90 0.0999994
    endloop
  endfacet
  facet normal -0 0 1
    outer loop
      vertex 76 100 0.0999994
      vertex 76.8 90 0.0999994
      vertex 76.8 100 0.0999994
    endloop
  endfacet
  facet normal 0 0 1
    outer loop
      vertex 76.8 90 0.0999994
      vertex 76 100 0.0999994
      vertex 76 90 0.0999994
    endloop
  endfacet
  facet normal 1 -0 0
    outer loop
      vertex 76.8 90 0.0999994
      vertex 76.8 100 0
      vertex 76.8 100 0.0999994
    endloop
  endfacet
  facet normal 1 0 0
    outer loop
      vertex 76.8 100 0
      vertex 76.8 90 0.0999994
      vertex 76.8 90 0
    endloop
  endfacet
  facet normal 0 0 -1
    outer loop
      vertex 76 90 0
      vertex 76.8 100 0
      vertex 76.8 90 0
    endloop
  endfacet
  facet normal -0 0 -1
    outer loop
      vertex 76.8 100 0
      vertex 76 90 0
      vertex 76 100 0
    endloop
  endfacet
  facet normal 0 -1 0
    outer loop
      vertex 76 90 0
      vertex 76.8 90 0.0999994
      vertex 76 90 0.0999994
    endloop
  endfacet
  facet normal 0 -1 -0
    outer loop
      vertex 76.8 90 0.0999994
      vertex 76 90 0
      vertex 76.8 90 0
    endloop
  endfacet
  facet normal 0 1 -0
    outer loop
      vertex 76.8 100 0
      vertex 76 100 0.0999994
      vertex 76.8 100 0.0999994
    endloop
  endfacet
  facet normal 0 1 0
    outer loop
      vertex 76 100 0.0999994
      vertex 76.8 100 0
      vertex 76 100 0
    endloop
  endfacet
  facet normal -1 0 0
    outer loop
      vertex 77 90 0
      vertex 77 100 0.0999994
      vertex 77 100 0
    endloop
  endfacet
  facet normal -1 -0 0
    outer loop
      vertex 77 100 0.0999994
      vertex 77 90 0
      vertex 77 90 0.0999994
    endloop
  endfacet
  facet normal -0 0 1
    outer loop
      vertex 77 100 0.0999994
      vertex 77.8 90 0.0999994
      vertex 77.8 100 0.0999994
    endloop
  endfacet
  facet normal 0 0 1
    outer loop
      vertex 77.8 90 0.0999994
      vertex 77 100 0.0999994
      vertex 77 90 0.0999994
    endloop
  endfacet
  facet normal 1 -0 0
    outer loop
      vertex 77.8 90 0.0999994
      vertex 77.8 100 0
      vertex 77.8 100 0.0999994
    endloop
  endfacet
  facet normal 1 0 0
    outer loop
      vertex 77.8 100 0
      vertex 77.8 90 0.0999994
      vertex 77.8 90 0
    endloop
  endfacet
  facet normal 0 1 -0
    outer loop
      vertex 77.8 100 0
      vertex 77 100 0.0999994
      vertex 77.8 100 0.0999994
    endloop
  endfacet
  facet normal 0 1 0
    outer loop
      vertex 77 100 0.0999994
      vertex 77.8 100 0
      vertex 77 100 0
    endloop
  endfacet
  facet normal 0 0 -1
    outer loop
      vertex 77 90 0
      vertex 77.8 100 0
      vertex 77.8 90 0
    endloop
  endfacet
  facet normal -0 0 -1
    outer loop
      vertex 77.8 100 0
      vertex 77 90 0
      vertex 77 100 0
    endloop
  endfacet
  facet normal 0 -1 0
    outer loop
      vertex 77 90 0
      vertex 77.8 90 0.0999994
      vertex 77 90 0.0999994
    endloop
  endfacet
  facet normal 0 -1 -0
    outer loop
      vertex 77.8 90 0.0999994
      vertex 77 90 0
      vertex 77.8 90 0
    endloop
  endfacet
  facet normal -1 0 0
    outer loop
      vertex 78 90 0
      vertex 78 100 0.0999994
      vertex 78 100 0
    endloop
  endfacet
  facet normal -1 -0 0
    outer loop
      vertex 78 100 0.0999994
      vertex 78 90 0
      vertex 78 90 0.0999994
    endloop
  endfacet
  facet normal -0 0 1
    outer loop
      vertex 78 100 0.0999994
      vertex 78.8 90 0.0999994
      vertex 78.8 100 0.0999994
    endloop
  endfacet
  facet normal 0 0 1
    outer loop
      vertex 78.8 90 0.0999994
      vertex 78 100 0.0999994
      vertex 78 90 0.0999994
    endloop
  endfacet
  facet normal 1 -0 0
    outer loop
      vertex 78.8 90 0.0999994
      vertex 78.8 100 0
      vertex 78.8 100 0.0999994
    endloop
  endfacet
  facet normal 1 0 0
    outer loop
      vertex 78.8 100 0
      vertex 78.8 90 0.0999994
      vertex 78.8 90 0
    endloop
  endfacet
  facet normal 0 0 -1
    outer loop
      vertex 78 90 0
      vertex 78.8 100 0
      vertex 78.8 90 0
    endloop
  endfacet
  facet normal -0 0 -1
    outer loop
      vertex 78.8 100 0
      vertex 78 90 0
      vertex 78 100 0
    endloop
  endfacet
  facet normal 0 -1 0
    outer loop
      vertex 78 90 0
      vertex 78.8 90 0.0999994
      vertex 78 90 0.0999994
    endloop
  endfacet
  facet normal 0 -1 -0
    outer loop
      vertex 78.8 90 0.0999994
      vertex 78 90 0
      vertex 78.8 90 0
    endloop
  endfacet
  facet normal 0 1 -0
    outer loop
      vertex 78.8 100 0
      vertex 78 100 0.0999994
      vertex 78.8 100 0.0999994
    endloop
  endfacet
  facet normal 0 1 0
    outer loop
      vertex 78 100 0.0999994
      vertex 78.8 100 0
      vertex 78 100 0
    endloop
  endfacet
  facet normal -1 0 0
    outer loop
      vertex 79 90 0
      vertex 79 100 0.0999994
      vertex 79 100 0
    endloop
  endfacet
  facet normal -1 -0 0
    outer loop
      vertex 79 100 0.0999994
      vertex 79 90 0
      vertex 79 90 0.0999994
    endloop
  endfacet
  facet normal -0 0 1
    outer loop
      vertex 79 100 0.0999994
      vertex 79.8 90 0.0999994
      vertex 79.8 100 0.0999994
    endloop
  endfacet
  facet normal 0 0 1
    outer loop
      vertex 79.8 90 0.0999994
      vertex 79 100 0.0999994
      vertex 79 90 0.0999994
    endloop
  endfacet
  facet normal 1 -0 0
    outer loop
      vertex 79.8 90 0.0999994
      vertex 79.8 100 0
      vertex 79.8 100 0.0999994
    endloop
  endfacet
  facet normal 1 0 0
    outer loop
      vertex 79.8 100 0
      vertex 79.8 90 0.0999994
      vertex 79.8 90 0
    endloop
  endfacet
  facet normal 0 1 -0
    outer loop
      vertex 79.8 100 0
      vertex 79 100 0.0999994
      vertex 79.8 100 0.0999994
    endloop
  endfacet
  facet normal 0 1 0
    outer loop
      vertex 79 100 0.0999994
      vertex 79.8 100 0
      vertex 79 100 0
    endloop
  endfacet
  facet normal 0 0 -1
    outer loop
      vertex 79 90 0
      vertex 79.8 100 0
      vertex 79.8 90 0
    endloop
  endfacet
  facet normal -0 0 -1
    outer loop
      vertex 79.8 100 0
      vertex 79 90 0
      vertex 79 100 0
    endloop
  endfacet
  facet normal 0 -1 0
    outer loop
      vertex 79 90 0
      vertex 79.8 90 0.0999994
      vertex 79 90 0.0999994
    endloop
  endfacet
  facet normal 0 -1 -0
    outer loop
      vertex 79.8 90 0.0999994
      vertex 79 90 0
      vertex 79.8 90 0
    endloop
  endfacet
  facet normal -1 0 0
    outer loop
      vertex 80 90 0
      vertex 80 100 0.0999994
      vertex 80 100 0
    endloop
  endfacet
  facet normal -1 -0 0
    outer loop
      vertex 80 100 0.0999994
      vertex 80 90 0
      vertex 80 90 0.0999994
    endloop
  endfacet
  facet normal -0 0 1
    outer loop
      vertex 80 100 0.0999994
      vertex 80.8 90 0.0999994
      vertex 80.8 100 0.0999994
    endloop
  endfacet
  facet normal 0 0 1
    outer loop
      vertex 80.8 90 0.0999994
      vertex 80 100 0.0999994
      vertex 80 90 0.0999994
    endloop
  endfacet
  facet normal 1 -0 0
    outer loop
      vertex 80.8 90 0.0999994
      vertex 80.8 100 0
      vertex 80.8 100 0.0999994
    endloop
  endfacet
  facet normal 1 0 0
    outer loop
      vertex 80.8 100 0
      vertex 80.8 90 0.0999994
      vertex 80.8 90 0
    endloop
  endfacet
  facet normal 0 0 -1
    outer loop
      vertex 80 90 0
      vertex 80.8 100 0
      vertex 80.8 90 0
    endloop
  endfacet
  facet normal -0 0 -1
    outer loop
      vertex 80.8 100 0
      vertex 80 90 0
      vertex 80 100 0
    endloop
  endfacet
  facet normal 0 -1 0
    outer loop
      vertex 80 90 0
      vertex 80.8 90 0.0999994
      vertex 80 90 0.0999994
    endloop
  endfacet
  facet normal 0 -1 -0
    outer loop
      vertex 80.8 90 0.0999994
      vertex 80 90 0
      vertex 80.8 90 0
    endloop
  endfacet
  facet normal 0 1 -0
    outer loop
      vertex 80.8 100 0
      vertex 80 100 0.0999994
      vertex 80.8 100 0.0999994
    endloop
  endfacet
  facet normal 0 1 0
    outer loop
      vertex 80 100 0.0999994
      vertex 80.8 100 0
      vertex 80 100 0
    endloop
  endfacet
endsolid OpenSCAD_Model
