solid OpenSCAD_Model
  facet normal -1 0 0
    outer loop
      vertex 130 190 0
      vertex 130 200 0.0999994
      vertex 130 200 0
    endloop
  endfacet
  facet normal -1 -0 0
    outer loop
      vertex 130 200 0.0999994
      vertex 130 190 0
      vertex 130 190 0.0999994
    endloop
  endfacet
  facet normal -0 0 1
    outer loop
      vertex 130 200 0.0999994
      vertex 130.8 190 0.0999994
      vertex 130.8 200 0.0999994
    endloop
  endfacet
  facet normal 0 0 1
    outer loop
      vertex 130.8 190 0.0999994
      vertex 130 200 0.0999994
      vertex 130 190 0.0999994
    endloop
  endfacet
  facet normal 1 -0 0
    outer loop
      vertex 130.8 190 0.0999994
      vertex 130.8 200 0
      vertex 130.8 200 0.0999994
    endloop
  endfacet
  facet normal 1 0 0
    outer loop
      vertex 130.8 200 0
      vertex 130.8 190 0.0999994
      vertex 130.8 190 0
    endloop
  endfacet
  facet normal 0 1 -0
    outer loop
      vertex 130.8 200 0
      vertex 130 200 0.0999994
      vertex 130.8 200 0.0999994
    endloop
  endfacet
  facet normal 0 1 0
    outer loop
      vertex 130 200 0.0999994
      vertex 130.8 200 0
      vertex 130 200 0
    endloop
  endfacet
  facet normal 0 0 -1
    outer loop
      vertex 130 190 0
      vertex 130.8 200 0
      vertex 130.8 190 0
    endloop
  endfacet
  facet normal -0 0 -1
    outer loop
      vertex 130.8 200 0
      vertex 130 190 0
      vertex 130 200 0
    endloop
  endfacet
  facet normal 0 -1 0
    outer loop
      vertex 130 190 0
      vertex 130.8 190 0.0999994
      vertex 130 190 0.0999994
    endloop
  endfacet
  facet normal 0 -1 -0
    outer loop
      vertex 130.8 190 0.0999994
      vertex 130 190 0
      vertex 130.8 190 0
    endloop
  endfacet
  facet normal -1 0 0
    outer loop
      vertex 131 190 0
      vertex 131 200 0.0999994
      vertex 131 200 0
    endloop
  endfacet
  facet normal -1 -0 0
    outer loop
      vertex 131 200 0.0999994
      vertex 131 190 0
      vertex 131 190 0.0999994
    endloop
  endfacet
  facet normal -0 0 1
    outer loop
      vertex 131 200 0.0999994
      vertex 131.8 190 0.0999994
      vertex 131.8 200 0.0999994
    endloop
  endfacet
  facet normal 0 0 1
    outer loop
      vertex 131.8 190 0.0999994
      vertex 131 200 0.0999994
      vertex 131 190 0.0999994
    endloop
  endfacet
  facet normal 1 -0 0
    outer loop
      vertex 131.8 190 0.0999994
      vertex 131.8 200 0
      vertex 131.8 200 0.0999994
    endloop
  endfacet
  facet normal 1 0 0
    outer loop
      vertex 131.8 200 0
      vertex 131.8 190 0.0999994
      vertex 131.8 190 0
    endloop
  endfacet
  facet normal 0 1 -0
    outer loop
      vertex 131.8 200 0
      vertex 131 200 0.0999994
      vertex 131.8 200 0.0999994
    endloop
  endfacet
  facet normal 0 1 0
    outer loop
      vertex 131 200 0.0999994
      vertex 131.8 200 0
      vertex 131 200 0
    endloop
  endfacet
  facet normal 0 0 -1
    outer loop
      vertex 131 190 0
      vertex 131.8 200 0
      vertex 131.8 190 0
    endloop
  endfacet
  facet normal -0 0 -1
    outer loop
      vertex 131.8 200 0
      vertex 131 190 0
      vertex 131 200 0
    endloop
  endfacet
  facet normal 0 -1 0
    outer loop
      vertex 131 190 0
      vertex 131.8 190 0.0999994
      vertex 131 190 0.0999994
    endloop
  endfacet
  facet normal 0 -1 -0
    outer loop
      vertex 131.8 190 0.0999994
      vertex 131 190 0
      vertex 131.8 190 0
    endloop
  endfacet
  facet normal -1 0 0
    outer loop
      vertex 132 190 0
      vertex 132 200 0.0999994
      vertex 132 200 0
    endloop
  endfacet
  facet normal -1 -0 0
    outer loop
      vertex 132 200 0.0999994
      vertex 132 190 0
      vertex 132 190 0.0999994
    endloop
  endfacet
  facet normal -0 0 1
    outer loop
      vertex 132 200 0.0999994
      vertex 132.8 190 0.0999994
      vertex 132.8 200 0.0999994
    endloop
  endfacet
  facet normal 0 0 1
    outer loop
      vertex 132.8 190 0.0999994
      vertex 132 200 0.0999994
      vertex 132 190 0.0999994
    endloop
  endfacet
  facet normal 1 -0 0
    outer loop
      vertex 132.8 190 0.0999994
      vertex 132.8 200 0
      vertex 132.8 200 0.0999994
    endloop
  endfacet
  facet normal 1 0 0
    outer loop
      vertex 132.8 200 0
      vertex 132.8 190 0.0999994
      vertex 132.8 190 0
    endloop
  endfacet
  facet normal 0 0 -1
    outer loop
      vertex 132 190 0
      vertex 132.8 200 0
      vertex 132.8 190 0
    endloop
  endfacet
  facet normal -0 0 -1
    outer loop
      vertex 132.8 200 0
      vertex 132 190 0
      vertex 132 200 0
    endloop
  endfacet
  facet normal 0 -1 0
    outer loop
      vertex 132 190 0
      vertex 132.8 190 0.0999994
      vertex 132 190 0.0999994
    endloop
  endfacet
  facet normal 0 -1 -0
    outer loop
      vertex 132.8 190 0.0999994
      vertex 132 190 0
      vertex 132.8 190 0
    endloop
  endfacet
  facet normal 0 1 -0
    outer loop
      vertex 132.8 200 0
      vertex 132 200 0.0999994
      vertex 132.8 200 0.0999994
    endloop
  endfacet
  facet normal 0 1 0
    outer loop
      vertex 132 200 0.0999994
      vertex 132.8 200 0
      vertex 132 200 0
    endloop
  endfacet
  facet normal -1 0 0
    outer loop
      vertex 133 190 0
      vertex 133 200 0.0999994
      vertex 133 200 0
    endloop
  endfacet
  facet normal -1 -0 0
    outer loop
      vertex 133 200 0.0999994
      vertex 133 190 0
      vertex 133 190 0.0999994
    endloop
  endfacet
  facet normal -0 0 1
    outer loop
      vertex 133 200 0.0999994
      vertex 133.8 190 0.0999994
      vertex 133.8 200 0.0999994
    endloop
  endfacet
  facet normal 0 0 1
    outer loop
      vertex 133.8 190 0.0999994
      vertex 133 200 0.0999994
      vertex 133 190 0.0999994
    endloop
  endfacet
  facet normal 1 -0 0
    outer loop
      vertex 133.8 190 0.0999994
      vertex 133.8 200 0
      vertex 133.8 200 0.0999994
    endloop
  endfacet
  facet normal 1 0 0
    outer loop
      vertex 133.8 200 0
      vertex 133.8 190 0.0999994
      vertex 133.8 190 0
    endloop
  endfacet
  facet normal 0 1 -0
    outer loop
      vertex 133.8 200 0
      vertex 133 200 0.0999994
      vertex 133.8 200 0.0999994
    endloop
  endfacet
  facet normal 0 1 0
    outer loop
      vertex 133 200 0.0999994
      vertex 133.8 200 0
      vertex 133 200 0
    endloop
  endfacet
  facet normal 0 0 -1
    outer loop
      vertex 133 190 0
      vertex 133.8 200 0
      vertex 133.8 190 0
    endloop
  endfacet
  facet normal -0 0 -1
    outer loop
      vertex 133.8 200 0
      vertex 133 190 0
      vertex 133 200 0
    endloop
  endfacet
  facet normal 0 -1 0
    outer loop
      vertex 133 190 0
      vertex 133.8 190 0.0999994
      vertex 133 190 0.0999994
    endloop
  endfacet
  facet normal 0 -1 -0
    outer loop
      vertex 133.8 190 0.0999994
      vertex 133 190 0
      vertex 133.8 190 0
    endloop
  endfacet
  facet normal -1 0 0
    outer loop
      vertex 134 190 0
      vertex 134 200 0.0999994
      vertex 134 200 0
    endloop
  endfacet
  facet normal -1 -0 0
    outer loop
      vertex 134 200 0.0999994
      vertex 134 190 0
      vertex 134 190 0.0999994
    endloop
  endfacet
  facet normal -0 0 1
    outer loop
      vertex 134 200 0.0999994
      vertex 134.8 190 0.0999994
      vertex 134.8 200 0.0999994
    endloop
  endfacet
  facet normal 0 0 1
    outer loop
      vertex 134.8 190 0.0999994
      vertex 134 200 0.0999994
      vertex 134 190 0.0999994
    endloop
  endfacet
  facet normal 1 -0 0
    outer loop
      vertex 134.8 190 0.0999994
      vertex 134.8 200 0
      vertex 134.8 200 0.0999994
    endloop
  endfacet
  facet normal 1 0 0
    outer loop
      vertex 134.8 200 0
      vertex 134.8 190 0.0999994
      vertex 134.8 190 0
    endloop
  endfacet
  facet normal 0 1 -0
    outer loop
      vertex 134.8 200 0
      vertex 134 200 0.0999994
      vertex 134.8 200 0.0999994
    endloop
  endfacet
  facet normal 0 1 0
    outer loop
      vertex 134 200 0.0999994
      vertex 134.8 200 0
      vertex 134 200 0
    endloop
  endfacet
  facet normal 0 0 -1
    outer loop
      vertex 134 190 0
      vertex 134.8 200 0
      vertex 134.8 190 0
    endloop
  endfacet
  facet normal -0 0 -1
    outer loop
      vertex 134.8 200 0
      vertex 134 190 0
      vertex 134 200 0
    endloop
  endfacet
  facet normal 0 -1 0
    outer loop
      vertex 134 190 0
      vertex 134.8 190 0.0999994
      vertex 134 190 0.0999994
    endloop
  endfacet
  facet normal 0 -1 -0
    outer loop
      vertex 134.8 190 0.0999994
      vertex 134 190 0
      vertex 134.8 190 0
    endloop
  endfacet
  facet normal -1 0 0
    outer loop
      vertex 135 190 0
      vertex 135 200 0.0999994
      vertex 135 200 0
    endloop
  endfacet
  facet normal -1 -0 0
    outer loop
      vertex 135 200 0.0999994
      vertex 135 190 0
      vertex 135 190 0.0999994
    endloop
  endfacet
  facet normal -0 0 1
    outer loop
      vertex 135 200 0.0999994
      vertex 135.8 190 0.0999994
      vertex 135.8 200 0.0999994
    endloop
  endfacet
  facet normal 0 0 1
    outer loop
      vertex 135.8 190 0.0999994
      vertex 135 200 0.0999994
      vertex 135 190 0.0999994
    endloop
  endfacet
  facet normal 1 -0 0
    outer loop
      vertex 135.8 190 0.0999994
      vertex 135.8 200 0
      vertex 135.8 200 0.0999994
    endloop
  endfacet
  facet normal 1 0 0
    outer loop
      vertex 135.8 200 0
      vertex 135.8 190 0.0999994
      vertex 135.8 190 0
    endloop
  endfacet
  facet normal 0 1 -0
    outer loop
      vertex 135.8 200 0
      vertex 135 200 0.0999994
      vertex 135.8 200 0.0999994
    endloop
  endfacet
  facet normal 0 1 0
    outer loop
      vertex 135 200 0.0999994
      vertex 135.8 200 0
      vertex 135 200 0
    endloop
  endfacet
  facet normal 0 0 -1
    outer loop
      vertex 135 190 0
      vertex 135.8 200 0
      vertex 135.8 190 0
    endloop
  endfacet
  facet normal -0 0 -1
    outer loop
      vertex 135.8 200 0
      vertex 135 190 0
      vertex 135 200 0
    endloop
  endfacet
  facet normal 0 -1 0
    outer loop
      vertex 135 190 0
      vertex 135.8 190 0.0999994
      vertex 135 190 0.0999994
    endloop
  endfacet
  facet normal 0 -1 -0
    outer loop
      vertex 135.8 190 0.0999994
      vertex 135 190 0
      vertex 135.8 190 0
    endloop
  endfacet
  facet normal -1 0 0
    outer loop
      vertex 136 190 0
      vertex 136 200 0.0999994
      vertex 136 200 0
    endloop
  endfacet
  facet normal -1 -0 0
    outer loop
      vertex 136 200 0.0999994
      vertex 136 190 0
      vertex 136 190 0.0999994
    endloop
  endfacet
  facet normal -0 0 1
    outer loop
      vertex 136 200 0.0999994
      vertex 136.8 190 0.0999994
      vertex 136.8 200 0.0999994
    endloop
  endfacet
  facet normal 0 0 1
    outer loop
      vertex 136.8 190 0.0999994
      vertex 136 200 0.0999994
      vertex 136 190 0.0999994
    endloop
  endfacet
  facet normal 1 -0 0
    outer loop
      vertex 136.8 190 0.0999994
      vertex 136.8 200 0
      vertex 136.8 200 0.0999994
    endloop
  endfacet
  facet normal 1 0 0
    outer loop
      vertex 136.8 200 0
      vertex 136.8 190 0.0999994
      vertex 136.8 190 0
    endloop
  endfacet
  facet normal 0 0 -1
    outer loop
      vertex 136 190 0
      vertex 136.8 200 0
      vertex 136.8 190 0
    endloop
  endfacet
  facet normal -0 0 -1
    outer loop
      vertex 136.8 200 0
      vertex 136 190 0
      vertex 136 200 0
    endloop
  endfacet
  facet normal 0 -1 0
    outer loop
      vertex 136 190 0
      vertex 136.8 190 0.0999994
      vertex 136 190 0.0999994
    endloop
  endfacet
  facet normal 0 -1 -0
    outer loop
      vertex 136.8 190 0.0999994
      vertex 136 190 0
      vertex 136.8 190 0
    endloop
  endfacet
  facet normal 0 1 -0
    outer loop
      vertex 136.8 200 0
      vertex 136 200 0.0999994
      vertex 136.8 200 0.0999994
    endloop
  endfacet
  facet normal 0 1 0
    outer loop
      vertex 136 200 0.0999994
      vertex 136.8 200 0
      vertex 136 200 0
    endloop
  endfacet
  facet normal -1 0 0
    outer loop
      vertex 137 190 0
      vertex 137 200 0.0999994
      vertex 137 200 0
    endloop
  endfacet
  facet normal -1 -0 0
    outer loop
      vertex 137 200 0.0999994
      vertex 137 190 0
      vertex 137 190 0.0999994
    endloop
  endfacet
  facet normal -0 0 1
    outer loop
      vertex 137 200 0.0999994
      vertex 137.8 190 0.0999994
      vertex 137.8 200 0.0999994
    endloop
  endfacet
  facet normal 0 0 1
    outer loop
      vertex 137.8 190 0.0999994
      vertex 137 200 0.0999994
      vertex 137 190 0.0999994
    endloop
  endfacet
  facet normal 1 -0 0
    outer loop
      vertex 137.8 190 0.0999994
      vertex 137.8 200 0
      vertex 137.8 200 0.0999994
    endloop
  endfacet
  facet normal 1 0 0
    outer loop
      vertex 137.8 200 0
      vertex 137.8 190 0.0999994
      vertex 137.8 190 0
    endloop
  endfacet
  facet normal 0 1 -0
    outer loop
      vertex 137.8 200 0
      vertex 137 200 0.0999994
      vertex 137.8 200 0.0999994
    endloop
  endfacet
  facet normal 0 1 0
    outer loop
      vertex 137 200 0.0999994
      vertex 137.8 200 0
      vertex 137 200 0
    endloop
  endfacet
  facet normal 0 0 -1
    outer loop
      vertex 137 190 0
      vertex 137.8 200 0
      vertex 137.8 190 0
    endloop
  endfacet
  facet normal -0 0 -1
    outer loop
      vertex 137.8 200 0
      vertex 137 190 0
      vertex 137 200 0
    endloop
  endfacet
  facet normal 0 -1 0
    outer loop
      vertex 137 190 0
      vertex 137.8 190 0.0999994
      vertex 137 190 0.0999994
    endloop
  endfacet
  facet normal 0 -1 -0
    outer loop
      vertex 137.8 190 0.0999994
      vertex 137 190 0
      vertex 137.8 190 0
    endloop
  endfacet
  facet normal -1 0 0
    outer loop
      vertex 138 190 0
      vertex 138 200 0.0999994
      vertex 138 200 0
    endloop
  endfacet
  facet normal -1 -0 0
    outer loop
      vertex 138 200 0.0999994
      vertex 138 190 0
      vertex 138 190 0.0999994
    endloop
  endfacet
  facet normal -0 0 1
    outer loop
      vertex 138 200 0.0999994
      vertex 138.8 190 0.0999994
      vertex 138.8 200 0.0999994
    endloop
  endfacet
  facet normal 0 0 1
    outer loop
      vertex 138.8 190 0.0999994
      vertex 138 200 0.0999994
      vertex 138 190 0.0999994
    endloop
  endfacet
  facet normal 1 -0 0
    outer loop
      vertex 138.8 190 0.0999994
      vertex 138.8 200 0
      vertex 138.8 200 0.0999994
    endloop
  endfacet
  facet normal 1 0 0
    outer loop
      vertex 138.8 200 0
      vertex 138.8 190 0.0999994
      vertex 138.8 190 0
    endloop
  endfacet
  facet normal 0 1 -0
    outer loop
      vertex 138.8 200 0
      vertex 138 200 0.0999994
      vertex 138.8 200 0.0999994
    endloop
  endfacet
  facet normal 0 1 0
    outer loop
      vertex 138 200 0.0999994
      vertex 138.8 200 0
      vertex 138 200 0
    endloop
  endfacet
  facet normal 0 0 -1
    outer loop
      vertex 138 190 0
      vertex 138.8 200 0
      vertex 138.8 190 0
    endloop
  endfacet
  facet normal -0 0 -1
    outer loop
      vertex 138.8 200 0
      vertex 138 190 0
      vertex 138 200 0
    endloop
  endfacet
  facet normal 0 -1 0
    outer loop
      vertex 138 190 0
      vertex 138.8 190 0.0999994
      vertex 138 190 0.0999994
    endloop
  endfacet
  facet normal 0 -1 -0
    outer loop
      vertex 138.8 190 0.0999994
      vertex 138 190 0
      vertex 138.8 190 0
    endloop
  endfacet
  facet normal -1 0 0
    outer loop
      vertex 139 190 0
      vertex 139 200 0.0999994
      vertex 139 200 0
    endloop
  endfacet
  facet normal -1 -0 0
    outer loop
      vertex 139 200 0.0999994
      vertex 139 190 0
      vertex 139 190 0.0999994
    endloop
  endfacet
  facet normal -0 0 1
    outer loop
      vertex 139 200 0.0999994
      vertex 139.8 190 0.0999994
      vertex 139.8 200 0.0999994
    endloop
  endfacet
  facet normal 0 0 1
    outer loop
      vertex 139.8 190 0.0999994
      vertex 139 200 0.0999994
      vertex 139 190 0.0999994
    endloop
  endfacet
  facet normal 1 -0 0
    outer loop
      vertex 139.8 190 0.0999994
      vertex 139.8 200 0
      vertex 139.8 200 0.0999994
    endloop
  endfacet
  facet normal 1 0 0
    outer loop
      vertex 139.8 200 0
      vertex 139.8 190 0.0999994
      vertex 139.8 190 0
    endloop
  endfacet
  facet normal 0 1 -0
    outer loop
      vertex 139.8 200 0
      vertex 139 200 0.0999994
      vertex 139.8 200 0.0999994
    endloop
  endfacet
  facet normal 0 1 0
    outer loop
      vertex 139 200 0.0999994
      vertex 139.8 200 0
      vertex 139 200 0
    endloop
  endfacet
  facet normal 0 0 -1
    outer loop
      vertex 139 190 0
      vertex 139.8 200 0
      vertex 139.8 190 0
    endloop
  endfacet
  facet normal -0 0 -1
    outer loop
      vertex 139.8 200 0
      vertex 139 190 0
      vertex 139 200 0
    endloop
  endfacet
  facet normal 0 -1 0
    outer loop
      vertex 139 190 0
      vertex 139.8 190 0.0999994
      vertex 139 190 0.0999994
    endloop
  endfacet
  facet normal 0 -1 -0
    outer loop
      vertex 139.8 190 0.0999994
      vertex 139 190 0
      vertex 139.8 190 0
    endloop
  endfacet
  facet normal -1 0 0
    outer loop
      vertex 140 190 0
      vertex 140 200 0.0999994
      vertex 140 200 0
    endloop
  endfacet
  facet normal -1 -0 0
    outer loop
      vertex 140 200 0.0999994
      vertex 140 190 0
      vertex 140 190 0.0999994
    endloop
  endfacet
  facet normal -0 0 1
    outer loop
      vertex 140 200 0.0999994
      vertex 140.8 190 0.0999994
      vertex 140.8 200 0.0999994
    endloop
  endfacet
  facet normal 0 0 1
    outer loop
      vertex 140.8 190 0.0999994
      vertex 140 200 0.0999994
      vertex 140 190 0.0999994
    endloop
  endfacet
  facet normal 1 -0 0
    outer loop
      vertex 140.8 190 0.0999994
      vertex 140.8 200 0
      vertex 140.8 200 0.0999994
    endloop
  endfacet
  facet normal 1 0 0
    outer loop
      vertex 140.8 200 0
      vertex 140.8 190 0.0999994
      vertex 140.8 190 0
    endloop
  endfacet
  facet normal 0 1 -0
    outer loop
      vertex 140.8 200 0
      vertex 140 200 0.0999994
      vertex 140.8 200 0.0999994
    endloop
  endfacet
  facet normal 0 1 0
    outer loop
      vertex 140 200 0.0999994
      vertex 140.8 200 0
      vertex 140 200 0
    endloop
  endfacet
  facet normal 0 0 -1
    outer loop
      vertex 140 190 0
      vertex 140.8 200 0
      vertex 140.8 190 0
    endloop
  endfacet
  facet normal -0 0 -1
    outer loop
      vertex 140.8 200 0
      vertex 140 190 0
      vertex 140 200 0
    endloop
  endfacet
  facet normal 0 -1 0
    outer loop
      vertex 140 190 0
      vertex 140.8 190 0.0999994
      vertex 140 190 0.0999994
    endloop
  endfacet
  facet normal 0 -1 -0
    outer loop
      vertex 140.8 190 0.0999994
      vertex 140 190 0
      vertex 140.8 190 0
    endloop
  endfacet
endsolid OpenSCAD_Model
