solid OpenSCAD_Model
  facet normal -1 0 0
    outer loop
      vertex 30 150 0
      vertex 30 160 0.0999994
      vertex 30 160 0
    endloop
  endfacet
  facet normal -1 -0 0
    outer loop
      vertex 30 160 0.0999994
      vertex 30 150 0
      vertex 30 150 0.0999994
    endloop
  endfacet
  facet normal -0 0 1
    outer loop
      vertex 30 160 0.0999994
      vertex 30.8 150 0.0999994
      vertex 30.8 160 0.0999994
    endloop
  endfacet
  facet normal 0 0 1
    outer loop
      vertex 30.8 150 0.0999994
      vertex 30 160 0.0999994
      vertex 30 150 0.0999994
    endloop
  endfacet
  facet normal 1 -0 0
    outer loop
      vertex 30.8 150 0.0999994
      vertex 30.8 160 0
      vertex 30.8 160 0.0999994
    endloop
  endfacet
  facet normal 1 0 0
    outer loop
      vertex 30.8 160 0
      vertex 30.8 150 0.0999994
      vertex 30.8 150 0
    endloop
  endfacet
  facet normal 0 1 -0
    outer loop
      vertex 30.8 160 0
      vertex 30 160 0.0999994
      vertex 30.8 160 0.0999994
    endloop
  endfacet
  facet normal 0 1 0
    outer loop
      vertex 30 160 0.0999994
      vertex 30.8 160 0
      vertex 30 160 0
    endloop
  endfacet
  facet normal 0 0 -1
    outer loop
      vertex 30 150 0
      vertex 30.8 160 0
      vertex 30.8 150 0
    endloop
  endfacet
  facet normal -0 0 -1
    outer loop
      vertex 30.8 160 0
      vertex 30 150 0
      vertex 30 160 0
    endloop
  endfacet
  facet normal 0 -1 0
    outer loop
      vertex 30 150 0
      vertex 30.8 150 0.0999994
      vertex 30 150 0.0999994
    endloop
  endfacet
  facet normal 0 -1 -0
    outer loop
      vertex 30.8 150 0.0999994
      vertex 30 150 0
      vertex 30.8 150 0
    endloop
  endfacet
  facet normal -1 0 0
    outer loop
      vertex 31 150 0
      vertex 31 160 0.0999994
      vertex 31 160 0
    endloop
  endfacet
  facet normal -1 -0 0
    outer loop
      vertex 31 160 0.0999994
      vertex 31 150 0
      vertex 31 150 0.0999994
    endloop
  endfacet
  facet normal -0 0 1
    outer loop
      vertex 31 160 0.0999994
      vertex 31.8 150 0.0999994
      vertex 31.8 160 0.0999994
    endloop
  endfacet
  facet normal 0 0 1
    outer loop
      vertex 31.8 150 0.0999994
      vertex 31 160 0.0999994
      vertex 31 150 0.0999994
    endloop
  endfacet
  facet normal 1 -0 0
    outer loop
      vertex 31.8 150 0.0999994
      vertex 31.8 160 0
      vertex 31.8 160 0.0999994
    endloop
  endfacet
  facet normal 1 0 0
    outer loop
      vertex 31.8 160 0
      vertex 31.8 150 0.0999994
      vertex 31.8 150 0
    endloop
  endfacet
  facet normal 0 1 -0
    outer loop
      vertex 31.8 160 0
      vertex 31 160 0.0999994
      vertex 31.8 160 0.0999994
    endloop
  endfacet
  facet normal 0 1 0
    outer loop
      vertex 31 160 0.0999994
      vertex 31.8 160 0
      vertex 31 160 0
    endloop
  endfacet
  facet normal 0 0 -1
    outer loop
      vertex 31 150 0
      vertex 31.8 160 0
      vertex 31.8 150 0
    endloop
  endfacet
  facet normal -0 0 -1
    outer loop
      vertex 31.8 160 0
      vertex 31 150 0
      vertex 31 160 0
    endloop
  endfacet
  facet normal 0 -1 0
    outer loop
      vertex 31 150 0
      vertex 31.8 150 0.0999994
      vertex 31 150 0.0999994
    endloop
  endfacet
  facet normal 0 -1 -0
    outer loop
      vertex 31.8 150 0.0999994
      vertex 31 150 0
      vertex 31.8 150 0
    endloop
  endfacet
  facet normal -1 0 0
    outer loop
      vertex 32 150 0
      vertex 32 160 0.0999994
      vertex 32 160 0
    endloop
  endfacet
  facet normal -1 -0 0
    outer loop
      vertex 32 160 0.0999994
      vertex 32 150 0
      vertex 32 150 0.0999994
    endloop
  endfacet
  facet normal -0 0 1
    outer loop
      vertex 32 160 0.0999994
      vertex 32.8 150 0.0999994
      vertex 32.8 160 0.0999994
    endloop
  endfacet
  facet normal 0 0 1
    outer loop
      vertex 32.8 150 0.0999994
      vertex 32 160 0.0999994
      vertex 32 150 0.0999994
    endloop
  endfacet
  facet normal 1 -0 0
    outer loop
      vertex 32.8 150 0.0999994
      vertex 32.8 160 0
      vertex 32.8 160 0.0999994
    endloop
  endfacet
  facet normal 1 0 0
    outer loop
      vertex 32.8 160 0
      vertex 32.8 150 0.0999994
      vertex 32.8 150 0
    endloop
  endfacet
  facet normal 0 0 -1
    outer loop
      vertex 32 150 0
      vertex 32.8 160 0
      vertex 32.8 150 0
    endloop
  endfacet
  facet normal -0 0 -1
    outer loop
      vertex 32.8 160 0
      vertex 32 150 0
      vertex 32 160 0
    endloop
  endfacet
  facet normal 0 -1 0
    outer loop
      vertex 32 150 0
      vertex 32.8 150 0.0999994
      vertex 32 150 0.0999994
    endloop
  endfacet
  facet normal 0 -1 -0
    outer loop
      vertex 32.8 150 0.0999994
      vertex 32 150 0
      vertex 32.8 150 0
    endloop
  endfacet
  facet normal 0 1 -0
    outer loop
      vertex 32.8 160 0
      vertex 32 160 0.0999994
      vertex 32.8 160 0.0999994
    endloop
  endfacet
  facet normal 0 1 0
    outer loop
      vertex 32 160 0.0999994
      vertex 32.8 160 0
      vertex 32 160 0
    endloop
  endfacet
  facet normal -1 0 0
    outer loop
      vertex 33 150 0
      vertex 33 160 0.0999994
      vertex 33 160 0
    endloop
  endfacet
  facet normal -1 -0 0
    outer loop
      vertex 33 160 0.0999994
      vertex 33 150 0
      vertex 33 150 0.0999994
    endloop
  endfacet
  facet normal -0 0 1
    outer loop
      vertex 33 160 0.0999994
      vertex 33.8 150 0.0999994
      vertex 33.8 160 0.0999994
    endloop
  endfacet
  facet normal 0 0 1
    outer loop
      vertex 33.8 150 0.0999994
      vertex 33 160 0.0999994
      vertex 33 150 0.0999994
    endloop
  endfacet
  facet normal 1 -0 0
    outer loop
      vertex 33.8 150 0.0999994
      vertex 33.8 160 0
      vertex 33.8 160 0.0999994
    endloop
  endfacet
  facet normal 1 0 0
    outer loop
      vertex 33.8 160 0
      vertex 33.8 150 0.0999994
      vertex 33.8 150 0
    endloop
  endfacet
  facet normal 0 1 -0
    outer loop
      vertex 33.8 160 0
      vertex 33 160 0.0999994
      vertex 33.8 160 0.0999994
    endloop
  endfacet
  facet normal 0 1 0
    outer loop
      vertex 33 160 0.0999994
      vertex 33.8 160 0
      vertex 33 160 0
    endloop
  endfacet
  facet normal 0 0 -1
    outer loop
      vertex 33 150 0
      vertex 33.8 160 0
      vertex 33.8 150 0
    endloop
  endfacet
  facet normal -0 0 -1
    outer loop
      vertex 33.8 160 0
      vertex 33 150 0
      vertex 33 160 0
    endloop
  endfacet
  facet normal 0 -1 0
    outer loop
      vertex 33 150 0
      vertex 33.8 150 0.0999994
      vertex 33 150 0.0999994
    endloop
  endfacet
  facet normal 0 -1 -0
    outer loop
      vertex 33.8 150 0.0999994
      vertex 33 150 0
      vertex 33.8 150 0
    endloop
  endfacet
  facet normal -1 0 0
    outer loop
      vertex 34 150 0
      vertex 34 160 0.0999994
      vertex 34 160 0
    endloop
  endfacet
  facet normal -1 -0 0
    outer loop
      vertex 34 160 0.0999994
      vertex 34 150 0
      vertex 34 150 0.0999994
    endloop
  endfacet
  facet normal -0 0 1
    outer loop
      vertex 34 160 0.0999994
      vertex 34.8 150 0.0999994
      vertex 34.8 160 0.0999994
    endloop
  endfacet
  facet normal 0 0 1
    outer loop
      vertex 34.8 150 0.0999994
      vertex 34 160 0.0999994
      vertex 34 150 0.0999994
    endloop
  endfacet
  facet normal 1 -0 0
    outer loop
      vertex 34.8 150 0.0999994
      vertex 34.8 160 0
      vertex 34.8 160 0.0999994
    endloop
  endfacet
  facet normal 1 0 0
    outer loop
      vertex 34.8 160 0
      vertex 34.8 150 0.0999994
      vertex 34.8 150 0
    endloop
  endfacet
  facet normal 0 1 -0
    outer loop
      vertex 34.8 160 0
      vertex 34 160 0.0999994
      vertex 34.8 160 0.0999994
    endloop
  endfacet
  facet normal 0 1 0
    outer loop
      vertex 34 160 0.0999994
      vertex 34.8 160 0
      vertex 34 160 0
    endloop
  endfacet
  facet normal 0 0 -1
    outer loop
      vertex 34 150 0
      vertex 34.8 160 0
      vertex 34.8 150 0
    endloop
  endfacet
  facet normal -0 0 -1
    outer loop
      vertex 34.8 160 0
      vertex 34 150 0
      vertex 34 160 0
    endloop
  endfacet
  facet normal 0 -1 0
    outer loop
      vertex 34 150 0
      vertex 34.8 150 0.0999994
      vertex 34 150 0.0999994
    endloop
  endfacet
  facet normal 0 -1 -0
    outer loop
      vertex 34.8 150 0.0999994
      vertex 34 150 0
      vertex 34.8 150 0
    endloop
  endfacet
  facet normal -1 0 0
    outer loop
      vertex 35 150 0
      vertex 35 160 0.0999994
      vertex 35 160 0
    endloop
  endfacet
  facet normal -1 -0 0
    outer loop
      vertex 35 160 0.0999994
      vertex 35 150 0
      vertex 35 150 0.0999994
    endloop
  endfacet
  facet normal -0 0 1
    outer loop
      vertex 35 160 0.0999994
      vertex 35.8 150 0.0999994
      vertex 35.8 160 0.0999994
    endloop
  endfacet
  facet normal 0 0 1
    outer loop
      vertex 35.8 150 0.0999994
      vertex 35 160 0.0999994
      vertex 35 150 0.0999994
    endloop
  endfacet
  facet normal 1 -0 0
    outer loop
      vertex 35.8 150 0.0999994
      vertex 35.8 160 0
      vertex 35.8 160 0.0999994
    endloop
  endfacet
  facet normal 1 0 0
    outer loop
      vertex 35.8 160 0
      vertex 35.8 150 0.0999994
      vertex 35.8 150 0
    endloop
  endfacet
  facet normal 0 1 -0
    outer loop
      vertex 35.8 160 0
      vertex 35 160 0.0999994
      vertex 35.8 160 0.0999994
    endloop
  endfacet
  facet normal 0 1 0
    outer loop
      vertex 35 160 0.0999994
      vertex 35.8 160 0
      vertex 35 160 0
    endloop
  endfacet
  facet normal 0 0 -1
    outer loop
      vertex 35 150 0
      vertex 35.8 160 0
      vertex 35.8 150 0
    endloop
  endfacet
  facet normal -0 0 -1
    outer loop
      vertex 35.8 160 0
      vertex 35 150 0
      vertex 35 160 0
    endloop
  endfacet
  facet normal 0 -1 0
    outer loop
      vertex 35 150 0
      vertex 35.8 150 0.0999994
      vertex 35 150 0.0999994
    endloop
  endfacet
  facet normal 0 -1 -0
    outer loop
      vertex 35.8 150 0.0999994
      vertex 35 150 0
      vertex 35.8 150 0
    endloop
  endfacet
  facet normal -1 0 0
    outer loop
      vertex 36 150 0
      vertex 36 160 0.0999994
      vertex 36 160 0
    endloop
  endfacet
  facet normal -1 -0 0
    outer loop
      vertex 36 160 0.0999994
      vertex 36 150 0
      vertex 36 150 0.0999994
    endloop
  endfacet
  facet normal -0 0 1
    outer loop
      vertex 36 160 0.0999994
      vertex 36.8 150 0.0999994
      vertex 36.8 160 0.0999994
    endloop
  endfacet
  facet normal 0 0 1
    outer loop
      vertex 36.8 150 0.0999994
      vertex 36 160 0.0999994
      vertex 36 150 0.0999994
    endloop
  endfacet
  facet normal 1 -0 0
    outer loop
      vertex 36.8 150 0.0999994
      vertex 36.8 160 0
      vertex 36.8 160 0.0999994
    endloop
  endfacet
  facet normal 1 0 0
    outer loop
      vertex 36.8 160 0
      vertex 36.8 150 0.0999994
      vertex 36.8 150 0
    endloop
  endfacet
  facet normal 0 1 -0
    outer loop
      vertex 36.8 160 0
      vertex 36 160 0.0999994
      vertex 36.8 160 0.0999994
    endloop
  endfacet
  facet normal 0 1 0
    outer loop
      vertex 36 160 0.0999994
      vertex 36.8 160 0
      vertex 36 160 0
    endloop
  endfacet
  facet normal 0 0 -1
    outer loop
      vertex 36 150 0
      vertex 36.8 160 0
      vertex 36.8 150 0
    endloop
  endfacet
  facet normal -0 0 -1
    outer loop
      vertex 36.8 160 0
      vertex 36 150 0
      vertex 36 160 0
    endloop
  endfacet
  facet normal 0 -1 0
    outer loop
      vertex 36 150 0
      vertex 36.8 150 0.0999994
      vertex 36 150 0.0999994
    endloop
  endfacet
  facet normal 0 -1 -0
    outer loop
      vertex 36.8 150 0.0999994
      vertex 36 150 0
      vertex 36.8 150 0
    endloop
  endfacet
  facet normal -1 0 0
    outer loop
      vertex 37 150 0
      vertex 37 160 0.0999994
      vertex 37 160 0
    endloop
  endfacet
  facet normal -1 -0 0
    outer loop
      vertex 37 160 0.0999994
      vertex 37 150 0
      vertex 37 150 0.0999994
    endloop
  endfacet
  facet normal -0 0 1
    outer loop
      vertex 37 160 0.0999994
      vertex 37.8 150 0.0999994
      vertex 37.8 160 0.0999994
    endloop
  endfacet
  facet normal 0 0 1
    outer loop
      vertex 37.8 150 0.0999994
      vertex 37 160 0.0999994
      vertex 37 150 0.0999994
    endloop
  endfacet
  facet normal 1 -0 0
    outer loop
      vertex 37.8 150 0.0999994
      vertex 37.8 160 0
      vertex 37.8 160 0.0999994
    endloop
  endfacet
  facet normal 1 0 0
    outer loop
      vertex 37.8 160 0
      vertex 37.8 150 0.0999994
      vertex 37.8 150 0
    endloop
  endfacet
  facet normal 0 1 -0
    outer loop
      vertex 37.8 160 0
      vertex 37 160 0.0999994
      vertex 37.8 160 0.0999994
    endloop
  endfacet
  facet normal 0 1 0
    outer loop
      vertex 37 160 0.0999994
      vertex 37.8 160 0
      vertex 37 160 0
    endloop
  endfacet
  facet normal 0 0 -1
    outer loop
      vertex 37 150 0
      vertex 37.8 160 0
      vertex 37.8 150 0
    endloop
  endfacet
  facet normal -0 0 -1
    outer loop
      vertex 37.8 160 0
      vertex 37 150 0
      vertex 37 160 0
    endloop
  endfacet
  facet normal 0 -1 0
    outer loop
      vertex 37 150 0
      vertex 37.8 150 0.0999994
      vertex 37 150 0.0999994
    endloop
  endfacet
  facet normal 0 -1 -0
    outer loop
      vertex 37.8 150 0.0999994
      vertex 37 150 0
      vertex 37.8 150 0
    endloop
  endfacet
  facet normal -1 0 0
    outer loop
      vertex 38 150 0
      vertex 38 160 0.0999994
      vertex 38 160 0
    endloop
  endfacet
  facet normal -1 -0 0
    outer loop
      vertex 38 160 0.0999994
      vertex 38 150 0
      vertex 38 150 0.0999994
    endloop
  endfacet
  facet normal -0 0 1
    outer loop
      vertex 38 160 0.0999994
      vertex 38.8 150 0.0999994
      vertex 38.8 160 0.0999994
    endloop
  endfacet
  facet normal 0 0 1
    outer loop
      vertex 38.8 150 0.0999994
      vertex 38 160 0.0999994
      vertex 38 150 0.0999994
    endloop
  endfacet
  facet normal 1 -0 0
    outer loop
      vertex 38.8 150 0.0999994
      vertex 38.8 160 0
      vertex 38.8 160 0.0999994
    endloop
  endfacet
  facet normal 1 0 0
    outer loop
      vertex 38.8 160 0
      vertex 38.8 150 0.0999994
      vertex 38.8 150 0
    endloop
  endfacet
  facet normal 0 0 -1
    outer loop
      vertex 38 150 0
      vertex 38.8 160 0
      vertex 38.8 150 0
    endloop
  endfacet
  facet normal -0 0 -1
    outer loop
      vertex 38.8 160 0
      vertex 38 150 0
      vertex 38 160 0
    endloop
  endfacet
  facet normal 0 -1 0
    outer loop
      vertex 38 150 0
      vertex 38.8 150 0.0999994
      vertex 38 150 0.0999994
    endloop
  endfacet
  facet normal 0 -1 -0
    outer loop
      vertex 38.8 150 0.0999994
      vertex 38 150 0
      vertex 38.8 150 0
    endloop
  endfacet
  facet normal 0 1 -0
    outer loop
      vertex 38.8 160 0
      vertex 38 160 0.0999994
      vertex 38.8 160 0.0999994
    endloop
  endfacet
  facet normal 0 1 0
    outer loop
      vertex 38 160 0.0999994
      vertex 38.8 160 0
      vertex 38 160 0
    endloop
  endfacet
  facet normal -1 0 0
    outer loop
      vertex 39 150 0
      vertex 39 160 0.0999994
      vertex 39 160 0
    endloop
  endfacet
  facet normal -1 -0 0
    outer loop
      vertex 39 160 0.0999994
      vertex 39 150 0
      vertex 39 150 0.0999994
    endloop
  endfacet
  facet normal -0 0 1
    outer loop
      vertex 39 160 0.0999994
      vertex 39.8 150 0.0999994
      vertex 39.8 160 0.0999994
    endloop
  endfacet
  facet normal 0 0 1
    outer loop
      vertex 39.8 150 0.0999994
      vertex 39 160 0.0999994
      vertex 39 150 0.0999994
    endloop
  endfacet
  facet normal 1 -0 0
    outer loop
      vertex 39.8 150 0.0999994
      vertex 39.8 160 0
      vertex 39.8 160 0.0999994
    endloop
  endfacet
  facet normal 1 0 0
    outer loop
      vertex 39.8 160 0
      vertex 39.8 150 0.0999994
      vertex 39.8 150 0
    endloop
  endfacet
  facet normal 0 0 -1
    outer loop
      vertex 39 150 0
      vertex 39.8 160 0
      vertex 39.8 150 0
    endloop
  endfacet
  facet normal -0 0 -1
    outer loop
      vertex 39.8 160 0
      vertex 39 150 0
      vertex 39 160 0
    endloop
  endfacet
  facet normal 0 -1 0
    outer loop
      vertex 39 150 0
      vertex 39.8 150 0.0999994
      vertex 39 150 0.0999994
    endloop
  endfacet
  facet normal 0 -1 -0
    outer loop
      vertex 39.8 150 0.0999994
      vertex 39 150 0
      vertex 39.8 150 0
    endloop
  endfacet
  facet normal 0 1 -0
    outer loop
      vertex 39.8 160 0
      vertex 39 160 0.0999994
      vertex 39.8 160 0.0999994
    endloop
  endfacet
  facet normal 0 1 0
    outer loop
      vertex 39 160 0.0999994
      vertex 39.8 160 0
      vertex 39 160 0
    endloop
  endfacet
  facet normal -1 0 0
    outer loop
      vertex 40 150 0
      vertex 40 160 0.0999994
      vertex 40 160 0
    endloop
  endfacet
  facet normal -1 -0 0
    outer loop
      vertex 40 160 0.0999994
      vertex 40 150 0
      vertex 40 150 0.0999994
    endloop
  endfacet
  facet normal -0 0 1
    outer loop
      vertex 40 160 0.0999994
      vertex 40.8 150 0.0999994
      vertex 40.8 160 0.0999994
    endloop
  endfacet
  facet normal 0 0 1
    outer loop
      vertex 40.8 150 0.0999994
      vertex 40 160 0.0999994
      vertex 40 150 0.0999994
    endloop
  endfacet
  facet normal 1 -0 0
    outer loop
      vertex 40.8 150 0.0999994
      vertex 40.8 160 0
      vertex 40.8 160 0.0999994
    endloop
  endfacet
  facet normal 1 0 0
    outer loop
      vertex 40.8 160 0
      vertex 40.8 150 0.0999994
      vertex 40.8 150 0
    endloop
  endfacet
  facet normal 0 1 -0
    outer loop
      vertex 40.8 160 0
      vertex 40 160 0.0999994
      vertex 40.8 160 0.0999994
    endloop
  endfacet
  facet normal 0 1 0
    outer loop
      vertex 40 160 0.0999994
      vertex 40.8 160 0
      vertex 40 160 0
    endloop
  endfacet
  facet normal 0 0 -1
    outer loop
      vertex 40 150 0
      vertex 40.8 160 0
      vertex 40.8 150 0
    endloop
  endfacet
  facet normal -0 0 -1
    outer loop
      vertex 40.8 160 0
      vertex 40 150 0
      vertex 40 160 0
    endloop
  endfacet
  facet normal 0 -1 0
    outer loop
      vertex 40 150 0
      vertex 40.8 150 0.0999994
      vertex 40 150 0.0999994
    endloop
  endfacet
  facet normal 0 -1 -0
    outer loop
      vertex 40.8 150 0.0999994
      vertex 40 150 0
      vertex 40.8 150 0
    endloop
  endfacet
endsolid OpenSCAD_Model
