solid OpenSCAD_Model
  facet normal -1 0 0
    outer loop
      vertex 30 110 0
      vertex 30 120 0.0999994
      vertex 30 120 0
    endloop
  endfacet
  facet normal -1 -0 0
    outer loop
      vertex 30 120 0.0999994
      vertex 30 110 0
      vertex 30 110 0.0999994
    endloop
  endfacet
  facet normal -0 0 1
    outer loop
      vertex 30 120 0.0999994
      vertex 30.8 110 0.0999994
      vertex 30.8 120 0.0999994
    endloop
  endfacet
  facet normal 0 0 1
    outer loop
      vertex 30.8 110 0.0999994
      vertex 30 120 0.0999994
      vertex 30 110 0.0999994
    endloop
  endfacet
  facet normal 1 -0 0
    outer loop
      vertex 30.8 110 0.0999994
      vertex 30.8 120 0
      vertex 30.8 120 0.0999994
    endloop
  endfacet
  facet normal 1 0 0
    outer loop
      vertex 30.8 120 0
      vertex 30.8 110 0.0999994
      vertex 30.8 110 0
    endloop
  endfacet
  facet normal 0 0 -1
    outer loop
      vertex 30 110 0
      vertex 30.8 120 0
      vertex 30.8 110 0
    endloop
  endfacet
  facet normal -0 0 -1
    outer loop
      vertex 30.8 120 0
      vertex 30 110 0
      vertex 30 120 0
    endloop
  endfacet
  facet normal 0 -1 0
    outer loop
      vertex 30 110 0
      vertex 30.8 110 0.0999994
      vertex 30 110 0.0999994
    endloop
  endfacet
  facet normal 0 -1 -0
    outer loop
      vertex 30.8 110 0.0999994
      vertex 30 110 0
      vertex 30.8 110 0
    endloop
  endfacet
  facet normal 0 1 -0
    outer loop
      vertex 30.8 120 0
      vertex 30 120 0.0999994
      vertex 30.8 120 0.0999994
    endloop
  endfacet
  facet normal 0 1 0
    outer loop
      vertex 30 120 0.0999994
      vertex 30.8 120 0
      vertex 30 120 0
    endloop
  endfacet
  facet normal -1 0 0
    outer loop
      vertex 31 110 0
      vertex 31 120 0.0999994
      vertex 31 120 0
    endloop
  endfacet
  facet normal -1 -0 0
    outer loop
      vertex 31 120 0.0999994
      vertex 31 110 0
      vertex 31 110 0.0999994
    endloop
  endfacet
  facet normal -0 0 1
    outer loop
      vertex 31 120 0.0999994
      vertex 31.8 110 0.0999994
      vertex 31.8 120 0.0999994
    endloop
  endfacet
  facet normal 0 0 1
    outer loop
      vertex 31.8 110 0.0999994
      vertex 31 120 0.0999994
      vertex 31 110 0.0999994
    endloop
  endfacet
  facet normal 1 -0 0
    outer loop
      vertex 31.8 110 0.0999994
      vertex 31.8 120 0
      vertex 31.8 120 0.0999994
    endloop
  endfacet
  facet normal 1 0 0
    outer loop
      vertex 31.8 120 0
      vertex 31.8 110 0.0999994
      vertex 31.8 110 0
    endloop
  endfacet
  facet normal 0 1 -0
    outer loop
      vertex 31.8 120 0
      vertex 31 120 0.0999994
      vertex 31.8 120 0.0999994
    endloop
  endfacet
  facet normal 0 1 0
    outer loop
      vertex 31 120 0.0999994
      vertex 31.8 120 0
      vertex 31 120 0
    endloop
  endfacet
  facet normal 0 0 -1
    outer loop
      vertex 31 110 0
      vertex 31.8 120 0
      vertex 31.8 110 0
    endloop
  endfacet
  facet normal -0 0 -1
    outer loop
      vertex 31.8 120 0
      vertex 31 110 0
      vertex 31 120 0
    endloop
  endfacet
  facet normal 0 -1 0
    outer loop
      vertex 31 110 0
      vertex 31.8 110 0.0999994
      vertex 31 110 0.0999994
    endloop
  endfacet
  facet normal 0 -1 -0
    outer loop
      vertex 31.8 110 0.0999994
      vertex 31 110 0
      vertex 31.8 110 0
    endloop
  endfacet
  facet normal -1 0 0
    outer loop
      vertex 32 110 0
      vertex 32 120 0.0999994
      vertex 32 120 0
    endloop
  endfacet
  facet normal -1 -0 0
    outer loop
      vertex 32 120 0.0999994
      vertex 32 110 0
      vertex 32 110 0.0999994
    endloop
  endfacet
  facet normal -0 0 1
    outer loop
      vertex 32 120 0.0999994
      vertex 32.8 110 0.0999994
      vertex 32.8 120 0.0999994
    endloop
  endfacet
  facet normal 0 0 1
    outer loop
      vertex 32.8 110 0.0999994
      vertex 32 120 0.0999994
      vertex 32 110 0.0999994
    endloop
  endfacet
  facet normal 1 -0 0
    outer loop
      vertex 32.8 110 0.0999994
      vertex 32.8 120 0
      vertex 32.8 120 0.0999994
    endloop
  endfacet
  facet normal 1 0 0
    outer loop
      vertex 32.8 120 0
      vertex 32.8 110 0.0999994
      vertex 32.8 110 0
    endloop
  endfacet
  facet normal 0 0 -1
    outer loop
      vertex 32 110 0
      vertex 32.8 120 0
      vertex 32.8 110 0
    endloop
  endfacet
  facet normal -0 0 -1
    outer loop
      vertex 32.8 120 0
      vertex 32 110 0
      vertex 32 120 0
    endloop
  endfacet
  facet normal 0 -1 0
    outer loop
      vertex 32 110 0
      vertex 32.8 110 0.0999994
      vertex 32 110 0.0999994
    endloop
  endfacet
  facet normal 0 -1 -0
    outer loop
      vertex 32.8 110 0.0999994
      vertex 32 110 0
      vertex 32.8 110 0
    endloop
  endfacet
  facet normal 0 1 -0
    outer loop
      vertex 32.8 120 0
      vertex 32 120 0.0999994
      vertex 32.8 120 0.0999994
    endloop
  endfacet
  facet normal 0 1 0
    outer loop
      vertex 32 120 0.0999994
      vertex 32.8 120 0
      vertex 32 120 0
    endloop
  endfacet
  facet normal -1 0 0
    outer loop
      vertex 33 110 0
      vertex 33 120 0.0999994
      vertex 33 120 0
    endloop
  endfacet
  facet normal -1 -0 0
    outer loop
      vertex 33 120 0.0999994
      vertex 33 110 0
      vertex 33 110 0.0999994
    endloop
  endfacet
  facet normal -0 0 1
    outer loop
      vertex 33 120 0.0999994
      vertex 33.8 110 0.0999994
      vertex 33.8 120 0.0999994
    endloop
  endfacet
  facet normal 0 0 1
    outer loop
      vertex 33.8 110 0.0999994
      vertex 33 120 0.0999994
      vertex 33 110 0.0999994
    endloop
  endfacet
  facet normal 1 -0 0
    outer loop
      vertex 33.8 110 0.0999994
      vertex 33.8 120 0
      vertex 33.8 120 0.0999994
    endloop
  endfacet
  facet normal 1 0 0
    outer loop
      vertex 33.8 120 0
      vertex 33.8 110 0.0999994
      vertex 33.8 110 0
    endloop
  endfacet
  facet normal 0 1 -0
    outer loop
      vertex 33.8 120 0
      vertex 33 120 0.0999994
      vertex 33.8 120 0.0999994
    endloop
  endfacet
  facet normal 0 1 0
    outer loop
      vertex 33 120 0.0999994
      vertex 33.8 120 0
      vertex 33 120 0
    endloop
  endfacet
  facet normal 0 0 -1
    outer loop
      vertex 33 110 0
      vertex 33.8 120 0
      vertex 33.8 110 0
    endloop
  endfacet
  facet normal -0 0 -1
    outer loop
      vertex 33.8 120 0
      vertex 33 110 0
      vertex 33 120 0
    endloop
  endfacet
  facet normal 0 -1 0
    outer loop
      vertex 33 110 0
      vertex 33.8 110 0.0999994
      vertex 33 110 0.0999994
    endloop
  endfacet
  facet normal 0 -1 -0
    outer loop
      vertex 33.8 110 0.0999994
      vertex 33 110 0
      vertex 33.8 110 0
    endloop
  endfacet
  facet normal -1 0 0
    outer loop
      vertex 34 110 0
      vertex 34 120 0.0999994
      vertex 34 120 0
    endloop
  endfacet
  facet normal -1 -0 0
    outer loop
      vertex 34 120 0.0999994
      vertex 34 110 0
      vertex 34 110 0.0999994
    endloop
  endfacet
  facet normal -0 0 1
    outer loop
      vertex 34 120 0.0999994
      vertex 34.8 110 0.0999994
      vertex 34.8 120 0.0999994
    endloop
  endfacet
  facet normal 0 0 1
    outer loop
      vertex 34.8 110 0.0999994
      vertex 34 120 0.0999994
      vertex 34 110 0.0999994
    endloop
  endfacet
  facet normal 1 -0 0
    outer loop
      vertex 34.8 110 0.0999994
      vertex 34.8 120 0
      vertex 34.8 120 0.0999994
    endloop
  endfacet
  facet normal 1 0 0
    outer loop
      vertex 34.8 120 0
      vertex 34.8 110 0.0999994
      vertex 34.8 110 0
    endloop
  endfacet
  facet normal 0 1 -0
    outer loop
      vertex 34.8 120 0
      vertex 34 120 0.0999994
      vertex 34.8 120 0.0999994
    endloop
  endfacet
  facet normal 0 1 0
    outer loop
      vertex 34 120 0.0999994
      vertex 34.8 120 0
      vertex 34 120 0
    endloop
  endfacet
  facet normal 0 0 -1
    outer loop
      vertex 34 110 0
      vertex 34.8 120 0
      vertex 34.8 110 0
    endloop
  endfacet
  facet normal -0 0 -1
    outer loop
      vertex 34.8 120 0
      vertex 34 110 0
      vertex 34 120 0
    endloop
  endfacet
  facet normal 0 -1 0
    outer loop
      vertex 34 110 0
      vertex 34.8 110 0.0999994
      vertex 34 110 0.0999994
    endloop
  endfacet
  facet normal 0 -1 -0
    outer loop
      vertex 34.8 110 0.0999994
      vertex 34 110 0
      vertex 34.8 110 0
    endloop
  endfacet
  facet normal -1 0 0
    outer loop
      vertex 35 110 0
      vertex 35 120 0.0999994
      vertex 35 120 0
    endloop
  endfacet
  facet normal -1 -0 0
    outer loop
      vertex 35 120 0.0999994
      vertex 35 110 0
      vertex 35 110 0.0999994
    endloop
  endfacet
  facet normal -0 0 1
    outer loop
      vertex 35 120 0.0999994
      vertex 35.8 110 0.0999994
      vertex 35.8 120 0.0999994
    endloop
  endfacet
  facet normal 0 0 1
    outer loop
      vertex 35.8 110 0.0999994
      vertex 35 120 0.0999994
      vertex 35 110 0.0999994
    endloop
  endfacet
  facet normal 1 -0 0
    outer loop
      vertex 35.8 110 0.0999994
      vertex 35.8 120 0
      vertex 35.8 120 0.0999994
    endloop
  endfacet
  facet normal 1 0 0
    outer loop
      vertex 35.8 120 0
      vertex 35.8 110 0.0999994
      vertex 35.8 110 0
    endloop
  endfacet
  facet normal 0 1 -0
    outer loop
      vertex 35.8 120 0
      vertex 35 120 0.0999994
      vertex 35.8 120 0.0999994
    endloop
  endfacet
  facet normal 0 1 0
    outer loop
      vertex 35 120 0.0999994
      vertex 35.8 120 0
      vertex 35 120 0
    endloop
  endfacet
  facet normal 0 0 -1
    outer loop
      vertex 35 110 0
      vertex 35.8 120 0
      vertex 35.8 110 0
    endloop
  endfacet
  facet normal -0 0 -1
    outer loop
      vertex 35.8 120 0
      vertex 35 110 0
      vertex 35 120 0
    endloop
  endfacet
  facet normal 0 -1 0
    outer loop
      vertex 35 110 0
      vertex 35.8 110 0.0999994
      vertex 35 110 0.0999994
    endloop
  endfacet
  facet normal 0 -1 -0
    outer loop
      vertex 35.8 110 0.0999994
      vertex 35 110 0
      vertex 35.8 110 0
    endloop
  endfacet
  facet normal -1 0 0
    outer loop
      vertex 36 110 0
      vertex 36 120 0.0999994
      vertex 36 120 0
    endloop
  endfacet
  facet normal -1 -0 0
    outer loop
      vertex 36 120 0.0999994
      vertex 36 110 0
      vertex 36 110 0.0999994
    endloop
  endfacet
  facet normal -0 0 1
    outer loop
      vertex 36 120 0.0999994
      vertex 36.8 110 0.0999994
      vertex 36.8 120 0.0999994
    endloop
  endfacet
  facet normal 0 0 1
    outer loop
      vertex 36.8 110 0.0999994
      vertex 36 120 0.0999994
      vertex 36 110 0.0999994
    endloop
  endfacet
  facet normal 1 -0 0
    outer loop
      vertex 36.8 110 0.0999994
      vertex 36.8 120 0
      vertex 36.8 120 0.0999994
    endloop
  endfacet
  facet normal 1 0 0
    outer loop
      vertex 36.8 120 0
      vertex 36.8 110 0.0999994
      vertex 36.8 110 0
    endloop
  endfacet
  facet normal 0 1 -0
    outer loop
      vertex 36.8 120 0
      vertex 36 120 0.0999994
      vertex 36.8 120 0.0999994
    endloop
  endfacet
  facet normal 0 1 0
    outer loop
      vertex 36 120 0.0999994
      vertex 36.8 120 0
      vertex 36 120 0
    endloop
  endfacet
  facet normal 0 0 -1
    outer loop
      vertex 36 110 0
      vertex 36.8 120 0
      vertex 36.8 110 0
    endloop
  endfacet
  facet normal -0 0 -1
    outer loop
      vertex 36.8 120 0
      vertex 36 110 0
      vertex 36 120 0
    endloop
  endfacet
  facet normal 0 -1 0
    outer loop
      vertex 36 110 0
      vertex 36.8 110 0.0999994
      vertex 36 110 0.0999994
    endloop
  endfacet
  facet normal 0 -1 -0
    outer loop
      vertex 36.8 110 0.0999994
      vertex 36 110 0
      vertex 36.8 110 0
    endloop
  endfacet
  facet normal -1 0 0
    outer loop
      vertex 37 110 0
      vertex 37 120 0.0999994
      vertex 37 120 0
    endloop
  endfacet
  facet normal -1 -0 0
    outer loop
      vertex 37 120 0.0999994
      vertex 37 110 0
      vertex 37 110 0.0999994
    endloop
  endfacet
  facet normal -0 0 1
    outer loop
      vertex 37 120 0.0999994
      vertex 37.8 110 0.0999994
      vertex 37.8 120 0.0999994
    endloop
  endfacet
  facet normal 0 0 1
    outer loop
      vertex 37.8 110 0.0999994
      vertex 37 120 0.0999994
      vertex 37 110 0.0999994
    endloop
  endfacet
  facet normal 1 -0 0
    outer loop
      vertex 37.8 110 0.0999994
      vertex 37.8 120 0
      vertex 37.8 120 0.0999994
    endloop
  endfacet
  facet normal 1 0 0
    outer loop
      vertex 37.8 120 0
      vertex 37.8 110 0.0999994
      vertex 37.8 110 0
    endloop
  endfacet
  facet normal 0 1 -0
    outer loop
      vertex 37.8 120 0
      vertex 37 120 0.0999994
      vertex 37.8 120 0.0999994
    endloop
  endfacet
  facet normal 0 1 0
    outer loop
      vertex 37 120 0.0999994
      vertex 37.8 120 0
      vertex 37 120 0
    endloop
  endfacet
  facet normal 0 0 -1
    outer loop
      vertex 37 110 0
      vertex 37.8 120 0
      vertex 37.8 110 0
    endloop
  endfacet
  facet normal -0 0 -1
    outer loop
      vertex 37.8 120 0
      vertex 37 110 0
      vertex 37 120 0
    endloop
  endfacet
  facet normal 0 -1 0
    outer loop
      vertex 37 110 0
      vertex 37.8 110 0.0999994
      vertex 37 110 0.0999994
    endloop
  endfacet
  facet normal 0 -1 -0
    outer loop
      vertex 37.8 110 0.0999994
      vertex 37 110 0
      vertex 37.8 110 0
    endloop
  endfacet
  facet normal -1 0 0
    outer loop
      vertex 38 110 0
      vertex 38 120 0.0999994
      vertex 38 120 0
    endloop
  endfacet
  facet normal -1 -0 0
    outer loop
      vertex 38 120 0.0999994
      vertex 38 110 0
      vertex 38 110 0.0999994
    endloop
  endfacet
  facet normal -0 0 1
    outer loop
      vertex 38 120 0.0999994
      vertex 38.8 110 0.0999994
      vertex 38.8 120 0.0999994
    endloop
  endfacet
  facet normal 0 0 1
    outer loop
      vertex 38.8 110 0.0999994
      vertex 38 120 0.0999994
      vertex 38 110 0.0999994
    endloop
  endfacet
  facet normal 1 -0 0
    outer loop
      vertex 38.8 110 0.0999994
      vertex 38.8 120 0
      vertex 38.8 120 0.0999994
    endloop
  endfacet
  facet normal 1 0 0
    outer loop
      vertex 38.8 120 0
      vertex 38.8 110 0.0999994
      vertex 38.8 110 0
    endloop
  endfacet
  facet normal 0 1 -0
    outer loop
      vertex 38.8 120 0
      vertex 38 120 0.0999994
      vertex 38.8 120 0.0999994
    endloop
  endfacet
  facet normal 0 1 0
    outer loop
      vertex 38 120 0.0999994
      vertex 38.8 120 0
      vertex 38 120 0
    endloop
  endfacet
  facet normal 0 0 -1
    outer loop
      vertex 38 110 0
      vertex 38.8 120 0
      vertex 38.8 110 0
    endloop
  endfacet
  facet normal -0 0 -1
    outer loop
      vertex 38.8 120 0
      vertex 38 110 0
      vertex 38 120 0
    endloop
  endfacet
  facet normal 0 -1 0
    outer loop
      vertex 38 110 0
      vertex 38.8 110 0.0999994
      vertex 38 110 0.0999994
    endloop
  endfacet
  facet normal 0 -1 -0
    outer loop
      vertex 38.8 110 0.0999994
      vertex 38 110 0
      vertex 38.8 110 0
    endloop
  endfacet
  facet normal -1 0 0
    outer loop
      vertex 39 110 0
      vertex 39 120 0.0999994
      vertex 39 120 0
    endloop
  endfacet
  facet normal -1 -0 0
    outer loop
      vertex 39 120 0.0999994
      vertex 39 110 0
      vertex 39 110 0.0999994
    endloop
  endfacet
  facet normal -0 0 1
    outer loop
      vertex 39 120 0.0999994
      vertex 39.8 110 0.0999994
      vertex 39.8 120 0.0999994
    endloop
  endfacet
  facet normal 0 0 1
    outer loop
      vertex 39.8 110 0.0999994
      vertex 39 120 0.0999994
      vertex 39 110 0.0999994
    endloop
  endfacet
  facet normal 1 -0 0
    outer loop
      vertex 39.8 110 0.0999994
      vertex 39.8 120 0
      vertex 39.8 120 0.0999994
    endloop
  endfacet
  facet normal 1 0 0
    outer loop
      vertex 39.8 120 0
      vertex 39.8 110 0.0999994
      vertex 39.8 110 0
    endloop
  endfacet
  facet normal 0 1 -0
    outer loop
      vertex 39.8 120 0
      vertex 39 120 0.0999994
      vertex 39.8 120 0.0999994
    endloop
  endfacet
  facet normal 0 1 0
    outer loop
      vertex 39 120 0.0999994
      vertex 39.8 120 0
      vertex 39 120 0
    endloop
  endfacet
  facet normal 0 0 -1
    outer loop
      vertex 39 110 0
      vertex 39.8 120 0
      vertex 39.8 110 0
    endloop
  endfacet
  facet normal -0 0 -1
    outer loop
      vertex 39.8 120 0
      vertex 39 110 0
      vertex 39 120 0
    endloop
  endfacet
  facet normal 0 -1 0
    outer loop
      vertex 39 110 0
      vertex 39.8 110 0.0999994
      vertex 39 110 0.0999994
    endloop
  endfacet
  facet normal 0 -1 -0
    outer loop
      vertex 39.8 110 0.0999994
      vertex 39 110 0
      vertex 39.8 110 0
    endloop
  endfacet
  facet normal -1 0 0
    outer loop
      vertex 40 110 0
      vertex 40 120 0.0999994
      vertex 40 120 0
    endloop
  endfacet
  facet normal -1 -0 0
    outer loop
      vertex 40 120 0.0999994
      vertex 40 110 0
      vertex 40 110 0.0999994
    endloop
  endfacet
  facet normal -0 0 1
    outer loop
      vertex 40 120 0.0999994
      vertex 40.8 110 0.0999994
      vertex 40.8 120 0.0999994
    endloop
  endfacet
  facet normal 0 0 1
    outer loop
      vertex 40.8 110 0.0999994
      vertex 40 120 0.0999994
      vertex 40 110 0.0999994
    endloop
  endfacet
  facet normal 1 -0 0
    outer loop
      vertex 40.8 110 0.0999994
      vertex 40.8 120 0
      vertex 40.8 120 0.0999994
    endloop
  endfacet
  facet normal 1 0 0
    outer loop
      vertex 40.8 120 0
      vertex 40.8 110 0.0999994
      vertex 40.8 110 0
    endloop
  endfacet
  facet normal 0 1 -0
    outer loop
      vertex 40.8 120 0
      vertex 40 120 0.0999994
      vertex 40.8 120 0.0999994
    endloop
  endfacet
  facet normal 0 1 0
    outer loop
      vertex 40 120 0.0999994
      vertex 40.8 120 0
      vertex 40 120 0
    endloop
  endfacet
  facet normal 0 0 -1
    outer loop
      vertex 40 110 0
      vertex 40.8 120 0
      vertex 40.8 110 0
    endloop
  endfacet
  facet normal -0 0 -1
    outer loop
      vertex 40.8 120 0
      vertex 40 110 0
      vertex 40 120 0
    endloop
  endfacet
  facet normal 0 -1 0
    outer loop
      vertex 40 110 0
      vertex 40.8 110 0.0999994
      vertex 40 110 0.0999994
    endloop
  endfacet
  facet normal 0 -1 -0
    outer loop
      vertex 40.8 110 0.0999994
      vertex 40 110 0
      vertex 40.8 110 0
    endloop
  endfacet
endsolid OpenSCAD_Model
