solid OpenSCAD_Model
  facet normal -1 0 0
    outer loop
      vertex 50 50 0
      vertex 50 60 0.0999994
      vertex 50 60 0
    endloop
  endfacet
  facet normal -1 -0 0
    outer loop
      vertex 50 60 0.0999994
      vertex 50 50 0
      vertex 50 50 0.0999994
    endloop
  endfacet
  facet normal -0 0 1
    outer loop
      vertex 50 60 0.0999994
      vertex 50.8 50 0.0999994
      vertex 50.8 60 0.0999994
    endloop
  endfacet
  facet normal 0 0 1
    outer loop
      vertex 50.8 50 0.0999994
      vertex 50 60 0.0999994
      vertex 50 50 0.0999994
    endloop
  endfacet
  facet normal 1 -0 0
    outer loop
      vertex 50.8 50 0.0999994
      vertex 50.8 60 0
      vertex 50.8 60 0.0999994
    endloop
  endfacet
  facet normal 1 0 0
    outer loop
      vertex 50.8 60 0
      vertex 50.8 50 0.0999994
      vertex 50.8 50 0
    endloop
  endfacet
  facet normal 0 1 -0
    outer loop
      vertex 50.8 60 0
      vertex 50 60 0.0999994
      vertex 50.8 60 0.0999994
    endloop
  endfacet
  facet normal 0 1 0
    outer loop
      vertex 50 60 0.0999994
      vertex 50.8 60 0
      vertex 50 60 0
    endloop
  endfacet
  facet normal 0 0 -1
    outer loop
      vertex 50 50 0
      vertex 50.8 60 0
      vertex 50.8 50 0
    endloop
  endfacet
  facet normal -0 0 -1
    outer loop
      vertex 50.8 60 0
      vertex 50 50 0
      vertex 50 60 0
    endloop
  endfacet
  facet normal 0 -1 0
    outer loop
      vertex 50 50 0
      vertex 50.8 50 0.0999994
      vertex 50 50 0.0999994
    endloop
  endfacet
  facet normal 0 -1 -0
    outer loop
      vertex 50.8 50 0.0999994
      vertex 50 50 0
      vertex 50.8 50 0
    endloop
  endfacet
  facet normal -1 0 0
    outer loop
      vertex 51 50 0
      vertex 51 60 0.0999994
      vertex 51 60 0
    endloop
  endfacet
  facet normal -1 -0 0
    outer loop
      vertex 51 60 0.0999994
      vertex 51 50 0
      vertex 51 50 0.0999994
    endloop
  endfacet
  facet normal -0 0 1
    outer loop
      vertex 51 60 0.0999994
      vertex 51.8 50 0.0999994
      vertex 51.8 60 0.0999994
    endloop
  endfacet
  facet normal 0 0 1
    outer loop
      vertex 51.8 50 0.0999994
      vertex 51 60 0.0999994
      vertex 51 50 0.0999994
    endloop
  endfacet
  facet normal 1 -0 0
    outer loop
      vertex 51.8 50 0.0999994
      vertex 51.8 60 0
      vertex 51.8 60 0.0999994
    endloop
  endfacet
  facet normal 1 0 0
    outer loop
      vertex 51.8 60 0
      vertex 51.8 50 0.0999994
      vertex 51.8 50 0
    endloop
  endfacet
  facet normal 0 1 -0
    outer loop
      vertex 51.8 60 0
      vertex 51 60 0.0999994
      vertex 51.8 60 0.0999994
    endloop
  endfacet
  facet normal 0 1 0
    outer loop
      vertex 51 60 0.0999994
      vertex 51.8 60 0
      vertex 51 60 0
    endloop
  endfacet
  facet normal 0 0 -1
    outer loop
      vertex 51 50 0
      vertex 51.8 60 0
      vertex 51.8 50 0
    endloop
  endfacet
  facet normal -0 0 -1
    outer loop
      vertex 51.8 60 0
      vertex 51 50 0
      vertex 51 60 0
    endloop
  endfacet
  facet normal 0 -1 0
    outer loop
      vertex 51 50 0
      vertex 51.8 50 0.0999994
      vertex 51 50 0.0999994
    endloop
  endfacet
  facet normal 0 -1 -0
    outer loop
      vertex 51.8 50 0.0999994
      vertex 51 50 0
      vertex 51.8 50 0
    endloop
  endfacet
  facet normal -1 0 0
    outer loop
      vertex 52 50 0
      vertex 52 60 0.0999994
      vertex 52 60 0
    endloop
  endfacet
  facet normal -1 -0 0
    outer loop
      vertex 52 60 0.0999994
      vertex 52 50 0
      vertex 52 50 0.0999994
    endloop
  endfacet
  facet normal -0 0 1
    outer loop
      vertex 52 60 0.0999994
      vertex 52.8 50 0.0999994
      vertex 52.8 60 0.0999994
    endloop
  endfacet
  facet normal 0 0 1
    outer loop
      vertex 52.8 50 0.0999994
      vertex 52 60 0.0999994
      vertex 52 50 0.0999994
    endloop
  endfacet
  facet normal 1 -0 0
    outer loop
      vertex 52.8 50 0.0999994
      vertex 52.8 60 0
      vertex 52.8 60 0.0999994
    endloop
  endfacet
  facet normal 1 0 0
    outer loop
      vertex 52.8 60 0
      vertex 52.8 50 0.0999994
      vertex 52.8 50 0
    endloop
  endfacet
  facet normal 0 0 -1
    outer loop
      vertex 52 50 0
      vertex 52.8 60 0
      vertex 52.8 50 0
    endloop
  endfacet
  facet normal -0 0 -1
    outer loop
      vertex 52.8 60 0
      vertex 52 50 0
      vertex 52 60 0
    endloop
  endfacet
  facet normal 0 -1 0
    outer loop
      vertex 52 50 0
      vertex 52.8 50 0.0999994
      vertex 52 50 0.0999994
    endloop
  endfacet
  facet normal 0 -1 -0
    outer loop
      vertex 52.8 50 0.0999994
      vertex 52 50 0
      vertex 52.8 50 0
    endloop
  endfacet
  facet normal 0 1 -0
    outer loop
      vertex 52.8 60 0
      vertex 52 60 0.0999994
      vertex 52.8 60 0.0999994
    endloop
  endfacet
  facet normal 0 1 0
    outer loop
      vertex 52 60 0.0999994
      vertex 52.8 60 0
      vertex 52 60 0
    endloop
  endfacet
  facet normal -1 0 0
    outer loop
      vertex 53 50 0
      vertex 53 60 0.0999994
      vertex 53 60 0
    endloop
  endfacet
  facet normal -1 -0 0
    outer loop
      vertex 53 60 0.0999994
      vertex 53 50 0
      vertex 53 50 0.0999994
    endloop
  endfacet
  facet normal -0 0 1
    outer loop
      vertex 53 60 0.0999994
      vertex 53.8 50 0.0999994
      vertex 53.8 60 0.0999994
    endloop
  endfacet
  facet normal 0 0 1
    outer loop
      vertex 53.8 50 0.0999994
      vertex 53 60 0.0999994
      vertex 53 50 0.0999994
    endloop
  endfacet
  facet normal 1 -0 0
    outer loop
      vertex 53.8 50 0.0999994
      vertex 53.8 60 0
      vertex 53.8 60 0.0999994
    endloop
  endfacet
  facet normal 1 0 0
    outer loop
      vertex 53.8 60 0
      vertex 53.8 50 0.0999994
      vertex 53.8 50 0
    endloop
  endfacet
  facet normal 0 0 -1
    outer loop
      vertex 53 50 0
      vertex 53.8 60 0
      vertex 53.8 50 0
    endloop
  endfacet
  facet normal -0 0 -1
    outer loop
      vertex 53.8 60 0
      vertex 53 50 0
      vertex 53 60 0
    endloop
  endfacet
  facet normal 0 -1 0
    outer loop
      vertex 53 50 0
      vertex 53.8 50 0.0999994
      vertex 53 50 0.0999994
    endloop
  endfacet
  facet normal 0 -1 -0
    outer loop
      vertex 53.8 50 0.0999994
      vertex 53 50 0
      vertex 53.8 50 0
    endloop
  endfacet
  facet normal 0 1 -0
    outer loop
      vertex 53.8 60 0
      vertex 53 60 0.0999994
      vertex 53.8 60 0.0999994
    endloop
  endfacet
  facet normal 0 1 0
    outer loop
      vertex 53 60 0.0999994
      vertex 53.8 60 0
      vertex 53 60 0
    endloop
  endfacet
  facet normal -1 0 0
    outer loop
      vertex 54 50 0
      vertex 54 60 0.0999994
      vertex 54 60 0
    endloop
  endfacet
  facet normal -1 -0 0
    outer loop
      vertex 54 60 0.0999994
      vertex 54 50 0
      vertex 54 50 0.0999994
    endloop
  endfacet
  facet normal -0 0 1
    outer loop
      vertex 54 60 0.0999994
      vertex 54.8 50 0.0999994
      vertex 54.8 60 0.0999994
    endloop
  endfacet
  facet normal 0 0 1
    outer loop
      vertex 54.8 50 0.0999994
      vertex 54 60 0.0999994
      vertex 54 50 0.0999994
    endloop
  endfacet
  facet normal 1 -0 0
    outer loop
      vertex 54.8 50 0.0999994
      vertex 54.8 60 0
      vertex 54.8 60 0.0999994
    endloop
  endfacet
  facet normal 1 0 0
    outer loop
      vertex 54.8 60 0
      vertex 54.8 50 0.0999994
      vertex 54.8 50 0
    endloop
  endfacet
  facet normal 0 1 -0
    outer loop
      vertex 54.8 60 0
      vertex 54 60 0.0999994
      vertex 54.8 60 0.0999994
    endloop
  endfacet
  facet normal 0 1 0
    outer loop
      vertex 54 60 0.0999994
      vertex 54.8 60 0
      vertex 54 60 0
    endloop
  endfacet
  facet normal 0 0 -1
    outer loop
      vertex 54 50 0
      vertex 54.8 60 0
      vertex 54.8 50 0
    endloop
  endfacet
  facet normal -0 0 -1
    outer loop
      vertex 54.8 60 0
      vertex 54 50 0
      vertex 54 60 0
    endloop
  endfacet
  facet normal 0 -1 0
    outer loop
      vertex 54 50 0
      vertex 54.8 50 0.0999994
      vertex 54 50 0.0999994
    endloop
  endfacet
  facet normal 0 -1 -0
    outer loop
      vertex 54.8 50 0.0999994
      vertex 54 50 0
      vertex 54.8 50 0
    endloop
  endfacet
  facet normal -1 0 0
    outer loop
      vertex 55 50 0
      vertex 55 60 0.0999994
      vertex 55 60 0
    endloop
  endfacet
  facet normal -1 -0 0
    outer loop
      vertex 55 60 0.0999994
      vertex 55 50 0
      vertex 55 50 0.0999994
    endloop
  endfacet
  facet normal -0 0 1
    outer loop
      vertex 55 60 0.0999994
      vertex 55.8 50 0.0999994
      vertex 55.8 60 0.0999994
    endloop
  endfacet
  facet normal 0 0 1
    outer loop
      vertex 55.8 50 0.0999994
      vertex 55 60 0.0999994
      vertex 55 50 0.0999994
    endloop
  endfacet
  facet normal 1 -0 0
    outer loop
      vertex 55.8 50 0.0999994
      vertex 55.8 60 0
      vertex 55.8 60 0.0999994
    endloop
  endfacet
  facet normal 1 0 0
    outer loop
      vertex 55.8 60 0
      vertex 55.8 50 0.0999994
      vertex 55.8 50 0
    endloop
  endfacet
  facet normal 0 1 -0
    outer loop
      vertex 55.8 60 0
      vertex 55 60 0.0999994
      vertex 55.8 60 0.0999994
    endloop
  endfacet
  facet normal 0 1 0
    outer loop
      vertex 55 60 0.0999994
      vertex 55.8 60 0
      vertex 55 60 0
    endloop
  endfacet
  facet normal 0 0 -1
    outer loop
      vertex 55 50 0
      vertex 55.8 60 0
      vertex 55.8 50 0
    endloop
  endfacet
  facet normal -0 0 -1
    outer loop
      vertex 55.8 60 0
      vertex 55 50 0
      vertex 55 60 0
    endloop
  endfacet
  facet normal 0 -1 0
    outer loop
      vertex 55 50 0
      vertex 55.8 50 0.0999994
      vertex 55 50 0.0999994
    endloop
  endfacet
  facet normal 0 -1 -0
    outer loop
      vertex 55.8 50 0.0999994
      vertex 55 50 0
      vertex 55.8 50 0
    endloop
  endfacet
  facet normal -1 0 0
    outer loop
      vertex 56 50 0
      vertex 56 60 0.0999994
      vertex 56 60 0
    endloop
  endfacet
  facet normal -1 -0 0
    outer loop
      vertex 56 60 0.0999994
      vertex 56 50 0
      vertex 56 50 0.0999994
    endloop
  endfacet
  facet normal -0 0 1
    outer loop
      vertex 56 60 0.0999994
      vertex 56.8 50 0.0999994
      vertex 56.8 60 0.0999994
    endloop
  endfacet
  facet normal 0 0 1
    outer loop
      vertex 56.8 50 0.0999994
      vertex 56 60 0.0999994
      vertex 56 50 0.0999994
    endloop
  endfacet
  facet normal 1 -0 0
    outer loop
      vertex 56.8 50 0.0999994
      vertex 56.8 60 0
      vertex 56.8 60 0.0999994
    endloop
  endfacet
  facet normal 1 0 0
    outer loop
      vertex 56.8 60 0
      vertex 56.8 50 0.0999994
      vertex 56.8 50 0
    endloop
  endfacet
  facet normal 0 0 -1
    outer loop
      vertex 56 50 0
      vertex 56.8 60 0
      vertex 56.8 50 0
    endloop
  endfacet
  facet normal -0 0 -1
    outer loop
      vertex 56.8 60 0
      vertex 56 50 0
      vertex 56 60 0
    endloop
  endfacet
  facet normal 0 -1 0
    outer loop
      vertex 56 50 0
      vertex 56.8 50 0.0999994
      vertex 56 50 0.0999994
    endloop
  endfacet
  facet normal 0 -1 -0
    outer loop
      vertex 56.8 50 0.0999994
      vertex 56 50 0
      vertex 56.8 50 0
    endloop
  endfacet
  facet normal 0 1 -0
    outer loop
      vertex 56.8 60 0
      vertex 56 60 0.0999994
      vertex 56.8 60 0.0999994
    endloop
  endfacet
  facet normal 0 1 0
    outer loop
      vertex 56 60 0.0999994
      vertex 56.8 60 0
      vertex 56 60 0
    endloop
  endfacet
  facet normal -1 0 0
    outer loop
      vertex 57 50 0
      vertex 57 60 0.0999994
      vertex 57 60 0
    endloop
  endfacet
  facet normal -1 -0 0
    outer loop
      vertex 57 60 0.0999994
      vertex 57 50 0
      vertex 57 50 0.0999994
    endloop
  endfacet
  facet normal -0 0 1
    outer loop
      vertex 57 60 0.0999994
      vertex 57.8 50 0.0999994
      vertex 57.8 60 0.0999994
    endloop
  endfacet
  facet normal 0 0 1
    outer loop
      vertex 57.8 50 0.0999994
      vertex 57 60 0.0999994
      vertex 57 50 0.0999994
    endloop
  endfacet
  facet normal 1 -0 0
    outer loop
      vertex 57.8 50 0.0999994
      vertex 57.8 60 0
      vertex 57.8 60 0.0999994
    endloop
  endfacet
  facet normal 1 0 0
    outer loop
      vertex 57.8 60 0
      vertex 57.8 50 0.0999994
      vertex 57.8 50 0
    endloop
  endfacet
  facet normal 0 1 -0
    outer loop
      vertex 57.8 60 0
      vertex 57 60 0.0999994
      vertex 57.8 60 0.0999994
    endloop
  endfacet
  facet normal 0 1 0
    outer loop
      vertex 57 60 0.0999994
      vertex 57.8 60 0
      vertex 57 60 0
    endloop
  endfacet
  facet normal 0 0 -1
    outer loop
      vertex 57 50 0
      vertex 57.8 60 0
      vertex 57.8 50 0
    endloop
  endfacet
  facet normal -0 0 -1
    outer loop
      vertex 57.8 60 0
      vertex 57 50 0
      vertex 57 60 0
    endloop
  endfacet
  facet normal 0 -1 0
    outer loop
      vertex 57 50 0
      vertex 57.8 50 0.0999994
      vertex 57 50 0.0999994
    endloop
  endfacet
  facet normal 0 -1 -0
    outer loop
      vertex 57.8 50 0.0999994
      vertex 57 50 0
      vertex 57.8 50 0
    endloop
  endfacet
  facet normal -1 0 0
    outer loop
      vertex 58 50 0
      vertex 58 60 0.0999994
      vertex 58 60 0
    endloop
  endfacet
  facet normal -1 -0 0
    outer loop
      vertex 58 60 0.0999994
      vertex 58 50 0
      vertex 58 50 0.0999994
    endloop
  endfacet
  facet normal -0 0 1
    outer loop
      vertex 58 60 0.0999994
      vertex 58.8 50 0.0999994
      vertex 58.8 60 0.0999994
    endloop
  endfacet
  facet normal 0 0 1
    outer loop
      vertex 58.8 50 0.0999994
      vertex 58 60 0.0999994
      vertex 58 50 0.0999994
    endloop
  endfacet
  facet normal 1 -0 0
    outer loop
      vertex 58.8 50 0.0999994
      vertex 58.8 60 0
      vertex 58.8 60 0.0999994
    endloop
  endfacet
  facet normal 1 0 0
    outer loop
      vertex 58.8 60 0
      vertex 58.8 50 0.0999994
      vertex 58.8 50 0
    endloop
  endfacet
  facet normal 0 0 -1
    outer loop
      vertex 58 50 0
      vertex 58.8 60 0
      vertex 58.8 50 0
    endloop
  endfacet
  facet normal -0 0 -1
    outer loop
      vertex 58.8 60 0
      vertex 58 50 0
      vertex 58 60 0
    endloop
  endfacet
  facet normal 0 -1 0
    outer loop
      vertex 58 50 0
      vertex 58.8 50 0.0999994
      vertex 58 50 0.0999994
    endloop
  endfacet
  facet normal 0 -1 -0
    outer loop
      vertex 58.8 50 0.0999994
      vertex 58 50 0
      vertex 58.8 50 0
    endloop
  endfacet
  facet normal 0 1 -0
    outer loop
      vertex 58.8 60 0
      vertex 58 60 0.0999994
      vertex 58.8 60 0.0999994
    endloop
  endfacet
  facet normal 0 1 0
    outer loop
      vertex 58 60 0.0999994
      vertex 58.8 60 0
      vertex 58 60 0
    endloop
  endfacet
  facet normal -1 0 0
    outer loop
      vertex 59 50 0
      vertex 59 60 0.0999994
      vertex 59 60 0
    endloop
  endfacet
  facet normal -1 -0 0
    outer loop
      vertex 59 60 0.0999994
      vertex 59 50 0
      vertex 59 50 0.0999994
    endloop
  endfacet
  facet normal -0 0 1
    outer loop
      vertex 59 60 0.0999994
      vertex 59.8 50 0.0999994
      vertex 59.8 60 0.0999994
    endloop
  endfacet
  facet normal 0 0 1
    outer loop
      vertex 59.8 50 0.0999994
      vertex 59 60 0.0999994
      vertex 59 50 0.0999994
    endloop
  endfacet
  facet normal 1 -0 0
    outer loop
      vertex 59.8 50 0.0999994
      vertex 59.8 60 0
      vertex 59.8 60 0.0999994
    endloop
  endfacet
  facet normal 1 0 0
    outer loop
      vertex 59.8 60 0
      vertex 59.8 50 0.0999994
      vertex 59.8 50 0
    endloop
  endfacet
  facet normal 0 1 -0
    outer loop
      vertex 59.8 60 0
      vertex 59 60 0.0999994
      vertex 59.8 60 0.0999994
    endloop
  endfacet
  facet normal 0 1 0
    outer loop
      vertex 59 60 0.0999994
      vertex 59.8 60 0
      vertex 59 60 0
    endloop
  endfacet
  facet normal 0 0 -1
    outer loop
      vertex 59 50 0
      vertex 59.8 60 0
      vertex 59.8 50 0
    endloop
  endfacet
  facet normal -0 0 -1
    outer loop
      vertex 59.8 60 0
      vertex 59 50 0
      vertex 59 60 0
    endloop
  endfacet
  facet normal 0 -1 0
    outer loop
      vertex 59 50 0
      vertex 59.8 50 0.0999994
      vertex 59 50 0.0999994
    endloop
  endfacet
  facet normal 0 -1 -0
    outer loop
      vertex 59.8 50 0.0999994
      vertex 59 50 0
      vertex 59.8 50 0
    endloop
  endfacet
  facet normal -1 0 0
    outer loop
      vertex 60 50 0
      vertex 60 60 0.0999994
      vertex 60 60 0
    endloop
  endfacet
  facet normal -1 -0 0
    outer loop
      vertex 60 60 0.0999994
      vertex 60 50 0
      vertex 60 50 0.0999994
    endloop
  endfacet
  facet normal -0 0 1
    outer loop
      vertex 60 60 0.0999994
      vertex 60.8 50 0.0999994
      vertex 60.8 60 0.0999994
    endloop
  endfacet
  facet normal 0 0 1
    outer loop
      vertex 60.8 50 0.0999994
      vertex 60 60 0.0999994
      vertex 60 50 0.0999994
    endloop
  endfacet
  facet normal 1 -0 0
    outer loop
      vertex 60.8 50 0.0999994
      vertex 60.8 60 0
      vertex 60.8 60 0.0999994
    endloop
  endfacet
  facet normal 1 0 0
    outer loop
      vertex 60.8 60 0
      vertex 60.8 50 0.0999994
      vertex 60.8 50 0
    endloop
  endfacet
  facet normal 0 0 -1
    outer loop
      vertex 60 50 0
      vertex 60.8 60 0
      vertex 60.8 50 0
    endloop
  endfacet
  facet normal -0 0 -1
    outer loop
      vertex 60.8 60 0
      vertex 60 50 0
      vertex 60 60 0
    endloop
  endfacet
  facet normal 0 -1 0
    outer loop
      vertex 60 50 0
      vertex 60.8 50 0.0999994
      vertex 60 50 0.0999994
    endloop
  endfacet
  facet normal 0 -1 -0
    outer loop
      vertex 60.8 50 0.0999994
      vertex 60 50 0
      vertex 60.8 50 0
    endloop
  endfacet
  facet normal 0 1 -0
    outer loop
      vertex 60.8 60 0
      vertex 60 60 0.0999994
      vertex 60.8 60 0.0999994
    endloop
  endfacet
  facet normal 0 1 0
    outer loop
      vertex 60 60 0.0999994
      vertex 60.8 60 0
      vertex 60 60 0
    endloop
  endfacet
endsolid OpenSCAD_Model
