solid OpenSCAD_Model
  facet normal -1 0 0
    outer loop
      vertex 90 110 0
      vertex 90 120 0.0999994
      vertex 90 120 0
    endloop
  endfacet
  facet normal -1 -0 0
    outer loop
      vertex 90 120 0.0999994
      vertex 90 110 0
      vertex 90 110 0.0999994
    endloop
  endfacet
  facet normal -0 0 1
    outer loop
      vertex 90 120 0.0999994
      vertex 90.8 110 0.0999994
      vertex 90.8 120 0.0999994
    endloop
  endfacet
  facet normal 0 0 1
    outer loop
      vertex 90.8 110 0.0999994
      vertex 90 120 0.0999994
      vertex 90 110 0.0999994
    endloop
  endfacet
  facet normal 1 -0 0
    outer loop
      vertex 90.8 110 0.0999994
      vertex 90.8 120 0
      vertex 90.8 120 0.0999994
    endloop
  endfacet
  facet normal 1 0 0
    outer loop
      vertex 90.8 120 0
      vertex 90.8 110 0.0999994
      vertex 90.8 110 0
    endloop
  endfacet
  facet normal 0 1 -0
    outer loop
      vertex 90.8 120 0
      vertex 90 120 0.0999994
      vertex 90.8 120 0.0999994
    endloop
  endfacet
  facet normal 0 1 0
    outer loop
      vertex 90 120 0.0999994
      vertex 90.8 120 0
      vertex 90 120 0
    endloop
  endfacet
  facet normal 0 0 -1
    outer loop
      vertex 90 110 0
      vertex 90.8 120 0
      vertex 90.8 110 0
    endloop
  endfacet
  facet normal -0 0 -1
    outer loop
      vertex 90.8 120 0
      vertex 90 110 0
      vertex 90 120 0
    endloop
  endfacet
  facet normal 0 -1 0
    outer loop
      vertex 90 110 0
      vertex 90.8 110 0.0999994
      vertex 90 110 0.0999994
    endloop
  endfacet
  facet normal 0 -1 -0
    outer loop
      vertex 90.8 110 0.0999994
      vertex 90 110 0
      vertex 90.8 110 0
    endloop
  endfacet
  facet normal -1 0 0
    outer loop
      vertex 91 110 0
      vertex 91 120 0.0999994
      vertex 91 120 0
    endloop
  endfacet
  facet normal -1 -0 0
    outer loop
      vertex 91 120 0.0999994
      vertex 91 110 0
      vertex 91 110 0.0999994
    endloop
  endfacet
  facet normal -0 0 1
    outer loop
      vertex 91 120 0.0999994
      vertex 91.8 110 0.0999994
      vertex 91.8 120 0.0999994
    endloop
  endfacet
  facet normal 0 0 1
    outer loop
      vertex 91.8 110 0.0999994
      vertex 91 120 0.0999994
      vertex 91 110 0.0999994
    endloop
  endfacet
  facet normal 1 -0 0
    outer loop
      vertex 91.8 110 0.0999994
      vertex 91.8 120 0
      vertex 91.8 120 0.0999994
    endloop
  endfacet
  facet normal 1 0 0
    outer loop
      vertex 91.8 120 0
      vertex 91.8 110 0.0999994
      vertex 91.8 110 0
    endloop
  endfacet
  facet normal 0 1 -0
    outer loop
      vertex 91.8 120 0
      vertex 91 120 0.0999994
      vertex 91.8 120 0.0999994
    endloop
  endfacet
  facet normal 0 1 0
    outer loop
      vertex 91 120 0.0999994
      vertex 91.8 120 0
      vertex 91 120 0
    endloop
  endfacet
  facet normal 0 0 -1
    outer loop
      vertex 91 110 0
      vertex 91.8 120 0
      vertex 91.8 110 0
    endloop
  endfacet
  facet normal -0 0 -1
    outer loop
      vertex 91.8 120 0
      vertex 91 110 0
      vertex 91 120 0
    endloop
  endfacet
  facet normal 0 -1 0
    outer loop
      vertex 91 110 0
      vertex 91.8 110 0.0999994
      vertex 91 110 0.0999994
    endloop
  endfacet
  facet normal 0 -1 -0
    outer loop
      vertex 91.8 110 0.0999994
      vertex 91 110 0
      vertex 91.8 110 0
    endloop
  endfacet
  facet normal -1 0 0
    outer loop
      vertex 92 110 0
      vertex 92 120 0.0999994
      vertex 92 120 0
    endloop
  endfacet
  facet normal -1 -0 0
    outer loop
      vertex 92 120 0.0999994
      vertex 92 110 0
      vertex 92 110 0.0999994
    endloop
  endfacet
  facet normal -0 0 1
    outer loop
      vertex 92 120 0.0999994
      vertex 92.8 110 0.0999994
      vertex 92.8 120 0.0999994
    endloop
  endfacet
  facet normal 0 0 1
    outer loop
      vertex 92.8 110 0.0999994
      vertex 92 120 0.0999994
      vertex 92 110 0.0999994
    endloop
  endfacet
  facet normal 1 -0 0
    outer loop
      vertex 92.8 110 0.0999994
      vertex 92.8 120 0
      vertex 92.8 120 0.0999994
    endloop
  endfacet
  facet normal 1 0 0
    outer loop
      vertex 92.8 120 0
      vertex 92.8 110 0.0999994
      vertex 92.8 110 0
    endloop
  endfacet
  facet normal 0 0 -1
    outer loop
      vertex 92 110 0
      vertex 92.8 120 0
      vertex 92.8 110 0
    endloop
  endfacet
  facet normal -0 0 -1
    outer loop
      vertex 92.8 120 0
      vertex 92 110 0
      vertex 92 120 0
    endloop
  endfacet
  facet normal 0 -1 0
    outer loop
      vertex 92 110 0
      vertex 92.8 110 0.0999994
      vertex 92 110 0.0999994
    endloop
  endfacet
  facet normal 0 -1 -0
    outer loop
      vertex 92.8 110 0.0999994
      vertex 92 110 0
      vertex 92.8 110 0
    endloop
  endfacet
  facet normal 0 1 -0
    outer loop
      vertex 92.8 120 0
      vertex 92 120 0.0999994
      vertex 92.8 120 0.0999994
    endloop
  endfacet
  facet normal 0 1 0
    outer loop
      vertex 92 120 0.0999994
      vertex 92.8 120 0
      vertex 92 120 0
    endloop
  endfacet
  facet normal -1 0 0
    outer loop
      vertex 93 110 0
      vertex 93 120 0.0999994
      vertex 93 120 0
    endloop
  endfacet
  facet normal -1 -0 0
    outer loop
      vertex 93 120 0.0999994
      vertex 93 110 0
      vertex 93 110 0.0999994
    endloop
  endfacet
  facet normal -0 0 1
    outer loop
      vertex 93 120 0.0999994
      vertex 93.8 110 0.0999994
      vertex 93.8 120 0.0999994
    endloop
  endfacet
  facet normal 0 0 1
    outer loop
      vertex 93.8 110 0.0999994
      vertex 93 120 0.0999994
      vertex 93 110 0.0999994
    endloop
  endfacet
  facet normal 1 -0 0
    outer loop
      vertex 93.8 110 0.0999994
      vertex 93.8 120 0
      vertex 93.8 120 0.0999994
    endloop
  endfacet
  facet normal 1 0 0
    outer loop
      vertex 93.8 120 0
      vertex 93.8 110 0.0999994
      vertex 93.8 110 0
    endloop
  endfacet
  facet normal 0 0 -1
    outer loop
      vertex 93 110 0
      vertex 93.8 120 0
      vertex 93.8 110 0
    endloop
  endfacet
  facet normal -0 0 -1
    outer loop
      vertex 93.8 120 0
      vertex 93 110 0
      vertex 93 120 0
    endloop
  endfacet
  facet normal 0 -1 0
    outer loop
      vertex 93 110 0
      vertex 93.8 110 0.0999994
      vertex 93 110 0.0999994
    endloop
  endfacet
  facet normal 0 -1 -0
    outer loop
      vertex 93.8 110 0.0999994
      vertex 93 110 0
      vertex 93.8 110 0
    endloop
  endfacet
  facet normal 0 1 -0
    outer loop
      vertex 93.8 120 0
      vertex 93 120 0.0999994
      vertex 93.8 120 0.0999994
    endloop
  endfacet
  facet normal 0 1 0
    outer loop
      vertex 93 120 0.0999994
      vertex 93.8 120 0
      vertex 93 120 0
    endloop
  endfacet
  facet normal -1 0 0
    outer loop
      vertex 94 110 0
      vertex 94 120 0.0999994
      vertex 94 120 0
    endloop
  endfacet
  facet normal -1 -0 0
    outer loop
      vertex 94 120 0.0999994
      vertex 94 110 0
      vertex 94 110 0.0999994
    endloop
  endfacet
  facet normal -0 0 1
    outer loop
      vertex 94 120 0.0999994
      vertex 94.8 110 0.0999994
      vertex 94.8 120 0.0999994
    endloop
  endfacet
  facet normal 0 0 1
    outer loop
      vertex 94.8 110 0.0999994
      vertex 94 120 0.0999994
      vertex 94 110 0.0999994
    endloop
  endfacet
  facet normal 1 -0 0
    outer loop
      vertex 94.8 110 0.0999994
      vertex 94.8 120 0
      vertex 94.8 120 0.0999994
    endloop
  endfacet
  facet normal 1 0 0
    outer loop
      vertex 94.8 120 0
      vertex 94.8 110 0.0999994
      vertex 94.8 110 0
    endloop
  endfacet
  facet normal 0 1 -0
    outer loop
      vertex 94.8 120 0
      vertex 94 120 0.0999994
      vertex 94.8 120 0.0999994
    endloop
  endfacet
  facet normal 0 1 0
    outer loop
      vertex 94 120 0.0999994
      vertex 94.8 120 0
      vertex 94 120 0
    endloop
  endfacet
  facet normal 0 0 -1
    outer loop
      vertex 94 110 0
      vertex 94.8 120 0
      vertex 94.8 110 0
    endloop
  endfacet
  facet normal -0 0 -1
    outer loop
      vertex 94.8 120 0
      vertex 94 110 0
      vertex 94 120 0
    endloop
  endfacet
  facet normal 0 -1 0
    outer loop
      vertex 94 110 0
      vertex 94.8 110 0.0999994
      vertex 94 110 0.0999994
    endloop
  endfacet
  facet normal 0 -1 -0
    outer loop
      vertex 94.8 110 0.0999994
      vertex 94 110 0
      vertex 94.8 110 0
    endloop
  endfacet
  facet normal -1 0 0
    outer loop
      vertex 95 110 0
      vertex 95 120 0.0999994
      vertex 95 120 0
    endloop
  endfacet
  facet normal -1 -0 0
    outer loop
      vertex 95 120 0.0999994
      vertex 95 110 0
      vertex 95 110 0.0999994
    endloop
  endfacet
  facet normal -0 0 1
    outer loop
      vertex 95 120 0.0999994
      vertex 95.8 110 0.0999994
      vertex 95.8 120 0.0999994
    endloop
  endfacet
  facet normal 0 0 1
    outer loop
      vertex 95.8 110 0.0999994
      vertex 95 120 0.0999994
      vertex 95 110 0.0999994
    endloop
  endfacet
  facet normal 1 -0 0
    outer loop
      vertex 95.8 110 0.0999994
      vertex 95.8 120 0
      vertex 95.8 120 0.0999994
    endloop
  endfacet
  facet normal 1 0 0
    outer loop
      vertex 95.8 120 0
      vertex 95.8 110 0.0999994
      vertex 95.8 110 0
    endloop
  endfacet
  facet normal 0 1 -0
    outer loop
      vertex 95.8 120 0
      vertex 95 120 0.0999994
      vertex 95.8 120 0.0999994
    endloop
  endfacet
  facet normal 0 1 0
    outer loop
      vertex 95 120 0.0999994
      vertex 95.8 120 0
      vertex 95 120 0
    endloop
  endfacet
  facet normal 0 0 -1
    outer loop
      vertex 95 110 0
      vertex 95.8 120 0
      vertex 95.8 110 0
    endloop
  endfacet
  facet normal -0 0 -1
    outer loop
      vertex 95.8 120 0
      vertex 95 110 0
      vertex 95 120 0
    endloop
  endfacet
  facet normal 0 -1 0
    outer loop
      vertex 95 110 0
      vertex 95.8 110 0.0999994
      vertex 95 110 0.0999994
    endloop
  endfacet
  facet normal 0 -1 -0
    outer loop
      vertex 95.8 110 0.0999994
      vertex 95 110 0
      vertex 95.8 110 0
    endloop
  endfacet
  facet normal -1 0 0
    outer loop
      vertex 96 110 0
      vertex 96 120 0.0999994
      vertex 96 120 0
    endloop
  endfacet
  facet normal -1 -0 0
    outer loop
      vertex 96 120 0.0999994
      vertex 96 110 0
      vertex 96 110 0.0999994
    endloop
  endfacet
  facet normal -0 0 1
    outer loop
      vertex 96 120 0.0999994
      vertex 96.8 110 0.0999994
      vertex 96.8 120 0.0999994
    endloop
  endfacet
  facet normal 0 0 1
    outer loop
      vertex 96.8 110 0.0999994
      vertex 96 120 0.0999994
      vertex 96 110 0.0999994
    endloop
  endfacet
  facet normal 1 -0 0
    outer loop
      vertex 96.8 110 0.0999994
      vertex 96.8 120 0
      vertex 96.8 120 0.0999994
    endloop
  endfacet
  facet normal 1 0 0
    outer loop
      vertex 96.8 120 0
      vertex 96.8 110 0.0999994
      vertex 96.8 110 0
    endloop
  endfacet
  facet normal 0 0 -1
    outer loop
      vertex 96 110 0
      vertex 96.8 120 0
      vertex 96.8 110 0
    endloop
  endfacet
  facet normal -0 0 -1
    outer loop
      vertex 96.8 120 0
      vertex 96 110 0
      vertex 96 120 0
    endloop
  endfacet
  facet normal 0 -1 0
    outer loop
      vertex 96 110 0
      vertex 96.8 110 0.0999994
      vertex 96 110 0.0999994
    endloop
  endfacet
  facet normal 0 -1 -0
    outer loop
      vertex 96.8 110 0.0999994
      vertex 96 110 0
      vertex 96.8 110 0
    endloop
  endfacet
  facet normal 0 1 -0
    outer loop
      vertex 96.8 120 0
      vertex 96 120 0.0999994
      vertex 96.8 120 0.0999994
    endloop
  endfacet
  facet normal 0 1 0
    outer loop
      vertex 96 120 0.0999994
      vertex 96.8 120 0
      vertex 96 120 0
    endloop
  endfacet
  facet normal -1 0 0
    outer loop
      vertex 97 110 0
      vertex 97 120 0.0999994
      vertex 97 120 0
    endloop
  endfacet
  facet normal -1 -0 0
    outer loop
      vertex 97 120 0.0999994
      vertex 97 110 0
      vertex 97 110 0.0999994
    endloop
  endfacet
  facet normal -0 0 1
    outer loop
      vertex 97 120 0.0999994
      vertex 97.8 110 0.0999994
      vertex 97.8 120 0.0999994
    endloop
  endfacet
  facet normal 0 0 1
    outer loop
      vertex 97.8 110 0.0999994
      vertex 97 120 0.0999994
      vertex 97 110 0.0999994
    endloop
  endfacet
  facet normal 1 -0 0
    outer loop
      vertex 97.8 110 0.0999994
      vertex 97.8 120 0
      vertex 97.8 120 0.0999994
    endloop
  endfacet
  facet normal 1 0 0
    outer loop
      vertex 97.8 120 0
      vertex 97.8 110 0.0999994
      vertex 97.8 110 0
    endloop
  endfacet
  facet normal 0 1 -0
    outer loop
      vertex 97.8 120 0
      vertex 97 120 0.0999994
      vertex 97.8 120 0.0999994
    endloop
  endfacet
  facet normal 0 1 0
    outer loop
      vertex 97 120 0.0999994
      vertex 97.8 120 0
      vertex 97 120 0
    endloop
  endfacet
  facet normal 0 0 -1
    outer loop
      vertex 97 110 0
      vertex 97.8 120 0
      vertex 97.8 110 0
    endloop
  endfacet
  facet normal -0 0 -1
    outer loop
      vertex 97.8 120 0
      vertex 97 110 0
      vertex 97 120 0
    endloop
  endfacet
  facet normal 0 -1 0
    outer loop
      vertex 97 110 0
      vertex 97.8 110 0.0999994
      vertex 97 110 0.0999994
    endloop
  endfacet
  facet normal 0 -1 -0
    outer loop
      vertex 97.8 110 0.0999994
      vertex 97 110 0
      vertex 97.8 110 0
    endloop
  endfacet
  facet normal -1 0 0
    outer loop
      vertex 98 110 0
      vertex 98 120 0.0999994
      vertex 98 120 0
    endloop
  endfacet
  facet normal -1 -0 0
    outer loop
      vertex 98 120 0.0999994
      vertex 98 110 0
      vertex 98 110 0.0999994
    endloop
  endfacet
  facet normal -0 0 1
    outer loop
      vertex 98 120 0.0999994
      vertex 98.8 110 0.0999994
      vertex 98.8 120 0.0999994
    endloop
  endfacet
  facet normal 0 0 1
    outer loop
      vertex 98.8 110 0.0999994
      vertex 98 120 0.0999994
      vertex 98 110 0.0999994
    endloop
  endfacet
  facet normal 1 -0 0
    outer loop
      vertex 98.8 110 0.0999994
      vertex 98.8 120 0
      vertex 98.8 120 0.0999994
    endloop
  endfacet
  facet normal 1 0 0
    outer loop
      vertex 98.8 120 0
      vertex 98.8 110 0.0999994
      vertex 98.8 110 0
    endloop
  endfacet
  facet normal 0 0 -1
    outer loop
      vertex 98 110 0
      vertex 98.8 120 0
      vertex 98.8 110 0
    endloop
  endfacet
  facet normal -0 0 -1
    outer loop
      vertex 98.8 120 0
      vertex 98 110 0
      vertex 98 120 0
    endloop
  endfacet
  facet normal 0 -1 0
    outer loop
      vertex 98 110 0
      vertex 98.8 110 0.0999994
      vertex 98 110 0.0999994
    endloop
  endfacet
  facet normal 0 -1 -0
    outer loop
      vertex 98.8 110 0.0999994
      vertex 98 110 0
      vertex 98.8 110 0
    endloop
  endfacet
  facet normal 0 1 -0
    outer loop
      vertex 98.8 120 0
      vertex 98 120 0.0999994
      vertex 98.8 120 0.0999994
    endloop
  endfacet
  facet normal 0 1 0
    outer loop
      vertex 98 120 0.0999994
      vertex 98.8 120 0
      vertex 98 120 0
    endloop
  endfacet
  facet normal -1 0 0
    outer loop
      vertex 99 110 0
      vertex 99 120 0.0999994
      vertex 99 120 0
    endloop
  endfacet
  facet normal -1 -0 0
    outer loop
      vertex 99 120 0.0999994
      vertex 99 110 0
      vertex 99 110 0.0999994
    endloop
  endfacet
  facet normal -0 0 1
    outer loop
      vertex 99 120 0.0999994
      vertex 99.8 110 0.0999994
      vertex 99.8 120 0.0999994
    endloop
  endfacet
  facet normal 0 0 1
    outer loop
      vertex 99.8 110 0.0999994
      vertex 99 120 0.0999994
      vertex 99 110 0.0999994
    endloop
  endfacet
  facet normal 1 -0 0
    outer loop
      vertex 99.8 110 0.0999994
      vertex 99.8 120 0
      vertex 99.8 120 0.0999994
    endloop
  endfacet
  facet normal 1 0 0
    outer loop
      vertex 99.8 120 0
      vertex 99.8 110 0.0999994
      vertex 99.8 110 0
    endloop
  endfacet
  facet normal 0 0 -1
    outer loop
      vertex 99 110 0
      vertex 99.8 120 0
      vertex 99.8 110 0
    endloop
  endfacet
  facet normal -0 0 -1
    outer loop
      vertex 99.8 120 0
      vertex 99 110 0
      vertex 99 120 0
    endloop
  endfacet
  facet normal 0 -1 0
    outer loop
      vertex 99 110 0
      vertex 99.8 110 0.0999994
      vertex 99 110 0.0999994
    endloop
  endfacet
  facet normal 0 -1 -0
    outer loop
      vertex 99.8 110 0.0999994
      vertex 99 110 0
      vertex 99.8 110 0
    endloop
  endfacet
  facet normal 0 1 -0
    outer loop
      vertex 99.8 120 0
      vertex 99 120 0.0999994
      vertex 99.8 120 0.0999994
    endloop
  endfacet
  facet normal 0 1 0
    outer loop
      vertex 99 120 0.0999994
      vertex 99.8 120 0
      vertex 99 120 0
    endloop
  endfacet
  facet normal -1 0 0
    outer loop
      vertex 100 110 0
      vertex 100 120 0.0999994
      vertex 100 120 0
    endloop
  endfacet
  facet normal -1 -0 0
    outer loop
      vertex 100 120 0.0999994
      vertex 100 110 0
      vertex 100 110 0.0999994
    endloop
  endfacet
  facet normal -0 0 1
    outer loop
      vertex 100 120 0.0999994
      vertex 100.8 110 0.0999994
      vertex 100.8 120 0.0999994
    endloop
  endfacet
  facet normal 0 0 1
    outer loop
      vertex 100.8 110 0.0999994
      vertex 100 120 0.0999994
      vertex 100 110 0.0999994
    endloop
  endfacet
  facet normal 1 -0 0
    outer loop
      vertex 100.8 110 0.0999994
      vertex 100.8 120 0
      vertex 100.8 120 0.0999994
    endloop
  endfacet
  facet normal 1 0 0
    outer loop
      vertex 100.8 120 0
      vertex 100.8 110 0.0999994
      vertex 100.8 110 0
    endloop
  endfacet
  facet normal 0 1 -0
    outer loop
      vertex 100.8 120 0
      vertex 100 120 0.0999994
      vertex 100.8 120 0.0999994
    endloop
  endfacet
  facet normal 0 1 0
    outer loop
      vertex 100 120 0.0999994
      vertex 100.8 120 0
      vertex 100 120 0
    endloop
  endfacet
  facet normal 0 0 -1
    outer loop
      vertex 100 110 0
      vertex 100.8 120 0
      vertex 100.8 110 0
    endloop
  endfacet
  facet normal -0 0 -1
    outer loop
      vertex 100.8 120 0
      vertex 100 110 0
      vertex 100 120 0
    endloop
  endfacet
  facet normal 0 -1 0
    outer loop
      vertex 100 110 0
      vertex 100.8 110 0.0999994
      vertex 100 110 0.0999994
    endloop
  endfacet
  facet normal 0 -1 -0
    outer loop
      vertex 100.8 110 0.0999994
      vertex 100 110 0
      vertex 100.8 110 0
    endloop
  endfacet
endsolid OpenSCAD_Model
