solid OpenSCAD_Model
  facet normal -1 0 0
    outer loop
      vertex 110 150 0
      vertex 110 160 0.0999994
      vertex 110 160 0
    endloop
  endfacet
  facet normal -1 -0 0
    outer loop
      vertex 110 160 0.0999994
      vertex 110 150 0
      vertex 110 150 0.0999994
    endloop
  endfacet
  facet normal -0 0 1
    outer loop
      vertex 110 160 0.0999994
      vertex 110.8 150 0.0999994
      vertex 110.8 160 0.0999994
    endloop
  endfacet
  facet normal 0 0 1
    outer loop
      vertex 110.8 150 0.0999994
      vertex 110 160 0.0999994
      vertex 110 150 0.0999994
    endloop
  endfacet
  facet normal 1 -0 0
    outer loop
      vertex 110.8 150 0.0999994
      vertex 110.8 160 0
      vertex 110.8 160 0.0999994
    endloop
  endfacet
  facet normal 1 0 0
    outer loop
      vertex 110.8 160 0
      vertex 110.8 150 0.0999994
      vertex 110.8 150 0
    endloop
  endfacet
  facet normal 0 0 -1
    outer loop
      vertex 110 150 0
      vertex 110.8 160 0
      vertex 110.8 150 0
    endloop
  endfacet
  facet normal -0 0 -1
    outer loop
      vertex 110.8 160 0
      vertex 110 150 0
      vertex 110 160 0
    endloop
  endfacet
  facet normal 0 -1 0
    outer loop
      vertex 110 150 0
      vertex 110.8 150 0.0999994
      vertex 110 150 0.0999994
    endloop
  endfacet
  facet normal 0 -1 -0
    outer loop
      vertex 110.8 150 0.0999994
      vertex 110 150 0
      vertex 110.8 150 0
    endloop
  endfacet
  facet normal 0 1 -0
    outer loop
      vertex 110.8 160 0
      vertex 110 160 0.0999994
      vertex 110.8 160 0.0999994
    endloop
  endfacet
  facet normal 0 1 0
    outer loop
      vertex 110 160 0.0999994
      vertex 110.8 160 0
      vertex 110 160 0
    endloop
  endfacet
  facet normal -1 0 0
    outer loop
      vertex 111 150 0
      vertex 111 160 0.0999994
      vertex 111 160 0
    endloop
  endfacet
  facet normal -1 -0 0
    outer loop
      vertex 111 160 0.0999994
      vertex 111 150 0
      vertex 111 150 0.0999994
    endloop
  endfacet
  facet normal -0 0 1
    outer loop
      vertex 111 160 0.0999994
      vertex 111.8 150 0.0999994
      vertex 111.8 160 0.0999994
    endloop
  endfacet
  facet normal 0 0 1
    outer loop
      vertex 111.8 150 0.0999994
      vertex 111 160 0.0999994
      vertex 111 150 0.0999994
    endloop
  endfacet
  facet normal 1 -0 0
    outer loop
      vertex 111.8 150 0.0999994
      vertex 111.8 160 0
      vertex 111.8 160 0.0999994
    endloop
  endfacet
  facet normal 1 0 0
    outer loop
      vertex 111.8 160 0
      vertex 111.8 150 0.0999994
      vertex 111.8 150 0
    endloop
  endfacet
  facet normal 0 1 -0
    outer loop
      vertex 111.8 160 0
      vertex 111 160 0.0999994
      vertex 111.8 160 0.0999994
    endloop
  endfacet
  facet normal 0 1 0
    outer loop
      vertex 111 160 0.0999994
      vertex 111.8 160 0
      vertex 111 160 0
    endloop
  endfacet
  facet normal 0 0 -1
    outer loop
      vertex 111 150 0
      vertex 111.8 160 0
      vertex 111.8 150 0
    endloop
  endfacet
  facet normal -0 0 -1
    outer loop
      vertex 111.8 160 0
      vertex 111 150 0
      vertex 111 160 0
    endloop
  endfacet
  facet normal 0 -1 0
    outer loop
      vertex 111 150 0
      vertex 111.8 150 0.0999994
      vertex 111 150 0.0999994
    endloop
  endfacet
  facet normal 0 -1 -0
    outer loop
      vertex 111.8 150 0.0999994
      vertex 111 150 0
      vertex 111.8 150 0
    endloop
  endfacet
  facet normal -1 0 0
    outer loop
      vertex 112 150 0
      vertex 112 160 0.0999994
      vertex 112 160 0
    endloop
  endfacet
  facet normal -1 -0 0
    outer loop
      vertex 112 160 0.0999994
      vertex 112 150 0
      vertex 112 150 0.0999994
    endloop
  endfacet
  facet normal -0 0 1
    outer loop
      vertex 112 160 0.0999994
      vertex 112.8 150 0.0999994
      vertex 112.8 160 0.0999994
    endloop
  endfacet
  facet normal 0 0 1
    outer loop
      vertex 112.8 150 0.0999994
      vertex 112 160 0.0999994
      vertex 112 150 0.0999994
    endloop
  endfacet
  facet normal 1 -0 0
    outer loop
      vertex 112.8 150 0.0999994
      vertex 112.8 160 0
      vertex 112.8 160 0.0999994
    endloop
  endfacet
  facet normal 1 0 0
    outer loop
      vertex 112.8 160 0
      vertex 112.8 150 0.0999994
      vertex 112.8 150 0
    endloop
  endfacet
  facet normal 0 0 -1
    outer loop
      vertex 112 150 0
      vertex 112.8 160 0
      vertex 112.8 150 0
    endloop
  endfacet
  facet normal -0 0 -1
    outer loop
      vertex 112.8 160 0
      vertex 112 150 0
      vertex 112 160 0
    endloop
  endfacet
  facet normal 0 -1 0
    outer loop
      vertex 112 150 0
      vertex 112.8 150 0.0999994
      vertex 112 150 0.0999994
    endloop
  endfacet
  facet normal 0 -1 -0
    outer loop
      vertex 112.8 150 0.0999994
      vertex 112 150 0
      vertex 112.8 150 0
    endloop
  endfacet
  facet normal 0 1 -0
    outer loop
      vertex 112.8 160 0
      vertex 112 160 0.0999994
      vertex 112.8 160 0.0999994
    endloop
  endfacet
  facet normal 0 1 0
    outer loop
      vertex 112 160 0.0999994
      vertex 112.8 160 0
      vertex 112 160 0
    endloop
  endfacet
  facet normal -1 0 0
    outer loop
      vertex 113 150 0
      vertex 113 160 0.0999994
      vertex 113 160 0
    endloop
  endfacet
  facet normal -1 -0 0
    outer loop
      vertex 113 160 0.0999994
      vertex 113 150 0
      vertex 113 150 0.0999994
    endloop
  endfacet
  facet normal -0 0 1
    outer loop
      vertex 113 160 0.0999994
      vertex 113.8 150 0.0999994
      vertex 113.8 160 0.0999994
    endloop
  endfacet
  facet normal 0 0 1
    outer loop
      vertex 113.8 150 0.0999994
      vertex 113 160 0.0999994
      vertex 113 150 0.0999994
    endloop
  endfacet
  facet normal 1 -0 0
    outer loop
      vertex 113.8 150 0.0999994
      vertex 113.8 160 0
      vertex 113.8 160 0.0999994
    endloop
  endfacet
  facet normal 1 0 0
    outer loop
      vertex 113.8 160 0
      vertex 113.8 150 0.0999994
      vertex 113.8 150 0
    endloop
  endfacet
  facet normal 0 0 -1
    outer loop
      vertex 113 150 0
      vertex 113.8 160 0
      vertex 113.8 150 0
    endloop
  endfacet
  facet normal -0 0 -1
    outer loop
      vertex 113.8 160 0
      vertex 113 150 0
      vertex 113 160 0
    endloop
  endfacet
  facet normal 0 -1 0
    outer loop
      vertex 113 150 0
      vertex 113.8 150 0.0999994
      vertex 113 150 0.0999994
    endloop
  endfacet
  facet normal 0 -1 -0
    outer loop
      vertex 113.8 150 0.0999994
      vertex 113 150 0
      vertex 113.8 150 0
    endloop
  endfacet
  facet normal 0 1 -0
    outer loop
      vertex 113.8 160 0
      vertex 113 160 0.0999994
      vertex 113.8 160 0.0999994
    endloop
  endfacet
  facet normal 0 1 0
    outer loop
      vertex 113 160 0.0999994
      vertex 113.8 160 0
      vertex 113 160 0
    endloop
  endfacet
  facet normal -1 0 0
    outer loop
      vertex 114 150 0
      vertex 114 160 0.0999994
      vertex 114 160 0
    endloop
  endfacet
  facet normal -1 -0 0
    outer loop
      vertex 114 160 0.0999994
      vertex 114 150 0
      vertex 114 150 0.0999994
    endloop
  endfacet
  facet normal -0 0 1
    outer loop
      vertex 114 160 0.0999994
      vertex 114.8 150 0.0999994
      vertex 114.8 160 0.0999994
    endloop
  endfacet
  facet normal 0 0 1
    outer loop
      vertex 114.8 150 0.0999994
      vertex 114 160 0.0999994
      vertex 114 150 0.0999994
    endloop
  endfacet
  facet normal 1 -0 0
    outer loop
      vertex 114.8 150 0.0999994
      vertex 114.8 160 0
      vertex 114.8 160 0.0999994
    endloop
  endfacet
  facet normal 1 0 0
    outer loop
      vertex 114.8 160 0
      vertex 114.8 150 0.0999994
      vertex 114.8 150 0
    endloop
  endfacet
  facet normal 0 1 -0
    outer loop
      vertex 114.8 160 0
      vertex 114 160 0.0999994
      vertex 114.8 160 0.0999994
    endloop
  endfacet
  facet normal 0 1 0
    outer loop
      vertex 114 160 0.0999994
      vertex 114.8 160 0
      vertex 114 160 0
    endloop
  endfacet
  facet normal 0 0 -1
    outer loop
      vertex 114 150 0
      vertex 114.8 160 0
      vertex 114.8 150 0
    endloop
  endfacet
  facet normal -0 0 -1
    outer loop
      vertex 114.8 160 0
      vertex 114 150 0
      vertex 114 160 0
    endloop
  endfacet
  facet normal 0 -1 0
    outer loop
      vertex 114 150 0
      vertex 114.8 150 0.0999994
      vertex 114 150 0.0999994
    endloop
  endfacet
  facet normal 0 -1 -0
    outer loop
      vertex 114.8 150 0.0999994
      vertex 114 150 0
      vertex 114.8 150 0
    endloop
  endfacet
  facet normal -1 0 0
    outer loop
      vertex 115 150 0
      vertex 115 160 0.0999994
      vertex 115 160 0
    endloop
  endfacet
  facet normal -1 -0 0
    outer loop
      vertex 115 160 0.0999994
      vertex 115 150 0
      vertex 115 150 0.0999994
    endloop
  endfacet
  facet normal -0 0 1
    outer loop
      vertex 115 160 0.0999994
      vertex 115.8 150 0.0999994
      vertex 115.8 160 0.0999994
    endloop
  endfacet
  facet normal 0 0 1
    outer loop
      vertex 115.8 150 0.0999994
      vertex 115 160 0.0999994
      vertex 115 150 0.0999994
    endloop
  endfacet
  facet normal 1 -0 0
    outer loop
      vertex 115.8 150 0.0999994
      vertex 115.8 160 0
      vertex 115.8 160 0.0999994
    endloop
  endfacet
  facet normal 1 0 0
    outer loop
      vertex 115.8 160 0
      vertex 115.8 150 0.0999994
      vertex 115.8 150 0
    endloop
  endfacet
  facet normal 0 1 -0
    outer loop
      vertex 115.8 160 0
      vertex 115 160 0.0999994
      vertex 115.8 160 0.0999994
    endloop
  endfacet
  facet normal 0 1 0
    outer loop
      vertex 115 160 0.0999994
      vertex 115.8 160 0
      vertex 115 160 0
    endloop
  endfacet
  facet normal 0 0 -1
    outer loop
      vertex 115 150 0
      vertex 115.8 160 0
      vertex 115.8 150 0
    endloop
  endfacet
  facet normal -0 0 -1
    outer loop
      vertex 115.8 160 0
      vertex 115 150 0
      vertex 115 160 0
    endloop
  endfacet
  facet normal 0 -1 0
    outer loop
      vertex 115 150 0
      vertex 115.8 150 0.0999994
      vertex 115 150 0.0999994
    endloop
  endfacet
  facet normal 0 -1 -0
    outer loop
      vertex 115.8 150 0.0999994
      vertex 115 150 0
      vertex 115.8 150 0
    endloop
  endfacet
  facet normal -1 0 0
    outer loop
      vertex 116 150 0
      vertex 116 160 0.0999994
      vertex 116 160 0
    endloop
  endfacet
  facet normal -1 -0 0
    outer loop
      vertex 116 160 0.0999994
      vertex 116 150 0
      vertex 116 150 0.0999994
    endloop
  endfacet
  facet normal -0 0 1
    outer loop
      vertex 116 160 0.0999994
      vertex 116.8 150 0.0999994
      vertex 116.8 160 0.0999994
    endloop
  endfacet
  facet normal 0 0 1
    outer loop
      vertex 116.8 150 0.0999994
      vertex 116 160 0.0999994
      vertex 116 150 0.0999994
    endloop
  endfacet
  facet normal 1 -0 0
    outer loop
      vertex 116.8 150 0.0999994
      vertex 116.8 160 0
      vertex 116.8 160 0.0999994
    endloop
  endfacet
  facet normal 1 0 0
    outer loop
      vertex 116.8 160 0
      vertex 116.8 150 0.0999994
      vertex 116.8 150 0
    endloop
  endfacet
  facet normal 0 1 -0
    outer loop
      vertex 116.8 160 0
      vertex 116 160 0.0999994
      vertex 116.8 160 0.0999994
    endloop
  endfacet
  facet normal 0 1 0
    outer loop
      vertex 116 160 0.0999994
      vertex 116.8 160 0
      vertex 116 160 0
    endloop
  endfacet
  facet normal 0 0 -1
    outer loop
      vertex 116 150 0
      vertex 116.8 160 0
      vertex 116.8 150 0
    endloop
  endfacet
  facet normal -0 0 -1
    outer loop
      vertex 116.8 160 0
      vertex 116 150 0
      vertex 116 160 0
    endloop
  endfacet
  facet normal 0 -1 0
    outer loop
      vertex 116 150 0
      vertex 116.8 150 0.0999994
      vertex 116 150 0.0999994
    endloop
  endfacet
  facet normal 0 -1 -0
    outer loop
      vertex 116.8 150 0.0999994
      vertex 116 150 0
      vertex 116.8 150 0
    endloop
  endfacet
  facet normal -1 0 0
    outer loop
      vertex 117 150 0
      vertex 117 160 0.0999994
      vertex 117 160 0
    endloop
  endfacet
  facet normal -1 -0 0
    outer loop
      vertex 117 160 0.0999994
      vertex 117 150 0
      vertex 117 150 0.0999994
    endloop
  endfacet
  facet normal -0 0 1
    outer loop
      vertex 117 160 0.0999994
      vertex 117.8 150 0.0999994
      vertex 117.8 160 0.0999994
    endloop
  endfacet
  facet normal 0 0 1
    outer loop
      vertex 117.8 150 0.0999994
      vertex 117 160 0.0999994
      vertex 117 150 0.0999994
    endloop
  endfacet
  facet normal 1 -0 0
    outer loop
      vertex 117.8 150 0.0999994
      vertex 117.8 160 0
      vertex 117.8 160 0.0999994
    endloop
  endfacet
  facet normal 1 0 0
    outer loop
      vertex 117.8 160 0
      vertex 117.8 150 0.0999994
      vertex 117.8 150 0
    endloop
  endfacet
  facet normal 0 1 -0
    outer loop
      vertex 117.8 160 0
      vertex 117 160 0.0999994
      vertex 117.8 160 0.0999994
    endloop
  endfacet
  facet normal 0 1 0
    outer loop
      vertex 117 160 0.0999994
      vertex 117.8 160 0
      vertex 117 160 0
    endloop
  endfacet
  facet normal 0 0 -1
    outer loop
      vertex 117 150 0
      vertex 117.8 160 0
      vertex 117.8 150 0
    endloop
  endfacet
  facet normal -0 0 -1
    outer loop
      vertex 117.8 160 0
      vertex 117 150 0
      vertex 117 160 0
    endloop
  endfacet
  facet normal 0 -1 0
    outer loop
      vertex 117 150 0
      vertex 117.8 150 0.0999994
      vertex 117 150 0.0999994
    endloop
  endfacet
  facet normal 0 -1 -0
    outer loop
      vertex 117.8 150 0.0999994
      vertex 117 150 0
      vertex 117.8 150 0
    endloop
  endfacet
  facet normal -1 0 0
    outer loop
      vertex 118 150 0
      vertex 118 160 0.0999994
      vertex 118 160 0
    endloop
  endfacet
  facet normal -1 -0 0
    outer loop
      vertex 118 160 0.0999994
      vertex 118 150 0
      vertex 118 150 0.0999994
    endloop
  endfacet
  facet normal -0 0 1
    outer loop
      vertex 118 160 0.0999994
      vertex 118.8 150 0.0999994
      vertex 118.8 160 0.0999994
    endloop
  endfacet
  facet normal 0 0 1
    outer loop
      vertex 118.8 150 0.0999994
      vertex 118 160 0.0999994
      vertex 118 150 0.0999994
    endloop
  endfacet
  facet normal 1 -0 0
    outer loop
      vertex 118.8 150 0.0999994
      vertex 118.8 160 0
      vertex 118.8 160 0.0999994
    endloop
  endfacet
  facet normal 1 0 0
    outer loop
      vertex 118.8 160 0
      vertex 118.8 150 0.0999994
      vertex 118.8 150 0
    endloop
  endfacet
  facet normal 0 1 -0
    outer loop
      vertex 118.8 160 0
      vertex 118 160 0.0999994
      vertex 118.8 160 0.0999994
    endloop
  endfacet
  facet normal 0 1 0
    outer loop
      vertex 118 160 0.0999994
      vertex 118.8 160 0
      vertex 118 160 0
    endloop
  endfacet
  facet normal 0 0 -1
    outer loop
      vertex 118 150 0
      vertex 118.8 160 0
      vertex 118.8 150 0
    endloop
  endfacet
  facet normal -0 0 -1
    outer loop
      vertex 118.8 160 0
      vertex 118 150 0
      vertex 118 160 0
    endloop
  endfacet
  facet normal 0 -1 0
    outer loop
      vertex 118 150 0
      vertex 118.8 150 0.0999994
      vertex 118 150 0.0999994
    endloop
  endfacet
  facet normal 0 -1 -0
    outer loop
      vertex 118.8 150 0.0999994
      vertex 118 150 0
      vertex 118.8 150 0
    endloop
  endfacet
  facet normal -1 0 0
    outer loop
      vertex 119 150 0
      vertex 119 160 0.0999994
      vertex 119 160 0
    endloop
  endfacet
  facet normal -1 -0 0
    outer loop
      vertex 119 160 0.0999994
      vertex 119 150 0
      vertex 119 150 0.0999994
    endloop
  endfacet
  facet normal -0 0 1
    outer loop
      vertex 119 160 0.0999994
      vertex 119.8 150 0.0999994
      vertex 119.8 160 0.0999994
    endloop
  endfacet
  facet normal 0 0 1
    outer loop
      vertex 119.8 150 0.0999994
      vertex 119 160 0.0999994
      vertex 119 150 0.0999994
    endloop
  endfacet
  facet normal 1 -0 0
    outer loop
      vertex 119.8 150 0.0999994
      vertex 119.8 160 0
      vertex 119.8 160 0.0999994
    endloop
  endfacet
  facet normal 1 0 0
    outer loop
      vertex 119.8 160 0
      vertex 119.8 150 0.0999994
      vertex 119.8 150 0
    endloop
  endfacet
  facet normal 0 0 -1
    outer loop
      vertex 119 150 0
      vertex 119.8 160 0
      vertex 119.8 150 0
    endloop
  endfacet
  facet normal -0 0 -1
    outer loop
      vertex 119.8 160 0
      vertex 119 150 0
      vertex 119 160 0
    endloop
  endfacet
  facet normal 0 -1 0
    outer loop
      vertex 119 150 0
      vertex 119.8 150 0.0999994
      vertex 119 150 0.0999994
    endloop
  endfacet
  facet normal 0 -1 -0
    outer loop
      vertex 119.8 150 0.0999994
      vertex 119 150 0
      vertex 119.8 150 0
    endloop
  endfacet
  facet normal 0 1 -0
    outer loop
      vertex 119.8 160 0
      vertex 119 160 0.0999994
      vertex 119.8 160 0.0999994
    endloop
  endfacet
  facet normal 0 1 0
    outer loop
      vertex 119 160 0.0999994
      vertex 119.8 160 0
      vertex 119 160 0
    endloop
  endfacet
  facet normal -1 0 0
    outer loop
      vertex 120 150 0
      vertex 120 160 0.0999994
      vertex 120 160 0
    endloop
  endfacet
  facet normal -1 -0 0
    outer loop
      vertex 120 160 0.0999994
      vertex 120 150 0
      vertex 120 150 0.0999994
    endloop
  endfacet
  facet normal -0 0 1
    outer loop
      vertex 120 160 0.0999994
      vertex 120.8 150 0.0999994
      vertex 120.8 160 0.0999994
    endloop
  endfacet
  facet normal 0 0 1
    outer loop
      vertex 120.8 150 0.0999994
      vertex 120 160 0.0999994
      vertex 120 150 0.0999994
    endloop
  endfacet
  facet normal 1 -0 0
    outer loop
      vertex 120.8 150 0.0999994
      vertex 120.8 160 0
      vertex 120.8 160 0.0999994
    endloop
  endfacet
  facet normal 1 0 0
    outer loop
      vertex 120.8 160 0
      vertex 120.8 150 0.0999994
      vertex 120.8 150 0
    endloop
  endfacet
  facet normal 0 1 -0
    outer loop
      vertex 120.8 160 0
      vertex 120 160 0.0999994
      vertex 120.8 160 0.0999994
    endloop
  endfacet
  facet normal 0 1 0
    outer loop
      vertex 120 160 0.0999994
      vertex 120.8 160 0
      vertex 120 160 0
    endloop
  endfacet
  facet normal 0 0 -1
    outer loop
      vertex 120 150 0
      vertex 120.8 160 0
      vertex 120.8 150 0
    endloop
  endfacet
  facet normal -0 0 -1
    outer loop
      vertex 120.8 160 0
      vertex 120 150 0
      vertex 120 160 0
    endloop
  endfacet
  facet normal 0 -1 0
    outer loop
      vertex 120 150 0
      vertex 120.8 150 0.0999994
      vertex 120 150 0.0999994
    endloop
  endfacet
  facet normal 0 -1 -0
    outer loop
      vertex 120.8 150 0.0999994
      vertex 120 150 0
      vertex 120.8 150 0
    endloop
  endfacet
endsolid OpenSCAD_Model
