solid OpenSCAD_Model
  facet normal -1 0 0
    outer loop
      vertex 170 150 0
      vertex 170 160 0.0999994
      vertex 170 160 0
    endloop
  endfacet
  facet normal -1 -0 0
    outer loop
      vertex 170 160 0.0999994
      vertex 170 150 0
      vertex 170 150 0.0999994
    endloop
  endfacet
  facet normal -0 0 1
    outer loop
      vertex 170 160 0.0999994
      vertex 170.8 150 0.0999994
      vertex 170.8 160 0.0999994
    endloop
  endfacet
  facet normal 0 0 1
    outer loop
      vertex 170.8 150 0.0999994
      vertex 170 160 0.0999994
      vertex 170 150 0.0999994
    endloop
  endfacet
  facet normal 1 -0 0
    outer loop
      vertex 170.8 150 0.0999994
      vertex 170.8 160 0
      vertex 170.8 160 0.0999994
    endloop
  endfacet
  facet normal 1 0 0
    outer loop
      vertex 170.8 160 0
      vertex 170.8 150 0.0999994
      vertex 170.8 150 0
    endloop
  endfacet
  facet normal 0 1 -0
    outer loop
      vertex 170.8 160 0
      vertex 170 160 0.0999994
      vertex 170.8 160 0.0999994
    endloop
  endfacet
  facet normal 0 1 0
    outer loop
      vertex 170 160 0.0999994
      vertex 170.8 160 0
      vertex 170 160 0
    endloop
  endfacet
  facet normal 0 0 -1
    outer loop
      vertex 170 150 0
      vertex 170.8 160 0
      vertex 170.8 150 0
    endloop
  endfacet
  facet normal -0 0 -1
    outer loop
      vertex 170.8 160 0
      vertex 170 150 0
      vertex 170 160 0
    endloop
  endfacet
  facet normal 0 -1 0
    outer loop
      vertex 170 150 0
      vertex 170.8 150 0.0999994
      vertex 170 150 0.0999994
    endloop
  endfacet
  facet normal 0 -1 -0
    outer loop
      vertex 170.8 150 0.0999994
      vertex 170 150 0
      vertex 170.8 150 0
    endloop
  endfacet
  facet normal -1 0 0
    outer loop
      vertex 171 150 0
      vertex 171 160 0.0999994
      vertex 171 160 0
    endloop
  endfacet
  facet normal -1 -0 0
    outer loop
      vertex 171 160 0.0999994
      vertex 171 150 0
      vertex 171 150 0.0999994
    endloop
  endfacet
  facet normal -0 0 1
    outer loop
      vertex 171 160 0.0999994
      vertex 171.8 150 0.0999994
      vertex 171.8 160 0.0999994
    endloop
  endfacet
  facet normal 0 0 1
    outer loop
      vertex 171.8 150 0.0999994
      vertex 171 160 0.0999994
      vertex 171 150 0.0999994
    endloop
  endfacet
  facet normal 1 -0 0
    outer loop
      vertex 171.8 150 0.0999994
      vertex 171.8 160 0
      vertex 171.8 160 0.0999994
    endloop
  endfacet
  facet normal 1 0 0
    outer loop
      vertex 171.8 160 0
      vertex 171.8 150 0.0999994
      vertex 171.8 150 0
    endloop
  endfacet
  facet normal 0 1 -0
    outer loop
      vertex 171.8 160 0
      vertex 171 160 0.0999994
      vertex 171.8 160 0.0999994
    endloop
  endfacet
  facet normal 0 1 0
    outer loop
      vertex 171 160 0.0999994
      vertex 171.8 160 0
      vertex 171 160 0
    endloop
  endfacet
  facet normal 0 0 -1
    outer loop
      vertex 171 150 0
      vertex 171.8 160 0
      vertex 171.8 150 0
    endloop
  endfacet
  facet normal -0 0 -1
    outer loop
      vertex 171.8 160 0
      vertex 171 150 0
      vertex 171 160 0
    endloop
  endfacet
  facet normal 0 -1 0
    outer loop
      vertex 171 150 0
      vertex 171.8 150 0.0999994
      vertex 171 150 0.0999994
    endloop
  endfacet
  facet normal 0 -1 -0
    outer loop
      vertex 171.8 150 0.0999994
      vertex 171 150 0
      vertex 171.8 150 0
    endloop
  endfacet
  facet normal -1 0 0
    outer loop
      vertex 172 150 0
      vertex 172 160 0.0999994
      vertex 172 160 0
    endloop
  endfacet
  facet normal -1 -0 0
    outer loop
      vertex 172 160 0.0999994
      vertex 172 150 0
      vertex 172 150 0.0999994
    endloop
  endfacet
  facet normal -0 0 1
    outer loop
      vertex 172 160 0.0999994
      vertex 172.8 150 0.0999994
      vertex 172.8 160 0.0999994
    endloop
  endfacet
  facet normal 0 0 1
    outer loop
      vertex 172.8 150 0.0999994
      vertex 172 160 0.0999994
      vertex 172 150 0.0999994
    endloop
  endfacet
  facet normal 1 -0 0
    outer loop
      vertex 172.8 150 0.0999994
      vertex 172.8 160 0
      vertex 172.8 160 0.0999994
    endloop
  endfacet
  facet normal 1 0 0
    outer loop
      vertex 172.8 160 0
      vertex 172.8 150 0.0999994
      vertex 172.8 150 0
    endloop
  endfacet
  facet normal 0 0 -1
    outer loop
      vertex 172 150 0
      vertex 172.8 160 0
      vertex 172.8 150 0
    endloop
  endfacet
  facet normal -0 0 -1
    outer loop
      vertex 172.8 160 0
      vertex 172 150 0
      vertex 172 160 0
    endloop
  endfacet
  facet normal 0 -1 0
    outer loop
      vertex 172 150 0
      vertex 172.8 150 0.0999994
      vertex 172 150 0.0999994
    endloop
  endfacet
  facet normal 0 -1 -0
    outer loop
      vertex 172.8 150 0.0999994
      vertex 172 150 0
      vertex 172.8 150 0
    endloop
  endfacet
  facet normal 0 1 -0
    outer loop
      vertex 172.8 160 0
      vertex 172 160 0.0999994
      vertex 172.8 160 0.0999994
    endloop
  endfacet
  facet normal 0 1 0
    outer loop
      vertex 172 160 0.0999994
      vertex 172.8 160 0
      vertex 172 160 0
    endloop
  endfacet
  facet normal -1 0 0
    outer loop
      vertex 173 150 0
      vertex 173 160 0.0999994
      vertex 173 160 0
    endloop
  endfacet
  facet normal -1 -0 0
    outer loop
      vertex 173 160 0.0999994
      vertex 173 150 0
      vertex 173 150 0.0999994
    endloop
  endfacet
  facet normal -0 0 1
    outer loop
      vertex 173 160 0.0999994
      vertex 173.8 150 0.0999994
      vertex 173.8 160 0.0999994
    endloop
  endfacet
  facet normal 0 0 1
    outer loop
      vertex 173.8 150 0.0999994
      vertex 173 160 0.0999994
      vertex 173 150 0.0999994
    endloop
  endfacet
  facet normal 1 -0 0
    outer loop
      vertex 173.8 150 0.0999994
      vertex 173.8 160 0
      vertex 173.8 160 0.0999994
    endloop
  endfacet
  facet normal 1 0 0
    outer loop
      vertex 173.8 160 0
      vertex 173.8 150 0.0999994
      vertex 173.8 150 0
    endloop
  endfacet
  facet normal 0 1 -0
    outer loop
      vertex 173.8 160 0
      vertex 173 160 0.0999994
      vertex 173.8 160 0.0999994
    endloop
  endfacet
  facet normal 0 1 0
    outer loop
      vertex 173 160 0.0999994
      vertex 173.8 160 0
      vertex 173 160 0
    endloop
  endfacet
  facet normal 0 0 -1
    outer loop
      vertex 173 150 0
      vertex 173.8 160 0
      vertex 173.8 150 0
    endloop
  endfacet
  facet normal -0 0 -1
    outer loop
      vertex 173.8 160 0
      vertex 173 150 0
      vertex 173 160 0
    endloop
  endfacet
  facet normal 0 -1 0
    outer loop
      vertex 173 150 0
      vertex 173.8 150 0.0999994
      vertex 173 150 0.0999994
    endloop
  endfacet
  facet normal 0 -1 -0
    outer loop
      vertex 173.8 150 0.0999994
      vertex 173 150 0
      vertex 173.8 150 0
    endloop
  endfacet
  facet normal -1 0 0
    outer loop
      vertex 174 150 0
      vertex 174 160 0.0999994
      vertex 174 160 0
    endloop
  endfacet
  facet normal -1 -0 0
    outer loop
      vertex 174 160 0.0999994
      vertex 174 150 0
      vertex 174 150 0.0999994
    endloop
  endfacet
  facet normal -0 0 1
    outer loop
      vertex 174 160 0.0999994
      vertex 174.8 150 0.0999994
      vertex 174.8 160 0.0999994
    endloop
  endfacet
  facet normal 0 0 1
    outer loop
      vertex 174.8 150 0.0999994
      vertex 174 160 0.0999994
      vertex 174 150 0.0999994
    endloop
  endfacet
  facet normal 1 -0 0
    outer loop
      vertex 174.8 150 0.0999994
      vertex 174.8 160 0
      vertex 174.8 160 0.0999994
    endloop
  endfacet
  facet normal 1 0 0
    outer loop
      vertex 174.8 160 0
      vertex 174.8 150 0.0999994
      vertex 174.8 150 0
    endloop
  endfacet
  facet normal 0 1 -0
    outer loop
      vertex 174.8 160 0
      vertex 174 160 0.0999994
      vertex 174.8 160 0.0999994
    endloop
  endfacet
  facet normal 0 1 0
    outer loop
      vertex 174 160 0.0999994
      vertex 174.8 160 0
      vertex 174 160 0
    endloop
  endfacet
  facet normal 0 0 -1
    outer loop
      vertex 174 150 0
      vertex 174.8 160 0
      vertex 174.8 150 0
    endloop
  endfacet
  facet normal -0 0 -1
    outer loop
      vertex 174.8 160 0
      vertex 174 150 0
      vertex 174 160 0
    endloop
  endfacet
  facet normal 0 -1 0
    outer loop
      vertex 174 150 0
      vertex 174.8 150 0.0999994
      vertex 174 150 0.0999994
    endloop
  endfacet
  facet normal 0 -1 -0
    outer loop
      vertex 174.8 150 0.0999994
      vertex 174 150 0
      vertex 174.8 150 0
    endloop
  endfacet
  facet normal -1 0 0
    outer loop
      vertex 175 150 0
      vertex 175 160 0.0999994
      vertex 175 160 0
    endloop
  endfacet
  facet normal -1 -0 0
    outer loop
      vertex 175 160 0.0999994
      vertex 175 150 0
      vertex 175 150 0.0999994
    endloop
  endfacet
  facet normal -0 0 1
    outer loop
      vertex 175 160 0.0999994
      vertex 175.8 150 0.0999994
      vertex 175.8 160 0.0999994
    endloop
  endfacet
  facet normal 0 0 1
    outer loop
      vertex 175.8 150 0.0999994
      vertex 175 160 0.0999994
      vertex 175 150 0.0999994
    endloop
  endfacet
  facet normal 1 -0 0
    outer loop
      vertex 175.8 150 0.0999994
      vertex 175.8 160 0
      vertex 175.8 160 0.0999994
    endloop
  endfacet
  facet normal 1 0 0
    outer loop
      vertex 175.8 160 0
      vertex 175.8 150 0.0999994
      vertex 175.8 150 0
    endloop
  endfacet
  facet normal 0 0 -1
    outer loop
      vertex 175 150 0
      vertex 175.8 160 0
      vertex 175.8 150 0
    endloop
  endfacet
  facet normal -0 0 -1
    outer loop
      vertex 175.8 160 0
      vertex 175 150 0
      vertex 175 160 0
    endloop
  endfacet
  facet normal 0 -1 0
    outer loop
      vertex 175 150 0
      vertex 175.8 150 0.0999994
      vertex 175 150 0.0999994
    endloop
  endfacet
  facet normal 0 -1 -0
    outer loop
      vertex 175.8 150 0.0999994
      vertex 175 150 0
      vertex 175.8 150 0
    endloop
  endfacet
  facet normal 0 1 -0
    outer loop
      vertex 175.8 160 0
      vertex 175 160 0.0999994
      vertex 175.8 160 0.0999994
    endloop
  endfacet
  facet normal 0 1 0
    outer loop
      vertex 175 160 0.0999994
      vertex 175.8 160 0
      vertex 175 160 0
    endloop
  endfacet
  facet normal -1 0 0
    outer loop
      vertex 176 150 0
      vertex 176 160 0.0999994
      vertex 176 160 0
    endloop
  endfacet
  facet normal -1 -0 0
    outer loop
      vertex 176 160 0.0999994
      vertex 176 150 0
      vertex 176 150 0.0999994
    endloop
  endfacet
  facet normal -0 0 1
    outer loop
      vertex 176 160 0.0999994
      vertex 176.8 150 0.0999994
      vertex 176.8 160 0.0999994
    endloop
  endfacet
  facet normal 0 0 1
    outer loop
      vertex 176.8 150 0.0999994
      vertex 176 160 0.0999994
      vertex 176 150 0.0999994
    endloop
  endfacet
  facet normal 1 -0 0
    outer loop
      vertex 176.8 150 0.0999994
      vertex 176.8 160 0
      vertex 176.8 160 0.0999994
    endloop
  endfacet
  facet normal 1 0 0
    outer loop
      vertex 176.8 160 0
      vertex 176.8 150 0.0999994
      vertex 176.8 150 0
    endloop
  endfacet
  facet normal 0 1 -0
    outer loop
      vertex 176.8 160 0
      vertex 176 160 0.0999994
      vertex 176.8 160 0.0999994
    endloop
  endfacet
  facet normal 0 1 0
    outer loop
      vertex 176 160 0.0999994
      vertex 176.8 160 0
      vertex 176 160 0
    endloop
  endfacet
  facet normal 0 0 -1
    outer loop
      vertex 176 150 0
      vertex 176.8 160 0
      vertex 176.8 150 0
    endloop
  endfacet
  facet normal -0 0 -1
    outer loop
      vertex 176.8 160 0
      vertex 176 150 0
      vertex 176 160 0
    endloop
  endfacet
  facet normal 0 -1 0
    outer loop
      vertex 176 150 0
      vertex 176.8 150 0.0999994
      vertex 176 150 0.0999994
    endloop
  endfacet
  facet normal 0 -1 -0
    outer loop
      vertex 176.8 150 0.0999994
      vertex 176 150 0
      vertex 176.8 150 0
    endloop
  endfacet
  facet normal -1 0 0
    outer loop
      vertex 177 150 0
      vertex 177 160 0.0999994
      vertex 177 160 0
    endloop
  endfacet
  facet normal -1 -0 0
    outer loop
      vertex 177 160 0.0999994
      vertex 177 150 0
      vertex 177 150 0.0999994
    endloop
  endfacet
  facet normal -0 0 1
    outer loop
      vertex 177 160 0.0999994
      vertex 177.8 150 0.0999994
      vertex 177.8 160 0.0999994
    endloop
  endfacet
  facet normal 0 0 1
    outer loop
      vertex 177.8 150 0.0999994
      vertex 177 160 0.0999994
      vertex 177 150 0.0999994
    endloop
  endfacet
  facet normal 1 -0 0
    outer loop
      vertex 177.8 150 0.0999994
      vertex 177.8 160 0
      vertex 177.8 160 0.0999994
    endloop
  endfacet
  facet normal 1 0 0
    outer loop
      vertex 177.8 160 0
      vertex 177.8 150 0.0999994
      vertex 177.8 150 0
    endloop
  endfacet
  facet normal 0 1 -0
    outer loop
      vertex 177.8 160 0
      vertex 177 160 0.0999994
      vertex 177.8 160 0.0999994
    endloop
  endfacet
  facet normal 0 1 0
    outer loop
      vertex 177 160 0.0999994
      vertex 177.8 160 0
      vertex 177 160 0
    endloop
  endfacet
  facet normal 0 0 -1
    outer loop
      vertex 177 150 0
      vertex 177.8 160 0
      vertex 177.8 150 0
    endloop
  endfacet
  facet normal -0 0 -1
    outer loop
      vertex 177.8 160 0
      vertex 177 150 0
      vertex 177 160 0
    endloop
  endfacet
  facet normal 0 -1 0
    outer loop
      vertex 177 150 0
      vertex 177.8 150 0.0999994
      vertex 177 150 0.0999994
    endloop
  endfacet
  facet normal 0 -1 -0
    outer loop
      vertex 177.8 150 0.0999994
      vertex 177 150 0
      vertex 177.8 150 0
    endloop
  endfacet
  facet normal -1 0 0
    outer loop
      vertex 178 150 0
      vertex 178 160 0.0999994
      vertex 178 160 0
    endloop
  endfacet
  facet normal -1 -0 0
    outer loop
      vertex 178 160 0.0999994
      vertex 178 150 0
      vertex 178 150 0.0999994
    endloop
  endfacet
  facet normal -0 0 1
    outer loop
      vertex 178 160 0.0999994
      vertex 178.8 150 0.0999994
      vertex 178.8 160 0.0999994
    endloop
  endfacet
  facet normal 0 0 1
    outer loop
      vertex 178.8 150 0.0999994
      vertex 178 160 0.0999994
      vertex 178 150 0.0999994
    endloop
  endfacet
  facet normal 1 -0 0
    outer loop
      vertex 178.8 150 0.0999994
      vertex 178.8 160 0
      vertex 178.8 160 0.0999994
    endloop
  endfacet
  facet normal 1 0 0
    outer loop
      vertex 178.8 160 0
      vertex 178.8 150 0.0999994
      vertex 178.8 150 0
    endloop
  endfacet
  facet normal 0 0 -1
    outer loop
      vertex 178 150 0
      vertex 178.8 160 0
      vertex 178.8 150 0
    endloop
  endfacet
  facet normal -0 0 -1
    outer loop
      vertex 178.8 160 0
      vertex 178 150 0
      vertex 178 160 0
    endloop
  endfacet
  facet normal 0 -1 0
    outer loop
      vertex 178 150 0
      vertex 178.8 150 0.0999994
      vertex 178 150 0.0999994
    endloop
  endfacet
  facet normal 0 -1 -0
    outer loop
      vertex 178.8 150 0.0999994
      vertex 178 150 0
      vertex 178.8 150 0
    endloop
  endfacet
  facet normal 0 1 -0
    outer loop
      vertex 178.8 160 0
      vertex 178 160 0.0999994
      vertex 178.8 160 0.0999994
    endloop
  endfacet
  facet normal 0 1 0
    outer loop
      vertex 178 160 0.0999994
      vertex 178.8 160 0
      vertex 178 160 0
    endloop
  endfacet
  facet normal -1 0 0
    outer loop
      vertex 179 150 0
      vertex 179 160 0.0999994
      vertex 179 160 0
    endloop
  endfacet
  facet normal -1 -0 0
    outer loop
      vertex 179 160 0.0999994
      vertex 179 150 0
      vertex 179 150 0.0999994
    endloop
  endfacet
  facet normal -0 0 1
    outer loop
      vertex 179 160 0.0999994
      vertex 179.8 150 0.0999994
      vertex 179.8 160 0.0999994
    endloop
  endfacet
  facet normal 0 0 1
    outer loop
      vertex 179.8 150 0.0999994
      vertex 179 160 0.0999994
      vertex 179 150 0.0999994
    endloop
  endfacet
  facet normal 1 -0 0
    outer loop
      vertex 179.8 150 0.0999994
      vertex 179.8 160 0
      vertex 179.8 160 0.0999994
    endloop
  endfacet
  facet normal 1 0 0
    outer loop
      vertex 179.8 160 0
      vertex 179.8 150 0.0999994
      vertex 179.8 150 0
    endloop
  endfacet
  facet normal 0 1 -0
    outer loop
      vertex 179.8 160 0
      vertex 179 160 0.0999994
      vertex 179.8 160 0.0999994
    endloop
  endfacet
  facet normal 0 1 0
    outer loop
      vertex 179 160 0.0999994
      vertex 179.8 160 0
      vertex 179 160 0
    endloop
  endfacet
  facet normal 0 0 -1
    outer loop
      vertex 179 150 0
      vertex 179.8 160 0
      vertex 179.8 150 0
    endloop
  endfacet
  facet normal -0 0 -1
    outer loop
      vertex 179.8 160 0
      vertex 179 150 0
      vertex 179 160 0
    endloop
  endfacet
  facet normal 0 -1 0
    outer loop
      vertex 179 150 0
      vertex 179.8 150 0.0999994
      vertex 179 150 0.0999994
    endloop
  endfacet
  facet normal 0 -1 -0
    outer loop
      vertex 179.8 150 0.0999994
      vertex 179 150 0
      vertex 179.8 150 0
    endloop
  endfacet
  facet normal -1 0 0
    outer loop
      vertex 180 150 0
      vertex 180 160 0.0999994
      vertex 180 160 0
    endloop
  endfacet
  facet normal -1 -0 0
    outer loop
      vertex 180 160 0.0999994
      vertex 180 150 0
      vertex 180 150 0.0999994
    endloop
  endfacet
  facet normal -0 0 1
    outer loop
      vertex 180 160 0.0999994
      vertex 180.8 150 0.0999994
      vertex 180.8 160 0.0999994
    endloop
  endfacet
  facet normal 0 0 1
    outer loop
      vertex 180.8 150 0.0999994
      vertex 180 160 0.0999994
      vertex 180 150 0.0999994
    endloop
  endfacet
  facet normal 1 -0 0
    outer loop
      vertex 180.8 150 0.0999994
      vertex 180.8 160 0
      vertex 180.8 160 0.0999994
    endloop
  endfacet
  facet normal 1 0 0
    outer loop
      vertex 180.8 160 0
      vertex 180.8 150 0.0999994
      vertex 180.8 150 0
    endloop
  endfacet
  facet normal 0 1 -0
    outer loop
      vertex 180.8 160 0
      vertex 180 160 0.0999994
      vertex 180.8 160 0.0999994
    endloop
  endfacet
  facet normal 0 1 0
    outer loop
      vertex 180 160 0.0999994
      vertex 180.8 160 0
      vertex 180 160 0
    endloop
  endfacet
  facet normal 0 0 -1
    outer loop
      vertex 180 150 0
      vertex 180.8 160 0
      vertex 180.8 150 0
    endloop
  endfacet
  facet normal -0 0 -1
    outer loop
      vertex 180.8 160 0
      vertex 180 150 0
      vertex 180 160 0
    endloop
  endfacet
  facet normal 0 -1 0
    outer loop
      vertex 180 150 0
      vertex 180.8 150 0.0999994
      vertex 180 150 0.0999994
    endloop
  endfacet
  facet normal 0 -1 -0
    outer loop
      vertex 180.8 150 0.0999994
      vertex 180 150 0
      vertex 180.8 150 0
    endloop
  endfacet
endsolid OpenSCAD_Model
