solid OpenSCAD_Model
  facet normal -1 0 0
    outer loop
      vertex 30 130 0
      vertex 30 140 0.0999994
      vertex 30 140 0
    endloop
  endfacet
  facet normal -1 -0 0
    outer loop
      vertex 30 140 0.0999994
      vertex 30 130 0
      vertex 30 130 0.0999994
    endloop
  endfacet
  facet normal -0 0 1
    outer loop
      vertex 30 140 0.0999994
      vertex 30.8 130 0.0999994
      vertex 30.8 140 0.0999994
    endloop
  endfacet
  facet normal 0 0 1
    outer loop
      vertex 30.8 130 0.0999994
      vertex 30 140 0.0999994
      vertex 30 130 0.0999994
    endloop
  endfacet
  facet normal 1 -0 0
    outer loop
      vertex 30.8 130 0.0999994
      vertex 30.8 140 0
      vertex 30.8 140 0.0999994
    endloop
  endfacet
  facet normal 1 0 0
    outer loop
      vertex 30.8 140 0
      vertex 30.8 130 0.0999994
      vertex 30.8 130 0
    endloop
  endfacet
  facet normal 0 1 -0
    outer loop
      vertex 30.8 140 0
      vertex 30 140 0.0999994
      vertex 30.8 140 0.0999994
    endloop
  endfacet
  facet normal 0 1 0
    outer loop
      vertex 30 140 0.0999994
      vertex 30.8 140 0
      vertex 30 140 0
    endloop
  endfacet
  facet normal 0 0 -1
    outer loop
      vertex 30 130 0
      vertex 30.8 140 0
      vertex 30.8 130 0
    endloop
  endfacet
  facet normal -0 0 -1
    outer loop
      vertex 30.8 140 0
      vertex 30 130 0
      vertex 30 140 0
    endloop
  endfacet
  facet normal 0 -1 0
    outer loop
      vertex 30 130 0
      vertex 30.8 130 0.0999994
      vertex 30 130 0.0999994
    endloop
  endfacet
  facet normal 0 -1 -0
    outer loop
      vertex 30.8 130 0.0999994
      vertex 30 130 0
      vertex 30.8 130 0
    endloop
  endfacet
  facet normal -1 0 0
    outer loop
      vertex 31 130 0
      vertex 31 140 0.0999994
      vertex 31 140 0
    endloop
  endfacet
  facet normal -1 -0 0
    outer loop
      vertex 31 140 0.0999994
      vertex 31 130 0
      vertex 31 130 0.0999994
    endloop
  endfacet
  facet normal -0 0 1
    outer loop
      vertex 31 140 0.0999994
      vertex 31.8 130 0.0999994
      vertex 31.8 140 0.0999994
    endloop
  endfacet
  facet normal 0 0 1
    outer loop
      vertex 31.8 130 0.0999994
      vertex 31 140 0.0999994
      vertex 31 130 0.0999994
    endloop
  endfacet
  facet normal 1 -0 0
    outer loop
      vertex 31.8 130 0.0999994
      vertex 31.8 140 0
      vertex 31.8 140 0.0999994
    endloop
  endfacet
  facet normal 1 0 0
    outer loop
      vertex 31.8 140 0
      vertex 31.8 130 0.0999994
      vertex 31.8 130 0
    endloop
  endfacet
  facet normal 0 1 -0
    outer loop
      vertex 31.8 140 0
      vertex 31 140 0.0999994
      vertex 31.8 140 0.0999994
    endloop
  endfacet
  facet normal 0 1 0
    outer loop
      vertex 31 140 0.0999994
      vertex 31.8 140 0
      vertex 31 140 0
    endloop
  endfacet
  facet normal 0 0 -1
    outer loop
      vertex 31 130 0
      vertex 31.8 140 0
      vertex 31.8 130 0
    endloop
  endfacet
  facet normal -0 0 -1
    outer loop
      vertex 31.8 140 0
      vertex 31 130 0
      vertex 31 140 0
    endloop
  endfacet
  facet normal 0 -1 0
    outer loop
      vertex 31 130 0
      vertex 31.8 130 0.0999994
      vertex 31 130 0.0999994
    endloop
  endfacet
  facet normal 0 -1 -0
    outer loop
      vertex 31.8 130 0.0999994
      vertex 31 130 0
      vertex 31.8 130 0
    endloop
  endfacet
  facet normal -1 0 0
    outer loop
      vertex 32 130 0
      vertex 32 140 0.0999994
      vertex 32 140 0
    endloop
  endfacet
  facet normal -1 -0 0
    outer loop
      vertex 32 140 0.0999994
      vertex 32 130 0
      vertex 32 130 0.0999994
    endloop
  endfacet
  facet normal -0 0 1
    outer loop
      vertex 32 140 0.0999994
      vertex 32.8 130 0.0999994
      vertex 32.8 140 0.0999994
    endloop
  endfacet
  facet normal 0 0 1
    outer loop
      vertex 32.8 130 0.0999994
      vertex 32 140 0.0999994
      vertex 32 130 0.0999994
    endloop
  endfacet
  facet normal 1 -0 0
    outer loop
      vertex 32.8 130 0.0999994
      vertex 32.8 140 0
      vertex 32.8 140 0.0999994
    endloop
  endfacet
  facet normal 1 0 0
    outer loop
      vertex 32.8 140 0
      vertex 32.8 130 0.0999994
      vertex 32.8 130 0
    endloop
  endfacet
  facet normal 0 0 -1
    outer loop
      vertex 32 130 0
      vertex 32.8 140 0
      vertex 32.8 130 0
    endloop
  endfacet
  facet normal -0 0 -1
    outer loop
      vertex 32.8 140 0
      vertex 32 130 0
      vertex 32 140 0
    endloop
  endfacet
  facet normal 0 -1 0
    outer loop
      vertex 32 130 0
      vertex 32.8 130 0.0999994
      vertex 32 130 0.0999994
    endloop
  endfacet
  facet normal 0 -1 -0
    outer loop
      vertex 32.8 130 0.0999994
      vertex 32 130 0
      vertex 32.8 130 0
    endloop
  endfacet
  facet normal 0 1 -0
    outer loop
      vertex 32.8 140 0
      vertex 32 140 0.0999994
      vertex 32.8 140 0.0999994
    endloop
  endfacet
  facet normal 0 1 0
    outer loop
      vertex 32 140 0.0999994
      vertex 32.8 140 0
      vertex 32 140 0
    endloop
  endfacet
  facet normal -1 0 0
    outer loop
      vertex 33 130 0
      vertex 33 140 0.0999994
      vertex 33 140 0
    endloop
  endfacet
  facet normal -1 -0 0
    outer loop
      vertex 33 140 0.0999994
      vertex 33 130 0
      vertex 33 130 0.0999994
    endloop
  endfacet
  facet normal -0 0 1
    outer loop
      vertex 33 140 0.0999994
      vertex 33.8 130 0.0999994
      vertex 33.8 140 0.0999994
    endloop
  endfacet
  facet normal 0 0 1
    outer loop
      vertex 33.8 130 0.0999994
      vertex 33 140 0.0999994
      vertex 33 130 0.0999994
    endloop
  endfacet
  facet normal 1 -0 0
    outer loop
      vertex 33.8 130 0.0999994
      vertex 33.8 140 0
      vertex 33.8 140 0.0999994
    endloop
  endfacet
  facet normal 1 0 0
    outer loop
      vertex 33.8 140 0
      vertex 33.8 130 0.0999994
      vertex 33.8 130 0
    endloop
  endfacet
  facet normal 0 1 -0
    outer loop
      vertex 33.8 140 0
      vertex 33 140 0.0999994
      vertex 33.8 140 0.0999994
    endloop
  endfacet
  facet normal 0 1 0
    outer loop
      vertex 33 140 0.0999994
      vertex 33.8 140 0
      vertex 33 140 0
    endloop
  endfacet
  facet normal 0 0 -1
    outer loop
      vertex 33 130 0
      vertex 33.8 140 0
      vertex 33.8 130 0
    endloop
  endfacet
  facet normal -0 0 -1
    outer loop
      vertex 33.8 140 0
      vertex 33 130 0
      vertex 33 140 0
    endloop
  endfacet
  facet normal 0 -1 0
    outer loop
      vertex 33 130 0
      vertex 33.8 130 0.0999994
      vertex 33 130 0.0999994
    endloop
  endfacet
  facet normal 0 -1 -0
    outer loop
      vertex 33.8 130 0.0999994
      vertex 33 130 0
      vertex 33.8 130 0
    endloop
  endfacet
  facet normal -1 0 0
    outer loop
      vertex 34 130 0
      vertex 34 140 0.0999994
      vertex 34 140 0
    endloop
  endfacet
  facet normal -1 -0 0
    outer loop
      vertex 34 140 0.0999994
      vertex 34 130 0
      vertex 34 130 0.0999994
    endloop
  endfacet
  facet normal -0 0 1
    outer loop
      vertex 34 140 0.0999994
      vertex 34.8 130 0.0999994
      vertex 34.8 140 0.0999994
    endloop
  endfacet
  facet normal 0 0 1
    outer loop
      vertex 34.8 130 0.0999994
      vertex 34 140 0.0999994
      vertex 34 130 0.0999994
    endloop
  endfacet
  facet normal 1 -0 0
    outer loop
      vertex 34.8 130 0.0999994
      vertex 34.8 140 0
      vertex 34.8 140 0.0999994
    endloop
  endfacet
  facet normal 1 0 0
    outer loop
      vertex 34.8 140 0
      vertex 34.8 130 0.0999994
      vertex 34.8 130 0
    endloop
  endfacet
  facet normal 0 1 -0
    outer loop
      vertex 34.8 140 0
      vertex 34 140 0.0999994
      vertex 34.8 140 0.0999994
    endloop
  endfacet
  facet normal 0 1 0
    outer loop
      vertex 34 140 0.0999994
      vertex 34.8 140 0
      vertex 34 140 0
    endloop
  endfacet
  facet normal 0 0 -1
    outer loop
      vertex 34 130 0
      vertex 34.8 140 0
      vertex 34.8 130 0
    endloop
  endfacet
  facet normal -0 0 -1
    outer loop
      vertex 34.8 140 0
      vertex 34 130 0
      vertex 34 140 0
    endloop
  endfacet
  facet normal 0 -1 0
    outer loop
      vertex 34 130 0
      vertex 34.8 130 0.0999994
      vertex 34 130 0.0999994
    endloop
  endfacet
  facet normal 0 -1 -0
    outer loop
      vertex 34.8 130 0.0999994
      vertex 34 130 0
      vertex 34.8 130 0
    endloop
  endfacet
  facet normal -1 0 0
    outer loop
      vertex 35 130 0
      vertex 35 140 0.0999994
      vertex 35 140 0
    endloop
  endfacet
  facet normal -1 -0 0
    outer loop
      vertex 35 140 0.0999994
      vertex 35 130 0
      vertex 35 130 0.0999994
    endloop
  endfacet
  facet normal -0 0 1
    outer loop
      vertex 35 140 0.0999994
      vertex 35.8 130 0.0999994
      vertex 35.8 140 0.0999994
    endloop
  endfacet
  facet normal 0 0 1
    outer loop
      vertex 35.8 130 0.0999994
      vertex 35 140 0.0999994
      vertex 35 130 0.0999994
    endloop
  endfacet
  facet normal 1 -0 0
    outer loop
      vertex 35.8 130 0.0999994
      vertex 35.8 140 0
      vertex 35.8 140 0.0999994
    endloop
  endfacet
  facet normal 1 0 0
    outer loop
      vertex 35.8 140 0
      vertex 35.8 130 0.0999994
      vertex 35.8 130 0
    endloop
  endfacet
  facet normal 0 0 -1
    outer loop
      vertex 35 130 0
      vertex 35.8 140 0
      vertex 35.8 130 0
    endloop
  endfacet
  facet normal -0 0 -1
    outer loop
      vertex 35.8 140 0
      vertex 35 130 0
      vertex 35 140 0
    endloop
  endfacet
  facet normal 0 -1 0
    outer loop
      vertex 35 130 0
      vertex 35.8 130 0.0999994
      vertex 35 130 0.0999994
    endloop
  endfacet
  facet normal 0 -1 -0
    outer loop
      vertex 35.8 130 0.0999994
      vertex 35 130 0
      vertex 35.8 130 0
    endloop
  endfacet
  facet normal 0 1 -0
    outer loop
      vertex 35.8 140 0
      vertex 35 140 0.0999994
      vertex 35.8 140 0.0999994
    endloop
  endfacet
  facet normal 0 1 0
    outer loop
      vertex 35 140 0.0999994
      vertex 35.8 140 0
      vertex 35 140 0
    endloop
  endfacet
  facet normal -1 0 0
    outer loop
      vertex 36 130 0
      vertex 36 140 0.0999994
      vertex 36 140 0
    endloop
  endfacet
  facet normal -1 -0 0
    outer loop
      vertex 36 140 0.0999994
      vertex 36 130 0
      vertex 36 130 0.0999994
    endloop
  endfacet
  facet normal -0 0 1
    outer loop
      vertex 36 140 0.0999994
      vertex 36.8 130 0.0999994
      vertex 36.8 140 0.0999994
    endloop
  endfacet
  facet normal 0 0 1
    outer loop
      vertex 36.8 130 0.0999994
      vertex 36 140 0.0999994
      vertex 36 130 0.0999994
    endloop
  endfacet
  facet normal 1 -0 0
    outer loop
      vertex 36.8 130 0.0999994
      vertex 36.8 140 0
      vertex 36.8 140 0.0999994
    endloop
  endfacet
  facet normal 1 0 0
    outer loop
      vertex 36.8 140 0
      vertex 36.8 130 0.0999994
      vertex 36.8 130 0
    endloop
  endfacet
  facet normal 0 1 -0
    outer loop
      vertex 36.8 140 0
      vertex 36 140 0.0999994
      vertex 36.8 140 0.0999994
    endloop
  endfacet
  facet normal 0 1 0
    outer loop
      vertex 36 140 0.0999994
      vertex 36.8 140 0
      vertex 36 140 0
    endloop
  endfacet
  facet normal 0 0 -1
    outer loop
      vertex 36 130 0
      vertex 36.8 140 0
      vertex 36.8 130 0
    endloop
  endfacet
  facet normal -0 0 -1
    outer loop
      vertex 36.8 140 0
      vertex 36 130 0
      vertex 36 140 0
    endloop
  endfacet
  facet normal 0 -1 0
    outer loop
      vertex 36 130 0
      vertex 36.8 130 0.0999994
      vertex 36 130 0.0999994
    endloop
  endfacet
  facet normal 0 -1 -0
    outer loop
      vertex 36.8 130 0.0999994
      vertex 36 130 0
      vertex 36.8 130 0
    endloop
  endfacet
  facet normal -1 0 0
    outer loop
      vertex 37 130 0
      vertex 37 140 0.0999994
      vertex 37 140 0
    endloop
  endfacet
  facet normal -1 -0 0
    outer loop
      vertex 37 140 0.0999994
      vertex 37 130 0
      vertex 37 130 0.0999994
    endloop
  endfacet
  facet normal -0 0 1
    outer loop
      vertex 37 140 0.0999994
      vertex 37.8 130 0.0999994
      vertex 37.8 140 0.0999994
    endloop
  endfacet
  facet normal 0 0 1
    outer loop
      vertex 37.8 130 0.0999994
      vertex 37 140 0.0999994
      vertex 37 130 0.0999994
    endloop
  endfacet
  facet normal 1 -0 0
    outer loop
      vertex 37.8 130 0.0999994
      vertex 37.8 140 0
      vertex 37.8 140 0.0999994
    endloop
  endfacet
  facet normal 1 0 0
    outer loop
      vertex 37.8 140 0
      vertex 37.8 130 0.0999994
      vertex 37.8 130 0
    endloop
  endfacet
  facet normal 0 1 -0
    outer loop
      vertex 37.8 140 0
      vertex 37 140 0.0999994
      vertex 37.8 140 0.0999994
    endloop
  endfacet
  facet normal 0 1 0
    outer loop
      vertex 37 140 0.0999994
      vertex 37.8 140 0
      vertex 37 140 0
    endloop
  endfacet
  facet normal 0 0 -1
    outer loop
      vertex 37 130 0
      vertex 37.8 140 0
      vertex 37.8 130 0
    endloop
  endfacet
  facet normal -0 0 -1
    outer loop
      vertex 37.8 140 0
      vertex 37 130 0
      vertex 37 140 0
    endloop
  endfacet
  facet normal 0 -1 0
    outer loop
      vertex 37 130 0
      vertex 37.8 130 0.0999994
      vertex 37 130 0.0999994
    endloop
  endfacet
  facet normal 0 -1 -0
    outer loop
      vertex 37.8 130 0.0999994
      vertex 37 130 0
      vertex 37.8 130 0
    endloop
  endfacet
  facet normal -1 0 0
    outer loop
      vertex 38 130 0
      vertex 38 140 0.0999994
      vertex 38 140 0
    endloop
  endfacet
  facet normal -1 -0 0
    outer loop
      vertex 38 140 0.0999994
      vertex 38 130 0
      vertex 38 130 0.0999994
    endloop
  endfacet
  facet normal -0 0 1
    outer loop
      vertex 38 140 0.0999994
      vertex 38.8 130 0.0999994
      vertex 38.8 140 0.0999994
    endloop
  endfacet
  facet normal 0 0 1
    outer loop
      vertex 38.8 130 0.0999994
      vertex 38 140 0.0999994
      vertex 38 130 0.0999994
    endloop
  endfacet
  facet normal 1 -0 0
    outer loop
      vertex 38.8 130 0.0999994
      vertex 38.8 140 0
      vertex 38.8 140 0.0999994
    endloop
  endfacet
  facet normal 1 0 0
    outer loop
      vertex 38.8 140 0
      vertex 38.8 130 0.0999994
      vertex 38.8 130 0
    endloop
  endfacet
  facet normal 0 1 -0
    outer loop
      vertex 38.8 140 0
      vertex 38 140 0.0999994
      vertex 38.8 140 0.0999994
    endloop
  endfacet
  facet normal 0 1 0
    outer loop
      vertex 38 140 0.0999994
      vertex 38.8 140 0
      vertex 38 140 0
    endloop
  endfacet
  facet normal 0 0 -1
    outer loop
      vertex 38 130 0
      vertex 38.8 140 0
      vertex 38.8 130 0
    endloop
  endfacet
  facet normal -0 0 -1
    outer loop
      vertex 38.8 140 0
      vertex 38 130 0
      vertex 38 140 0
    endloop
  endfacet
  facet normal 0 -1 0
    outer loop
      vertex 38 130 0
      vertex 38.8 130 0.0999994
      vertex 38 130 0.0999994
    endloop
  endfacet
  facet normal 0 -1 -0
    outer loop
      vertex 38.8 130 0.0999994
      vertex 38 130 0
      vertex 38.8 130 0
    endloop
  endfacet
  facet normal -1 0 0
    outer loop
      vertex 39 130 0
      vertex 39 140 0.0999994
      vertex 39 140 0
    endloop
  endfacet
  facet normal -1 -0 0
    outer loop
      vertex 39 140 0.0999994
      vertex 39 130 0
      vertex 39 130 0.0999994
    endloop
  endfacet
  facet normal -0 0 1
    outer loop
      vertex 39 140 0.0999994
      vertex 39.8 130 0.0999994
      vertex 39.8 140 0.0999994
    endloop
  endfacet
  facet normal 0 0 1
    outer loop
      vertex 39.8 130 0.0999994
      vertex 39 140 0.0999994
      vertex 39 130 0.0999994
    endloop
  endfacet
  facet normal 1 -0 0
    outer loop
      vertex 39.8 130 0.0999994
      vertex 39.8 140 0
      vertex 39.8 140 0.0999994
    endloop
  endfacet
  facet normal 1 0 0
    outer loop
      vertex 39.8 140 0
      vertex 39.8 130 0.0999994
      vertex 39.8 130 0
    endloop
  endfacet
  facet normal 0 1 -0
    outer loop
      vertex 39.8 140 0
      vertex 39 140 0.0999994
      vertex 39.8 140 0.0999994
    endloop
  endfacet
  facet normal 0 1 0
    outer loop
      vertex 39 140 0.0999994
      vertex 39.8 140 0
      vertex 39 140 0
    endloop
  endfacet
  facet normal 0 0 -1
    outer loop
      vertex 39 130 0
      vertex 39.8 140 0
      vertex 39.8 130 0
    endloop
  endfacet
  facet normal -0 0 -1
    outer loop
      vertex 39.8 140 0
      vertex 39 130 0
      vertex 39 140 0
    endloop
  endfacet
  facet normal 0 -1 0
    outer loop
      vertex 39 130 0
      vertex 39.8 130 0.0999994
      vertex 39 130 0.0999994
    endloop
  endfacet
  facet normal 0 -1 -0
    outer loop
      vertex 39.8 130 0.0999994
      vertex 39 130 0
      vertex 39.8 130 0
    endloop
  endfacet
  facet normal -1 0 0
    outer loop
      vertex 40 130 0
      vertex 40 140 0.0999994
      vertex 40 140 0
    endloop
  endfacet
  facet normal -1 -0 0
    outer loop
      vertex 40 140 0.0999994
      vertex 40 130 0
      vertex 40 130 0.0999994
    endloop
  endfacet
  facet normal -0 0 1
    outer loop
      vertex 40 140 0.0999994
      vertex 40.8 130 0.0999994
      vertex 40.8 140 0.0999994
    endloop
  endfacet
  facet normal 0 0 1
    outer loop
      vertex 40.8 130 0.0999994
      vertex 40 140 0.0999994
      vertex 40 130 0.0999994
    endloop
  endfacet
  facet normal 1 -0 0
    outer loop
      vertex 40.8 130 0.0999994
      vertex 40.8 140 0
      vertex 40.8 140 0.0999994
    endloop
  endfacet
  facet normal 1 0 0
    outer loop
      vertex 40.8 140 0
      vertex 40.8 130 0.0999994
      vertex 40.8 130 0
    endloop
  endfacet
  facet normal 0 1 -0
    outer loop
      vertex 40.8 140 0
      vertex 40 140 0.0999994
      vertex 40.8 140 0.0999994
    endloop
  endfacet
  facet normal 0 1 0
    outer loop
      vertex 40 140 0.0999994
      vertex 40.8 140 0
      vertex 40 140 0
    endloop
  endfacet
  facet normal 0 0 -1
    outer loop
      vertex 40 130 0
      vertex 40.8 140 0
      vertex 40.8 130 0
    endloop
  endfacet
  facet normal -0 0 -1
    outer loop
      vertex 40.8 140 0
      vertex 40 130 0
      vertex 40 140 0
    endloop
  endfacet
  facet normal 0 -1 0
    outer loop
      vertex 40 130 0
      vertex 40.8 130 0.0999994
      vertex 40 130 0.0999994
    endloop
  endfacet
  facet normal 0 -1 -0
    outer loop
      vertex 40.8 130 0.0999994
      vertex 40 130 0
      vertex 40.8 130 0
    endloop
  endfacet
endsolid OpenSCAD_Model
