solid OpenSCAD_Model
  facet normal -1 0 0
    outer loop
      vertex 50 10 0
      vertex 50 20 0.0999994
      vertex 50 20 0
    endloop
  endfacet
  facet normal -1 -0 0
    outer loop
      vertex 50 20 0.0999994
      vertex 50 10 0
      vertex 50 10 0.0999994
    endloop
  endfacet
  facet normal -0 0 1
    outer loop
      vertex 50 20 0.0999994
      vertex 50.8 10 0.0999994
      vertex 50.8 20 0.0999994
    endloop
  endfacet
  facet normal 0 0 1
    outer loop
      vertex 50.8 10 0.0999994
      vertex 50 20 0.0999994
      vertex 50 10 0.0999994
    endloop
  endfacet
  facet normal 1 -0 0
    outer loop
      vertex 50.8 10 0.0999994
      vertex 50.8 20 0
      vertex 50.8 20 0.0999994
    endloop
  endfacet
  facet normal 1 0 0
    outer loop
      vertex 50.8 20 0
      vertex 50.8 10 0.0999994
      vertex 50.8 10 0
    endloop
  endfacet
  facet normal 0 1 -0
    outer loop
      vertex 50.8 20 0
      vertex 50 20 0.0999994
      vertex 50.8 20 0.0999994
    endloop
  endfacet
  facet normal 0 1 0
    outer loop
      vertex 50 20 0.0999994
      vertex 50.8 20 0
      vertex 50 20 0
    endloop
  endfacet
  facet normal 0 0 -1
    outer loop
      vertex 50 10 0
      vertex 50.8 20 0
      vertex 50.8 10 0
    endloop
  endfacet
  facet normal -0 0 -1
    outer loop
      vertex 50.8 20 0
      vertex 50 10 0
      vertex 50 20 0
    endloop
  endfacet
  facet normal 0 -1 0
    outer loop
      vertex 50 10 0
      vertex 50.8 10 0.0999994
      vertex 50 10 0.0999994
    endloop
  endfacet
  facet normal 0 -1 -0
    outer loop
      vertex 50.8 10 0.0999994
      vertex 50 10 0
      vertex 50.8 10 0
    endloop
  endfacet
  facet normal -1 0 0
    outer loop
      vertex 51 10 0
      vertex 51 20 0.0999994
      vertex 51 20 0
    endloop
  endfacet
  facet normal -1 -0 0
    outer loop
      vertex 51 20 0.0999994
      vertex 51 10 0
      vertex 51 10 0.0999994
    endloop
  endfacet
  facet normal -0 0 1
    outer loop
      vertex 51 20 0.0999994
      vertex 51.8 10 0.0999994
      vertex 51.8 20 0.0999994
    endloop
  endfacet
  facet normal 0 0 1
    outer loop
      vertex 51.8 10 0.0999994
      vertex 51 20 0.0999994
      vertex 51 10 0.0999994
    endloop
  endfacet
  facet normal 1 -0 0
    outer loop
      vertex 51.8 10 0.0999994
      vertex 51.8 20 0
      vertex 51.8 20 0.0999994
    endloop
  endfacet
  facet normal 1 0 0
    outer loop
      vertex 51.8 20 0
      vertex 51.8 10 0.0999994
      vertex 51.8 10 0
    endloop
  endfacet
  facet normal 0 1 -0
    outer loop
      vertex 51.8 20 0
      vertex 51 20 0.0999994
      vertex 51.8 20 0.0999994
    endloop
  endfacet
  facet normal 0 1 0
    outer loop
      vertex 51 20 0.0999994
      vertex 51.8 20 0
      vertex 51 20 0
    endloop
  endfacet
  facet normal 0 0 -1
    outer loop
      vertex 51 10 0
      vertex 51.8 20 0
      vertex 51.8 10 0
    endloop
  endfacet
  facet normal -0 0 -1
    outer loop
      vertex 51.8 20 0
      vertex 51 10 0
      vertex 51 20 0
    endloop
  endfacet
  facet normal 0 -1 0
    outer loop
      vertex 51 10 0
      vertex 51.8 10 0.0999994
      vertex 51 10 0.0999994
    endloop
  endfacet
  facet normal 0 -1 -0
    outer loop
      vertex 51.8 10 0.0999994
      vertex 51 10 0
      vertex 51.8 10 0
    endloop
  endfacet
  facet normal -1 0 0
    outer loop
      vertex 52 10 0
      vertex 52 20 0.0999994
      vertex 52 20 0
    endloop
  endfacet
  facet normal -1 -0 0
    outer loop
      vertex 52 20 0.0999994
      vertex 52 10 0
      vertex 52 10 0.0999994
    endloop
  endfacet
  facet normal -0 0 1
    outer loop
      vertex 52 20 0.0999994
      vertex 52.8 10 0.0999994
      vertex 52.8 20 0.0999994
    endloop
  endfacet
  facet normal 0 0 1
    outer loop
      vertex 52.8 10 0.0999994
      vertex 52 20 0.0999994
      vertex 52 10 0.0999994
    endloop
  endfacet
  facet normal 1 -0 0
    outer loop
      vertex 52.8 10 0.0999994
      vertex 52.8 20 0
      vertex 52.8 20 0.0999994
    endloop
  endfacet
  facet normal 1 0 0
    outer loop
      vertex 52.8 20 0
      vertex 52.8 10 0.0999994
      vertex 52.8 10 0
    endloop
  endfacet
  facet normal 0 0 -1
    outer loop
      vertex 52 10 0
      vertex 52.8 20 0
      vertex 52.8 10 0
    endloop
  endfacet
  facet normal -0 0 -1
    outer loop
      vertex 52.8 20 0
      vertex 52 10 0
      vertex 52 20 0
    endloop
  endfacet
  facet normal 0 -1 0
    outer loop
      vertex 52 10 0
      vertex 52.8 10 0.0999994
      vertex 52 10 0.0999994
    endloop
  endfacet
  facet normal 0 -1 -0
    outer loop
      vertex 52.8 10 0.0999994
      vertex 52 10 0
      vertex 52.8 10 0
    endloop
  endfacet
  facet normal 0 1 -0
    outer loop
      vertex 52.8 20 0
      vertex 52 20 0.0999994
      vertex 52.8 20 0.0999994
    endloop
  endfacet
  facet normal 0 1 0
    outer loop
      vertex 52 20 0.0999994
      vertex 52.8 20 0
      vertex 52 20 0
    endloop
  endfacet
  facet normal -1 0 0
    outer loop
      vertex 53 10 0
      vertex 53 20 0.0999994
      vertex 53 20 0
    endloop
  endfacet
  facet normal -1 -0 0
    outer loop
      vertex 53 20 0.0999994
      vertex 53 10 0
      vertex 53 10 0.0999994
    endloop
  endfacet
  facet normal -0 0 1
    outer loop
      vertex 53 20 0.0999994
      vertex 53.8 10 0.0999994
      vertex 53.8 20 0.0999994
    endloop
  endfacet
  facet normal 0 0 1
    outer loop
      vertex 53.8 10 0.0999994
      vertex 53 20 0.0999994
      vertex 53 10 0.0999994
    endloop
  endfacet
  facet normal 1 -0 0
    outer loop
      vertex 53.8 10 0.0999994
      vertex 53.8 20 0
      vertex 53.8 20 0.0999994
    endloop
  endfacet
  facet normal 1 0 0
    outer loop
      vertex 53.8 20 0
      vertex 53.8 10 0.0999994
      vertex 53.8 10 0
    endloop
  endfacet
  facet normal 0 1 -0
    outer loop
      vertex 53.8 20 0
      vertex 53 20 0.0999994
      vertex 53.8 20 0.0999994
    endloop
  endfacet
  facet normal 0 1 0
    outer loop
      vertex 53 20 0.0999994
      vertex 53.8 20 0
      vertex 53 20 0
    endloop
  endfacet
  facet normal 0 0 -1
    outer loop
      vertex 53 10 0
      vertex 53.8 20 0
      vertex 53.8 10 0
    endloop
  endfacet
  facet normal -0 0 -1
    outer loop
      vertex 53.8 20 0
      vertex 53 10 0
      vertex 53 20 0
    endloop
  endfacet
  facet normal 0 -1 0
    outer loop
      vertex 53 10 0
      vertex 53.8 10 0.0999994
      vertex 53 10 0.0999994
    endloop
  endfacet
  facet normal 0 -1 -0
    outer loop
      vertex 53.8 10 0.0999994
      vertex 53 10 0
      vertex 53.8 10 0
    endloop
  endfacet
  facet normal -1 0 0
    outer loop
      vertex 54 10 0
      vertex 54 20 0.0999994
      vertex 54 20 0
    endloop
  endfacet
  facet normal -1 -0 0
    outer loop
      vertex 54 20 0.0999994
      vertex 54 10 0
      vertex 54 10 0.0999994
    endloop
  endfacet
  facet normal -0 0 1
    outer loop
      vertex 54 20 0.0999994
      vertex 54.8 10 0.0999994
      vertex 54.8 20 0.0999994
    endloop
  endfacet
  facet normal 0 0 1
    outer loop
      vertex 54.8 10 0.0999994
      vertex 54 20 0.0999994
      vertex 54 10 0.0999994
    endloop
  endfacet
  facet normal 1 -0 0
    outer loop
      vertex 54.8 10 0.0999994
      vertex 54.8 20 0
      vertex 54.8 20 0.0999994
    endloop
  endfacet
  facet normal 1 0 0
    outer loop
      vertex 54.8 20 0
      vertex 54.8 10 0.0999994
      vertex 54.8 10 0
    endloop
  endfacet
  facet normal 0 1 -0
    outer loop
      vertex 54.8 20 0
      vertex 54 20 0.0999994
      vertex 54.8 20 0.0999994
    endloop
  endfacet
  facet normal 0 1 0
    outer loop
      vertex 54 20 0.0999994
      vertex 54.8 20 0
      vertex 54 20 0
    endloop
  endfacet
  facet normal 0 0 -1
    outer loop
      vertex 54 10 0
      vertex 54.8 20 0
      vertex 54.8 10 0
    endloop
  endfacet
  facet normal -0 0 -1
    outer loop
      vertex 54.8 20 0
      vertex 54 10 0
      vertex 54 20 0
    endloop
  endfacet
  facet normal 0 -1 0
    outer loop
      vertex 54 10 0
      vertex 54.8 10 0.0999994
      vertex 54 10 0.0999994
    endloop
  endfacet
  facet normal 0 -1 -0
    outer loop
      vertex 54.8 10 0.0999994
      vertex 54 10 0
      vertex 54.8 10 0
    endloop
  endfacet
  facet normal -1 0 0
    outer loop
      vertex 55 10 0
      vertex 55 20 0.0999994
      vertex 55 20 0
    endloop
  endfacet
  facet normal -1 -0 0
    outer loop
      vertex 55 20 0.0999994
      vertex 55 10 0
      vertex 55 10 0.0999994
    endloop
  endfacet
  facet normal -0 0 1
    outer loop
      vertex 55 20 0.0999994
      vertex 55.8 10 0.0999994
      vertex 55.8 20 0.0999994
    endloop
  endfacet
  facet normal 0 0 1
    outer loop
      vertex 55.8 10 0.0999994
      vertex 55 20 0.0999994
      vertex 55 10 0.0999994
    endloop
  endfacet
  facet normal 1 -0 0
    outer loop
      vertex 55.8 10 0.0999994
      vertex 55.8 20 0
      vertex 55.8 20 0.0999994
    endloop
  endfacet
  facet normal 1 0 0
    outer loop
      vertex 55.8 20 0
      vertex 55.8 10 0.0999994
      vertex 55.8 10 0
    endloop
  endfacet
  facet normal 0 0 -1
    outer loop
      vertex 55 10 0
      vertex 55.8 20 0
      vertex 55.8 10 0
    endloop
  endfacet
  facet normal -0 0 -1
    outer loop
      vertex 55.8 20 0
      vertex 55 10 0
      vertex 55 20 0
    endloop
  endfacet
  facet normal 0 -1 0
    outer loop
      vertex 55 10 0
      vertex 55.8 10 0.0999994
      vertex 55 10 0.0999994
    endloop
  endfacet
  facet normal 0 -1 -0
    outer loop
      vertex 55.8 10 0.0999994
      vertex 55 10 0
      vertex 55.8 10 0
    endloop
  endfacet
  facet normal 0 1 -0
    outer loop
      vertex 55.8 20 0
      vertex 55 20 0.0999994
      vertex 55.8 20 0.0999994
    endloop
  endfacet
  facet normal 0 1 0
    outer loop
      vertex 55 20 0.0999994
      vertex 55.8 20 0
      vertex 55 20 0
    endloop
  endfacet
  facet normal -1 0 0
    outer loop
      vertex 56 10 0
      vertex 56 20 0.0999994
      vertex 56 20 0
    endloop
  endfacet
  facet normal -1 -0 0
    outer loop
      vertex 56 20 0.0999994
      vertex 56 10 0
      vertex 56 10 0.0999994
    endloop
  endfacet
  facet normal -0 0 1
    outer loop
      vertex 56 20 0.0999994
      vertex 56.8 10 0.0999994
      vertex 56.8 20 0.0999994
    endloop
  endfacet
  facet normal 0 0 1
    outer loop
      vertex 56.8 10 0.0999994
      vertex 56 20 0.0999994
      vertex 56 10 0.0999994
    endloop
  endfacet
  facet normal 1 -0 0
    outer loop
      vertex 56.8 10 0.0999994
      vertex 56.8 20 0
      vertex 56.8 20 0.0999994
    endloop
  endfacet
  facet normal 1 0 0
    outer loop
      vertex 56.8 20 0
      vertex 56.8 10 0.0999994
      vertex 56.8 10 0
    endloop
  endfacet
  facet normal 0 0 -1
    outer loop
      vertex 56 10 0
      vertex 56.8 20 0
      vertex 56.8 10 0
    endloop
  endfacet
  facet normal -0 0 -1
    outer loop
      vertex 56.8 20 0
      vertex 56 10 0
      vertex 56 20 0
    endloop
  endfacet
  facet normal 0 -1 0
    outer loop
      vertex 56 10 0
      vertex 56.8 10 0.0999994
      vertex 56 10 0.0999994
    endloop
  endfacet
  facet normal 0 -1 -0
    outer loop
      vertex 56.8 10 0.0999994
      vertex 56 10 0
      vertex 56.8 10 0
    endloop
  endfacet
  facet normal 0 1 -0
    outer loop
      vertex 56.8 20 0
      vertex 56 20 0.0999994
      vertex 56.8 20 0.0999994
    endloop
  endfacet
  facet normal 0 1 0
    outer loop
      vertex 56 20 0.0999994
      vertex 56.8 20 0
      vertex 56 20 0
    endloop
  endfacet
  facet normal -1 0 0
    outer loop
      vertex 57 10 0
      vertex 57 20 0.0999994
      vertex 57 20 0
    endloop
  endfacet
  facet normal -1 -0 0
    outer loop
      vertex 57 20 0.0999994
      vertex 57 10 0
      vertex 57 10 0.0999994
    endloop
  endfacet
  facet normal -0 0 1
    outer loop
      vertex 57 20 0.0999994
      vertex 57.8 10 0.0999994
      vertex 57.8 20 0.0999994
    endloop
  endfacet
  facet normal 0 0 1
    outer loop
      vertex 57.8 10 0.0999994
      vertex 57 20 0.0999994
      vertex 57 10 0.0999994
    endloop
  endfacet
  facet normal 1 -0 0
    outer loop
      vertex 57.8 10 0.0999994
      vertex 57.8 20 0
      vertex 57.8 20 0.0999994
    endloop
  endfacet
  facet normal 1 0 0
    outer loop
      vertex 57.8 20 0
      vertex 57.8 10 0.0999994
      vertex 57.8 10 0
    endloop
  endfacet
  facet normal 0 1 -0
    outer loop
      vertex 57.8 20 0
      vertex 57 20 0.0999994
      vertex 57.8 20 0.0999994
    endloop
  endfacet
  facet normal 0 1 0
    outer loop
      vertex 57 20 0.0999994
      vertex 57.8 20 0
      vertex 57 20 0
    endloop
  endfacet
  facet normal 0 0 -1
    outer loop
      vertex 57 10 0
      vertex 57.8 20 0
      vertex 57.8 10 0
    endloop
  endfacet
  facet normal -0 0 -1
    outer loop
      vertex 57.8 20 0
      vertex 57 10 0
      vertex 57 20 0
    endloop
  endfacet
  facet normal 0 -1 0
    outer loop
      vertex 57 10 0
      vertex 57.8 10 0.0999994
      vertex 57 10 0.0999994
    endloop
  endfacet
  facet normal 0 -1 -0
    outer loop
      vertex 57.8 10 0.0999994
      vertex 57 10 0
      vertex 57.8 10 0
    endloop
  endfacet
  facet normal -1 0 0
    outer loop
      vertex 58 10 0
      vertex 58 20 0.0999994
      vertex 58 20 0
    endloop
  endfacet
  facet normal -1 -0 0
    outer loop
      vertex 58 20 0.0999994
      vertex 58 10 0
      vertex 58 10 0.0999994
    endloop
  endfacet
  facet normal -0 0 1
    outer loop
      vertex 58 20 0.0999994
      vertex 58.8 10 0.0999994
      vertex 58.8 20 0.0999994
    endloop
  endfacet
  facet normal 0 0 1
    outer loop
      vertex 58.8 10 0.0999994
      vertex 58 20 0.0999994
      vertex 58 10 0.0999994
    endloop
  endfacet
  facet normal 1 -0 0
    outer loop
      vertex 58.8 10 0.0999994
      vertex 58.8 20 0
      vertex 58.8 20 0.0999994
    endloop
  endfacet
  facet normal 1 0 0
    outer loop
      vertex 58.8 20 0
      vertex 58.8 10 0.0999994
      vertex 58.8 10 0
    endloop
  endfacet
  facet normal 0 1 -0
    outer loop
      vertex 58.8 20 0
      vertex 58 20 0.0999994
      vertex 58.8 20 0.0999994
    endloop
  endfacet
  facet normal 0 1 0
    outer loop
      vertex 58 20 0.0999994
      vertex 58.8 20 0
      vertex 58 20 0
    endloop
  endfacet
  facet normal 0 0 -1
    outer loop
      vertex 58 10 0
      vertex 58.8 20 0
      vertex 58.8 10 0
    endloop
  endfacet
  facet normal -0 0 -1
    outer loop
      vertex 58.8 20 0
      vertex 58 10 0
      vertex 58 20 0
    endloop
  endfacet
  facet normal 0 -1 0
    outer loop
      vertex 58 10 0
      vertex 58.8 10 0.0999994
      vertex 58 10 0.0999994
    endloop
  endfacet
  facet normal 0 -1 -0
    outer loop
      vertex 58.8 10 0.0999994
      vertex 58 10 0
      vertex 58.8 10 0
    endloop
  endfacet
  facet normal -1 0 0
    outer loop
      vertex 59 10 0
      vertex 59 20 0.0999994
      vertex 59 20 0
    endloop
  endfacet
  facet normal -1 -0 0
    outer loop
      vertex 59 20 0.0999994
      vertex 59 10 0
      vertex 59 10 0.0999994
    endloop
  endfacet
  facet normal -0 0 1
    outer loop
      vertex 59 20 0.0999994
      vertex 59.8 10 0.0999994
      vertex 59.8 20 0.0999994
    endloop
  endfacet
  facet normal 0 0 1
    outer loop
      vertex 59.8 10 0.0999994
      vertex 59 20 0.0999994
      vertex 59 10 0.0999994
    endloop
  endfacet
  facet normal 1 -0 0
    outer loop
      vertex 59.8 10 0.0999994
      vertex 59.8 20 0
      vertex 59.8 20 0.0999994
    endloop
  endfacet
  facet normal 1 0 0
    outer loop
      vertex 59.8 20 0
      vertex 59.8 10 0.0999994
      vertex 59.8 10 0
    endloop
  endfacet
  facet normal 0 1 -0
    outer loop
      vertex 59.8 20 0
      vertex 59 20 0.0999994
      vertex 59.8 20 0.0999994
    endloop
  endfacet
  facet normal 0 1 0
    outer loop
      vertex 59 20 0.0999994
      vertex 59.8 20 0
      vertex 59 20 0
    endloop
  endfacet
  facet normal 0 0 -1
    outer loop
      vertex 59 10 0
      vertex 59.8 20 0
      vertex 59.8 10 0
    endloop
  endfacet
  facet normal -0 0 -1
    outer loop
      vertex 59.8 20 0
      vertex 59 10 0
      vertex 59 20 0
    endloop
  endfacet
  facet normal 0 -1 0
    outer loop
      vertex 59 10 0
      vertex 59.8 10 0.0999994
      vertex 59 10 0.0999994
    endloop
  endfacet
  facet normal 0 -1 -0
    outer loop
      vertex 59.8 10 0.0999994
      vertex 59 10 0
      vertex 59.8 10 0
    endloop
  endfacet
  facet normal -1 0 0
    outer loop
      vertex 60 10 0
      vertex 60 20 0.0999994
      vertex 60 20 0
    endloop
  endfacet
  facet normal -1 -0 0
    outer loop
      vertex 60 20 0.0999994
      vertex 60 10 0
      vertex 60 10 0.0999994
    endloop
  endfacet
  facet normal -0 0 1
    outer loop
      vertex 60 20 0.0999994
      vertex 60.8 10 0.0999994
      vertex 60.8 20 0.0999994
    endloop
  endfacet
  facet normal 0 0 1
    outer loop
      vertex 60.8 10 0.0999994
      vertex 60 20 0.0999994
      vertex 60 10 0.0999994
    endloop
  endfacet
  facet normal 1 -0 0
    outer loop
      vertex 60.8 10 0.0999994
      vertex 60.8 20 0
      vertex 60.8 20 0.0999994
    endloop
  endfacet
  facet normal 1 0 0
    outer loop
      vertex 60.8 20 0
      vertex 60.8 10 0.0999994
      vertex 60.8 10 0
    endloop
  endfacet
  facet normal 0 0 -1
    outer loop
      vertex 60 10 0
      vertex 60.8 20 0
      vertex 60.8 10 0
    endloop
  endfacet
  facet normal -0 0 -1
    outer loop
      vertex 60.8 20 0
      vertex 60 10 0
      vertex 60 20 0
    endloop
  endfacet
  facet normal 0 -1 0
    outer loop
      vertex 60 10 0
      vertex 60.8 10 0.0999994
      vertex 60 10 0.0999994
    endloop
  endfacet
  facet normal 0 -1 -0
    outer loop
      vertex 60.8 10 0.0999994
      vertex 60 10 0
      vertex 60.8 10 0
    endloop
  endfacet
  facet normal 0 1 -0
    outer loop
      vertex 60.8 20 0
      vertex 60 20 0.0999994
      vertex 60.8 20 0.0999994
    endloop
  endfacet
  facet normal 0 1 0
    outer loop
      vertex 60 20 0.0999994
      vertex 60.8 20 0
      vertex 60 20 0
    endloop
  endfacet
endsolid OpenSCAD_Model
