solid OpenSCAD_Model
  facet normal -1 0 0
    outer loop
      vertex 170 130 0
      vertex 170 140 0.0999994
      vertex 170 140 0
    endloop
  endfacet
  facet normal -1 -0 0
    outer loop
      vertex 170 140 0.0999994
      vertex 170 130 0
      vertex 170 130 0.0999994
    endloop
  endfacet
  facet normal -0 0 1
    outer loop
      vertex 170 140 0.0999994
      vertex 170.8 130 0.0999994
      vertex 170.8 140 0.0999994
    endloop
  endfacet
  facet normal 0 0 1
    outer loop
      vertex 170.8 130 0.0999994
      vertex 170 140 0.0999994
      vertex 170 130 0.0999994
    endloop
  endfacet
  facet normal 1 -0 0
    outer loop
      vertex 170.8 130 0.0999994
      vertex 170.8 140 0
      vertex 170.8 140 0.0999994
    endloop
  endfacet
  facet normal 1 0 0
    outer loop
      vertex 170.8 140 0
      vertex 170.8 130 0.0999994
      vertex 170.8 130 0
    endloop
  endfacet
  facet normal 0 0 -1
    outer loop
      vertex 170 130 0
      vertex 170.8 140 0
      vertex 170.8 130 0
    endloop
  endfacet
  facet normal -0 0 -1
    outer loop
      vertex 170.8 140 0
      vertex 170 130 0
      vertex 170 140 0
    endloop
  endfacet
  facet normal 0 -1 0
    outer loop
      vertex 170 130 0
      vertex 170.8 130 0.0999994
      vertex 170 130 0.0999994
    endloop
  endfacet
  facet normal 0 -1 -0
    outer loop
      vertex 170.8 130 0.0999994
      vertex 170 130 0
      vertex 170.8 130 0
    endloop
  endfacet
  facet normal 0 1 -0
    outer loop
      vertex 170.8 140 0
      vertex 170 140 0.0999994
      vertex 170.8 140 0.0999994
    endloop
  endfacet
  facet normal 0 1 0
    outer loop
      vertex 170 140 0.0999994
      vertex 170.8 140 0
      vertex 170 140 0
    endloop
  endfacet
  facet normal -1 0 0
    outer loop
      vertex 171 130 0
      vertex 171 140 0.0999994
      vertex 171 140 0
    endloop
  endfacet
  facet normal -1 -0 0
    outer loop
      vertex 171 140 0.0999994
      vertex 171 130 0
      vertex 171 130 0.0999994
    endloop
  endfacet
  facet normal -0 0 1
    outer loop
      vertex 171 140 0.0999994
      vertex 171.8 130 0.0999994
      vertex 171.8 140 0.0999994
    endloop
  endfacet
  facet normal 0 0 1
    outer loop
      vertex 171.8 130 0.0999994
      vertex 171 140 0.0999994
      vertex 171 130 0.0999994
    endloop
  endfacet
  facet normal 1 -0 0
    outer loop
      vertex 171.8 130 0.0999994
      vertex 171.8 140 0
      vertex 171.8 140 0.0999994
    endloop
  endfacet
  facet normal 1 0 0
    outer loop
      vertex 171.8 140 0
      vertex 171.8 130 0.0999994
      vertex 171.8 130 0
    endloop
  endfacet
  facet normal 0 1 -0
    outer loop
      vertex 171.8 140 0
      vertex 171 140 0.0999994
      vertex 171.8 140 0.0999994
    endloop
  endfacet
  facet normal 0 1 0
    outer loop
      vertex 171 140 0.0999994
      vertex 171.8 140 0
      vertex 171 140 0
    endloop
  endfacet
  facet normal 0 0 -1
    outer loop
      vertex 171 130 0
      vertex 171.8 140 0
      vertex 171.8 130 0
    endloop
  endfacet
  facet normal -0 0 -1
    outer loop
      vertex 171.8 140 0
      vertex 171 130 0
      vertex 171 140 0
    endloop
  endfacet
  facet normal 0 -1 0
    outer loop
      vertex 171 130 0
      vertex 171.8 130 0.0999994
      vertex 171 130 0.0999994
    endloop
  endfacet
  facet normal 0 -1 -0
    outer loop
      vertex 171.8 130 0.0999994
      vertex 171 130 0
      vertex 171.8 130 0
    endloop
  endfacet
  facet normal -1 0 0
    outer loop
      vertex 172 130 0
      vertex 172 140 0.0999994
      vertex 172 140 0
    endloop
  endfacet
  facet normal -1 -0 0
    outer loop
      vertex 172 140 0.0999994
      vertex 172 130 0
      vertex 172 130 0.0999994
    endloop
  endfacet
  facet normal -0 0 1
    outer loop
      vertex 172 140 0.0999994
      vertex 172.8 130 0.0999994
      vertex 172.8 140 0.0999994
    endloop
  endfacet
  facet normal 0 0 1
    outer loop
      vertex 172.8 130 0.0999994
      vertex 172 140 0.0999994
      vertex 172 130 0.0999994
    endloop
  endfacet
  facet normal 1 -0 0
    outer loop
      vertex 172.8 130 0.0999994
      vertex 172.8 140 0
      vertex 172.8 140 0.0999994
    endloop
  endfacet
  facet normal 1 0 0
    outer loop
      vertex 172.8 140 0
      vertex 172.8 130 0.0999994
      vertex 172.8 130 0
    endloop
  endfacet
  facet normal 0 0 -1
    outer loop
      vertex 172 130 0
      vertex 172.8 140 0
      vertex 172.8 130 0
    endloop
  endfacet
  facet normal -0 0 -1
    outer loop
      vertex 172.8 140 0
      vertex 172 130 0
      vertex 172 140 0
    endloop
  endfacet
  facet normal 0 -1 0
    outer loop
      vertex 172 130 0
      vertex 172.8 130 0.0999994
      vertex 172 130 0.0999994
    endloop
  endfacet
  facet normal 0 -1 -0
    outer loop
      vertex 172.8 130 0.0999994
      vertex 172 130 0
      vertex 172.8 130 0
    endloop
  endfacet
  facet normal 0 1 -0
    outer loop
      vertex 172.8 140 0
      vertex 172 140 0.0999994
      vertex 172.8 140 0.0999994
    endloop
  endfacet
  facet normal 0 1 0
    outer loop
      vertex 172 140 0.0999994
      vertex 172.8 140 0
      vertex 172 140 0
    endloop
  endfacet
  facet normal -1 0 0
    outer loop
      vertex 173 130 0
      vertex 173 140 0.0999994
      vertex 173 140 0
    endloop
  endfacet
  facet normal -1 -0 0
    outer loop
      vertex 173 140 0.0999994
      vertex 173 130 0
      vertex 173 130 0.0999994
    endloop
  endfacet
  facet normal -0 0 1
    outer loop
      vertex 173 140 0.0999994
      vertex 173.8 130 0.0999994
      vertex 173.8 140 0.0999994
    endloop
  endfacet
  facet normal 0 0 1
    outer loop
      vertex 173.8 130 0.0999994
      vertex 173 140 0.0999994
      vertex 173 130 0.0999994
    endloop
  endfacet
  facet normal 1 -0 0
    outer loop
      vertex 173.8 130 0.0999994
      vertex 173.8 140 0
      vertex 173.8 140 0.0999994
    endloop
  endfacet
  facet normal 1 0 0
    outer loop
      vertex 173.8 140 0
      vertex 173.8 130 0.0999994
      vertex 173.8 130 0
    endloop
  endfacet
  facet normal 0 0 -1
    outer loop
      vertex 173 130 0
      vertex 173.8 140 0
      vertex 173.8 130 0
    endloop
  endfacet
  facet normal -0 0 -1
    outer loop
      vertex 173.8 140 0
      vertex 173 130 0
      vertex 173 140 0
    endloop
  endfacet
  facet normal 0 -1 0
    outer loop
      vertex 173 130 0
      vertex 173.8 130 0.0999994
      vertex 173 130 0.0999994
    endloop
  endfacet
  facet normal 0 -1 -0
    outer loop
      vertex 173.8 130 0.0999994
      vertex 173 130 0
      vertex 173.8 130 0
    endloop
  endfacet
  facet normal 0 1 -0
    outer loop
      vertex 173.8 140 0
      vertex 173 140 0.0999994
      vertex 173.8 140 0.0999994
    endloop
  endfacet
  facet normal 0 1 0
    outer loop
      vertex 173 140 0.0999994
      vertex 173.8 140 0
      vertex 173 140 0
    endloop
  endfacet
  facet normal -1 0 0
    outer loop
      vertex 174 130 0
      vertex 174 140 0.0999994
      vertex 174 140 0
    endloop
  endfacet
  facet normal -1 -0 0
    outer loop
      vertex 174 140 0.0999994
      vertex 174 130 0
      vertex 174 130 0.0999994
    endloop
  endfacet
  facet normal -0 0 1
    outer loop
      vertex 174 140 0.0999994
      vertex 174.8 130 0.0999994
      vertex 174.8 140 0.0999994
    endloop
  endfacet
  facet normal 0 0 1
    outer loop
      vertex 174.8 130 0.0999994
      vertex 174 140 0.0999994
      vertex 174 130 0.0999994
    endloop
  endfacet
  facet normal 1 -0 0
    outer loop
      vertex 174.8 130 0.0999994
      vertex 174.8 140 0
      vertex 174.8 140 0.0999994
    endloop
  endfacet
  facet normal 1 0 0
    outer loop
      vertex 174.8 140 0
      vertex 174.8 130 0.0999994
      vertex 174.8 130 0
    endloop
  endfacet
  facet normal 0 1 -0
    outer loop
      vertex 174.8 140 0
      vertex 174 140 0.0999994
      vertex 174.8 140 0.0999994
    endloop
  endfacet
  facet normal 0 1 0
    outer loop
      vertex 174 140 0.0999994
      vertex 174.8 140 0
      vertex 174 140 0
    endloop
  endfacet
  facet normal 0 0 -1
    outer loop
      vertex 174 130 0
      vertex 174.8 140 0
      vertex 174.8 130 0
    endloop
  endfacet
  facet normal -0 0 -1
    outer loop
      vertex 174.8 140 0
      vertex 174 130 0
      vertex 174 140 0
    endloop
  endfacet
  facet normal 0 -1 0
    outer loop
      vertex 174 130 0
      vertex 174.8 130 0.0999994
      vertex 174 130 0.0999994
    endloop
  endfacet
  facet normal 0 -1 -0
    outer loop
      vertex 174.8 130 0.0999994
      vertex 174 130 0
      vertex 174.8 130 0
    endloop
  endfacet
  facet normal -1 0 0
    outer loop
      vertex 175 130 0
      vertex 175 140 0.0999994
      vertex 175 140 0
    endloop
  endfacet
  facet normal -1 -0 0
    outer loop
      vertex 175 140 0.0999994
      vertex 175 130 0
      vertex 175 130 0.0999994
    endloop
  endfacet
  facet normal -0 0 1
    outer loop
      vertex 175 140 0.0999994
      vertex 175.8 130 0.0999994
      vertex 175.8 140 0.0999994
    endloop
  endfacet
  facet normal 0 0 1
    outer loop
      vertex 175.8 130 0.0999994
      vertex 175 140 0.0999994
      vertex 175 130 0.0999994
    endloop
  endfacet
  facet normal 1 -0 0
    outer loop
      vertex 175.8 130 0.0999994
      vertex 175.8 140 0
      vertex 175.8 140 0.0999994
    endloop
  endfacet
  facet normal 1 0 0
    outer loop
      vertex 175.8 140 0
      vertex 175.8 130 0.0999994
      vertex 175.8 130 0
    endloop
  endfacet
  facet normal 0 1 -0
    outer loop
      vertex 175.8 140 0
      vertex 175 140 0.0999994
      vertex 175.8 140 0.0999994
    endloop
  endfacet
  facet normal 0 1 0
    outer loop
      vertex 175 140 0.0999994
      vertex 175.8 140 0
      vertex 175 140 0
    endloop
  endfacet
  facet normal 0 0 -1
    outer loop
      vertex 175 130 0
      vertex 175.8 140 0
      vertex 175.8 130 0
    endloop
  endfacet
  facet normal -0 0 -1
    outer loop
      vertex 175.8 140 0
      vertex 175 130 0
      vertex 175 140 0
    endloop
  endfacet
  facet normal 0 -1 0
    outer loop
      vertex 175 130 0
      vertex 175.8 130 0.0999994
      vertex 175 130 0.0999994
    endloop
  endfacet
  facet normal 0 -1 -0
    outer loop
      vertex 175.8 130 0.0999994
      vertex 175 130 0
      vertex 175.8 130 0
    endloop
  endfacet
  facet normal -1 0 0
    outer loop
      vertex 176 130 0
      vertex 176 140 0.0999994
      vertex 176 140 0
    endloop
  endfacet
  facet normal -1 -0 0
    outer loop
      vertex 176 140 0.0999994
      vertex 176 130 0
      vertex 176 130 0.0999994
    endloop
  endfacet
  facet normal -0 0 1
    outer loop
      vertex 176 140 0.0999994
      vertex 176.8 130 0.0999994
      vertex 176.8 140 0.0999994
    endloop
  endfacet
  facet normal 0 0 1
    outer loop
      vertex 176.8 130 0.0999994
      vertex 176 140 0.0999994
      vertex 176 130 0.0999994
    endloop
  endfacet
  facet normal 1 -0 0
    outer loop
      vertex 176.8 130 0.0999994
      vertex 176.8 140 0
      vertex 176.8 140 0.0999994
    endloop
  endfacet
  facet normal 1 0 0
    outer loop
      vertex 176.8 140 0
      vertex 176.8 130 0.0999994
      vertex 176.8 130 0
    endloop
  endfacet
  facet normal 0 0 -1
    outer loop
      vertex 176 130 0
      vertex 176.8 140 0
      vertex 176.8 130 0
    endloop
  endfacet
  facet normal -0 0 -1
    outer loop
      vertex 176.8 140 0
      vertex 176 130 0
      vertex 176 140 0
    endloop
  endfacet
  facet normal 0 -1 0
    outer loop
      vertex 176 130 0
      vertex 176.8 130 0.0999994
      vertex 176 130 0.0999994
    endloop
  endfacet
  facet normal 0 -1 -0
    outer loop
      vertex 176.8 130 0.0999994
      vertex 176 130 0
      vertex 176.8 130 0
    endloop
  endfacet
  facet normal 0 1 -0
    outer loop
      vertex 176.8 140 0
      vertex 176 140 0.0999994
      vertex 176.8 140 0.0999994
    endloop
  endfacet
  facet normal 0 1 0
    outer loop
      vertex 176 140 0.0999994
      vertex 176.8 140 0
      vertex 176 140 0
    endloop
  endfacet
  facet normal -1 0 0
    outer loop
      vertex 177 130 0
      vertex 177 140 0.0999994
      vertex 177 140 0
    endloop
  endfacet
  facet normal -1 -0 0
    outer loop
      vertex 177 140 0.0999994
      vertex 177 130 0
      vertex 177 130 0.0999994
    endloop
  endfacet
  facet normal -0 0 1
    outer loop
      vertex 177 140 0.0999994
      vertex 177.8 130 0.0999994
      vertex 177.8 140 0.0999994
    endloop
  endfacet
  facet normal 0 0 1
    outer loop
      vertex 177.8 130 0.0999994
      vertex 177 140 0.0999994
      vertex 177 130 0.0999994
    endloop
  endfacet
  facet normal 1 -0 0
    outer loop
      vertex 177.8 130 0.0999994
      vertex 177.8 140 0
      vertex 177.8 140 0.0999994
    endloop
  endfacet
  facet normal 1 0 0
    outer loop
      vertex 177.8 140 0
      vertex 177.8 130 0.0999994
      vertex 177.8 130 0
    endloop
  endfacet
  facet normal 0 1 -0
    outer loop
      vertex 177.8 140 0
      vertex 177 140 0.0999994
      vertex 177.8 140 0.0999994
    endloop
  endfacet
  facet normal 0 1 0
    outer loop
      vertex 177 140 0.0999994
      vertex 177.8 140 0
      vertex 177 140 0
    endloop
  endfacet
  facet normal 0 0 -1
    outer loop
      vertex 177 130 0
      vertex 177.8 140 0
      vertex 177.8 130 0
    endloop
  endfacet
  facet normal -0 0 -1
    outer loop
      vertex 177.8 140 0
      vertex 177 130 0
      vertex 177 140 0
    endloop
  endfacet
  facet normal 0 -1 0
    outer loop
      vertex 177 130 0
      vertex 177.8 130 0.0999994
      vertex 177 130 0.0999994
    endloop
  endfacet
  facet normal 0 -1 -0
    outer loop
      vertex 177.8 130 0.0999994
      vertex 177 130 0
      vertex 177.8 130 0
    endloop
  endfacet
  facet normal -1 0 0
    outer loop
      vertex 178 130 0
      vertex 178 140 0.0999994
      vertex 178 140 0
    endloop
  endfacet
  facet normal -1 -0 0
    outer loop
      vertex 178 140 0.0999994
      vertex 178 130 0
      vertex 178 130 0.0999994
    endloop
  endfacet
  facet normal -0 0 1
    outer loop
      vertex 178 140 0.0999994
      vertex 178.8 130 0.0999994
      vertex 178.8 140 0.0999994
    endloop
  endfacet
  facet normal 0 0 1
    outer loop
      vertex 178.8 130 0.0999994
      vertex 178 140 0.0999994
      vertex 178 130 0.0999994
    endloop
  endfacet
  facet normal 1 -0 0
    outer loop
      vertex 178.8 130 0.0999994
      vertex 178.8 140 0
      vertex 178.8 140 0.0999994
    endloop
  endfacet
  facet normal 1 0 0
    outer loop
      vertex 178.8 140 0
      vertex 178.8 130 0.0999994
      vertex 178.8 130 0
    endloop
  endfacet
  facet normal 0 0 -1
    outer loop
      vertex 178 130 0
      vertex 178.8 140 0
      vertex 178.8 130 0
    endloop
  endfacet
  facet normal -0 0 -1
    outer loop
      vertex 178.8 140 0
      vertex 178 130 0
      vertex 178 140 0
    endloop
  endfacet
  facet normal 0 -1 0
    outer loop
      vertex 178 130 0
      vertex 178.8 130 0.0999994
      vertex 178 130 0.0999994
    endloop
  endfacet
  facet normal 0 -1 -0
    outer loop
      vertex 178.8 130 0.0999994
      vertex 178 130 0
      vertex 178.8 130 0
    endloop
  endfacet
  facet normal 0 1 -0
    outer loop
      vertex 178.8 140 0
      vertex 178 140 0.0999994
      vertex 178.8 140 0.0999994
    endloop
  endfacet
  facet normal 0 1 0
    outer loop
      vertex 178 140 0.0999994
      vertex 178.8 140 0
      vertex 178 140 0
    endloop
  endfacet
  facet normal -1 0 0
    outer loop
      vertex 179 130 0
      vertex 179 140 0.0999994
      vertex 179 140 0
    endloop
  endfacet
  facet normal -1 -0 0
    outer loop
      vertex 179 140 0.0999994
      vertex 179 130 0
      vertex 179 130 0.0999994
    endloop
  endfacet
  facet normal -0 0 1
    outer loop
      vertex 179 140 0.0999994
      vertex 179.8 130 0.0999994
      vertex 179.8 140 0.0999994
    endloop
  endfacet
  facet normal 0 0 1
    outer loop
      vertex 179.8 130 0.0999994
      vertex 179 140 0.0999994
      vertex 179 130 0.0999994
    endloop
  endfacet
  facet normal 1 -0 0
    outer loop
      vertex 179.8 130 0.0999994
      vertex 179.8 140 0
      vertex 179.8 140 0.0999994
    endloop
  endfacet
  facet normal 1 0 0
    outer loop
      vertex 179.8 140 0
      vertex 179.8 130 0.0999994
      vertex 179.8 130 0
    endloop
  endfacet
  facet normal 0 1 -0
    outer loop
      vertex 179.8 140 0
      vertex 179 140 0.0999994
      vertex 179.8 140 0.0999994
    endloop
  endfacet
  facet normal 0 1 0
    outer loop
      vertex 179 140 0.0999994
      vertex 179.8 140 0
      vertex 179 140 0
    endloop
  endfacet
  facet normal 0 0 -1
    outer loop
      vertex 179 130 0
      vertex 179.8 140 0
      vertex 179.8 130 0
    endloop
  endfacet
  facet normal -0 0 -1
    outer loop
      vertex 179.8 140 0
      vertex 179 130 0
      vertex 179 140 0
    endloop
  endfacet
  facet normal 0 -1 0
    outer loop
      vertex 179 130 0
      vertex 179.8 130 0.0999994
      vertex 179 130 0.0999994
    endloop
  endfacet
  facet normal 0 -1 -0
    outer loop
      vertex 179.8 130 0.0999994
      vertex 179 130 0
      vertex 179.8 130 0
    endloop
  endfacet
  facet normal -1 0 0
    outer loop
      vertex 180 130 0
      vertex 180 140 0.0999994
      vertex 180 140 0
    endloop
  endfacet
  facet normal -1 -0 0
    outer loop
      vertex 180 140 0.0999994
      vertex 180 130 0
      vertex 180 130 0.0999994
    endloop
  endfacet
  facet normal -0 0 1
    outer loop
      vertex 180 140 0.0999994
      vertex 180.8 130 0.0999994
      vertex 180.8 140 0.0999994
    endloop
  endfacet
  facet normal 0 0 1
    outer loop
      vertex 180.8 130 0.0999994
      vertex 180 140 0.0999994
      vertex 180 130 0.0999994
    endloop
  endfacet
  facet normal 1 -0 0
    outer loop
      vertex 180.8 130 0.0999994
      vertex 180.8 140 0
      vertex 180.8 140 0.0999994
    endloop
  endfacet
  facet normal 1 0 0
    outer loop
      vertex 180.8 140 0
      vertex 180.8 130 0.0999994
      vertex 180.8 130 0
    endloop
  endfacet
  facet normal 0 1 -0
    outer loop
      vertex 180.8 140 0
      vertex 180 140 0.0999994
      vertex 180.8 140 0.0999994
    endloop
  endfacet
  facet normal 0 1 0
    outer loop
      vertex 180 140 0.0999994
      vertex 180.8 140 0
      vertex 180 140 0
    endloop
  endfacet
  facet normal 0 0 -1
    outer loop
      vertex 180 130 0
      vertex 180.8 140 0
      vertex 180.8 130 0
    endloop
  endfacet
  facet normal -0 0 -1
    outer loop
      vertex 180.8 140 0
      vertex 180 130 0
      vertex 180 140 0
    endloop
  endfacet
  facet normal 0 -1 0
    outer loop
      vertex 180 130 0
      vertex 180.8 130 0.0999994
      vertex 180 130 0.0999994
    endloop
  endfacet
  facet normal 0 -1 -0
    outer loop
      vertex 180.8 130 0.0999994
      vertex 180 130 0
      vertex 180.8 130 0
    endloop
  endfacet
endsolid OpenSCAD_Model
