solid OpenSCAD_Model
  facet normal -1 0 0
    outer loop
      vertex 70 10 0
      vertex 70 20 0.0999994
      vertex 70 20 0
    endloop
  endfacet
  facet normal -1 -0 0
    outer loop
      vertex 70 20 0.0999994
      vertex 70 10 0
      vertex 70 10 0.0999994
    endloop
  endfacet
  facet normal -0 0 1
    outer loop
      vertex 70 20 0.0999994
      vertex 70.8 10 0.0999994
      vertex 70.8 20 0.0999994
    endloop
  endfacet
  facet normal 0 0 1
    outer loop
      vertex 70.8 10 0.0999994
      vertex 70 20 0.0999994
      vertex 70 10 0.0999994
    endloop
  endfacet
  facet normal 1 -0 0
    outer loop
      vertex 70.8 10 0.0999994
      vertex 70.8 20 0
      vertex 70.8 20 0.0999994
    endloop
  endfacet
  facet normal 1 0 0
    outer loop
      vertex 70.8 20 0
      vertex 70.8 10 0.0999994
      vertex 70.8 10 0
    endloop
  endfacet
  facet normal 0 1 -0
    outer loop
      vertex 70.8 20 0
      vertex 70 20 0.0999994
      vertex 70.8 20 0.0999994
    endloop
  endfacet
  facet normal 0 1 0
    outer loop
      vertex 70 20 0.0999994
      vertex 70.8 20 0
      vertex 70 20 0
    endloop
  endfacet
  facet normal 0 0 -1
    outer loop
      vertex 70 10 0
      vertex 70.8 20 0
      vertex 70.8 10 0
    endloop
  endfacet
  facet normal -0 0 -1
    outer loop
      vertex 70.8 20 0
      vertex 70 10 0
      vertex 70 20 0
    endloop
  endfacet
  facet normal 0 -1 0
    outer loop
      vertex 70 10 0
      vertex 70.8 10 0.0999994
      vertex 70 10 0.0999994
    endloop
  endfacet
  facet normal 0 -1 -0
    outer loop
      vertex 70.8 10 0.0999994
      vertex 70 10 0
      vertex 70.8 10 0
    endloop
  endfacet
  facet normal -1 0 0
    outer loop
      vertex 71 10 0
      vertex 71 20 0.0999994
      vertex 71 20 0
    endloop
  endfacet
  facet normal -1 -0 0
    outer loop
      vertex 71 20 0.0999994
      vertex 71 10 0
      vertex 71 10 0.0999994
    endloop
  endfacet
  facet normal -0 0 1
    outer loop
      vertex 71 20 0.0999994
      vertex 71.8 10 0.0999994
      vertex 71.8 20 0.0999994
    endloop
  endfacet
  facet normal 0 0 1
    outer loop
      vertex 71.8 10 0.0999994
      vertex 71 20 0.0999994
      vertex 71 10 0.0999994
    endloop
  endfacet
  facet normal 1 -0 0
    outer loop
      vertex 71.8 10 0.0999994
      vertex 71.8 20 0
      vertex 71.8 20 0.0999994
    endloop
  endfacet
  facet normal 1 0 0
    outer loop
      vertex 71.8 20 0
      vertex 71.8 10 0.0999994
      vertex 71.8 10 0
    endloop
  endfacet
  facet normal 0 1 -0
    outer loop
      vertex 71.8 20 0
      vertex 71 20 0.0999994
      vertex 71.8 20 0.0999994
    endloop
  endfacet
  facet normal 0 1 0
    outer loop
      vertex 71 20 0.0999994
      vertex 71.8 20 0
      vertex 71 20 0
    endloop
  endfacet
  facet normal 0 0 -1
    outer loop
      vertex 71 10 0
      vertex 71.8 20 0
      vertex 71.8 10 0
    endloop
  endfacet
  facet normal -0 0 -1
    outer loop
      vertex 71.8 20 0
      vertex 71 10 0
      vertex 71 20 0
    endloop
  endfacet
  facet normal 0 -1 0
    outer loop
      vertex 71 10 0
      vertex 71.8 10 0.0999994
      vertex 71 10 0.0999994
    endloop
  endfacet
  facet normal 0 -1 -0
    outer loop
      vertex 71.8 10 0.0999994
      vertex 71 10 0
      vertex 71.8 10 0
    endloop
  endfacet
  facet normal -1 0 0
    outer loop
      vertex 72 10 0
      vertex 72 20 0.0999994
      vertex 72 20 0
    endloop
  endfacet
  facet normal -1 -0 0
    outer loop
      vertex 72 20 0.0999994
      vertex 72 10 0
      vertex 72 10 0.0999994
    endloop
  endfacet
  facet normal -0 0 1
    outer loop
      vertex 72 20 0.0999994
      vertex 72.8 10 0.0999994
      vertex 72.8 20 0.0999994
    endloop
  endfacet
  facet normal 0 0 1
    outer loop
      vertex 72.8 10 0.0999994
      vertex 72 20 0.0999994
      vertex 72 10 0.0999994
    endloop
  endfacet
  facet normal 1 -0 0
    outer loop
      vertex 72.8 10 0.0999994
      vertex 72.8 20 0
      vertex 72.8 20 0.0999994
    endloop
  endfacet
  facet normal 1 0 0
    outer loop
      vertex 72.8 20 0
      vertex 72.8 10 0.0999994
      vertex 72.8 10 0
    endloop
  endfacet
  facet normal 0 0 -1
    outer loop
      vertex 72 10 0
      vertex 72.8 20 0
      vertex 72.8 10 0
    endloop
  endfacet
  facet normal -0 0 -1
    outer loop
      vertex 72.8 20 0
      vertex 72 10 0
      vertex 72 20 0
    endloop
  endfacet
  facet normal 0 -1 0
    outer loop
      vertex 72 10 0
      vertex 72.8 10 0.0999994
      vertex 72 10 0.0999994
    endloop
  endfacet
  facet normal 0 -1 -0
    outer loop
      vertex 72.8 10 0.0999994
      vertex 72 10 0
      vertex 72.8 10 0
    endloop
  endfacet
  facet normal 0 1 -0
    outer loop
      vertex 72.8 20 0
      vertex 72 20 0.0999994
      vertex 72.8 20 0.0999994
    endloop
  endfacet
  facet normal 0 1 0
    outer loop
      vertex 72 20 0.0999994
      vertex 72.8 20 0
      vertex 72 20 0
    endloop
  endfacet
  facet normal -1 0 0
    outer loop
      vertex 73 10 0
      vertex 73 20 0.0999994
      vertex 73 20 0
    endloop
  endfacet
  facet normal -1 -0 0
    outer loop
      vertex 73 20 0.0999994
      vertex 73 10 0
      vertex 73 10 0.0999994
    endloop
  endfacet
  facet normal -0 0 1
    outer loop
      vertex 73 20 0.0999994
      vertex 73.8 10 0.0999994
      vertex 73.8 20 0.0999994
    endloop
  endfacet
  facet normal 0 0 1
    outer loop
      vertex 73.8 10 0.0999994
      vertex 73 20 0.0999994
      vertex 73 10 0.0999994
    endloop
  endfacet
  facet normal 1 -0 0
    outer loop
      vertex 73.8 10 0.0999994
      vertex 73.8 20 0
      vertex 73.8 20 0.0999994
    endloop
  endfacet
  facet normal 1 0 0
    outer loop
      vertex 73.8 20 0
      vertex 73.8 10 0.0999994
      vertex 73.8 10 0
    endloop
  endfacet
  facet normal 0 0 -1
    outer loop
      vertex 73 10 0
      vertex 73.8 20 0
      vertex 73.8 10 0
    endloop
  endfacet
  facet normal -0 0 -1
    outer loop
      vertex 73.8 20 0
      vertex 73 10 0
      vertex 73 20 0
    endloop
  endfacet
  facet normal 0 -1 0
    outer loop
      vertex 73 10 0
      vertex 73.8 10 0.0999994
      vertex 73 10 0.0999994
    endloop
  endfacet
  facet normal 0 -1 -0
    outer loop
      vertex 73.8 10 0.0999994
      vertex 73 10 0
      vertex 73.8 10 0
    endloop
  endfacet
  facet normal 0 1 -0
    outer loop
      vertex 73.8 20 0
      vertex 73 20 0.0999994
      vertex 73.8 20 0.0999994
    endloop
  endfacet
  facet normal 0 1 0
    outer loop
      vertex 73 20 0.0999994
      vertex 73.8 20 0
      vertex 73 20 0
    endloop
  endfacet
  facet normal -1 0 0
    outer loop
      vertex 74 10 0
      vertex 74 20 0.0999994
      vertex 74 20 0
    endloop
  endfacet
  facet normal -1 -0 0
    outer loop
      vertex 74 20 0.0999994
      vertex 74 10 0
      vertex 74 10 0.0999994
    endloop
  endfacet
  facet normal -0 0 1
    outer loop
      vertex 74 20 0.0999994
      vertex 74.8 10 0.0999994
      vertex 74.8 20 0.0999994
    endloop
  endfacet
  facet normal 0 0 1
    outer loop
      vertex 74.8 10 0.0999994
      vertex 74 20 0.0999994
      vertex 74 10 0.0999994
    endloop
  endfacet
  facet normal 1 -0 0
    outer loop
      vertex 74.8 10 0.0999994
      vertex 74.8 20 0
      vertex 74.8 20 0.0999994
    endloop
  endfacet
  facet normal 1 0 0
    outer loop
      vertex 74.8 20 0
      vertex 74.8 10 0.0999994
      vertex 74.8 10 0
    endloop
  endfacet
  facet normal 0 1 -0
    outer loop
      vertex 74.8 20 0
      vertex 74 20 0.0999994
      vertex 74.8 20 0.0999994
    endloop
  endfacet
  facet normal 0 1 0
    outer loop
      vertex 74 20 0.0999994
      vertex 74.8 20 0
      vertex 74 20 0
    endloop
  endfacet
  facet normal 0 0 -1
    outer loop
      vertex 74 10 0
      vertex 74.8 20 0
      vertex 74.8 10 0
    endloop
  endfacet
  facet normal -0 0 -1
    outer loop
      vertex 74.8 20 0
      vertex 74 10 0
      vertex 74 20 0
    endloop
  endfacet
  facet normal 0 -1 0
    outer loop
      vertex 74 10 0
      vertex 74.8 10 0.0999994
      vertex 74 10 0.0999994
    endloop
  endfacet
  facet normal 0 -1 -0
    outer loop
      vertex 74.8 10 0.0999994
      vertex 74 10 0
      vertex 74.8 10 0
    endloop
  endfacet
  facet normal -1 0 0
    outer loop
      vertex 75 10 0
      vertex 75 20 0.0999994
      vertex 75 20 0
    endloop
  endfacet
  facet normal -1 -0 0
    outer loop
      vertex 75 20 0.0999994
      vertex 75 10 0
      vertex 75 10 0.0999994
    endloop
  endfacet
  facet normal -0 0 1
    outer loop
      vertex 75 20 0.0999994
      vertex 75.8 10 0.0999994
      vertex 75.8 20 0.0999994
    endloop
  endfacet
  facet normal 0 0 1
    outer loop
      vertex 75.8 10 0.0999994
      vertex 75 20 0.0999994
      vertex 75 10 0.0999994
    endloop
  endfacet
  facet normal 1 -0 0
    outer loop
      vertex 75.8 10 0.0999994
      vertex 75.8 20 0
      vertex 75.8 20 0.0999994
    endloop
  endfacet
  facet normal 1 0 0
    outer loop
      vertex 75.8 20 0
      vertex 75.8 10 0.0999994
      vertex 75.8 10 0
    endloop
  endfacet
  facet normal 0 0 -1
    outer loop
      vertex 75 10 0
      vertex 75.8 20 0
      vertex 75.8 10 0
    endloop
  endfacet
  facet normal -0 0 -1
    outer loop
      vertex 75.8 20 0
      vertex 75 10 0
      vertex 75 20 0
    endloop
  endfacet
  facet normal 0 -1 0
    outer loop
      vertex 75 10 0
      vertex 75.8 10 0.0999994
      vertex 75 10 0.0999994
    endloop
  endfacet
  facet normal 0 -1 -0
    outer loop
      vertex 75.8 10 0.0999994
      vertex 75 10 0
      vertex 75.8 10 0
    endloop
  endfacet
  facet normal 0 1 -0
    outer loop
      vertex 75.8 20 0
      vertex 75 20 0.0999994
      vertex 75.8 20 0.0999994
    endloop
  endfacet
  facet normal 0 1 0
    outer loop
      vertex 75 20 0.0999994
      vertex 75.8 20 0
      vertex 75 20 0
    endloop
  endfacet
  facet normal -1 0 0
    outer loop
      vertex 76 10 0
      vertex 76 20 0.0999994
      vertex 76 20 0
    endloop
  endfacet
  facet normal -1 -0 0
    outer loop
      vertex 76 20 0.0999994
      vertex 76 10 0
      vertex 76 10 0.0999994
    endloop
  endfacet
  facet normal -0 0 1
    outer loop
      vertex 76 20 0.0999994
      vertex 76.8 10 0.0999994
      vertex 76.8 20 0.0999994
    endloop
  endfacet
  facet normal 0 0 1
    outer loop
      vertex 76.8 10 0.0999994
      vertex 76 20 0.0999994
      vertex 76 10 0.0999994
    endloop
  endfacet
  facet normal 1 -0 0
    outer loop
      vertex 76.8 10 0.0999994
      vertex 76.8 20 0
      vertex 76.8 20 0.0999994
    endloop
  endfacet
  facet normal 1 0 0
    outer loop
      vertex 76.8 20 0
      vertex 76.8 10 0.0999994
      vertex 76.8 10 0
    endloop
  endfacet
  facet normal 0 0 -1
    outer loop
      vertex 76 10 0
      vertex 76.8 20 0
      vertex 76.8 10 0
    endloop
  endfacet
  facet normal -0 0 -1
    outer loop
      vertex 76.8 20 0
      vertex 76 10 0
      vertex 76 20 0
    endloop
  endfacet
  facet normal 0 -1 0
    outer loop
      vertex 76 10 0
      vertex 76.8 10 0.0999994
      vertex 76 10 0.0999994
    endloop
  endfacet
  facet normal 0 -1 -0
    outer loop
      vertex 76.8 10 0.0999994
      vertex 76 10 0
      vertex 76.8 10 0
    endloop
  endfacet
  facet normal 0 1 -0
    outer loop
      vertex 76.8 20 0
      vertex 76 20 0.0999994
      vertex 76.8 20 0.0999994
    endloop
  endfacet
  facet normal 0 1 0
    outer loop
      vertex 76 20 0.0999994
      vertex 76.8 20 0
      vertex 76 20 0
    endloop
  endfacet
  facet normal -1 0 0
    outer loop
      vertex 77 10 0
      vertex 77 20 0.0999994
      vertex 77 20 0
    endloop
  endfacet
  facet normal -1 -0 0
    outer loop
      vertex 77 20 0.0999994
      vertex 77 10 0
      vertex 77 10 0.0999994
    endloop
  endfacet
  facet normal -0 0 1
    outer loop
      vertex 77 20 0.0999994
      vertex 77.8 10 0.0999994
      vertex 77.8 20 0.0999994
    endloop
  endfacet
  facet normal 0 0 1
    outer loop
      vertex 77.8 10 0.0999994
      vertex 77 20 0.0999994
      vertex 77 10 0.0999994
    endloop
  endfacet
  facet normal 1 -0 0
    outer loop
      vertex 77.8 10 0.0999994
      vertex 77.8 20 0
      vertex 77.8 20 0.0999994
    endloop
  endfacet
  facet normal 1 0 0
    outer loop
      vertex 77.8 20 0
      vertex 77.8 10 0.0999994
      vertex 77.8 10 0
    endloop
  endfacet
  facet normal 0 1 -0
    outer loop
      vertex 77.8 20 0
      vertex 77 20 0.0999994
      vertex 77.8 20 0.0999994
    endloop
  endfacet
  facet normal 0 1 0
    outer loop
      vertex 77 20 0.0999994
      vertex 77.8 20 0
      vertex 77 20 0
    endloop
  endfacet
  facet normal 0 0 -1
    outer loop
      vertex 77 10 0
      vertex 77.8 20 0
      vertex 77.8 10 0
    endloop
  endfacet
  facet normal -0 0 -1
    outer loop
      vertex 77.8 20 0
      vertex 77 10 0
      vertex 77 20 0
    endloop
  endfacet
  facet normal 0 -1 0
    outer loop
      vertex 77 10 0
      vertex 77.8 10 0.0999994
      vertex 77 10 0.0999994
    endloop
  endfacet
  facet normal 0 -1 -0
    outer loop
      vertex 77.8 10 0.0999994
      vertex 77 10 0
      vertex 77.8 10 0
    endloop
  endfacet
  facet normal -1 0 0
    outer loop
      vertex 78 10 0
      vertex 78 20 0.0999994
      vertex 78 20 0
    endloop
  endfacet
  facet normal -1 -0 0
    outer loop
      vertex 78 20 0.0999994
      vertex 78 10 0
      vertex 78 10 0.0999994
    endloop
  endfacet
  facet normal -0 0 1
    outer loop
      vertex 78 20 0.0999994
      vertex 78.8 10 0.0999994
      vertex 78.8 20 0.0999994
    endloop
  endfacet
  facet normal 0 0 1
    outer loop
      vertex 78.8 10 0.0999994
      vertex 78 20 0.0999994
      vertex 78 10 0.0999994
    endloop
  endfacet
  facet normal 1 -0 0
    outer loop
      vertex 78.8 10 0.0999994
      vertex 78.8 20 0
      vertex 78.8 20 0.0999994
    endloop
  endfacet
  facet normal 1 0 0
    outer loop
      vertex 78.8 20 0
      vertex 78.8 10 0.0999994
      vertex 78.8 10 0
    endloop
  endfacet
  facet normal 0 0 -1
    outer loop
      vertex 78 10 0
      vertex 78.8 20 0
      vertex 78.8 10 0
    endloop
  endfacet
  facet normal -0 0 -1
    outer loop
      vertex 78.8 20 0
      vertex 78 10 0
      vertex 78 20 0
    endloop
  endfacet
  facet normal 0 -1 0
    outer loop
      vertex 78 10 0
      vertex 78.8 10 0.0999994
      vertex 78 10 0.0999994
    endloop
  endfacet
  facet normal 0 -1 -0
    outer loop
      vertex 78.8 10 0.0999994
      vertex 78 10 0
      vertex 78.8 10 0
    endloop
  endfacet
  facet normal 0 1 -0
    outer loop
      vertex 78.8 20 0
      vertex 78 20 0.0999994
      vertex 78.8 20 0.0999994
    endloop
  endfacet
  facet normal 0 1 0
    outer loop
      vertex 78 20 0.0999994
      vertex 78.8 20 0
      vertex 78 20 0
    endloop
  endfacet
  facet normal -1 0 0
    outer loop
      vertex 79 10 0
      vertex 79 20 0.0999994
      vertex 79 20 0
    endloop
  endfacet
  facet normal -1 -0 0
    outer loop
      vertex 79 20 0.0999994
      vertex 79 10 0
      vertex 79 10 0.0999994
    endloop
  endfacet
  facet normal -0 0 1
    outer loop
      vertex 79 20 0.0999994
      vertex 79.8 10 0.0999994
      vertex 79.8 20 0.0999994
    endloop
  endfacet
  facet normal 0 0 1
    outer loop
      vertex 79.8 10 0.0999994
      vertex 79 20 0.0999994
      vertex 79 10 0.0999994
    endloop
  endfacet
  facet normal 1 -0 0
    outer loop
      vertex 79.8 10 0.0999994
      vertex 79.8 20 0
      vertex 79.8 20 0.0999994
    endloop
  endfacet
  facet normal 1 0 0
    outer loop
      vertex 79.8 20 0
      vertex 79.8 10 0.0999994
      vertex 79.8 10 0
    endloop
  endfacet
  facet normal 0 1 -0
    outer loop
      vertex 79.8 20 0
      vertex 79 20 0.0999994
      vertex 79.8 20 0.0999994
    endloop
  endfacet
  facet normal 0 1 0
    outer loop
      vertex 79 20 0.0999994
      vertex 79.8 20 0
      vertex 79 20 0
    endloop
  endfacet
  facet normal 0 0 -1
    outer loop
      vertex 79 10 0
      vertex 79.8 20 0
      vertex 79.8 10 0
    endloop
  endfacet
  facet normal -0 0 -1
    outer loop
      vertex 79.8 20 0
      vertex 79 10 0
      vertex 79 20 0
    endloop
  endfacet
  facet normal 0 -1 0
    outer loop
      vertex 79 10 0
      vertex 79.8 10 0.0999994
      vertex 79 10 0.0999994
    endloop
  endfacet
  facet normal 0 -1 -0
    outer loop
      vertex 79.8 10 0.0999994
      vertex 79 10 0
      vertex 79.8 10 0
    endloop
  endfacet
  facet normal -1 0 0
    outer loop
      vertex 80 10 0
      vertex 80 20 0.0999994
      vertex 80 20 0
    endloop
  endfacet
  facet normal -1 -0 0
    outer loop
      vertex 80 20 0.0999994
      vertex 80 10 0
      vertex 80 10 0.0999994
    endloop
  endfacet
  facet normal -0 0 1
    outer loop
      vertex 80 20 0.0999994
      vertex 80.8 10 0.0999994
      vertex 80.8 20 0.0999994
    endloop
  endfacet
  facet normal 0 0 1
    outer loop
      vertex 80.8 10 0.0999994
      vertex 80 20 0.0999994
      vertex 80 10 0.0999994
    endloop
  endfacet
  facet normal 1 -0 0
    outer loop
      vertex 80.8 10 0.0999994
      vertex 80.8 20 0
      vertex 80.8 20 0.0999994
    endloop
  endfacet
  facet normal 1 0 0
    outer loop
      vertex 80.8 20 0
      vertex 80.8 10 0.0999994
      vertex 80.8 10 0
    endloop
  endfacet
  facet normal 0 0 -1
    outer loop
      vertex 80 10 0
      vertex 80.8 20 0
      vertex 80.8 10 0
    endloop
  endfacet
  facet normal -0 0 -1
    outer loop
      vertex 80.8 20 0
      vertex 80 10 0
      vertex 80 20 0
    endloop
  endfacet
  facet normal 0 -1 0
    outer loop
      vertex 80 10 0
      vertex 80.8 10 0.0999994
      vertex 80 10 0.0999994
    endloop
  endfacet
  facet normal 0 -1 -0
    outer loop
      vertex 80.8 10 0.0999994
      vertex 80 10 0
      vertex 80.8 10 0
    endloop
  endfacet
  facet normal 0 1 -0
    outer loop
      vertex 80.8 20 0
      vertex 80 20 0.0999994
      vertex 80.8 20 0.0999994
    endloop
  endfacet
  facet normal 0 1 0
    outer loop
      vertex 80 20 0.0999994
      vertex 80.8 20 0
      vertex 80 20 0
    endloop
  endfacet
endsolid OpenSCAD_Model
