solid OpenSCAD_Model
  facet normal -1 0 0
    outer loop
      vertex 30 190 0
      vertex 30 200 0.0999994
      vertex 30 200 0
    endloop
  endfacet
  facet normal -1 -0 0
    outer loop
      vertex 30 200 0.0999994
      vertex 30 190 0
      vertex 30 190 0.0999994
    endloop
  endfacet
  facet normal -0 0 1
    outer loop
      vertex 30 200 0.0999994
      vertex 30.8 190 0.0999994
      vertex 30.8 200 0.0999994
    endloop
  endfacet
  facet normal 0 0 1
    outer loop
      vertex 30.8 190 0.0999994
      vertex 30 200 0.0999994
      vertex 30 190 0.0999994
    endloop
  endfacet
  facet normal 1 -0 0
    outer loop
      vertex 30.8 190 0.0999994
      vertex 30.8 200 0
      vertex 30.8 200 0.0999994
    endloop
  endfacet
  facet normal 1 0 0
    outer loop
      vertex 30.8 200 0
      vertex 30.8 190 0.0999994
      vertex 30.8 190 0
    endloop
  endfacet
  facet normal 0 1 -0
    outer loop
      vertex 30.8 200 0
      vertex 30 200 0.0999994
      vertex 30.8 200 0.0999994
    endloop
  endfacet
  facet normal 0 1 0
    outer loop
      vertex 30 200 0.0999994
      vertex 30.8 200 0
      vertex 30 200 0
    endloop
  endfacet
  facet normal 0 0 -1
    outer loop
      vertex 30 190 0
      vertex 30.8 200 0
      vertex 30.8 190 0
    endloop
  endfacet
  facet normal -0 0 -1
    outer loop
      vertex 30.8 200 0
      vertex 30 190 0
      vertex 30 200 0
    endloop
  endfacet
  facet normal 0 -1 0
    outer loop
      vertex 30 190 0
      vertex 30.8 190 0.0999994
      vertex 30 190 0.0999994
    endloop
  endfacet
  facet normal 0 -1 -0
    outer loop
      vertex 30.8 190 0.0999994
      vertex 30 190 0
      vertex 30.8 190 0
    endloop
  endfacet
  facet normal -1 0 0
    outer loop
      vertex 31 190 0
      vertex 31 200 0.0999994
      vertex 31 200 0
    endloop
  endfacet
  facet normal -1 -0 0
    outer loop
      vertex 31 200 0.0999994
      vertex 31 190 0
      vertex 31 190 0.0999994
    endloop
  endfacet
  facet normal -0 0 1
    outer loop
      vertex 31 200 0.0999994
      vertex 31.8 190 0.0999994
      vertex 31.8 200 0.0999994
    endloop
  endfacet
  facet normal 0 0 1
    outer loop
      vertex 31.8 190 0.0999994
      vertex 31 200 0.0999994
      vertex 31 190 0.0999994
    endloop
  endfacet
  facet normal 1 -0 0
    outer loop
      vertex 31.8 190 0.0999994
      vertex 31.8 200 0
      vertex 31.8 200 0.0999994
    endloop
  endfacet
  facet normal 1 0 0
    outer loop
      vertex 31.8 200 0
      vertex 31.8 190 0.0999994
      vertex 31.8 190 0
    endloop
  endfacet
  facet normal 0 1 -0
    outer loop
      vertex 31.8 200 0
      vertex 31 200 0.0999994
      vertex 31.8 200 0.0999994
    endloop
  endfacet
  facet normal 0 1 0
    outer loop
      vertex 31 200 0.0999994
      vertex 31.8 200 0
      vertex 31 200 0
    endloop
  endfacet
  facet normal 0 0 -1
    outer loop
      vertex 31 190 0
      vertex 31.8 200 0
      vertex 31.8 190 0
    endloop
  endfacet
  facet normal -0 0 -1
    outer loop
      vertex 31.8 200 0
      vertex 31 190 0
      vertex 31 200 0
    endloop
  endfacet
  facet normal 0 -1 0
    outer loop
      vertex 31 190 0
      vertex 31.8 190 0.0999994
      vertex 31 190 0.0999994
    endloop
  endfacet
  facet normal 0 -1 -0
    outer loop
      vertex 31.8 190 0.0999994
      vertex 31 190 0
      vertex 31.8 190 0
    endloop
  endfacet
  facet normal -1 0 0
    outer loop
      vertex 32 190 0
      vertex 32 200 0.0999994
      vertex 32 200 0
    endloop
  endfacet
  facet normal -1 -0 0
    outer loop
      vertex 32 200 0.0999994
      vertex 32 190 0
      vertex 32 190 0.0999994
    endloop
  endfacet
  facet normal -0 0 1
    outer loop
      vertex 32 200 0.0999994
      vertex 32.8 190 0.0999994
      vertex 32.8 200 0.0999994
    endloop
  endfacet
  facet normal 0 0 1
    outer loop
      vertex 32.8 190 0.0999994
      vertex 32 200 0.0999994
      vertex 32 190 0.0999994
    endloop
  endfacet
  facet normal 1 -0 0
    outer loop
      vertex 32.8 190 0.0999994
      vertex 32.8 200 0
      vertex 32.8 200 0.0999994
    endloop
  endfacet
  facet normal 1 0 0
    outer loop
      vertex 32.8 200 0
      vertex 32.8 190 0.0999994
      vertex 32.8 190 0
    endloop
  endfacet
  facet normal 0 0 -1
    outer loop
      vertex 32 190 0
      vertex 32.8 200 0
      vertex 32.8 190 0
    endloop
  endfacet
  facet normal -0 0 -1
    outer loop
      vertex 32.8 200 0
      vertex 32 190 0
      vertex 32 200 0
    endloop
  endfacet
  facet normal 0 -1 0
    outer loop
      vertex 32 190 0
      vertex 32.8 190 0.0999994
      vertex 32 190 0.0999994
    endloop
  endfacet
  facet normal 0 -1 -0
    outer loop
      vertex 32.8 190 0.0999994
      vertex 32 190 0
      vertex 32.8 190 0
    endloop
  endfacet
  facet normal 0 1 -0
    outer loop
      vertex 32.8 200 0
      vertex 32 200 0.0999994
      vertex 32.8 200 0.0999994
    endloop
  endfacet
  facet normal 0 1 0
    outer loop
      vertex 32 200 0.0999994
      vertex 32.8 200 0
      vertex 32 200 0
    endloop
  endfacet
  facet normal -1 0 0
    outer loop
      vertex 33 190 0
      vertex 33 200 0.0999994
      vertex 33 200 0
    endloop
  endfacet
  facet normal -1 -0 0
    outer loop
      vertex 33 200 0.0999994
      vertex 33 190 0
      vertex 33 190 0.0999994
    endloop
  endfacet
  facet normal -0 0 1
    outer loop
      vertex 33 200 0.0999994
      vertex 33.8 190 0.0999994
      vertex 33.8 200 0.0999994
    endloop
  endfacet
  facet normal 0 0 1
    outer loop
      vertex 33.8 190 0.0999994
      vertex 33 200 0.0999994
      vertex 33 190 0.0999994
    endloop
  endfacet
  facet normal 1 -0 0
    outer loop
      vertex 33.8 190 0.0999994
      vertex 33.8 200 0
      vertex 33.8 200 0.0999994
    endloop
  endfacet
  facet normal 1 0 0
    outer loop
      vertex 33.8 200 0
      vertex 33.8 190 0.0999994
      vertex 33.8 190 0
    endloop
  endfacet
  facet normal 0 0 -1
    outer loop
      vertex 33 190 0
      vertex 33.8 200 0
      vertex 33.8 190 0
    endloop
  endfacet
  facet normal -0 0 -1
    outer loop
      vertex 33.8 200 0
      vertex 33 190 0
      vertex 33 200 0
    endloop
  endfacet
  facet normal 0 -1 0
    outer loop
      vertex 33 190 0
      vertex 33.8 190 0.0999994
      vertex 33 190 0.0999994
    endloop
  endfacet
  facet normal 0 -1 -0
    outer loop
      vertex 33.8 190 0.0999994
      vertex 33 190 0
      vertex 33.8 190 0
    endloop
  endfacet
  facet normal 0 1 -0
    outer loop
      vertex 33.8 200 0
      vertex 33 200 0.0999994
      vertex 33.8 200 0.0999994
    endloop
  endfacet
  facet normal 0 1 0
    outer loop
      vertex 33 200 0.0999994
      vertex 33.8 200 0
      vertex 33 200 0
    endloop
  endfacet
  facet normal -1 0 0
    outer loop
      vertex 34 190 0
      vertex 34 200 0.0999994
      vertex 34 200 0
    endloop
  endfacet
  facet normal -1 -0 0
    outer loop
      vertex 34 200 0.0999994
      vertex 34 190 0
      vertex 34 190 0.0999994
    endloop
  endfacet
  facet normal -0 0 1
    outer loop
      vertex 34 200 0.0999994
      vertex 34.8 190 0.0999994
      vertex 34.8 200 0.0999994
    endloop
  endfacet
  facet normal 0 0 1
    outer loop
      vertex 34.8 190 0.0999994
      vertex 34 200 0.0999994
      vertex 34 190 0.0999994
    endloop
  endfacet
  facet normal 1 -0 0
    outer loop
      vertex 34.8 190 0.0999994
      vertex 34.8 200 0
      vertex 34.8 200 0.0999994
    endloop
  endfacet
  facet normal 1 0 0
    outer loop
      vertex 34.8 200 0
      vertex 34.8 190 0.0999994
      vertex 34.8 190 0
    endloop
  endfacet
  facet normal 0 1 -0
    outer loop
      vertex 34.8 200 0
      vertex 34 200 0.0999994
      vertex 34.8 200 0.0999994
    endloop
  endfacet
  facet normal 0 1 0
    outer loop
      vertex 34 200 0.0999994
      vertex 34.8 200 0
      vertex 34 200 0
    endloop
  endfacet
  facet normal 0 0 -1
    outer loop
      vertex 34 190 0
      vertex 34.8 200 0
      vertex 34.8 190 0
    endloop
  endfacet
  facet normal -0 0 -1
    outer loop
      vertex 34.8 200 0
      vertex 34 190 0
      vertex 34 200 0
    endloop
  endfacet
  facet normal 0 -1 0
    outer loop
      vertex 34 190 0
      vertex 34.8 190 0.0999994
      vertex 34 190 0.0999994
    endloop
  endfacet
  facet normal 0 -1 -0
    outer loop
      vertex 34.8 190 0.0999994
      vertex 34 190 0
      vertex 34.8 190 0
    endloop
  endfacet
  facet normal -1 0 0
    outer loop
      vertex 35 190 0
      vertex 35 200 0.0999994
      vertex 35 200 0
    endloop
  endfacet
  facet normal -1 -0 0
    outer loop
      vertex 35 200 0.0999994
      vertex 35 190 0
      vertex 35 190 0.0999994
    endloop
  endfacet
  facet normal -0 0 1
    outer loop
      vertex 35 200 0.0999994
      vertex 35.8 190 0.0999994
      vertex 35.8 200 0.0999994
    endloop
  endfacet
  facet normal 0 0 1
    outer loop
      vertex 35.8 190 0.0999994
      vertex 35 200 0.0999994
      vertex 35 190 0.0999994
    endloop
  endfacet
  facet normal 1 -0 0
    outer loop
      vertex 35.8 190 0.0999994
      vertex 35.8 200 0
      vertex 35.8 200 0.0999994
    endloop
  endfacet
  facet normal 1 0 0
    outer loop
      vertex 35.8 200 0
      vertex 35.8 190 0.0999994
      vertex 35.8 190 0
    endloop
  endfacet
  facet normal 0 1 -0
    outer loop
      vertex 35.8 200 0
      vertex 35 200 0.0999994
      vertex 35.8 200 0.0999994
    endloop
  endfacet
  facet normal 0 1 0
    outer loop
      vertex 35 200 0.0999994
      vertex 35.8 200 0
      vertex 35 200 0
    endloop
  endfacet
  facet normal 0 0 -1
    outer loop
      vertex 35 190 0
      vertex 35.8 200 0
      vertex 35.8 190 0
    endloop
  endfacet
  facet normal -0 0 -1
    outer loop
      vertex 35.8 200 0
      vertex 35 190 0
      vertex 35 200 0
    endloop
  endfacet
  facet normal 0 -1 0
    outer loop
      vertex 35 190 0
      vertex 35.8 190 0.0999994
      vertex 35 190 0.0999994
    endloop
  endfacet
  facet normal 0 -1 -0
    outer loop
      vertex 35.8 190 0.0999994
      vertex 35 190 0
      vertex 35.8 190 0
    endloop
  endfacet
  facet normal -1 0 0
    outer loop
      vertex 36 190 0
      vertex 36 200 0.0999994
      vertex 36 200 0
    endloop
  endfacet
  facet normal -1 -0 0
    outer loop
      vertex 36 200 0.0999994
      vertex 36 190 0
      vertex 36 190 0.0999994
    endloop
  endfacet
  facet normal -0 0 1
    outer loop
      vertex 36 200 0.0999994
      vertex 36.8 190 0.0999994
      vertex 36.8 200 0.0999994
    endloop
  endfacet
  facet normal 0 0 1
    outer loop
      vertex 36.8 190 0.0999994
      vertex 36 200 0.0999994
      vertex 36 190 0.0999994
    endloop
  endfacet
  facet normal 1 -0 0
    outer loop
      vertex 36.8 190 0.0999994
      vertex 36.8 200 0
      vertex 36.8 200 0.0999994
    endloop
  endfacet
  facet normal 1 0 0
    outer loop
      vertex 36.8 200 0
      vertex 36.8 190 0.0999994
      vertex 36.8 190 0
    endloop
  endfacet
  facet normal 0 1 -0
    outer loop
      vertex 36.8 200 0
      vertex 36 200 0.0999994
      vertex 36.8 200 0.0999994
    endloop
  endfacet
  facet normal 0 1 0
    outer loop
      vertex 36 200 0.0999994
      vertex 36.8 200 0
      vertex 36 200 0
    endloop
  endfacet
  facet normal 0 0 -1
    outer loop
      vertex 36 190 0
      vertex 36.8 200 0
      vertex 36.8 190 0
    endloop
  endfacet
  facet normal -0 0 -1
    outer loop
      vertex 36.8 200 0
      vertex 36 190 0
      vertex 36 200 0
    endloop
  endfacet
  facet normal 0 -1 0
    outer loop
      vertex 36 190 0
      vertex 36.8 190 0.0999994
      vertex 36 190 0.0999994
    endloop
  endfacet
  facet normal 0 -1 -0
    outer loop
      vertex 36.8 190 0.0999994
      vertex 36 190 0
      vertex 36.8 190 0
    endloop
  endfacet
  facet normal -1 0 0
    outer loop
      vertex 37 190 0
      vertex 37 200 0.0999994
      vertex 37 200 0
    endloop
  endfacet
  facet normal -1 -0 0
    outer loop
      vertex 37 200 0.0999994
      vertex 37 190 0
      vertex 37 190 0.0999994
    endloop
  endfacet
  facet normal -0 0 1
    outer loop
      vertex 37 200 0.0999994
      vertex 37.8 190 0.0999994
      vertex 37.8 200 0.0999994
    endloop
  endfacet
  facet normal 0 0 1
    outer loop
      vertex 37.8 190 0.0999994
      vertex 37 200 0.0999994
      vertex 37 190 0.0999994
    endloop
  endfacet
  facet normal 1 -0 0
    outer loop
      vertex 37.8 190 0.0999994
      vertex 37.8 200 0
      vertex 37.8 200 0.0999994
    endloop
  endfacet
  facet normal 1 0 0
    outer loop
      vertex 37.8 200 0
      vertex 37.8 190 0.0999994
      vertex 37.8 190 0
    endloop
  endfacet
  facet normal 0 1 -0
    outer loop
      vertex 37.8 200 0
      vertex 37 200 0.0999994
      vertex 37.8 200 0.0999994
    endloop
  endfacet
  facet normal 0 1 0
    outer loop
      vertex 37 200 0.0999994
      vertex 37.8 200 0
      vertex 37 200 0
    endloop
  endfacet
  facet normal 0 0 -1
    outer loop
      vertex 37 190 0
      vertex 37.8 200 0
      vertex 37.8 190 0
    endloop
  endfacet
  facet normal -0 0 -1
    outer loop
      vertex 37.8 200 0
      vertex 37 190 0
      vertex 37 200 0
    endloop
  endfacet
  facet normal 0 -1 0
    outer loop
      vertex 37 190 0
      vertex 37.8 190 0.0999994
      vertex 37 190 0.0999994
    endloop
  endfacet
  facet normal 0 -1 -0
    outer loop
      vertex 37.8 190 0.0999994
      vertex 37 190 0
      vertex 37.8 190 0
    endloop
  endfacet
  facet normal -1 0 0
    outer loop
      vertex 38 190 0
      vertex 38 200 0.0999994
      vertex 38 200 0
    endloop
  endfacet
  facet normal -1 -0 0
    outer loop
      vertex 38 200 0.0999994
      vertex 38 190 0
      vertex 38 190 0.0999994
    endloop
  endfacet
  facet normal -0 0 1
    outer loop
      vertex 38 200 0.0999994
      vertex 38.8 190 0.0999994
      vertex 38.8 200 0.0999994
    endloop
  endfacet
  facet normal 0 0 1
    outer loop
      vertex 38.8 190 0.0999994
      vertex 38 200 0.0999994
      vertex 38 190 0.0999994
    endloop
  endfacet
  facet normal 1 -0 0
    outer loop
      vertex 38.8 190 0.0999994
      vertex 38.8 200 0
      vertex 38.8 200 0.0999994
    endloop
  endfacet
  facet normal 1 0 0
    outer loop
      vertex 38.8 200 0
      vertex 38.8 190 0.0999994
      vertex 38.8 190 0
    endloop
  endfacet
  facet normal 0 1 -0
    outer loop
      vertex 38.8 200 0
      vertex 38 200 0.0999994
      vertex 38.8 200 0.0999994
    endloop
  endfacet
  facet normal 0 1 0
    outer loop
      vertex 38 200 0.0999994
      vertex 38.8 200 0
      vertex 38 200 0
    endloop
  endfacet
  facet normal 0 0 -1
    outer loop
      vertex 38 190 0
      vertex 38.8 200 0
      vertex 38.8 190 0
    endloop
  endfacet
  facet normal -0 0 -1
    outer loop
      vertex 38.8 200 0
      vertex 38 190 0
      vertex 38 200 0
    endloop
  endfacet
  facet normal 0 -1 0
    outer loop
      vertex 38 190 0
      vertex 38.8 190 0.0999994
      vertex 38 190 0.0999994
    endloop
  endfacet
  facet normal 0 -1 -0
    outer loop
      vertex 38.8 190 0.0999994
      vertex 38 190 0
      vertex 38.8 190 0
    endloop
  endfacet
  facet normal -1 0 0
    outer loop
      vertex 39 190 0
      vertex 39 200 0.0999994
      vertex 39 200 0
    endloop
  endfacet
  facet normal -1 -0 0
    outer loop
      vertex 39 200 0.0999994
      vertex 39 190 0
      vertex 39 190 0.0999994
    endloop
  endfacet
  facet normal -0 0 1
    outer loop
      vertex 39 200 0.0999994
      vertex 39.8 190 0.0999994
      vertex 39.8 200 0.0999994
    endloop
  endfacet
  facet normal 0 0 1
    outer loop
      vertex 39.8 190 0.0999994
      vertex 39 200 0.0999994
      vertex 39 190 0.0999994
    endloop
  endfacet
  facet normal 1 -0 0
    outer loop
      vertex 39.8 190 0.0999994
      vertex 39.8 200 0
      vertex 39.8 200 0.0999994
    endloop
  endfacet
  facet normal 1 0 0
    outer loop
      vertex 39.8 200 0
      vertex 39.8 190 0.0999994
      vertex 39.8 190 0
    endloop
  endfacet
  facet normal 0 0 -1
    outer loop
      vertex 39 190 0
      vertex 39.8 200 0
      vertex 39.8 190 0
    endloop
  endfacet
  facet normal -0 0 -1
    outer loop
      vertex 39.8 200 0
      vertex 39 190 0
      vertex 39 200 0
    endloop
  endfacet
  facet normal 0 -1 0
    outer loop
      vertex 39 190 0
      vertex 39.8 190 0.0999994
      vertex 39 190 0.0999994
    endloop
  endfacet
  facet normal 0 -1 -0
    outer loop
      vertex 39.8 190 0.0999994
      vertex 39 190 0
      vertex 39.8 190 0
    endloop
  endfacet
  facet normal 0 1 -0
    outer loop
      vertex 39.8 200 0
      vertex 39 200 0.0999994
      vertex 39.8 200 0.0999994
    endloop
  endfacet
  facet normal 0 1 0
    outer loop
      vertex 39 200 0.0999994
      vertex 39.8 200 0
      vertex 39 200 0
    endloop
  endfacet
  facet normal -1 0 0
    outer loop
      vertex 40 190 0
      vertex 40 200 0.0999994
      vertex 40 200 0
    endloop
  endfacet
  facet normal -1 -0 0
    outer loop
      vertex 40 200 0.0999994
      vertex 40 190 0
      vertex 40 190 0.0999994
    endloop
  endfacet
  facet normal -0 0 1
    outer loop
      vertex 40 200 0.0999994
      vertex 40.8 190 0.0999994
      vertex 40.8 200 0.0999994
    endloop
  endfacet
  facet normal 0 0 1
    outer loop
      vertex 40.8 190 0.0999994
      vertex 40 200 0.0999994
      vertex 40 190 0.0999994
    endloop
  endfacet
  facet normal 1 -0 0
    outer loop
      vertex 40.8 190 0.0999994
      vertex 40.8 200 0
      vertex 40.8 200 0.0999994
    endloop
  endfacet
  facet normal 1 0 0
    outer loop
      vertex 40.8 200 0
      vertex 40.8 190 0.0999994
      vertex 40.8 190 0
    endloop
  endfacet
  facet normal 0 1 -0
    outer loop
      vertex 40.8 200 0
      vertex 40 200 0.0999994
      vertex 40.8 200 0.0999994
    endloop
  endfacet
  facet normal 0 1 0
    outer loop
      vertex 40 200 0.0999994
      vertex 40.8 200 0
      vertex 40 200 0
    endloop
  endfacet
  facet normal 0 0 -1
    outer loop
      vertex 40 190 0
      vertex 40.8 200 0
      vertex 40.8 190 0
    endloop
  endfacet
  facet normal -0 0 -1
    outer loop
      vertex 40.8 200 0
      vertex 40 190 0
      vertex 40 200 0
    endloop
  endfacet
  facet normal 0 -1 0
    outer loop
      vertex 40 190 0
      vertex 40.8 190 0.0999994
      vertex 40 190 0.0999994
    endloop
  endfacet
  facet normal 0 -1 -0
    outer loop
      vertex 40.8 190 0.0999994
      vertex 40 190 0
      vertex 40.8 190 0
    endloop
  endfacet
endsolid OpenSCAD_Model
