solid OpenSCAD_Model
  facet normal -1 0 0
    outer loop
      vertex 30 70 0
      vertex 30 80 0.0999994
      vertex 30 80 0
    endloop
  endfacet
  facet normal -1 -0 0
    outer loop
      vertex 30 80 0.0999994
      vertex 30 70 0
      vertex 30 70 0.0999994
    endloop
  endfacet
  facet normal -0 0 1
    outer loop
      vertex 30 80 0.0999994
      vertex 30.8 70 0.0999994
      vertex 30.8 80 0.0999994
    endloop
  endfacet
  facet normal 0 0 1
    outer loop
      vertex 30.8 70 0.0999994
      vertex 30 80 0.0999994
      vertex 30 70 0.0999994
    endloop
  endfacet
  facet normal 1 -0 0
    outer loop
      vertex 30.8 70 0.0999994
      vertex 30.8 80 0
      vertex 30.8 80 0.0999994
    endloop
  endfacet
  facet normal 1 0 0
    outer loop
      vertex 30.8 80 0
      vertex 30.8 70 0.0999994
      vertex 30.8 70 0
    endloop
  endfacet
  facet normal 0 1 -0
    outer loop
      vertex 30.8 80 0
      vertex 30 80 0.0999994
      vertex 30.8 80 0.0999994
    endloop
  endfacet
  facet normal 0 1 0
    outer loop
      vertex 30 80 0.0999994
      vertex 30.8 80 0
      vertex 30 80 0
    endloop
  endfacet
  facet normal 0 0 -1
    outer loop
      vertex 30 70 0
      vertex 30.8 80 0
      vertex 30.8 70 0
    endloop
  endfacet
  facet normal -0 0 -1
    outer loop
      vertex 30.8 80 0
      vertex 30 70 0
      vertex 30 80 0
    endloop
  endfacet
  facet normal 0 -1 0
    outer loop
      vertex 30 70 0
      vertex 30.8 70 0.0999994
      vertex 30 70 0.0999994
    endloop
  endfacet
  facet normal 0 -1 -0
    outer loop
      vertex 30.8 70 0.0999994
      vertex 30 70 0
      vertex 30.8 70 0
    endloop
  endfacet
  facet normal -1 0 0
    outer loop
      vertex 31 70 0
      vertex 31 80 0.0999994
      vertex 31 80 0
    endloop
  endfacet
  facet normal -1 -0 0
    outer loop
      vertex 31 80 0.0999994
      vertex 31 70 0
      vertex 31 70 0.0999994
    endloop
  endfacet
  facet normal -0 0 1
    outer loop
      vertex 31 80 0.0999994
      vertex 31.8 70 0.0999994
      vertex 31.8 80 0.0999994
    endloop
  endfacet
  facet normal 0 0 1
    outer loop
      vertex 31.8 70 0.0999994
      vertex 31 80 0.0999994
      vertex 31 70 0.0999994
    endloop
  endfacet
  facet normal 1 -0 0
    outer loop
      vertex 31.8 70 0.0999994
      vertex 31.8 80 0
      vertex 31.8 80 0.0999994
    endloop
  endfacet
  facet normal 1 0 0
    outer loop
      vertex 31.8 80 0
      vertex 31.8 70 0.0999994
      vertex 31.8 70 0
    endloop
  endfacet
  facet normal 0 1 -0
    outer loop
      vertex 31.8 80 0
      vertex 31 80 0.0999994
      vertex 31.8 80 0.0999994
    endloop
  endfacet
  facet normal 0 1 0
    outer loop
      vertex 31 80 0.0999994
      vertex 31.8 80 0
      vertex 31 80 0
    endloop
  endfacet
  facet normal 0 0 -1
    outer loop
      vertex 31 70 0
      vertex 31.8 80 0
      vertex 31.8 70 0
    endloop
  endfacet
  facet normal -0 0 -1
    outer loop
      vertex 31.8 80 0
      vertex 31 70 0
      vertex 31 80 0
    endloop
  endfacet
  facet normal 0 -1 0
    outer loop
      vertex 31 70 0
      vertex 31.8 70 0.0999994
      vertex 31 70 0.0999994
    endloop
  endfacet
  facet normal 0 -1 -0
    outer loop
      vertex 31.8 70 0.0999994
      vertex 31 70 0
      vertex 31.8 70 0
    endloop
  endfacet
  facet normal -1 0 0
    outer loop
      vertex 32 70 0
      vertex 32 80 0.0999994
      vertex 32 80 0
    endloop
  endfacet
  facet normal -1 -0 0
    outer loop
      vertex 32 80 0.0999994
      vertex 32 70 0
      vertex 32 70 0.0999994
    endloop
  endfacet
  facet normal -0 0 1
    outer loop
      vertex 32 80 0.0999994
      vertex 32.8 70 0.0999994
      vertex 32.8 80 0.0999994
    endloop
  endfacet
  facet normal 0 0 1
    outer loop
      vertex 32.8 70 0.0999994
      vertex 32 80 0.0999994
      vertex 32 70 0.0999994
    endloop
  endfacet
  facet normal 1 -0 0
    outer loop
      vertex 32.8 70 0.0999994
      vertex 32.8 80 0
      vertex 32.8 80 0.0999994
    endloop
  endfacet
  facet normal 1 0 0
    outer loop
      vertex 32.8 80 0
      vertex 32.8 70 0.0999994
      vertex 32.8 70 0
    endloop
  endfacet
  facet normal 0 0 -1
    outer loop
      vertex 32 70 0
      vertex 32.8 80 0
      vertex 32.8 70 0
    endloop
  endfacet
  facet normal -0 0 -1
    outer loop
      vertex 32.8 80 0
      vertex 32 70 0
      vertex 32 80 0
    endloop
  endfacet
  facet normal 0 -1 0
    outer loop
      vertex 32 70 0
      vertex 32.8 70 0.0999994
      vertex 32 70 0.0999994
    endloop
  endfacet
  facet normal 0 -1 -0
    outer loop
      vertex 32.8 70 0.0999994
      vertex 32 70 0
      vertex 32.8 70 0
    endloop
  endfacet
  facet normal 0 1 -0
    outer loop
      vertex 32.8 80 0
      vertex 32 80 0.0999994
      vertex 32.8 80 0.0999994
    endloop
  endfacet
  facet normal 0 1 0
    outer loop
      vertex 32 80 0.0999994
      vertex 32.8 80 0
      vertex 32 80 0
    endloop
  endfacet
  facet normal -1 0 0
    outer loop
      vertex 33 70 0
      vertex 33 80 0.0999994
      vertex 33 80 0
    endloop
  endfacet
  facet normal -1 -0 0
    outer loop
      vertex 33 80 0.0999994
      vertex 33 70 0
      vertex 33 70 0.0999994
    endloop
  endfacet
  facet normal -0 0 1
    outer loop
      vertex 33 80 0.0999994
      vertex 33.8 70 0.0999994
      vertex 33.8 80 0.0999994
    endloop
  endfacet
  facet normal 0 0 1
    outer loop
      vertex 33.8 70 0.0999994
      vertex 33 80 0.0999994
      vertex 33 70 0.0999994
    endloop
  endfacet
  facet normal 1 -0 0
    outer loop
      vertex 33.8 70 0.0999994
      vertex 33.8 80 0
      vertex 33.8 80 0.0999994
    endloop
  endfacet
  facet normal 1 0 0
    outer loop
      vertex 33.8 80 0
      vertex 33.8 70 0.0999994
      vertex 33.8 70 0
    endloop
  endfacet
  facet normal 0 1 -0
    outer loop
      vertex 33.8 80 0
      vertex 33 80 0.0999994
      vertex 33.8 80 0.0999994
    endloop
  endfacet
  facet normal 0 1 0
    outer loop
      vertex 33 80 0.0999994
      vertex 33.8 80 0
      vertex 33 80 0
    endloop
  endfacet
  facet normal 0 0 -1
    outer loop
      vertex 33 70 0
      vertex 33.8 80 0
      vertex 33.8 70 0
    endloop
  endfacet
  facet normal -0 0 -1
    outer loop
      vertex 33.8 80 0
      vertex 33 70 0
      vertex 33 80 0
    endloop
  endfacet
  facet normal 0 -1 0
    outer loop
      vertex 33 70 0
      vertex 33.8 70 0.0999994
      vertex 33 70 0.0999994
    endloop
  endfacet
  facet normal 0 -1 -0
    outer loop
      vertex 33.8 70 0.0999994
      vertex 33 70 0
      vertex 33.8 70 0
    endloop
  endfacet
  facet normal -1 0 0
    outer loop
      vertex 34 70 0
      vertex 34 80 0.0999994
      vertex 34 80 0
    endloop
  endfacet
  facet normal -1 -0 0
    outer loop
      vertex 34 80 0.0999994
      vertex 34 70 0
      vertex 34 70 0.0999994
    endloop
  endfacet
  facet normal -0 0 1
    outer loop
      vertex 34 80 0.0999994
      vertex 34.8 70 0.0999994
      vertex 34.8 80 0.0999994
    endloop
  endfacet
  facet normal 0 0 1
    outer loop
      vertex 34.8 70 0.0999994
      vertex 34 80 0.0999994
      vertex 34 70 0.0999994
    endloop
  endfacet
  facet normal 1 -0 0
    outer loop
      vertex 34.8 70 0.0999994
      vertex 34.8 80 0
      vertex 34.8 80 0.0999994
    endloop
  endfacet
  facet normal 1 0 0
    outer loop
      vertex 34.8 80 0
      vertex 34.8 70 0.0999994
      vertex 34.8 70 0
    endloop
  endfacet
  facet normal 0 1 -0
    outer loop
      vertex 34.8 80 0
      vertex 34 80 0.0999994
      vertex 34.8 80 0.0999994
    endloop
  endfacet
  facet normal 0 1 0
    outer loop
      vertex 34 80 0.0999994
      vertex 34.8 80 0
      vertex 34 80 0
    endloop
  endfacet
  facet normal 0 0 -1
    outer loop
      vertex 34 70 0
      vertex 34.8 80 0
      vertex 34.8 70 0
    endloop
  endfacet
  facet normal -0 0 -1
    outer loop
      vertex 34.8 80 0
      vertex 34 70 0
      vertex 34 80 0
    endloop
  endfacet
  facet normal 0 -1 0
    outer loop
      vertex 34 70 0
      vertex 34.8 70 0.0999994
      vertex 34 70 0.0999994
    endloop
  endfacet
  facet normal 0 -1 -0
    outer loop
      vertex 34.8 70 0.0999994
      vertex 34 70 0
      vertex 34.8 70 0
    endloop
  endfacet
  facet normal -1 0 0
    outer loop
      vertex 35 70 0
      vertex 35 80 0.0999994
      vertex 35 80 0
    endloop
  endfacet
  facet normal -1 -0 0
    outer loop
      vertex 35 80 0.0999994
      vertex 35 70 0
      vertex 35 70 0.0999994
    endloop
  endfacet
  facet normal -0 0 1
    outer loop
      vertex 35 80 0.0999994
      vertex 35.8 70 0.0999994
      vertex 35.8 80 0.0999994
    endloop
  endfacet
  facet normal 0 0 1
    outer loop
      vertex 35.8 70 0.0999994
      vertex 35 80 0.0999994
      vertex 35 70 0.0999994
    endloop
  endfacet
  facet normal 1 -0 0
    outer loop
      vertex 35.8 70 0.0999994
      vertex 35.8 80 0
      vertex 35.8 80 0.0999994
    endloop
  endfacet
  facet normal 1 0 0
    outer loop
      vertex 35.8 80 0
      vertex 35.8 70 0.0999994
      vertex 35.8 70 0
    endloop
  endfacet
  facet normal 0 1 -0
    outer loop
      vertex 35.8 80 0
      vertex 35 80 0.0999994
      vertex 35.8 80 0.0999994
    endloop
  endfacet
  facet normal 0 1 0
    outer loop
      vertex 35 80 0.0999994
      vertex 35.8 80 0
      vertex 35 80 0
    endloop
  endfacet
  facet normal 0 0 -1
    outer loop
      vertex 35 70 0
      vertex 35.8 80 0
      vertex 35.8 70 0
    endloop
  endfacet
  facet normal -0 0 -1
    outer loop
      vertex 35.8 80 0
      vertex 35 70 0
      vertex 35 80 0
    endloop
  endfacet
  facet normal 0 -1 0
    outer loop
      vertex 35 70 0
      vertex 35.8 70 0.0999994
      vertex 35 70 0.0999994
    endloop
  endfacet
  facet normal 0 -1 -0
    outer loop
      vertex 35.8 70 0.0999994
      vertex 35 70 0
      vertex 35.8 70 0
    endloop
  endfacet
  facet normal -1 0 0
    outer loop
      vertex 36 70 0
      vertex 36 80 0.0999994
      vertex 36 80 0
    endloop
  endfacet
  facet normal -1 -0 0
    outer loop
      vertex 36 80 0.0999994
      vertex 36 70 0
      vertex 36 70 0.0999994
    endloop
  endfacet
  facet normal -0 0 1
    outer loop
      vertex 36 80 0.0999994
      vertex 36.8 70 0.0999994
      vertex 36.8 80 0.0999994
    endloop
  endfacet
  facet normal 0 0 1
    outer loop
      vertex 36.8 70 0.0999994
      vertex 36 80 0.0999994
      vertex 36 70 0.0999994
    endloop
  endfacet
  facet normal 1 -0 0
    outer loop
      vertex 36.8 70 0.0999994
      vertex 36.8 80 0
      vertex 36.8 80 0.0999994
    endloop
  endfacet
  facet normal 1 0 0
    outer loop
      vertex 36.8 80 0
      vertex 36.8 70 0.0999994
      vertex 36.8 70 0
    endloop
  endfacet
  facet normal 0 1 -0
    outer loop
      vertex 36.8 80 0
      vertex 36 80 0.0999994
      vertex 36.8 80 0.0999994
    endloop
  endfacet
  facet normal 0 1 0
    outer loop
      vertex 36 80 0.0999994
      vertex 36.8 80 0
      vertex 36 80 0
    endloop
  endfacet
  facet normal 0 0 -1
    outer loop
      vertex 36 70 0
      vertex 36.8 80 0
      vertex 36.8 70 0
    endloop
  endfacet
  facet normal -0 0 -1
    outer loop
      vertex 36.8 80 0
      vertex 36 70 0
      vertex 36 80 0
    endloop
  endfacet
  facet normal 0 -1 0
    outer loop
      vertex 36 70 0
      vertex 36.8 70 0.0999994
      vertex 36 70 0.0999994
    endloop
  endfacet
  facet normal 0 -1 -0
    outer loop
      vertex 36.8 70 0.0999994
      vertex 36 70 0
      vertex 36.8 70 0
    endloop
  endfacet
  facet normal -1 0 0
    outer loop
      vertex 37 70 0
      vertex 37 80 0.0999994
      vertex 37 80 0
    endloop
  endfacet
  facet normal -1 -0 0
    outer loop
      vertex 37 80 0.0999994
      vertex 37 70 0
      vertex 37 70 0.0999994
    endloop
  endfacet
  facet normal -0 0 1
    outer loop
      vertex 37 80 0.0999994
      vertex 37.8 70 0.0999994
      vertex 37.8 80 0.0999994
    endloop
  endfacet
  facet normal 0 0 1
    outer loop
      vertex 37.8 70 0.0999994
      vertex 37 80 0.0999994
      vertex 37 70 0.0999994
    endloop
  endfacet
  facet normal 1 -0 0
    outer loop
      vertex 37.8 70 0.0999994
      vertex 37.8 80 0
      vertex 37.8 80 0.0999994
    endloop
  endfacet
  facet normal 1 0 0
    outer loop
      vertex 37.8 80 0
      vertex 37.8 70 0.0999994
      vertex 37.8 70 0
    endloop
  endfacet
  facet normal 0 1 -0
    outer loop
      vertex 37.8 80 0
      vertex 37 80 0.0999994
      vertex 37.8 80 0.0999994
    endloop
  endfacet
  facet normal 0 1 0
    outer loop
      vertex 37 80 0.0999994
      vertex 37.8 80 0
      vertex 37 80 0
    endloop
  endfacet
  facet normal 0 0 -1
    outer loop
      vertex 37 70 0
      vertex 37.8 80 0
      vertex 37.8 70 0
    endloop
  endfacet
  facet normal -0 0 -1
    outer loop
      vertex 37.8 80 0
      vertex 37 70 0
      vertex 37 80 0
    endloop
  endfacet
  facet normal 0 -1 0
    outer loop
      vertex 37 70 0
      vertex 37.8 70 0.0999994
      vertex 37 70 0.0999994
    endloop
  endfacet
  facet normal 0 -1 -0
    outer loop
      vertex 37.8 70 0.0999994
      vertex 37 70 0
      vertex 37.8 70 0
    endloop
  endfacet
  facet normal -1 0 0
    outer loop
      vertex 38 70 0
      vertex 38 80 0.0999994
      vertex 38 80 0
    endloop
  endfacet
  facet normal -1 -0 0
    outer loop
      vertex 38 80 0.0999994
      vertex 38 70 0
      vertex 38 70 0.0999994
    endloop
  endfacet
  facet normal -0 0 1
    outer loop
      vertex 38 80 0.0999994
      vertex 38.8 70 0.0999994
      vertex 38.8 80 0.0999994
    endloop
  endfacet
  facet normal 0 0 1
    outer loop
      vertex 38.8 70 0.0999994
      vertex 38 80 0.0999994
      vertex 38 70 0.0999994
    endloop
  endfacet
  facet normal 1 -0 0
    outer loop
      vertex 38.8 70 0.0999994
      vertex 38.8 80 0
      vertex 38.8 80 0.0999994
    endloop
  endfacet
  facet normal 1 0 0
    outer loop
      vertex 38.8 80 0
      vertex 38.8 70 0.0999994
      vertex 38.8 70 0
    endloop
  endfacet
  facet normal 0 1 -0
    outer loop
      vertex 38.8 80 0
      vertex 38 80 0.0999994
      vertex 38.8 80 0.0999994
    endloop
  endfacet
  facet normal 0 1 0
    outer loop
      vertex 38 80 0.0999994
      vertex 38.8 80 0
      vertex 38 80 0
    endloop
  endfacet
  facet normal 0 0 -1
    outer loop
      vertex 38 70 0
      vertex 38.8 80 0
      vertex 38.8 70 0
    endloop
  endfacet
  facet normal -0 0 -1
    outer loop
      vertex 38.8 80 0
      vertex 38 70 0
      vertex 38 80 0
    endloop
  endfacet
  facet normal 0 -1 0
    outer loop
      vertex 38 70 0
      vertex 38.8 70 0.0999994
      vertex 38 70 0.0999994
    endloop
  endfacet
  facet normal 0 -1 -0
    outer loop
      vertex 38.8 70 0.0999994
      vertex 38 70 0
      vertex 38.8 70 0
    endloop
  endfacet
  facet normal -1 0 0
    outer loop
      vertex 39 70 0
      vertex 39 80 0.0999994
      vertex 39 80 0
    endloop
  endfacet
  facet normal -1 -0 0
    outer loop
      vertex 39 80 0.0999994
      vertex 39 70 0
      vertex 39 70 0.0999994
    endloop
  endfacet
  facet normal -0 0 1
    outer loop
      vertex 39 80 0.0999994
      vertex 39.8 70 0.0999994
      vertex 39.8 80 0.0999994
    endloop
  endfacet
  facet normal 0 0 1
    outer loop
      vertex 39.8 70 0.0999994
      vertex 39 80 0.0999994
      vertex 39 70 0.0999994
    endloop
  endfacet
  facet normal 1 -0 0
    outer loop
      vertex 39.8 70 0.0999994
      vertex 39.8 80 0
      vertex 39.8 80 0.0999994
    endloop
  endfacet
  facet normal 1 0 0
    outer loop
      vertex 39.8 80 0
      vertex 39.8 70 0.0999994
      vertex 39.8 70 0
    endloop
  endfacet
  facet normal 0 0 -1
    outer loop
      vertex 39 70 0
      vertex 39.8 80 0
      vertex 39.8 70 0
    endloop
  endfacet
  facet normal -0 0 -1
    outer loop
      vertex 39.8 80 0
      vertex 39 70 0
      vertex 39 80 0
    endloop
  endfacet
  facet normal 0 -1 0
    outer loop
      vertex 39 70 0
      vertex 39.8 70 0.0999994
      vertex 39 70 0.0999994
    endloop
  endfacet
  facet normal 0 -1 -0
    outer loop
      vertex 39.8 70 0.0999994
      vertex 39 70 0
      vertex 39.8 70 0
    endloop
  endfacet
  facet normal 0 1 -0
    outer loop
      vertex 39.8 80 0
      vertex 39 80 0.0999994
      vertex 39.8 80 0.0999994
    endloop
  endfacet
  facet normal 0 1 0
    outer loop
      vertex 39 80 0.0999994
      vertex 39.8 80 0
      vertex 39 80 0
    endloop
  endfacet
  facet normal -1 0 0
    outer loop
      vertex 40 70 0
      vertex 40 80 0.0999994
      vertex 40 80 0
    endloop
  endfacet
  facet normal -1 -0 0
    outer loop
      vertex 40 80 0.0999994
      vertex 40 70 0
      vertex 40 70 0.0999994
    endloop
  endfacet
  facet normal -0 0 1
    outer loop
      vertex 40 80 0.0999994
      vertex 40.8 70 0.0999994
      vertex 40.8 80 0.0999994
    endloop
  endfacet
  facet normal 0 0 1
    outer loop
      vertex 40.8 70 0.0999994
      vertex 40 80 0.0999994
      vertex 40 70 0.0999994
    endloop
  endfacet
  facet normal 1 -0 0
    outer loop
      vertex 40.8 70 0.0999994
      vertex 40.8 80 0
      vertex 40.8 80 0.0999994
    endloop
  endfacet
  facet normal 1 0 0
    outer loop
      vertex 40.8 80 0
      vertex 40.8 70 0.0999994
      vertex 40.8 70 0
    endloop
  endfacet
  facet normal 0 0 -1
    outer loop
      vertex 40 70 0
      vertex 40.8 80 0
      vertex 40.8 70 0
    endloop
  endfacet
  facet normal -0 0 -1
    outer loop
      vertex 40.8 80 0
      vertex 40 70 0
      vertex 40 80 0
    endloop
  endfacet
  facet normal 0 -1 0
    outer loop
      vertex 40 70 0
      vertex 40.8 70 0.0999994
      vertex 40 70 0.0999994
    endloop
  endfacet
  facet normal 0 -1 -0
    outer loop
      vertex 40.8 70 0.0999994
      vertex 40 70 0
      vertex 40.8 70 0
    endloop
  endfacet
  facet normal 0 1 -0
    outer loop
      vertex 40.8 80 0
      vertex 40 80 0.0999994
      vertex 40.8 80 0.0999994
    endloop
  endfacet
  facet normal 0 1 0
    outer loop
      vertex 40 80 0.0999994
      vertex 40.8 80 0
      vertex 40 80 0
    endloop
  endfacet
endsolid OpenSCAD_Model
