solid OpenSCAD_Model
  facet normal -1 0 0
    outer loop
      vertex 150 190 0
      vertex 150 200 0.0999994
      vertex 150 200 0
    endloop
  endfacet
  facet normal -1 -0 0
    outer loop
      vertex 150 200 0.0999994
      vertex 150 190 0
      vertex 150 190 0.0999994
    endloop
  endfacet
  facet normal -0 0 1
    outer loop
      vertex 150 200 0.0999994
      vertex 150.8 190 0.0999994
      vertex 150.8 200 0.0999994
    endloop
  endfacet
  facet normal 0 0 1
    outer loop
      vertex 150.8 190 0.0999994
      vertex 150 200 0.0999994
      vertex 150 190 0.0999994
    endloop
  endfacet
  facet normal 1 -0 0
    outer loop
      vertex 150.8 190 0.0999994
      vertex 150.8 200 0
      vertex 150.8 200 0.0999994
    endloop
  endfacet
  facet normal 1 0 0
    outer loop
      vertex 150.8 200 0
      vertex 150.8 190 0.0999994
      vertex 150.8 190 0
    endloop
  endfacet
  facet normal 0 0 -1
    outer loop
      vertex 150 190 0
      vertex 150.8 200 0
      vertex 150.8 190 0
    endloop
  endfacet
  facet normal -0 0 -1
    outer loop
      vertex 150.8 200 0
      vertex 150 190 0
      vertex 150 200 0
    endloop
  endfacet
  facet normal 0 -1 0
    outer loop
      vertex 150 190 0
      vertex 150.8 190 0.0999994
      vertex 150 190 0.0999994
    endloop
  endfacet
  facet normal 0 -1 -0
    outer loop
      vertex 150.8 190 0.0999994
      vertex 150 190 0
      vertex 150.8 190 0
    endloop
  endfacet
  facet normal 0 1 -0
    outer loop
      vertex 150.8 200 0
      vertex 150 200 0.0999994
      vertex 150.8 200 0.0999994
    endloop
  endfacet
  facet normal 0 1 0
    outer loop
      vertex 150 200 0.0999994
      vertex 150.8 200 0
      vertex 150 200 0
    endloop
  endfacet
  facet normal -1 0 0
    outer loop
      vertex 151 190 0
      vertex 151 200 0.0999994
      vertex 151 200 0
    endloop
  endfacet
  facet normal -1 -0 0
    outer loop
      vertex 151 200 0.0999994
      vertex 151 190 0
      vertex 151 190 0.0999994
    endloop
  endfacet
  facet normal -0 0 1
    outer loop
      vertex 151 200 0.0999994
      vertex 151.8 190 0.0999994
      vertex 151.8 200 0.0999994
    endloop
  endfacet
  facet normal 0 0 1
    outer loop
      vertex 151.8 190 0.0999994
      vertex 151 200 0.0999994
      vertex 151 190 0.0999994
    endloop
  endfacet
  facet normal 1 -0 0
    outer loop
      vertex 151.8 190 0.0999994
      vertex 151.8 200 0
      vertex 151.8 200 0.0999994
    endloop
  endfacet
  facet normal 1 0 0
    outer loop
      vertex 151.8 200 0
      vertex 151.8 190 0.0999994
      vertex 151.8 190 0
    endloop
  endfacet
  facet normal 0 1 -0
    outer loop
      vertex 151.8 200 0
      vertex 151 200 0.0999994
      vertex 151.8 200 0.0999994
    endloop
  endfacet
  facet normal 0 1 0
    outer loop
      vertex 151 200 0.0999994
      vertex 151.8 200 0
      vertex 151 200 0
    endloop
  endfacet
  facet normal 0 0 -1
    outer loop
      vertex 151 190 0
      vertex 151.8 200 0
      vertex 151.8 190 0
    endloop
  endfacet
  facet normal -0 0 -1
    outer loop
      vertex 151.8 200 0
      vertex 151 190 0
      vertex 151 200 0
    endloop
  endfacet
  facet normal 0 -1 0
    outer loop
      vertex 151 190 0
      vertex 151.8 190 0.0999994
      vertex 151 190 0.0999994
    endloop
  endfacet
  facet normal 0 -1 -0
    outer loop
      vertex 151.8 190 0.0999994
      vertex 151 190 0
      vertex 151.8 190 0
    endloop
  endfacet
  facet normal -1 0 0
    outer loop
      vertex 152 190 0
      vertex 152 200 0.0999994
      vertex 152 200 0
    endloop
  endfacet
  facet normal -1 -0 0
    outer loop
      vertex 152 200 0.0999994
      vertex 152 190 0
      vertex 152 190 0.0999994
    endloop
  endfacet
  facet normal -0 0 1
    outer loop
      vertex 152 200 0.0999994
      vertex 152.8 190 0.0999994
      vertex 152.8 200 0.0999994
    endloop
  endfacet
  facet normal 0 0 1
    outer loop
      vertex 152.8 190 0.0999994
      vertex 152 200 0.0999994
      vertex 152 190 0.0999994
    endloop
  endfacet
  facet normal 1 -0 0
    outer loop
      vertex 152.8 190 0.0999994
      vertex 152.8 200 0
      vertex 152.8 200 0.0999994
    endloop
  endfacet
  facet normal 1 0 0
    outer loop
      vertex 152.8 200 0
      vertex 152.8 190 0.0999994
      vertex 152.8 190 0
    endloop
  endfacet
  facet normal 0 0 -1
    outer loop
      vertex 152 190 0
      vertex 152.8 200 0
      vertex 152.8 190 0
    endloop
  endfacet
  facet normal -0 0 -1
    outer loop
      vertex 152.8 200 0
      vertex 152 190 0
      vertex 152 200 0
    endloop
  endfacet
  facet normal 0 -1 0
    outer loop
      vertex 152 190 0
      vertex 152.8 190 0.0999994
      vertex 152 190 0.0999994
    endloop
  endfacet
  facet normal 0 -1 -0
    outer loop
      vertex 152.8 190 0.0999994
      vertex 152 190 0
      vertex 152.8 190 0
    endloop
  endfacet
  facet normal 0 1 -0
    outer loop
      vertex 152.8 200 0
      vertex 152 200 0.0999994
      vertex 152.8 200 0.0999994
    endloop
  endfacet
  facet normal 0 1 0
    outer loop
      vertex 152 200 0.0999994
      vertex 152.8 200 0
      vertex 152 200 0
    endloop
  endfacet
  facet normal -1 0 0
    outer loop
      vertex 153 190 0
      vertex 153 200 0.0999994
      vertex 153 200 0
    endloop
  endfacet
  facet normal -1 -0 0
    outer loop
      vertex 153 200 0.0999994
      vertex 153 190 0
      vertex 153 190 0.0999994
    endloop
  endfacet
  facet normal -0 0 1
    outer loop
      vertex 153 200 0.0999994
      vertex 153.8 190 0.0999994
      vertex 153.8 200 0.0999994
    endloop
  endfacet
  facet normal 0 0 1
    outer loop
      vertex 153.8 190 0.0999994
      vertex 153 200 0.0999994
      vertex 153 190 0.0999994
    endloop
  endfacet
  facet normal 1 -0 0
    outer loop
      vertex 153.8 190 0.0999994
      vertex 153.8 200 0
      vertex 153.8 200 0.0999994
    endloop
  endfacet
  facet normal 1 0 0
    outer loop
      vertex 153.8 200 0
      vertex 153.8 190 0.0999994
      vertex 153.8 190 0
    endloop
  endfacet
  facet normal 0 0 -1
    outer loop
      vertex 153 190 0
      vertex 153.8 200 0
      vertex 153.8 190 0
    endloop
  endfacet
  facet normal -0 0 -1
    outer loop
      vertex 153.8 200 0
      vertex 153 190 0
      vertex 153 200 0
    endloop
  endfacet
  facet normal 0 -1 0
    outer loop
      vertex 153 190 0
      vertex 153.8 190 0.0999994
      vertex 153 190 0.0999994
    endloop
  endfacet
  facet normal 0 -1 -0
    outer loop
      vertex 153.8 190 0.0999994
      vertex 153 190 0
      vertex 153.8 190 0
    endloop
  endfacet
  facet normal 0 1 -0
    outer loop
      vertex 153.8 200 0
      vertex 153 200 0.0999994
      vertex 153.8 200 0.0999994
    endloop
  endfacet
  facet normal 0 1 0
    outer loop
      vertex 153 200 0.0999994
      vertex 153.8 200 0
      vertex 153 200 0
    endloop
  endfacet
  facet normal -1 0 0
    outer loop
      vertex 154 190 0
      vertex 154 200 0.0999994
      vertex 154 200 0
    endloop
  endfacet
  facet normal -1 -0 0
    outer loop
      vertex 154 200 0.0999994
      vertex 154 190 0
      vertex 154 190 0.0999994
    endloop
  endfacet
  facet normal -0 0 1
    outer loop
      vertex 154 200 0.0999994
      vertex 154.8 190 0.0999994
      vertex 154.8 200 0.0999994
    endloop
  endfacet
  facet normal 0 0 1
    outer loop
      vertex 154.8 190 0.0999994
      vertex 154 200 0.0999994
      vertex 154 190 0.0999994
    endloop
  endfacet
  facet normal 1 -0 0
    outer loop
      vertex 154.8 190 0.0999994
      vertex 154.8 200 0
      vertex 154.8 200 0.0999994
    endloop
  endfacet
  facet normal 1 0 0
    outer loop
      vertex 154.8 200 0
      vertex 154.8 190 0.0999994
      vertex 154.8 190 0
    endloop
  endfacet
  facet normal 0 1 -0
    outer loop
      vertex 154.8 200 0
      vertex 154 200 0.0999994
      vertex 154.8 200 0.0999994
    endloop
  endfacet
  facet normal 0 1 0
    outer loop
      vertex 154 200 0.0999994
      vertex 154.8 200 0
      vertex 154 200 0
    endloop
  endfacet
  facet normal 0 0 -1
    outer loop
      vertex 154 190 0
      vertex 154.8 200 0
      vertex 154.8 190 0
    endloop
  endfacet
  facet normal -0 0 -1
    outer loop
      vertex 154.8 200 0
      vertex 154 190 0
      vertex 154 200 0
    endloop
  endfacet
  facet normal 0 -1 0
    outer loop
      vertex 154 190 0
      vertex 154.8 190 0.0999994
      vertex 154 190 0.0999994
    endloop
  endfacet
  facet normal 0 -1 -0
    outer loop
      vertex 154.8 190 0.0999994
      vertex 154 190 0
      vertex 154.8 190 0
    endloop
  endfacet
  facet normal -1 0 0
    outer loop
      vertex 155 190 0
      vertex 155 200 0.0999994
      vertex 155 200 0
    endloop
  endfacet
  facet normal -1 -0 0
    outer loop
      vertex 155 200 0.0999994
      vertex 155 190 0
      vertex 155 190 0.0999994
    endloop
  endfacet
  facet normal -0 0 1
    outer loop
      vertex 155 200 0.0999994
      vertex 155.8 190 0.0999994
      vertex 155.8 200 0.0999994
    endloop
  endfacet
  facet normal 0 0 1
    outer loop
      vertex 155.8 190 0.0999994
      vertex 155 200 0.0999994
      vertex 155 190 0.0999994
    endloop
  endfacet
  facet normal 1 -0 0
    outer loop
      vertex 155.8 190 0.0999994
      vertex 155.8 200 0
      vertex 155.8 200 0.0999994
    endloop
  endfacet
  facet normal 1 0 0
    outer loop
      vertex 155.8 200 0
      vertex 155.8 190 0.0999994
      vertex 155.8 190 0
    endloop
  endfacet
  facet normal 0 0 -1
    outer loop
      vertex 155 190 0
      vertex 155.8 200 0
      vertex 155.8 190 0
    endloop
  endfacet
  facet normal -0 0 -1
    outer loop
      vertex 155.8 200 0
      vertex 155 190 0
      vertex 155 200 0
    endloop
  endfacet
  facet normal 0 -1 0
    outer loop
      vertex 155 190 0
      vertex 155.8 190 0.0999994
      vertex 155 190 0.0999994
    endloop
  endfacet
  facet normal 0 -1 -0
    outer loop
      vertex 155.8 190 0.0999994
      vertex 155 190 0
      vertex 155.8 190 0
    endloop
  endfacet
  facet normal 0 1 -0
    outer loop
      vertex 155.8 200 0
      vertex 155 200 0.0999994
      vertex 155.8 200 0.0999994
    endloop
  endfacet
  facet normal 0 1 0
    outer loop
      vertex 155 200 0.0999994
      vertex 155.8 200 0
      vertex 155 200 0
    endloop
  endfacet
  facet normal -1 0 0
    outer loop
      vertex 156 190 0
      vertex 156 200 0.0999994
      vertex 156 200 0
    endloop
  endfacet
  facet normal -1 -0 0
    outer loop
      vertex 156 200 0.0999994
      vertex 156 190 0
      vertex 156 190 0.0999994
    endloop
  endfacet
  facet normal -0 0 1
    outer loop
      vertex 156 200 0.0999994
      vertex 156.8 190 0.0999994
      vertex 156.8 200 0.0999994
    endloop
  endfacet
  facet normal 0 0 1
    outer loop
      vertex 156.8 190 0.0999994
      vertex 156 200 0.0999994
      vertex 156 190 0.0999994
    endloop
  endfacet
  facet normal 1 -0 0
    outer loop
      vertex 156.8 190 0.0999994
      vertex 156.8 200 0
      vertex 156.8 200 0.0999994
    endloop
  endfacet
  facet normal 1 0 0
    outer loop
      vertex 156.8 200 0
      vertex 156.8 190 0.0999994
      vertex 156.8 190 0
    endloop
  endfacet
  facet normal 0 1 -0
    outer loop
      vertex 156.8 200 0
      vertex 156 200 0.0999994
      vertex 156.8 200 0.0999994
    endloop
  endfacet
  facet normal 0 1 0
    outer loop
      vertex 156 200 0.0999994
      vertex 156.8 200 0
      vertex 156 200 0
    endloop
  endfacet
  facet normal 0 0 -1
    outer loop
      vertex 156 190 0
      vertex 156.8 200 0
      vertex 156.8 190 0
    endloop
  endfacet
  facet normal -0 0 -1
    outer loop
      vertex 156.8 200 0
      vertex 156 190 0
      vertex 156 200 0
    endloop
  endfacet
  facet normal 0 -1 0
    outer loop
      vertex 156 190 0
      vertex 156.8 190 0.0999994
      vertex 156 190 0.0999994
    endloop
  endfacet
  facet normal 0 -1 -0
    outer loop
      vertex 156.8 190 0.0999994
      vertex 156 190 0
      vertex 156.8 190 0
    endloop
  endfacet
  facet normal -1 0 0
    outer loop
      vertex 157 190 0
      vertex 157 200 0.0999994
      vertex 157 200 0
    endloop
  endfacet
  facet normal -1 -0 0
    outer loop
      vertex 157 200 0.0999994
      vertex 157 190 0
      vertex 157 190 0.0999994
    endloop
  endfacet
  facet normal -0 0 1
    outer loop
      vertex 157 200 0.0999994
      vertex 157.8 190 0.0999994
      vertex 157.8 200 0.0999994
    endloop
  endfacet
  facet normal 0 0 1
    outer loop
      vertex 157.8 190 0.0999994
      vertex 157 200 0.0999994
      vertex 157 190 0.0999994
    endloop
  endfacet
  facet normal 1 -0 0
    outer loop
      vertex 157.8 190 0.0999994
      vertex 157.8 200 0
      vertex 157.8 200 0.0999994
    endloop
  endfacet
  facet normal 1 0 0
    outer loop
      vertex 157.8 200 0
      vertex 157.8 190 0.0999994
      vertex 157.8 190 0
    endloop
  endfacet
  facet normal 0 1 -0
    outer loop
      vertex 157.8 200 0
      vertex 157 200 0.0999994
      vertex 157.8 200 0.0999994
    endloop
  endfacet
  facet normal 0 1 0
    outer loop
      vertex 157 200 0.0999994
      vertex 157.8 200 0
      vertex 157 200 0
    endloop
  endfacet
  facet normal 0 0 -1
    outer loop
      vertex 157 190 0
      vertex 157.8 200 0
      vertex 157.8 190 0
    endloop
  endfacet
  facet normal -0 0 -1
    outer loop
      vertex 157.8 200 0
      vertex 157 190 0
      vertex 157 200 0
    endloop
  endfacet
  facet normal 0 -1 0
    outer loop
      vertex 157 190 0
      vertex 157.8 190 0.0999994
      vertex 157 190 0.0999994
    endloop
  endfacet
  facet normal 0 -1 -0
    outer loop
      vertex 157.8 190 0.0999994
      vertex 157 190 0
      vertex 157.8 190 0
    endloop
  endfacet
  facet normal -1 0 0
    outer loop
      vertex 158 190 0
      vertex 158 200 0.0999994
      vertex 158 200 0
    endloop
  endfacet
  facet normal -1 -0 0
    outer loop
      vertex 158 200 0.0999994
      vertex 158 190 0
      vertex 158 190 0.0999994
    endloop
  endfacet
  facet normal -0 0 1
    outer loop
      vertex 158 200 0.0999994
      vertex 158.8 190 0.0999994
      vertex 158.8 200 0.0999994
    endloop
  endfacet
  facet normal 0 0 1
    outer loop
      vertex 158.8 190 0.0999994
      vertex 158 200 0.0999994
      vertex 158 190 0.0999994
    endloop
  endfacet
  facet normal 1 -0 0
    outer loop
      vertex 158.8 190 0.0999994
      vertex 158.8 200 0
      vertex 158.8 200 0.0999994
    endloop
  endfacet
  facet normal 1 0 0
    outer loop
      vertex 158.8 200 0
      vertex 158.8 190 0.0999994
      vertex 158.8 190 0
    endloop
  endfacet
  facet normal 0 1 -0
    outer loop
      vertex 158.8 200 0
      vertex 158 200 0.0999994
      vertex 158.8 200 0.0999994
    endloop
  endfacet
  facet normal 0 1 0
    outer loop
      vertex 158 200 0.0999994
      vertex 158.8 200 0
      vertex 158 200 0
    endloop
  endfacet
  facet normal 0 0 -1
    outer loop
      vertex 158 190 0
      vertex 158.8 200 0
      vertex 158.8 190 0
    endloop
  endfacet
  facet normal -0 0 -1
    outer loop
      vertex 158.8 200 0
      vertex 158 190 0
      vertex 158 200 0
    endloop
  endfacet
  facet normal 0 -1 0
    outer loop
      vertex 158 190 0
      vertex 158.8 190 0.0999994
      vertex 158 190 0.0999994
    endloop
  endfacet
  facet normal 0 -1 -0
    outer loop
      vertex 158.8 190 0.0999994
      vertex 158 190 0
      vertex 158.8 190 0
    endloop
  endfacet
  facet normal -1 0 0
    outer loop
      vertex 159 190 0
      vertex 159 200 0.0999994
      vertex 159 200 0
    endloop
  endfacet
  facet normal -1 -0 0
    outer loop
      vertex 159 200 0.0999994
      vertex 159 190 0
      vertex 159 190 0.0999994
    endloop
  endfacet
  facet normal -0 0 1
    outer loop
      vertex 159 200 0.0999994
      vertex 159.8 190 0.0999994
      vertex 159.8 200 0.0999994
    endloop
  endfacet
  facet normal 0 0 1
    outer loop
      vertex 159.8 190 0.0999994
      vertex 159 200 0.0999994
      vertex 159 190 0.0999994
    endloop
  endfacet
  facet normal 1 -0 0
    outer loop
      vertex 159.8 190 0.0999994
      vertex 159.8 200 0
      vertex 159.8 200 0.0999994
    endloop
  endfacet
  facet normal 1 0 0
    outer loop
      vertex 159.8 200 0
      vertex 159.8 190 0.0999994
      vertex 159.8 190 0
    endloop
  endfacet
  facet normal 0 0 -1
    outer loop
      vertex 159 190 0
      vertex 159.8 200 0
      vertex 159.8 190 0
    endloop
  endfacet
  facet normal -0 0 -1
    outer loop
      vertex 159.8 200 0
      vertex 159 190 0
      vertex 159 200 0
    endloop
  endfacet
  facet normal 0 -1 0
    outer loop
      vertex 159 190 0
      vertex 159.8 190 0.0999994
      vertex 159 190 0.0999994
    endloop
  endfacet
  facet normal 0 -1 -0
    outer loop
      vertex 159.8 190 0.0999994
      vertex 159 190 0
      vertex 159.8 190 0
    endloop
  endfacet
  facet normal 0 1 -0
    outer loop
      vertex 159.8 200 0
      vertex 159 200 0.0999994
      vertex 159.8 200 0.0999994
    endloop
  endfacet
  facet normal 0 1 0
    outer loop
      vertex 159 200 0.0999994
      vertex 159.8 200 0
      vertex 159 200 0
    endloop
  endfacet
  facet normal -1 0 0
    outer loop
      vertex 160 190 0
      vertex 160 200 0.0999994
      vertex 160 200 0
    endloop
  endfacet
  facet normal -1 -0 0
    outer loop
      vertex 160 200 0.0999994
      vertex 160 190 0
      vertex 160 190 0.0999994
    endloop
  endfacet
  facet normal -0 0 1
    outer loop
      vertex 160 200 0.0999994
      vertex 160.8 190 0.0999994
      vertex 160.8 200 0.0999994
    endloop
  endfacet
  facet normal 0 0 1
    outer loop
      vertex 160.8 190 0.0999994
      vertex 160 200 0.0999994
      vertex 160 190 0.0999994
    endloop
  endfacet
  facet normal 1 -0 0
    outer loop
      vertex 160.8 190 0.0999994
      vertex 160.8 200 0
      vertex 160.8 200 0.0999994
    endloop
  endfacet
  facet normal 1 0 0
    outer loop
      vertex 160.8 200 0
      vertex 160.8 190 0.0999994
      vertex 160.8 190 0
    endloop
  endfacet
  facet normal 0 1 -0
    outer loop
      vertex 160.8 200 0
      vertex 160 200 0.0999994
      vertex 160.8 200 0.0999994
    endloop
  endfacet
  facet normal 0 1 0
    outer loop
      vertex 160 200 0.0999994
      vertex 160.8 200 0
      vertex 160 200 0
    endloop
  endfacet
  facet normal 0 0 -1
    outer loop
      vertex 160 190 0
      vertex 160.8 200 0
      vertex 160.8 190 0
    endloop
  endfacet
  facet normal -0 0 -1
    outer loop
      vertex 160.8 200 0
      vertex 160 190 0
      vertex 160 200 0
    endloop
  endfacet
  facet normal 0 -1 0
    outer loop
      vertex 160 190 0
      vertex 160.8 190 0.0999994
      vertex 160 190 0.0999994
    endloop
  endfacet
  facet normal 0 -1 -0
    outer loop
      vertex 160.8 190 0.0999994
      vertex 160 190 0
      vertex 160.8 190 0
    endloop
  endfacet
endsolid OpenSCAD_Model
