solid OpenSCAD_Model
  facet normal 0 -0 -1
    outer loop
      vertex 297 152.497 0
      vertex 297 142.456 0
      vertex 247 142.456 0
    endloop
  endfacet
  facet normal -0 0 -1
    outer loop
      vertex 297 152.497 0
      vertex 247 142.456 0
      vertex 247 152.497 0
    endloop
  endfacet
  facet normal 0 0 1
    outer loop
      vertex 247 142.456 0.2
      vertex 297 142.456 0.2
      vertex 297 152.497 0.2
    endloop
  endfacet
  facet normal -0 0 1
    outer loop
      vertex 247 152.497 0.2
      vertex 247 142.456 0.2
      vertex 297 152.497 0.2
    endloop
  endfacet
  facet normal 1 0 0
    outer loop
      vertex 297 152.497 0
      vertex 297 142.456 0.2
      vertex 297 142.456 0
    endloop
  endfacet
  facet normal 1 0 -0
    outer loop
      vertex 297 152.497 0
      vertex 297 152.497 0.2
      vertex 297 142.456 0.2
    endloop
  endfacet
  facet normal 0 1 0
    outer loop
      vertex 247 152.497 0
      vertex 297 152.497 0.2
      vertex 297 152.497 0
    endloop
  endfacet
  facet normal 0 1 0
    outer loop
      vertex 247 152.497 0
      vertex 247 152.497 0.2
      vertex 297 152.497 0.2
    endloop
  endfacet
  facet normal -1 0 0
    outer loop
      vertex 247 142.456 0
      vertex 247 152.497 0.2
      vertex 247 152.497 0
    endloop
  endfacet
  facet normal -1 0 0
    outer loop
      vertex 247 142.456 0
      vertex 247 142.456 0.2
      vertex 247 152.497 0.2
    endloop
  endfacet
  facet normal 0 -1 0
    outer loop
      vertex 297 142.456 0
      vertex 247 142.456 0.2
      vertex 247 142.456 0
    endloop
  endfacet
  facet normal 0 -1 0
    outer loop
      vertex 297 142.456 0
      vertex 297 142.456 0.2
      vertex 247 142.456 0.2
    endloop
  endfacet
endsolid OpenSCAD_Model
